  0
SECTION
  2
BLOCKS
  0
ENDSEC
  0
SECTION
  2
ENTITIES
  0
LINE
  8
0
 10
-46
 11
-46
 20
0
 21
110.39
  0
LINE
  8
0
 10
-46
 11
-45.76
 20
110.39
 21
112.677
  0
LINE
  8
0
 10
-45.76
 11
-45.049
 20
112.677
 21
114.864
  0
LINE
  8
0
 10
-45.049
 11
-43.899
 20
114.864
 21
116.856
  0
LINE
  8
0
 10
-43.899
 11
-42.36
 20
116.856
 21
118.565
  0
LINE
  8
0
 10
-42.36
 11
-40.5
 20
118.565
 21
119.916
  0
LINE
  8
0
 10
-40.5
 11
-38.399
 20
119.916
 21
120.852
  0
LINE
  8
0
 10
-38.399
 11
-36.15
 20
120.852
 21
121.33
  0
LINE
  8
0
 10
-36.15
 11
36.15
 20
121.33
 21
121.33
  0
LINE
  8
0
 10
36.15
 11
38.399
 20
121.33
 21
120.852
  0
LINE
  8
0
 10
38.399
 11
40.5
 20
120.852
 21
119.916
  0
LINE
  8
0
 10
40.5
 11
42.36
 20
119.916
 21
118.565
  0
LINE
  8
0
 10
42.36
 11
43.899
 20
118.565
 21
116.856
  0
LINE
  8
0
 10
43.899
 11
45.049
 20
116.856
 21
114.864
  0
LINE
  8
0
 10
45.049
 11
45.76
 20
114.864
 21
112.677
  0
LINE
  8
0
 10
45.76
 11
46
 20
112.677
 21
110.39
  0
LINE
  8
0
 10
46
 11
46
 20
110.39
 21
0
  0
LINE
  8
0
 10
46
 11
45.76
 20
0
 21
-2.287
  0
LINE
  8
0
 10
45.76
 11
45.049
 20
-2.287
 21
-4.474
  0
LINE
  8
0
 10
45.049
 11
43.899
 20
-4.474
 21
-6.466
  0
LINE
  8
0
 10
43.899
 11
42.36
 20
-6.466
 21
-8.175
  0
LINE
  8
0
 10
42.36
 11
40.5
 20
-8.175
 21
-9.526
  0
LINE
  8
0
 10
40.5
 11
38.399
 20
-9.526
 21
-10.462
  0
LINE
  8
0
 10
38.399
 11
36.15
 20
-10.462
 21
-10.94
  0
LINE
  8
0
 10
36.15
 11
-36.15
 20
-10.94
 21
-10.94
  0
LINE
  8
0
 10
-36.15
 11
-38.399
 20
-10.94
 21
-10.462
  0
LINE
  8
0
 10
-38.399
 11
-40.5
 20
-10.462
 21
-9.526
  0
LINE
  8
0
 10
-40.5
 11
-42.36
 20
-9.526
 21
-8.175
  0
LINE
  8
0
 10
-42.36
 11
-43.899
 20
-8.175
 21
-6.466
  0
LINE
  8
0
 10
-43.899
 11
-45.049
 20
-6.466
 21
-4.474
  0
LINE
  8
0
 10
-45.049
 11
-45.76
 20
-4.474
 21
-2.287
  0
LINE
  8
0
 10
-45.76
 11
-46
 20
-2.287
 21
0
  0
LINE
  8
0
 10
-41.599
 11
-41.599
 20
54.931
 21
55.459
  0
LINE
  8
0
 10
-41.599
 11
-41.493
 20
55.459
 21
55.977
  0
LINE
  8
0
 10
-41.493
 11
-41.285
 20
55.977
 21
56.463
  0
LINE
  8
0
 10
-41.285
 11
-40.983
 20
56.463
 21
56.897
  0
LINE
  8
0
 10
-40.983
 11
-40.599
 20
56.897
 21
57.261
  0
LINE
  8
0
 10
-40.599
 11
-40.151
 20
57.261
 21
57.541
  0
LINE
  8
0
 10
-40.151
 11
-39.655
 20
57.541
 21
57.724
  0
LINE
  8
0
 10
-39.655
 11
-39.132
 20
57.724
 21
57.805
  0
LINE
  8
0
 10
-39.132
 11
-38.604
 20
57.805
 21
57.778
  0
LINE
  8
0
 10
-38.604
 11
-38.093
 20
57.778
 21
57.645
  0
LINE
  8
0
 10
-38.093
 11
-37.618
 20
57.645
 21
57.412
  0
LINE
  8
0
 10
-37.618
 11
-37.2
 20
57.412
 21
57.089
  0
LINE
  8
0
 10
-37.2
 11
-36.855
 20
57.089
 21
56.688
  0
LINE
  8
0
 10
-36.855
 11
-36.599
 20
56.688
 21
56.225
  0
LINE
  8
0
 10
-36.599
 11
-36.441
 20
56.225
 21
55.721
  0
LINE
  8
0
 10
-36.441
 11
-36.387
 20
55.721
 21
55.195
  0
LINE
  8
0
 10
-36.387
 11
-36.441
 20
55.195
 21
54.669
  0
LINE
  8
0
 10
-36.441
 11
-36.599
 20
54.669
 21
54.165
  0
LINE
  8
0
 10
-36.599
 11
-36.855
 20
54.165
 21
53.702
  0
LINE
  8
0
 10
-36.855
 11
-37.2
 20
53.702
 21
53.301
  0
LINE
  8
0
 10
-37.2
 11
-37.618
 20
53.301
 21
52.978
  0
LINE
  8
0
 10
-37.618
 11
-38.093
 20
52.978
 21
52.745
  0
LINE
  8
0
 10
-38.093
 11
-38.604
 20
52.745
 21
52.612
  0
LINE
  8
0
 10
-38.604
 11
-39.132
 20
52.612
 21
52.585
  0
LINE
  8
0
 10
-39.132
 11
-39.655
 20
52.585
 21
52.666
  0
LINE
  8
0
 10
-39.655
 11
-40.151
 20
52.666
 21
52.849
  0
LINE
  8
0
 10
-40.151
 11
-40.599
 20
52.849
 21
53.129
  0
LINE
  8
0
 10
-40.599
 11
-40.983
 20
53.129
 21
53.493
  0
LINE
  8
0
 10
-40.983
 11
-41.285
 20
53.493
 21
53.927
  0
LINE
  8
0
 10
-41.285
 11
-41.493
 20
53.927
 21
54.413
  0
LINE
  8
0
 10
-41.493
 11
-41.599
 20
54.413
 21
54.931
  0
LINE
  8
0
 10
-38.65
 11
-38.65
 20
110.135
 21
110.645
  0
LINE
  8
0
 10
-38.65
 11
-38.579
 20
110.645
 21
111.151
  0
LINE
  8
0
 10
-38.579
 11
-38.438
 20
111.151
 21
111.641
  0
LINE
  8
0
 10
-38.438
 11
-38.23
 20
111.641
 21
112.108
  0
LINE
  8
0
 10
-38.23
 11
-37.96
 20
112.108
 21
112.541
  0
LINE
  8
0
 10
-37.96
 11
-37.632
 20
112.541
 21
112.932
  0
LINE
  8
0
 10
-37.632
 11
-37.253
 20
112.932
 21
113.273
  0
LINE
  8
0
 10
-37.253
 11
-36.829
 20
113.273
 21
113.559
  0
LINE
  8
0
 10
-36.829
 11
-36.371
 20
113.559
 21
113.782
  0
LINE
  8
0
 10
-36.371
 11
-35.885
 20
113.782
 21
113.94
  0
LINE
  8
0
 10
-35.885
 11
-35.382
 20
113.94
 21
114.029
  0
LINE
  8
0
 10
-35.382
 11
-34.872
 20
114.029
 21
114.046
  0
LINE
  8
0
 10
-34.872
 11
-34.365
 20
114.046
 21
113.993
  0
LINE
  8
0
 10
-34.365
 11
-33.869
 20
113.993
 21
113.87
  0
LINE
  8
0
 10
-33.869
 11
-33.396
 20
113.87
 21
113.678
  0
LINE
  8
0
 10
-33.396
 11
-32.954
 20
113.678
 21
113.423
  0
LINE
  8
0
 10
-32.954
 11
-32.552
 20
113.423
 21
113.109
  0
LINE
  8
0
 10
-32.552
 11
-32.197
 20
113.109
 21
112.742
  0
LINE
  8
0
 10
-32.197
 11
-31.897
 20
112.742
 21
112.329
  0
LINE
  8
0
 10
-31.897
 11
-31.658
 20
112.329
 21
111.878
  0
LINE
  8
0
 10
-31.658
 11
-31.483
 20
111.878
 21
111.398
  0
LINE
  8
0
 10
-31.483
 11
-31.377
 20
111.398
 21
110.899
  0
LINE
  8
0
 10
-31.377
 11
-31.341
 20
110.899
 21
110.39
  0
LINE
  8
0
 10
-31.341
 11
-31.377
 20
110.39
 21
109.881
  0
LINE
  8
0
 10
-31.377
 11
-31.483
 20
109.881
 21
109.382
  0
LINE
  8
0
 10
-31.483
 11
-31.658
 20
109.382
 21
108.902
  0
LINE
  8
0
 10
-31.658
 11
-31.897
 20
108.902
 21
108.451
  0
LINE
  8
0
 10
-31.897
 11
-32.197
 20
108.451
 21
108.038
  0
LINE
  8
0
 10
-32.197
 11
-32.552
 20
108.038
 21
107.671
  0
LINE
  8
0
 10
-32.552
 11
-32.954
 20
107.671
 21
107.357
  0
LINE
  8
0
 10
-32.954
 11
-33.396
 20
107.357
 21
107.102
  0
LINE
  8
0
 10
-33.396
 11
-33.869
 20
107.102
 21
106.91
  0
LINE
  8
0
 10
-33.869
 11
-34.365
 20
106.91
 21
106.787
  0
LINE
  8
0
 10
-34.365
 11
-34.872
 20
106.787
 21
106.734
  0
LINE
  8
0
 10
-34.872
 11
-35.382
 20
106.734
 21
106.751
  0
LINE
  8
0
 10
-35.382
 11
-35.885
 20
106.751
 21
106.84
  0
LINE
  8
0
 10
-35.885
 11
-36.371
 20
106.84
 21
106.998
  0
LINE
  8
0
 10
-36.371
 11
-36.829
 20
106.998
 21
107.221
  0
LINE
  8
0
 10
-36.829
 11
-37.253
 20
107.221
 21
107.507
  0
LINE
  8
0
 10
-37.253
 11
-37.632
 20
107.507
 21
107.848
  0
LINE
  8
0
 10
-37.632
 11
-37.96
 20
107.848
 21
108.239
  0
LINE
  8
0
 10
-37.96
 11
-38.23
 20
108.239
 21
108.672
  0
LINE
  8
0
 10
-38.23
 11
-38.438
 20
108.672
 21
109.139
  0
LINE
  8
0
 10
-38.438
 11
-38.579
 20
109.139
 21
109.629
  0
LINE
  8
0
 10
-38.579
 11
-38.65
 20
109.629
 21
110.135
  0
LINE
  8
0
 10
-37.599
 11
-37.599
 20
-0.264
 21
0.264
  0
LINE
  8
0
 10
-37.599
 11
-37.493
 20
0.264
 21
0.782
  0
LINE
  8
0
 10
-37.493
 11
-37.285
 20
0.782
 21
1.268
  0
LINE
  8
0
 10
-37.285
 11
-36.983
 20
1.268
 21
1.702
  0
LINE
  8
0
 10
-36.983
 11
-36.599
 20
1.702
 21
2.066
  0
LINE
  8
0
 10
-36.599
 11
-36.151
 20
2.066
 21
2.346
  0
LINE
  8
0
 10
-36.151
 11
-35.655
 20
2.346
 21
2.529
  0
LINE
  8
0
 10
-35.655
 11
-35.132
 20
2.529
 21
2.61
  0
LINE
  8
0
 10
-35.132
 11
-34.604
 20
2.61
 21
2.583
  0
LINE
  8
0
 10
-34.604
 11
-34.093
 20
2.583
 21
2.45
  0
LINE
  8
0
 10
-34.093
 11
-33.618
 20
2.45
 21
2.217
  0
LINE
  8
0
 10
-33.618
 11
-33.2
 20
2.217
 21
1.894
  0
LINE
  8
0
 10
-33.2
 11
-32.855
 20
1.894
 21
1.493
  0
LINE
  8
0
 10
-32.855
 11
-32.599
 20
1.493
 21
1.03
  0
LINE
  8
0
 10
-32.599
 11
-32.441
 20
1.03
 21
0.526
  0
LINE
  8
0
 10
-32.441
 11
-32.387
 20
0.526
 21
0
  0
LINE
  8
0
 10
-32.387
 11
-32.441
 20
0
 21
-0.526
  0
LINE
  8
0
 10
-32.441
 11
-32.599
 20
-0.526
 21
-1.03
  0
LINE
  8
0
 10
-32.599
 11
-32.855
 20
-1.03
 21
-1.493
  0
LINE
  8
0
 10
-32.855
 11
-33.2
 20
-1.493
 21
-1.894
  0
LINE
  8
0
 10
-33.2
 11
-33.618
 20
-1.894
 21
-2.217
  0
LINE
  8
0
 10
-33.618
 11
-34.093
 20
-2.217
 21
-2.45
  0
LINE
  8
0
 10
-34.093
 11
-34.604
 20
-2.45
 21
-2.583
  0
LINE
  8
0
 10
-34.604
 11
-35.132
 20
-2.583
 21
-2.61
  0
LINE
  8
0
 10
-35.132
 11
-35.655
 20
-2.61
 21
-2.529
  0
LINE
  8
0
 10
-35.655
 11
-36.151
 20
-2.529
 21
-2.346
  0
LINE
  8
0
 10
-36.151
 11
-36.599
 20
-2.346
 21
-2.066
  0
LINE
  8
0
 10
-36.599
 11
-36.983
 20
-2.066
 21
-1.702
  0
LINE
  8
0
 10
-36.983
 11
-37.285
 20
-1.702
 21
-1.268
  0
LINE
  8
0
 10
-37.285
 11
-37.493
 20
-1.268
 21
-0.782
  0
LINE
  8
0
 10
-37.493
 11
-37.599
 20
-0.782
 21
-0.264
  0
LINE
  8
0
 10
-32.613
 11
-32.559
 20
29.195
 21
29.721
  0
LINE
  8
0
 10
-32.559
 11
-32.401
 20
29.721
 21
30.225
  0
LINE
  8
0
 10
-32.401
 11
-32.145
 20
30.225
 21
30.688
  0
LINE
  8
0
 10
-32.145
 11
-31.8
 20
30.688
 21
31.089
  0
LINE
  8
0
 10
-31.8
 11
-31.382
 20
31.089
 21
31.412
  0
LINE
  8
0
 10
-31.382
 11
-30.907
 20
31.412
 21
31.645
  0
LINE
  8
0
 10
-30.907
 11
-30.396
 20
31.645
 21
31.778
  0
LINE
  8
0
 10
-30.396
 11
-29.868
 20
31.778
 21
31.805
  0
LINE
  8
0
 10
-29.868
 11
-29.345
 20
31.805
 21
31.724
  0
LINE
  8
0
 10
-29.345
 11
-28.849
 20
31.724
 21
31.541
  0
LINE
  8
0
 10
-28.849
 11
-28.401
 20
31.541
 21
31.261
  0
LINE
  8
0
 10
-28.401
 11
-28.017
 20
31.261
 21
30.897
  0
LINE
  8
0
 10
-28.017
 11
-27.715
 20
30.897
 21
30.463
  0
LINE
  8
0
 10
-27.715
 11
-27.507
 20
30.463
 21
29.977
  0
LINE
  8
0
 10
-27.507
 11
-27.401
 20
29.977
 21
29.459
  0
LINE
  8
0
 10
-27.401
 11
-27.401
 20
29.459
 21
28.931
  0
LINE
  8
0
 10
-27.401
 11
-27.507
 20
28.931
 21
28.413
  0
LINE
  8
0
 10
-27.507
 11
-27.715
 20
28.413
 21
27.927
  0
LINE
  8
0
 10
-27.715
 11
-28.017
 20
27.927
 21
27.493
  0
LINE
  8
0
 10
-28.017
 11
-28.401
 20
27.493
 21
27.129
  0
LINE
  8
0
 10
-28.401
 11
-28.849
 20
27.129
 21
26.849
  0
LINE
  8
0
 10
-28.849
 11
-29.345
 20
26.849
 21
26.666
  0
LINE
  8
0
 10
-29.345
 11
-29.868
 20
26.666
 21
26.585
  0
LINE
  8
0
 10
-29.868
 11
-30.396
 20
26.585
 21
26.612
  0
LINE
  8
0
 10
-30.396
 11
-30.907
 20
26.612
 21
26.745
  0
LINE
  8
0
 10
-30.907
 11
-31.382
 20
26.745
 21
26.978
  0
LINE
  8
0
 10
-31.382
 11
-31.8
 20
26.978
 21
27.301
  0
LINE
  8
0
 10
-31.8
 11
-32.145
 20
27.301
 21
27.702
  0
LINE
  8
0
 10
-32.145
 11
-32.401
 20
27.702
 21
28.165
  0
LINE
  8
0
 10
-32.401
 11
-32.559
 20
28.165
 21
28.669
  0
LINE
  8
0
 10
-32.559
 11
-32.613
 20
28.669
 21
29.195
  0
LINE
  8
0
 10
-32.613
 11
-32.559
 20
78.195
 21
78.721
  0
LINE
  8
0
 10
-32.559
 11
-32.401
 20
78.721
 21
79.225
  0
LINE
  8
0
 10
-32.401
 11
-32.145
 20
79.225
 21
79.688
  0
LINE
  8
0
 10
-32.145
 11
-31.8
 20
79.688
 21
80.089
  0
LINE
  8
0
 10
-31.8
 11
-31.382
 20
80.089
 21
80.412
  0
LINE
  8
0
 10
-31.382
 11
-30.907
 20
80.412
 21
80.645
  0
LINE
  8
0
 10
-30.907
 11
-30.396
 20
80.645
 21
80.778
  0
LINE
  8
0
 10
-30.396
 11
-29.868
 20
80.778
 21
80.805
  0
LINE
  8
0
 10
-29.868
 11
-29.345
 20
80.805
 21
80.724
  0
LINE
  8
0
 10
-29.345
 11
-28.849
 20
80.724
 21
80.541
  0
LINE
  8
0
 10
-28.849
 11
-28.401
 20
80.541
 21
80.261
  0
LINE
  8
0
 10
-28.401
 11
-28.017
 20
80.261
 21
79.897
  0
LINE
  8
0
 10
-28.017
 11
-27.715
 20
79.897
 21
79.463
  0
LINE
  8
0
 10
-27.715
 11
-27.507
 20
79.463
 21
78.977
  0
LINE
  8
0
 10
-27.507
 11
-27.401
 20
78.977
 21
78.459
  0
LINE
  8
0
 10
-27.401
 11
-27.401
 20
78.459
 21
77.931
  0
LINE
  8
0
 10
-27.401
 11
-27.507
 20
77.931
 21
77.413
  0
LINE
  8
0
 10
-27.507
 11
-27.715
 20
77.413
 21
76.927
  0
LINE
  8
0
 10
-27.715
 11
-28.017
 20
76.927
 21
76.493
  0
LINE
  8
0
 10
-28.017
 11
-28.401
 20
76.493
 21
76.129
  0
LINE
  8
0
 10
-28.401
 11
-28.849
 20
76.129
 21
75.849
  0
LINE
  8
0
 10
-28.849
 11
-29.345
 20
75.849
 21
75.666
  0
LINE
  8
0
 10
-29.345
 11
-29.868
 20
75.666
 21
75.585
  0
LINE
  8
0
 10
-29.868
 11
-30.396
 20
75.585
 21
75.612
  0
LINE
  8
0
 10
-30.396
 11
-30.907
 20
75.612
 21
75.745
  0
LINE
  8
0
 10
-30.907
 11
-31.382
 20
75.745
 21
75.978
  0
LINE
  8
0
 10
-31.382
 11
-31.8
 20
75.978
 21
76.301
  0
LINE
  8
0
 10
-31.8
 11
-32.145
 20
76.301
 21
76.702
  0
LINE
  8
0
 10
-32.145
 11
-32.401
 20
76.702
 21
77.165
  0
LINE
  8
0
 10
-32.401
 11
-32.559
 20
77.165
 21
77.669
  0
LINE
  8
0
 10
-32.559
 11
-32.613
 20
77.669
 21
78.195
  0
LINE
  8
0
 10
-29.983
 11
-29.983
 20
54.93
 21
55.46
  0
LINE
  8
0
 10
-29.983
 11
-29.851
 20
55.46
 21
55.974
  0
LINE
  8
0
 10
-29.851
 11
-29.596
 20
55.974
 21
56.439
  0
LINE
  8
0
 10
-29.596
 11
-29.233
 20
56.439
 21
56.825
  0
LINE
  8
0
 10
-29.233
 11
-28.785
 20
56.825
 21
57.11
  0
LINE
  8
0
 10
-28.785
 11
-28.281
 20
57.11
 21
57.273
  0
LINE
  8
0
 10
-28.281
 11
-27.884
 20
57.273
 21
57.298
  0
LINE
  8
0
 10
-27.884
 11
-27.884
 20
57.298
 21
57.311
  0
LINE
  8
0
 10
-27.884
 11
-22.116
 20
57.311
 21
57.311
  0
LINE
  8
0
 10
-22.116
 11
-22.116
 20
57.311
 21
57.298
  0
LINE
  8
0
 10
-22.116
 11
-21.983
 20
57.298
 21
57.307
  0
LINE
  8
0
 10
-21.983
 11
-21.462
 20
57.307
 21
57.207
  0
LINE
  8
0
 10
-21.462
 11
-20.982
 20
57.207
 21
56.982
  0
LINE
  8
0
 10
-20.982
 11
-20.573
 20
56.982
 21
56.643
  0
LINE
  8
0
 10
-20.573
 11
-20.262
 20
56.643
 21
56.214
  0
LINE
  8
0
 10
-20.262
 11
-20.066
 20
56.214
 21
55.721
  0
LINE
  8
0
 10
-20.066
 11
-20
 20
55.721
 21
55.195
  0
LINE
  8
0
 10
-20
 11
-20.066
 20
55.195
 21
54.669
  0
LINE
  8
0
 10
-20.066
 11
-20.262
 20
54.669
 21
54.176
  0
LINE
  8
0
 10
-20.262
 11
-20.573
 20
54.176
 21
53.747
  0
LINE
  8
0
 10
-20.573
 11
-20.982
 20
53.747
 21
53.408
  0
LINE
  8
0
 10
-20.982
 11
-21.462
 20
53.408
 21
53.183
  0
LINE
  8
0
 10
-21.462
 11
-21.983
 20
53.183
 21
53.083
  0
LINE
  8
0
 10
-21.983
 11
-22.116
 20
53.083
 21
53.092
  0
LINE
  8
0
 10
-22.116
 11
-22.116
 20
53.092
 21
53.079
  0
LINE
  8
0
 10
-22.116
 11
-27.884
 20
53.079
 21
53.079
  0
LINE
  8
0
 10
-27.884
 11
-27.884
 20
53.079
 21
53.092
  0
LINE
  8
0
 10
-27.884
 11
-28.281
 20
53.092
 21
53.117
  0
LINE
  8
0
 10
-28.281
 11
-28.785
 20
53.117
 21
53.28
  0
LINE
  8
0
 10
-28.785
 11
-29.233
 20
53.28
 21
53.565
  0
LINE
  8
0
 10
-29.233
 11
-29.596
 20
53.565
 21
53.951
  0
LINE
  8
0
 10
-29.596
 11
-29.851
 20
53.951
 21
54.416
  0
LINE
  8
0
 10
-29.851
 11
-29.983
 20
54.416
 21
54.93
  0
LINE
  8
0
 10
-9.1
 11
-9.1
 20
54.942
 21
55.448
  0
LINE
  8
0
 10
-9.1
 11
-9.072
 20
55.448
 21
55.953
  0
LINE
  8
0
 10
-9.072
 11
-9.016
 20
55.953
 21
56.456
  0
LINE
  8
0
 10
-9.016
 11
-8.932
 20
56.456
 21
56.955
  0
LINE
  8
0
 10
-8.932
 11
-8.82
 20
56.955
 21
57.449
  0
LINE
  8
0
 10
-8.82
 11
-8.681
 20
57.449
 21
57.936
  0
LINE
  8
0
 10
-8.681
 11
-8.515
 20
57.936
 21
58.414
  0
LINE
  8
0
 10
-8.515
 11
-8.323
 20
58.414
 21
58.882
  0
LINE
  8
0
 10
-8.323
 11
-8.106
 20
58.882
 21
59.339
  0
LINE
  8
0
 10
-8.106
 11
-7.863
 20
59.339
 21
59.783
  0
LINE
  8
0
 10
-7.863
 11
-7.596
 20
59.783
 21
60.213
  0
LINE
  8
0
 10
-7.596
 11
-7.305
 20
60.213
 21
60.627
  0
LINE
  8
0
 10
-7.305
 11
-6.992
 20
60.627
 21
61.025
  0
LINE
  8
0
 10
-6.992
 11
-6.657
 20
61.025
 21
61.405
  0
LINE
  8
0
 10
-6.657
 11
-6.302
 20
61.405
 21
61.765
  0
LINE
  8
0
 10
-6.302
 11
-5.927
 20
61.765
 21
62.105
  0
LINE
  8
0
 10
-5.927
 11
-5.533
 20
62.105
 21
62.424
  0
LINE
  8
0
 10
-5.533
 11
-5.123
 20
62.424
 21
62.72
  0
LINE
  8
0
 10
-5.123
 11
-4.697
 20
62.72
 21
62.993
  0
LINE
  8
0
 10
-4.697
 11
-4.256
 20
62.993
 21
63.242
  0
LINE
  8
0
 10
-4.256
 11
-3.803
 20
63.242
 21
63.466
  0
LINE
  8
0
 10
-3.803
 11
-3.337
 20
63.466
 21
63.665
  0
LINE
  8
0
 10
-3.337
 11
-2.861
 20
63.665
 21
63.837
  0
LINE
  8
0
 10
-2.861
 11
-2.377
 20
63.837
 21
63.983
  0
LINE
  8
0
 10
-2.377
 11
-1.884
 20
63.983
 21
64.101
  0
LINE
  8
0
 10
-1.884
 11
-1.387
 20
64.101
 21
64.192
  0
LINE
  8
0
 10
-1.387
 11
-0.884
 20
64.192
 21
64.255
  0
LINE
  8
0
 10
-0.884
 11
-0.38
 20
64.255
 21
64.291
  0
LINE
  8
0
 10
-0.38
 11
0.127
 20
64.291
 21
64.298
  0
LINE
  8
0
 10
0.127
 11
0.632
 20
64.298
 21
64.276
  0
LINE
  8
0
 10
0.632
 11
1.136
 20
64.276
 21
64.227
  0
LINE
  8
0
 10
1.136
 11
1.636
 20
64.227
 21
64.15
  0
LINE
  8
0
 10
1.636
 11
2.131
 20
64.15
 21
64.045
  0
LINE
  8
0
 10
2.131
 11
2.62
 20
64.045
 21
63.913
  0
LINE
  8
0
 10
2.62
 11
3.1
 20
63.913
 21
63.754
  0
LINE
  8
0
 10
3.1
 11
3.571
 20
63.754
 21
63.569
  0
LINE
  8
0
 10
3.571
 11
4.031
 20
63.569
 21
63.357
  0
LINE
  8
0
 10
4.031
 11
4.478
 20
63.357
 21
63.121
  0
LINE
  8
0
 10
4.478
 11
4.912
 20
63.121
 21
62.86
  0
LINE
  8
0
 10
4.912
 11
5.33
 20
62.86
 21
62.575
  0
LINE
  8
0
 10
5.33
 11
5.732
 20
62.575
 21
62.267
  0
LINE
  8
0
 10
5.732
 11
6.116
 20
62.267
 21
61.938
  0
LINE
  8
0
 10
6.116
 11
6.482
 20
61.938
 21
61.587
  0
LINE
  8
0
 10
6.482
 11
6.827
 20
61.587
 21
61.217
  0
LINE
  8
0
 10
6.827
 11
7.151
 20
61.217
 21
60.828
  0
LINE
  8
0
 10
7.151
 11
7.453
 20
60.828
 21
60.422
  0
LINE
  8
0
 10
7.453
 11
7.732
 20
60.422
 21
60
  0
LINE
  8
0
 10
7.732
 11
7.987
 20
60
 21
59.563
  0
LINE
  8
0
 10
7.987
 11
8.218
 20
59.563
 21
59.112
  0
LINE
  8
0
 10
8.218
 11
8.423
 20
59.112
 21
58.65
  0
LINE
  8
0
 10
8.423
 11
8.602
 20
58.65
 21
58.176
  0
LINE
  8
0
 10
8.602
 11
8.754
 20
58.176
 21
57.693
  0
LINE
  8
0
 10
8.754
 11
8.879
 20
57.693
 21
57.203
  0
LINE
  8
0
 10
8.879
 11
8.977
 20
57.203
 21
56.707
  0
LINE
  8
0
 10
8.977
 11
9.047
 20
56.707
 21
56.205
  0
LINE
  8
0
 10
9.047
 11
9.089
 20
56.205
 21
55.701
  0
LINE
  8
0
 10
9.089
 11
9.103
 20
55.701
 21
55.195
  0
LINE
  8
0
 10
9.103
 11
9.089
 20
55.195
 21
54.689
  0
LINE
  8
0
 10
9.089
 11
9.047
 20
54.689
 21
54.185
  0
LINE
  8
0
 10
9.047
 11
8.977
 20
54.185
 21
53.683
  0
LINE
  8
0
 10
8.977
 11
8.879
 20
53.683
 21
53.187
  0
LINE
  8
0
 10
8.879
 11
8.754
 20
53.187
 21
52.697
  0
LINE
  8
0
 10
8.754
 11
8.602
 20
52.697
 21
52.214
  0
LINE
  8
0
 10
8.602
 11
8.423
 20
52.214
 21
51.74
  0
LINE
  8
0
 10
8.423
 11
8.218
 20
51.74
 21
51.278
  0
LINE
  8
0
 10
8.218
 11
7.987
 20
51.278
 21
50.827
  0
LINE
  8
0
 10
7.987
 11
7.732
 20
50.827
 21
50.39
  0
LINE
  8
0
 10
7.732
 11
7.453
 20
50.39
 21
49.968
  0
LINE
  8
0
 10
7.453
 11
7.151
 20
49.968
 21
49.562
  0
LINE
  8
0
 10
7.151
 11
6.827
 20
49.562
 21
49.173
  0
LINE
  8
0
 10
6.827
 11
6.482
 20
49.173
 21
48.803
  0
LINE
  8
0
 10
6.482
 11
6.116
 20
48.803
 21
48.452
  0
LINE
  8
0
 10
6.116
 11
5.732
 20
48.452
 21
48.123
  0
LINE
  8
0
 10
5.732
 11
5.33
 20
48.123
 21
47.815
  0
LINE
  8
0
 10
5.33
 11
4.912
 20
47.815
 21
47.53
  0
LINE
  8
0
 10
4.912
 11
4.478
 20
47.53
 21
47.269
  0
LINE
  8
0
 10
4.478
 11
4.031
 20
47.269
 21
47.033
  0
LINE
  8
0
 10
4.031
 11
3.571
 20
47.033
 21
46.821
  0
LINE
  8
0
 10
3.571
 11
3.1
 20
46.821
 21
46.636
  0
LINE
  8
0
 10
3.1
 11
2.62
 20
46.636
 21
46.477
  0
LINE
  8
0
 10
2.62
 11
2.131
 20
46.477
 21
46.345
  0
LINE
  8
0
 10
2.131
 11
1.636
 20
46.345
 21
46.24
  0
LINE
  8
0
 10
1.636
 11
1.136
 20
46.24
 21
46.163
  0
LINE
  8
0
 10
1.136
 11
0.632
 20
46.163
 21
46.114
  0
LINE
  8
0
 10
0.632
 11
0.127
 20
46.114
 21
46.092
  0
LINE
  8
0
 10
0.127
 11
-0.38
 20
46.092
 21
46.099
  0
LINE
  8
0
 10
-0.38
 11
-0.884
 20
46.099
 21
46.135
  0
LINE
  8
0
 10
-0.884
 11
-1.387
 20
46.135
 21
46.198
  0
LINE
  8
0
 10
-1.387
 11
-1.884
 20
46.198
 21
46.289
  0
LINE
  8
0
 10
-1.884
 11
-2.377
 20
46.289
 21
46.407
  0
LINE
  8
0
 10
-2.377
 11
-2.861
 20
46.407
 21
46.553
  0
LINE
  8
0
 10
-2.861
 11
-3.337
 20
46.553
 21
46.725
  0
LINE
  8
0
 10
-3.337
 11
-3.803
 20
46.725
 21
46.924
  0
LINE
  8
0
 10
-3.803
 11
-4.256
 20
46.924
 21
47.148
  0
LINE
  8
0
 10
-4.256
 11
-4.697
 20
47.148
 21
47.397
  0
LINE
  8
0
 10
-4.697
 11
-5.123
 20
47.397
 21
47.67
  0
LINE
  8
0
 10
-5.123
 11
-5.533
 20
47.67
 21
47.966
  0
LINE
  8
0
 10
-5.533
 11
-5.927
 20
47.966
 21
48.285
  0
LINE
  8
0
 10
-5.927
 11
-6.302
 20
48.285
 21
48.625
  0
LINE
  8
0
 10
-6.302
 11
-6.657
 20
48.625
 21
48.985
  0
LINE
  8
0
 10
-6.657
 11
-6.992
 20
48.985
 21
49.365
  0
LINE
  8
0
 10
-6.992
 11
-7.305
 20
49.365
 21
49.763
  0
LINE
  8
0
 10
-7.305
 11
-7.596
 20
49.763
 21
50.177
  0
LINE
  8
0
 10
-7.596
 11
-7.863
 20
50.177
 21
50.607
  0
LINE
  8
0
 10
-7.863
 11
-8.106
 20
50.607
 21
51.051
  0
LINE
  8
0
 10
-8.106
 11
-8.323
 20
51.051
 21
51.508
  0
LINE
  8
0
 10
-8.323
 11
-8.515
 20
51.508
 21
51.976
  0
LINE
  8
0
 10
-8.515
 11
-8.681
 20
51.976
 21
52.454
  0
LINE
  8
0
 10
-8.681
 11
-8.82
 20
52.454
 21
52.941
  0
LINE
  8
0
 10
-8.82
 11
-8.932
 20
52.941
 21
53.435
  0
LINE
  8
0
 10
-8.932
 11
-9.016
 20
53.435
 21
53.934
  0
LINE
  8
0
 10
-9.016
 11
-9.072
 20
53.934
 21
54.437
  0
LINE
  8
0
 10
-9.072
 11
-9.1
 20
54.437
 21
54.942
  0
LINE
  8
0
 10
-3.175
 11
-2.569
 20
0
 21
1.866
  0
LINE
  8
0
 10
-2.569
 11
-0.981
 20
1.866
 21
3.02
  0
LINE
  8
0
 10
-0.981
 11
0.981
 20
3.02
 21
3.02
  0
LINE
  8
0
 10
0.981
 11
2.569
 20
3.02
 21
1.866
  0
LINE
  8
0
 10
2.569
 11
3.175
 20
1.866
 21
0
  0
LINE
  8
0
 10
3.175
 11
2.569
 20
0
 21
-1.866
  0
LINE
  8
0
 10
2.569
 11
0.981
 20
-1.866
 21
-3.02
  0
LINE
  8
0
 10
0.981
 11
-0.981
 20
-3.02
 21
-3.02
  0
LINE
  8
0
 10
-0.981
 11
-2.569
 20
-3.02
 21
-1.866
  0
LINE
  8
0
 10
-2.569
 11
-3.175
 20
-1.866
 21
0
  0
LINE
  8
0
 10
-3.175
 11
-2.569
 20
110.39
 21
112.256
  0
LINE
  8
0
 10
-2.569
 11
-0.981
 20
112.256
 21
113.41
  0
LINE
  8
0
 10
-0.981
 11
0.981
 20
113.41
 21
113.41
  0
LINE
  8
0
 10
0.981
 11
2.569
 20
113.41
 21
112.256
  0
LINE
  8
0
 10
2.569
 11
3.175
 20
112.256
 21
110.39
  0
LINE
  8
0
 10
3.175
 11
2.569
 20
110.39
 21
108.524
  0
LINE
  8
0
 10
2.569
 11
0.981
 20
108.524
 21
107.37
  0
LINE
  8
0
 10
0.981
 11
-0.981
 20
107.37
 21
107.37
  0
LINE
  8
0
 10
-0.981
 11
-2.569
 20
107.37
 21
108.524
  0
LINE
  8
0
 10
-2.569
 11
-3.175
 20
108.524
 21
110.39
  0
LINE
  8
0
 10
20.017
 11
20.017
 20
54.93
 21
55.46
  0
LINE
  8
0
 10
20.017
 11
20.149
 20
55.46
 21
55.974
  0
LINE
  8
0
 10
20.149
 11
20.404
 20
55.974
 21
56.439
  0
LINE
  8
0
 10
20.404
 11
20.767
 20
56.439
 21
56.825
  0
LINE
  8
0
 10
20.767
 11
21.215
 20
56.825
 21
57.11
  0
LINE
  8
0
 10
21.215
 11
21.719
 20
57.11
 21
57.273
  0
LINE
  8
0
 10
21.719
 11
22.116
 20
57.273
 21
57.298
  0
LINE
  8
0
 10
22.116
 11
22.116
 20
57.298
 21
57.311
  0
LINE
  8
0
 10
22.116
 11
27.884
 20
57.311
 21
57.311
  0
LINE
  8
0
 10
27.884
 11
27.884
 20
57.311
 21
57.298
  0
LINE
  8
0
 10
27.884
 11
28.017
 20
57.298
 21
57.307
  0
LINE
  8
0
 10
28.017
 11
28.538
 20
57.307
 21
57.207
  0
LINE
  8
0
 10
28.538
 11
29.018
 20
57.207
 21
56.982
  0
LINE
  8
0
 10
29.018
 11
29.427
 20
56.982
 21
56.643
  0
LINE
  8
0
 10
29.427
 11
29.738
 20
56.643
 21
56.214
  0
LINE
  8
0
 10
29.738
 11
29.934
 20
56.214
 21
55.721
  0
LINE
  8
0
 10
29.934
 11
30
 20
55.721
 21
55.195
  0
LINE
  8
0
 10
30
 11
29.934
 20
55.195
 21
54.669
  0
LINE
  8
0
 10
29.934
 11
29.738
 20
54.669
 21
54.176
  0
LINE
  8
0
 10
29.738
 11
29.427
 20
54.176
 21
53.747
  0
LINE
  8
0
 10
29.427
 11
29.018
 20
53.747
 21
53.408
  0
LINE
  8
0
 10
29.018
 11
28.538
 20
53.408
 21
53.183
  0
LINE
  8
0
 10
28.538
 11
28.017
 20
53.183
 21
53.083
  0
LINE
  8
0
 10
28.017
 11
27.884
 20
53.083
 21
53.092
  0
LINE
  8
0
 10
27.884
 11
27.884
 20
53.092
 21
53.079
  0
LINE
  8
0
 10
27.884
 11
22.116
 20
53.079
 21
53.079
  0
LINE
  8
0
 10
22.116
 11
22.116
 20
53.079
 21
53.092
  0
LINE
  8
0
 10
22.116
 11
21.719
 20
53.092
 21
53.117
  0
LINE
  8
0
 10
21.719
 11
21.215
 20
53.117
 21
53.28
  0
LINE
  8
0
 10
21.215
 11
20.767
 20
53.28
 21
53.565
  0
LINE
  8
0
 10
20.767
 11
20.404
 20
53.565
 21
53.951
  0
LINE
  8
0
 10
20.404
 11
20.149
 20
53.951
 21
54.416
  0
LINE
  8
0
 10
20.149
 11
20.017
 20
54.416
 21
54.93
  0
LINE
  8
0
 10
27.401
 11
27.401
 20
28.931
 21
29.459
  0
LINE
  8
0
 10
27.401
 11
27.507
 20
29.459
 21
29.977
  0
LINE
  8
0
 10
27.507
 11
27.715
 20
29.977
 21
30.463
  0
LINE
  8
0
 10
27.715
 11
28.017
 20
30.463
 21
30.897
  0
LINE
  8
0
 10
28.017
 11
28.401
 20
30.897
 21
31.261
  0
LINE
  8
0
 10
28.401
 11
28.849
 20
31.261
 21
31.541
  0
LINE
  8
0
 10
28.849
 11
29.345
 20
31.541
 21
31.724
  0
LINE
  8
0
 10
29.345
 11
29.868
 20
31.724
 21
31.805
  0
LINE
  8
0
 10
29.868
 11
30.396
 20
31.805
 21
31.778
  0
LINE
  8
0
 10
30.396
 11
30.907
 20
31.778
 21
31.645
  0
LINE
  8
0
 10
30.907
 11
31.382
 20
31.645
 21
31.412
  0
LINE
  8
0
 10
31.382
 11
31.8
 20
31.412
 21
31.089
  0
LINE
  8
0
 10
31.8
 11
32.145
 20
31.089
 21
30.688
  0
LINE
  8
0
 10
32.145
 11
32.401
 20
30.688
 21
30.225
  0
LINE
  8
0
 10
32.401
 11
32.559
 20
30.225
 21
29.721
  0
LINE
  8
0
 10
32.559
 11
32.613
 20
29.721
 21
29.195
  0
LINE
  8
0
 10
32.613
 11
32.559
 20
29.195
 21
28.669
  0
LINE
  8
0
 10
32.559
 11
32.401
 20
28.669
 21
28.165
  0
LINE
  8
0
 10
32.401
 11
32.145
 20
28.165
 21
27.702
  0
LINE
  8
0
 10
32.145
 11
31.8
 20
27.702
 21
27.301
  0
LINE
  8
0
 10
31.8
 11
31.382
 20
27.301
 21
26.978
  0
LINE
  8
0
 10
31.382
 11
30.907
 20
26.978
 21
26.745
  0
LINE
  8
0
 10
30.907
 11
30.396
 20
26.745
 21
26.612
  0
LINE
  8
0
 10
30.396
 11
29.868
 20
26.612
 21
26.585
  0
LINE
  8
0
 10
29.868
 11
29.345
 20
26.585
 21
26.666
  0
LINE
  8
0
 10
29.345
 11
28.849
 20
26.666
 21
26.849
  0
LINE
  8
0
 10
28.849
 11
28.401
 20
26.849
 21
27.129
  0
LINE
  8
0
 10
28.401
 11
28.017
 20
27.129
 21
27.493
  0
LINE
  8
0
 10
28.017
 11
27.715
 20
27.493
 21
27.927
  0
LINE
  8
0
 10
27.715
 11
27.507
 20
27.927
 21
28.413
  0
LINE
  8
0
 10
27.507
 11
27.401
 20
28.413
 21
28.931
  0
LINE
  8
0
 10
27.401
 11
27.401
 20
77.931
 21
78.459
  0
LINE
  8
0
 10
27.401
 11
27.507
 20
78.459
 21
78.977
  0
LINE
  8
0
 10
27.507
 11
27.715
 20
78.977
 21
79.463
  0
LINE
  8
0
 10
27.715
 11
28.017
 20
79.463
 21
79.897
  0
LINE
  8
0
 10
28.017
 11
28.401
 20
79.897
 21
80.261
  0
LINE
  8
0
 10
28.401
 11
28.849
 20
80.261
 21
80.541
  0
LINE
  8
0
 10
28.849
 11
29.345
 20
80.541
 21
80.724
  0
LINE
  8
0
 10
29.345
 11
29.868
 20
80.724
 21
80.805
  0
LINE
  8
0
 10
29.868
 11
30.396
 20
80.805
 21
80.778
  0
LINE
  8
0
 10
30.396
 11
30.907
 20
80.778
 21
80.645
  0
LINE
  8
0
 10
30.907
 11
31.382
 20
80.645
 21
80.412
  0
LINE
  8
0
 10
31.382
 11
31.8
 20
80.412
 21
80.089
  0
LINE
  8
0
 10
31.8
 11
32.145
 20
80.089
 21
79.688
  0
LINE
  8
0
 10
32.145
 11
32.401
 20
79.688
 21
79.225
  0
LINE
  8
0
 10
32.401
 11
32.559
 20
79.225
 21
78.721
  0
LINE
  8
0
 10
32.559
 11
32.613
 20
78.721
 21
78.195
  0
LINE
  8
0
 10
32.613
 11
32.559
 20
78.195
 21
77.669
  0
LINE
  8
0
 10
32.559
 11
32.401
 20
77.669
 21
77.165
  0
LINE
  8
0
 10
32.401
 11
32.145
 20
77.165
 21
76.702
  0
LINE
  8
0
 10
32.145
 11
31.8
 20
76.702
 21
76.301
  0
LINE
  8
0
 10
31.8
 11
31.382
 20
76.301
 21
75.978
  0
LINE
  8
0
 10
31.382
 11
30.907
 20
75.978
 21
75.745
  0
LINE
  8
0
 10
30.907
 11
30.396
 20
75.745
 21
75.612
  0
LINE
  8
0
 10
30.396
 11
29.868
 20
75.612
 21
75.585
  0
LINE
  8
0
 10
29.868
 11
29.345
 20
75.585
 21
75.666
  0
LINE
  8
0
 10
29.345
 11
28.849
 20
75.666
 21
75.849
  0
LINE
  8
0
 10
28.849
 11
28.401
 20
75.849
 21
76.129
  0
LINE
  8
0
 10
28.401
 11
28.017
 20
76.129
 21
76.493
  0
LINE
  8
0
 10
28.017
 11
27.715
 20
76.493
 21
76.927
  0
LINE
  8
0
 10
27.715
 11
27.507
 20
76.927
 21
77.413
  0
LINE
  8
0
 10
27.507
 11
27.401
 20
77.413
 21
77.931
  0
LINE
  8
0
 10
31.35
 11
31.35
 20
110.135
 21
110.645
  0
LINE
  8
0
 10
31.35
 11
31.421
 20
110.645
 21
111.151
  0
LINE
  8
0
 10
31.421
 11
31.562
 20
111.151
 21
111.641
  0
LINE
  8
0
 10
31.562
 11
31.77
 20
111.641
 21
112.108
  0
LINE
  8
0
 10
31.77
 11
32.04
 20
112.108
 21
112.541
  0
LINE
  8
0
 10
32.04
 11
32.368
 20
112.541
 21
112.932
  0
LINE
  8
0
 10
32.368
 11
32.747
 20
112.932
 21
113.273
  0
LINE
  8
0
 10
32.747
 11
33.171
 20
113.273
 21
113.559
  0
LINE
  8
0
 10
33.171
 11
33.629
 20
113.559
 21
113.782
  0
LINE
  8
0
 10
33.629
 11
34.115
 20
113.782
 21
113.94
  0
LINE
  8
0
 10
34.115
 11
34.618
 20
113.94
 21
114.029
  0
LINE
  8
0
 10
34.618
 11
35.128
 20
114.029
 21
114.046
  0
LINE
  8
0
 10
35.128
 11
35.635
 20
114.046
 21
113.993
  0
LINE
  8
0
 10
35.635
 11
36.131
 20
113.993
 21
113.87
  0
LINE
  8
0
 10
36.131
 11
36.604
 20
113.87
 21
113.678
  0
LINE
  8
0
 10
36.604
 11
37.046
 20
113.678
 21
113.423
  0
LINE
  8
0
 10
37.046
 11
37.448
 20
113.423
 21
113.109
  0
LINE
  8
0
 10
37.448
 11
37.803
 20
113.109
 21
112.742
  0
LINE
  8
0
 10
37.803
 11
38.103
 20
112.742
 21
112.329
  0
LINE
  8
0
 10
38.103
 11
38.342
 20
112.329
 21
111.878
  0
LINE
  8
0
 10
38.342
 11
38.517
 20
111.878
 21
111.398
  0
LINE
  8
0
 10
38.517
 11
38.623
 20
111.398
 21
110.899
  0
LINE
  8
0
 10
38.623
 11
38.659
 20
110.899
 21
110.39
  0
LINE
  8
0
 10
38.659
 11
38.623
 20
110.39
 21
109.881
  0
LINE
  8
0
 10
38.623
 11
38.517
 20
109.881
 21
109.382
  0
LINE
  8
0
 10
38.517
 11
38.342
 20
109.382
 21
108.902
  0
LINE
  8
0
 10
38.342
 11
38.103
 20
108.902
 21
108.451
  0
LINE
  8
0
 10
38.103
 11
37.803
 20
108.451
 21
108.038
  0
LINE
  8
0
 10
37.803
 11
37.448
 20
108.038
 21
107.671
  0
LINE
  8
0
 10
37.448
 11
37.046
 20
107.671
 21
107.357
  0
LINE
  8
0
 10
37.046
 11
36.604
 20
107.357
 21
107.102
  0
LINE
  8
0
 10
36.604
 11
36.131
 20
107.102
 21
106.91
  0
LINE
  8
0
 10
36.131
 11
35.635
 20
106.91
 21
106.787
  0
LINE
  8
0
 10
35.635
 11
35.128
 20
106.787
 21
106.734
  0
LINE
  8
0
 10
35.128
 11
34.618
 20
106.734
 21
106.751
  0
LINE
  8
0
 10
34.618
 11
34.115
 20
106.751
 21
106.84
  0
LINE
  8
0
 10
34.115
 11
33.629
 20
106.84
 21
106.998
  0
LINE
  8
0
 10
33.629
 11
33.171
 20
106.998
 21
107.221
  0
LINE
  8
0
 10
33.171
 11
32.747
 20
107.221
 21
107.507
  0
LINE
  8
0
 10
32.747
 11
32.368
 20
107.507
 21
107.848
  0
LINE
  8
0
 10
32.368
 11
32.04
 20
107.848
 21
108.239
  0
LINE
  8
0
 10
32.04
 11
31.77
 20
108.239
 21
108.672
  0
LINE
  8
0
 10
31.77
 11
31.562
 20
108.672
 21
109.139
  0
LINE
  8
0
 10
31.562
 11
31.421
 20
109.139
 21
109.629
  0
LINE
  8
0
 10
31.421
 11
31.35
 20
109.629
 21
110.135
  0
LINE
  8
0
 10
32.401
 11
32.401
 20
-0.264
 21
0.264
  0
LINE
  8
0
 10
32.401
 11
32.507
 20
0.264
 21
0.782
  0
LINE
  8
0
 10
32.507
 11
32.715
 20
0.782
 21
1.268
  0
LINE
  8
0
 10
32.715
 11
33.017
 20
1.268
 21
1.702
  0
LINE
  8
0
 10
33.017
 11
33.401
 20
1.702
 21
2.066
  0
LINE
  8
0
 10
33.401
 11
33.849
 20
2.066
 21
2.346
  0
LINE
  8
0
 10
33.849
 11
34.345
 20
2.346
 21
2.529
  0
LINE
  8
0
 10
34.345
 11
34.868
 20
2.529
 21
2.61
  0
LINE
  8
0
 10
34.868
 11
35.396
 20
2.61
 21
2.583
  0
LINE
  8
0
 10
35.396
 11
35.907
 20
2.583
 21
2.45
  0
LINE
  8
0
 10
35.907
 11
36.382
 20
2.45
 21
2.217
  0
LINE
  8
0
 10
36.382
 11
36.8
 20
2.217
 21
1.894
  0
LINE
  8
0
 10
36.8
 11
37.145
 20
1.894
 21
1.493
  0
LINE
  8
0
 10
37.145
 11
37.401
 20
1.493
 21
1.03
  0
LINE
  8
0
 10
37.401
 11
37.559
 20
1.03
 21
0.526
  0
LINE
  8
0
 10
37.559
 11
37.613
 20
0.526
 21
0
  0
LINE
  8
0
 10
37.613
 11
37.559
 20
0
 21
-0.526
  0
LINE
  8
0
 10
37.559
 11
37.401
 20
-0.526
 21
-1.03
  0
LINE
  8
0
 10
37.401
 11
37.145
 20
-1.03
 21
-1.493
  0
LINE
  8
0
 10
37.145
 11
36.8
 20
-1.493
 21
-1.894
  0
LINE
  8
0
 10
36.8
 11
36.382
 20
-1.894
 21
-2.217
  0
LINE
  8
0
 10
36.382
 11
35.907
 20
-2.217
 21
-2.45
  0
LINE
  8
0
 10
35.907
 11
35.396
 20
-2.45
 21
-2.583
  0
LINE
  8
0
 10
35.396
 11
34.868
 20
-2.583
 21
-2.61
  0
LINE
  8
0
 10
34.868
 11
34.345
 20
-2.61
 21
-2.529
  0
LINE
  8
0
 10
34.345
 11
33.849
 20
-2.529
 21
-2.346
  0
LINE
  8
0
 10
33.849
 11
33.401
 20
-2.346
 21
-2.066
  0
LINE
  8
0
 10
33.401
 11
33.017
 20
-2.066
 21
-1.702
  0
LINE
  8
0
 10
33.017
 11
32.715
 20
-1.702
 21
-1.268
  0
LINE
  8
0
 10
32.715
 11
32.507
 20
-1.268
 21
-0.782
  0
LINE
  8
0
 10
32.507
 11
32.401
 20
-0.782
 21
-0.264
  0
ENDSEC
  0
SECTION
  2
OBJECTS
  0
DICTIONARY
  0
ENDSEC
  0
EOF
