  0
SECTION
  2
HEADER
  9
$ACADVER
  1
AC1024
  9
$ACADMAINTVER
 70
     6
  9
$DWGCODEPAGE
  3
ANSI_1252
  9
$INSBASE
 10
0.0
 20
0.0
 30
0.0
  9
$EXTMIN
 10
-46.0
 20
-10.94
 30
0.0
  9
$EXTMAX
 10
46.0
 20
121.33
 30
0.0
  9
$LIMMIN
 10
0.0
 20
0.0
  9
$LIMMAX
 10
12.0
 20
9.0
  9
$ORTHOMODE
 70
     0
  9
$REGENMODE
 70
     1
  9
$FILLMODE
 70
     1
  9
$QTEXTMODE
 70
     0
  9
$MIRRTEXT
 70
     1
  9
$LTSCALE
 40
1.0
  9
$ATTMODE
 70
     1
  9
$TEXTSIZE
 40
0.2
  9
$TRACEWID
 40
0.05
  9
$TEXTSTYLE
  7
Standard
  9
$CLAYER
  8
0
  9
$CELTYPE
  6
ByBlock
  9
$CECOLOR
 62
   256
  9
$CELTSCALE
 40
1.0
  9
$DISPSILH
 70
     0
  9
$DIMSCALE
 40
1.0
  9
$DIMASZ
 40
0.18
  9
$DIMEXO
 40
0.0625
  9
$DIMDLI
 40
0.38
  9
$DIMRND
 40
0.0
  9
$DIMDLE
 40
0.0
  9
$DIMEXE
 40
0.18
  9
$DIMTP
 40
0.0
  9
$DIMTM
 40
0.0
  9
$DIMTXT
 40
0.18
  9
$DIMCEN
 40
0.09
  9
$DIMTSZ
 40
0.0
  9
$DIMTOL
 70
     0
  9
$DIMLIM
 70
     0
  9
$DIMTIH
 70
     1
  9
$DIMTOH
 70
     1
  9
$DIMSE1
 70
     0
  9
$DIMSE2
 70
     0
  9
$DIMTAD
 70
     0
  9
$DIMZIN
 70
     0
  9
$DIMBLK
  1

  9
$DIMASO
 70
     1
  9
$DIMSHO
 70
     1
  9
$DIMPOST
  1

  9
$DIMAPOST
  1

  9
$DIMALT
 70
     0
  9
$DIMALTD
 70
     2
  9
$DIMALTF
 40
25.4
  9
$DIMLFAC
 40
1.0
  9
$DIMTOFL
 70
     0
  9
$DIMTVP
 40
0.0
  9
$DIMTIX
 70
     0
  9
$DIMSOXD
 70
     0
  9
$DIMSAH
 70
     0
  9
$DIMBLK1
  1

  9
$DIMBLK2
  1

  9
$DIMSTYLE
  2
Standard
  9
$DIMCLRD
 70
     0
  9
$DIMCLRE
 70
     0
  9
$DIMCLRT
 70
     0
  9
$DIMTFAC
 40
1.0
  9
$DIMGAP
 40
0.09
  9
$DIMJUST
 70
     0
  9
$DIMSD1
 70
     0
  9
$DIMSD2
 70
     0
  9
$DIMTOLJ
 70
     1
  9
$DIMTZIN
 70
     0
  9
$DIMALTZ
 70
     0
  9
$DIMALTTZ
 70
     0
  9
$DIMUPT
 70
     0
  9
$DIMDEC
 70
     4
  9
$DIMTDEC
 70
     4
  9
$DIMALTU
 70
     2
  9
$DIMALTTD
 70
     2
  9
$DIMTXSTY
  7
Standard
  9
$DIMAUNIT
 70
     0
  9
$DIMADEC
 70
     0
  9
$DIMALTRND
 40
0.0
  9
$DIMAZIN
 70
     0
  9
$DIMDSEP
 70
    46
  9
$DIMATFIT
 70
     3
  9
$DIMFRAC
 70
     0
  9
$DIMLDRBLK
  1

  9
$DIMLUNIT
 70
     2
  9
$DIMLWD
 70
    -2
  9
$DIMLWE
 70
    -2
  9
$DIMTMOVE
 70
     2
  9
$DIMFXL
 40
1.0
  9
$DIMFXLON
 70
     0
  9
$DIMJOGANG
 40
0.7853981633974483
  9
$DIMTFILL
 70
     0
  9
$DIMTFILLCLR
 70
     0
  9
$DIMARCSYM
 70
     0
  9
$DIMLTYPE
  6

  9
$DIMLTEX1
  6

  9
$DIMLTEX2
  6

  9
$DIMTXTDIRECTION
 70
     0
  9
$LUNITS
 70
     2
  9
$LUPREC
 70
     4
  9
$SKETCHINC
 40
0.1
  9
$FILLETRAD
 40
0.5
  9
$AUNITS
 70
     0
  9
$AUPREC
 70
     0
  9
$MENU
  1
.
  9
$ELEVATION
 40
0.0
  9
$PELEVATION
 40
0.0
  9
$THICKNESS
 40
0.0
  9
$LIMCHECK
 70
     0
  9
$CHAMFERA
 40
0.0
  9
$CHAMFERB
 40
0.0
  9
$CHAMFERC
 40
0.0
  9
$CHAMFERD
 40
0.0
  9
$SKPOLY
 70
     0
  9
$TDCREATE
 40
2456744.05880787
  9
$TDUCREATE
 40
2456744.392141204
  9
$TDUPDATE
 40
2456744.069675914
  9
$TDUUPDATE
 40
2456744.403009259
  9
$TDINDWG
 40
0.0000000116
  9
$TDUSRTIMER
 40
2456744.392141204
  9
$USRTIMER
 70
     1
  9
$ANGBASE
 50
0.0
  9
$ANGDIR
 70
     0
  9
$PDMODE
 70
     0
  9
$PDSIZE
 40
0.0
  9
$PLINEWID
 40
0.0
  9
$SPLFRAME
 70
     0
  9
$SPLINETYPE
 70
     6
  9
$SPLINESEGS
 70
     8
  9
$HANDSEED
  5
D4B
  9
$SURFTAB1
 70
     6
  9
$SURFTAB2
 70
     6
  9
$SURFTYPE
 70
     6
  9
$SURFU
 70
     6
  9
$SURFV
 70
     6
  9
$UCSBASE
  2

  9
$UCSNAME
  2

  9
$UCSORG
 10
0.0
 20
0.0
 30
0.0
  9
$UCSXDIR
 10
1.0
 20
0.0
 30
0.0
  9
$UCSYDIR
 10
0.0
 20
1.0
 30
0.0
  9
$UCSORTHOREF
  2

  9
$UCSORTHOVIEW
 70
     0
  9
$UCSORGTOP
 10
0.0
 20
0.0
 30
0.0
  9
$UCSORGBOTTOM
 10
0.0
 20
0.0
 30
0.0
  9
$UCSORGLEFT
 10
0.0
 20
0.0
 30
0.0
  9
$UCSORGRIGHT
 10
0.0
 20
0.0
 30
0.0
  9
$UCSORGFRONT
 10
0.0
 20
0.0
 30
0.0
  9
$UCSORGBACK
 10
0.0
 20
0.0
 30
0.0
  9
$PUCSBASE
  2

  9
$PUCSNAME
  2

  9
$PUCSORG
 10
0.0
 20
0.0
 30
0.0
  9
$PUCSXDIR
 10
1.0
 20
0.0
 30
0.0
  9
$PUCSYDIR
 10
0.0
 20
1.0
 30
0.0
  9
$PUCSORTHOREF
  2

  9
$PUCSORTHOVIEW
 70
     0
  9
$PUCSORGTOP
 10
0.0
 20
0.0
 30
0.0
  9
$PUCSORGBOTTOM
 10
0.0
 20
0.0
 30
0.0
  9
$PUCSORGLEFT
 10
0.0
 20
0.0
 30
0.0
  9
$PUCSORGRIGHT
 10
0.0
 20
0.0
 30
0.0
  9
$PUCSORGFRONT
 10
0.0
 20
0.0
 30
0.0
  9
$PUCSORGBACK
 10
0.0
 20
0.0
 30
0.0
  9
$USERI1
 70
     0
  9
$USERI2
 70
     0
  9
$USERI3
 70
     0
  9
$USERI4
 70
     0
  9
$USERI5
 70
     0
  9
$USERR1
 40
0.0
  9
$USERR2
 40
0.0
  9
$USERR3
 40
0.0
  9
$USERR4
 40
0.0
  9
$USERR5
 40
0.0
  9
$WORLDVIEW
 70
     1
  9
$SHADEDGE
 70
     3
  9
$SHADEDIF
 70
    70
  9
$TILEMODE
 70
     1
  9
$MAXACTVP
 70
    64
  9
$PINSBASE
 10
0.0
 20
0.0
 30
0.0
  9
$PLIMCHECK
 70
     0
  9
$PEXTMIN
 10
1.000000000000000E+20
 20
1.000000000000000E+20
 30
1.000000000000000E+20
  9
$PEXTMAX
 10
-1.000000000000000E+20
 20
-1.000000000000000E+20
 30
-1.000000000000000E+20
  9
$PLIMMIN
 10
0.0
 20
0.0
  9
$PLIMMAX
 10
0.0
 20
0.0
  9
$UNITMODE
 70
     0
  9
$VISRETAIN
 70
     1
  9
$PLINEGEN
 70
     0
  9
$PSLTSCALE
 70
     1
  9
$TREEDEPTH
 70
  3020
  9
$CMLSTYLE
  2
Standard
  9
$CMLJUST
 70
     0
  9
$CMLSCALE
 40
1.0
  9
$PROXYGRAPHICS
 70
     1
  9
$MEASUREMENT
 70
     0
  9
$CELWEIGHT
370
    -1
  9
$ENDCAPS
280
     0
  9
$JOINSTYLE
280
     0
  9
$LWDISPLAY
290
     0
  9
$INSUNITS
 70
     0
  9
$HYPERLINKBASE
  1

  9
$STYLESHEET
  1

  9
$XEDIT
290
     1
  9
$CEPSNTYPE
380
     0
  9
$PSTYLEMODE
290
     1
  9
$FINGERPRINTGUID
  2
{2EA70D74-2113-6CEC-39C3-59BFFE27F9A7}
  9
$VERSIONGUID
  2
{FAEB1C32-E019-11D5-929B-00C0DF256EC4}
  9
$EXTNAMES
290
     1
  9
$PSVPSCALE
 40
0.0
  9
$OLESTARTUP
290
     0
  9
$SORTENTS
280
   127
  9
$INDEXCTL
280
     0
  9
$HIDETEXT
280
     1
  9
$XCLIPFRAME
280
     2
  9
$HALOGAP
280
     0
  9
$OBSCOLOR
 70
   257
  9
$OBSLTYPE
280
     0
  9
$INTERSECTIONDISPLAY
280
     0
  9
$INTERSECTIONCOLOR
 70
   257
  9
$DIMASSOC
280
     2
  9
$PROJECTNAME
  1

  9
$CAMERADISPLAY
290
     0
  9
$LENSLENGTH
 40
50.0
  9
$CAMERAHEIGHT
 40
0.0
  9
$STEPSPERSEC
 40
2.0
  9
$STEPSIZE
 40
6.0
  9
$3DDWFPREC
 40
2.0
  9
$PSOLWIDTH
 40
0.25
  9
$PSOLHEIGHT
 40
4.0
  9
$LOFTANG1
 40
1.570796326794897
  9
$LOFTANG2
 40
1.570796326794897
  9
$LOFTMAG1
 40
0.0
  9
$LOFTMAG2
 40
0.0
  9
$LOFTPARAM
 70
     7
  9
$LOFTNORMALS
280
     1
  9
$LATITUDE
 40
37.795
  9
$LONGITUDE
 40
-122.394
  9
$NORTHDIRECTION
 40
0.0
  9
$TIMEZONE
 70
 -8000
  9
$LIGHTGLYPHDISPLAY
280
     1
  9
$TILEMODELIGHTSYNCH
280
     1
  9
$SOLIDHIST
280
     1
  9
$SHOWHIST
280
     1
  9
$DWFFRAME
280
     2
  9
$DGNFRAME
280
     2
  9
$REALWORLDSCALE
290
     1
  9
$INTERFERECOLOR
 62
   256
  9
$CSHADOW
280
     0
  9
$SHADOWPLANELOCATION
 40
0.0
  0
ENDSEC
  0
SECTION
  2
CLASSES
  0
CLASS
  1
ACDBDICTIONARYWDFLT
  2
AcDbDictionaryWithDefault
  3
ObjectDBX Classes
 90
        0
 91
        5
280
     0
281
     0
  0
CLASS
  1
SCALE
  2
AcDbScale
  3
ObjectDBX Classes
 90
     1153
 91
        5
280
     0
281
     0
  0
CLASS
  1
VISUALSTYLE
  2
AcDbVisualStyle
  3
ObjectDBX Classes
 90
     4095
 91
        5
280
     0
281
     0
  0
CLASS
  1
MATERIAL
  2
AcDbMaterial
  3
ObjectDBX Classes
 90
     1153
 91
        5
280
     0
281
     0
  0
CLASS
  1
TABLESTYLE
  2
AcDbTableStyle
  3
ObjectDBX Classes
 90
     4095
 91
        5
280
     0
281
     0
  0
CLASS
  1
SUN
  2
AcDbSun
  3
SCENEOE
 90
     1153
 91
        5
280
     0
281
     0
  0
CLASS
  1
RASTERVARIABLES
  2
AcDbRasterVariables
  3
ISM
 90
        0
 91
        5
280
     0
281
     0
  0
CLASS
  1
DICTIONARYVAR
  2
AcDbDictionaryVar
  3
ObjectDBX Classes
 90
        0
 91
        5
280
     0
281
     0
  0
CLASS
  1
CELLSTYLEMAP
  2
AcDbCellStyleMap
  3
ObjectDBX Classes
 90
     1152
 91
        5
280
     0
281
     0
  0
ENDSEC
  0
SECTION
  2
TABLES
  0
TABLE
  2
VPORT
  5
8
330
0
100
AcDbSymbolTable
 70
     1
  0
VPORT
  5
23C
330
8
100
AcDbSymbolTableRecord
100
AcDbViewportTableRecord
  2
*Active
 70
     0
 10
0.0
 20
0.0
 11
1.0
 21
1.0
 12
-34.9182193786779
 22
36.43264598718963
 13
0.0
 23
0.0
 14
0.5
 24
0.5
 15
0.5
 25
0.5
 16
0.0
 26
0.0
 36
1.0
 17
0.0
 27
0.0
 37
0.0
 40
255.7953848736357
 41
2.048346055979644
 42
50.0
 43
0.0
 44
0.0
 50
0.0
 51
0.0
 71
    16
 72
   100
 73
     1
 74
     3
 75
     0
 76
     0
 77
     0
 78
     0
281
     0
 65
     1
110
0.0
120
0.0
130
0.0
111
1.0
121
0.0
131
0.0
112
0.0
122
1.0
132
0.0
 79
     0
146
0.0
348
268
 60
     3
 61
     5
292
     1
282
     1
141
0.0
142
0.0
 63
   250
361
283
  0
ENDTAB
  0
TABLE
  2
LTYPE
  5
5
330
0
100
AcDbSymbolTable
 70
     1
  0
LTYPE
  5
14
330
5
100
AcDbSymbolTableRecord
100
AcDbLinetypeTableRecord
  2
ByBlock
 70
     0
  3

 72
    65
 73
     0
 40
0.0
  0
LTYPE
  5
15
330
5
100
AcDbSymbolTableRecord
100
AcDbLinetypeTableRecord
  2
ByLayer
 70
     0
  3

 72
    65
 73
     0
 40
0.0
  0
LTYPE
  5
16
330
5
100
AcDbSymbolTableRecord
100
AcDbLinetypeTableRecord
  2
Continuous
 70
     0
  3
Solid line
 72
    65
 73
     0
 40
0.0
  0
ENDTAB
  0
TABLE
  2
LAYER
  5
2
330
0
100
AcDbSymbolTable
 70
     1
  0
LAYER
  5
10
330
2
100
AcDbSymbolTableRecord
100
AcDbLayerTableRecord
  2
0
 70
     0
 62
     7
  6
Continuous
370
    -3
390
F
347
27F
  0
ENDTAB
  0
TABLE
  2
STYLE
  5
3
330
0
100
AcDbSymbolTable
 70
     1
  0
STYLE
  5
11
330
3
100
AcDbSymbolTableRecord
100
AcDbTextStyleTableRecord
  2
Standard
 70
     0
 40
0.0
 41
1.0
 50
0.0
 71
     0
 42
0.2
  3
txt
  4

  0
ENDTAB
  0
TABLE
  2
VIEW
  5
6
330
0
100
AcDbSymbolTable
 70
     0
  0
ENDTAB
  0
TABLE
  2
UCS
  5
7
330
0
100
AcDbSymbolTable
 70
     0
  0
ENDTAB
  0
TABLE
  2
APPID
  5
9
330
0
100
AcDbSymbolTable
 70
     1
  0
APPID
  5
12
330
9
100
AcDbSymbolTableRecord
100
AcDbRegAppTableRecord
  2
ACAD
 70
     0
  0
ENDTAB
  0
TABLE
  2
DIMSTYLE
  5
A
330
0
100
AcDbSymbolTable
 70
     1
100
AcDbDimStyleTable
  0
DIMSTYLE
105
20
330
A
100
AcDbSymbolTableRecord
100
AcDbDimStyleTableRecord
  2
Standard
 70
     0
178
     0
340
11
  0
ENDTAB
  0
TABLE
  2
BLOCK_RECORD
  5
1
330
0
100
AcDbSymbolTable
 70
     0
  0
BLOCK_RECORD
  5
1D
330
1
100
AcDbSymbolTableRecord
100
AcDbBlockTableRecord
  2
*Model_Space
340
1E
 70
     0
280
     1
281
     0
  0
BLOCK_RECORD
  5
1B
330
1
100
AcDbSymbolTableRecord
100
AcDbBlockTableRecord
  2
*Paper_Space
340
1C
 70
     0
280
     1
281
     0
  0
ENDTAB
  0
ENDSEC
  0
SECTION
  2
BLOCKS
  0
BLOCK
  5
25F
330
1D
100
AcDbEntity
  8
0
100
AcDbBlockBegin
  2
*Model_Space
 70
     0
 10
0.0
 20
0.0
 30
0.0
  3
*Model_Space
  1
*Model_Space
  0
ENDBLK
  5
260
330
1D
100
AcDbEntity
  8
0
100
AcDbBlockEnd
  0
BLOCK
  5
261
330
1B
100
AcDbEntity
 67
     1
  8
0
100
AcDbBlockBegin
  2
*Paper_Space
 70
     0
 10
0.0
 20
0.0
 30
0.0
  3
*Paper_Space
  1
*Paper_Space
  0
ENDBLK
  5
262
330
1B
100
AcDbEntity
 67
     1
  8
0
100
AcDbBlockEnd
  0
ENDSEC
  0
SECTION
  2
ENTITIES
  0
LINE
  5
21
330
1D
100
AcDbEntity
  8
0
100
AcDbLine
 10
-46.0
 20
0.0
 30
0.0
 11
-46.0
 21
110.39
 31
0.0
  0
LINE
  5
22
330
1D
100
AcDbEntity
  8
0
100
AcDbLine
 10
-46.0
 20
110.39
 30
0.0
 11
-45.76
 21
112.677
 31
0.0
  0
LINE
  5
23
330
1D
100
AcDbEntity
  8
0
100
AcDbLine
 10
-45.76
 20
112.677
 30
0.0
 11
-45.049
 21
114.864
 31
0.0
  0
LINE
  5
24
330
1D
100
AcDbEntity
  8
0
100
AcDbLine
 10
-45.049
 20
114.864
 30
0.0
 11
-43.899
 21
116.856
 31
0.0
  0
LINE
  5
25
330
1D
100
AcDbEntity
  8
0
100
AcDbLine
 10
-43.899
 20
116.856
 30
0.0
 11
-42.36
 21
118.565
 31
0.0
  0
LINE
  5
26
330
1D
100
AcDbEntity
  8
0
100
AcDbLine
 10
-42.36
 20
118.565
 30
0.0
 11
-40.5
 21
119.916
 31
0.0
  0
LINE
  5
27
330
1D
100
AcDbEntity
  8
0
100
AcDbLine
 10
-40.5
 20
119.916
 30
0.0
 11
-38.399
 21
120.852
 31
0.0
  0
LINE
  5
28
330
1D
100
AcDbEntity
  8
0
100
AcDbLine
 10
-38.399
 20
120.852
 30
0.0
 11
-36.15
 21
121.33
 31
0.0
  0
LINE
  5
29
330
1D
100
AcDbEntity
  8
0
100
AcDbLine
 10
-36.15
 20
121.33
 30
0.0
 11
36.15
 21
121.33
 31
0.0
  0
LINE
  5
2A
330
1D
100
AcDbEntity
  8
0
100
AcDbLine
 10
36.15
 20
121.33
 30
0.0
 11
38.399
 21
120.852
 31
0.0
  0
LINE
  5
2B
330
1D
100
AcDbEntity
  8
0
100
AcDbLine
 10
38.399
 20
120.852
 30
0.0
 11
40.5
 21
119.916
 31
0.0
  0
LINE
  5
2C
330
1D
100
AcDbEntity
  8
0
100
AcDbLine
 10
40.5
 20
119.916
 30
0.0
 11
42.36
 21
118.565
 31
0.0
  0
LINE
  5
2D
330
1D
100
AcDbEntity
  8
0
100
AcDbLine
 10
42.36
 20
118.565
 30
0.0
 11
43.899
 21
116.856
 31
0.0
  0
LINE
  5
2E
330
1D
100
AcDbEntity
  8
0
100
AcDbLine
 10
43.899
 20
116.856
 30
0.0
 11
45.049
 21
114.864
 31
0.0
  0
LINE
  5
2F
330
1D
100
AcDbEntity
  8
0
100
AcDbLine
 10
45.049
 20
114.864
 30
0.0
 11
45.76
 21
112.677
 31
0.0
  0
LINE
  5
30
330
1D
100
AcDbEntity
  8
0
100
AcDbLine
 10
45.76
 20
112.677
 30
0.0
 11
46.0
 21
110.39
 31
0.0
  0
LINE
  5
31
330
1D
100
AcDbEntity
  8
0
100
AcDbLine
 10
46.0
 20
110.39
 30
0.0
 11
46.0
 21
0.0
 31
0.0
  0
LINE
  5
32
330
1D
100
AcDbEntity
  8
0
100
AcDbLine
 10
46.0
 20
0.0
 30
0.0
 11
45.76
 21
-2.287
 31
0.0
  0
LINE
  5
33
330
1D
100
AcDbEntity
  8
0
100
AcDbLine
 10
45.76
 20
-2.287
 30
0.0
 11
45.049
 21
-4.474
 31
0.0
  0
LINE
  5
34
330
1D
100
AcDbEntity
  8
0
100
AcDbLine
 10
45.049
 20
-4.474
 30
0.0
 11
43.899
 21
-6.466
 31
0.0
  0
LINE
  5
35
330
1D
100
AcDbEntity
  8
0
100
AcDbLine
 10
43.899
 20
-6.466
 30
0.0
 11
42.36
 21
-8.175
 31
0.0
  0
LINE
  5
36
330
1D
100
AcDbEntity
  8
0
100
AcDbLine
 10
42.36
 20
-8.175
 30
0.0
 11
40.5
 21
-9.526
 31
0.0
  0
LINE
  5
37
330
1D
100
AcDbEntity
  8
0
100
AcDbLine
 10
40.5
 20
-9.526
 30
0.0
 11
38.399
 21
-10.462
 31
0.0
  0
LINE
  5
38
330
1D
100
AcDbEntity
  8
0
100
AcDbLine
 10
38.399
 20
-10.462
 30
0.0
 11
36.15
 21
-10.94
 31
0.0
  0
LINE
  5
39
330
1D
100
AcDbEntity
  8
0
100
AcDbLine
 10
36.15
 20
-10.94
 30
0.0
 11
-36.15
 21
-10.94
 31
0.0
  0
LINE
  5
3A
330
1D
100
AcDbEntity
  8
0
100
AcDbLine
 10
-36.15
 20
-10.94
 30
0.0
 11
-38.399
 21
-10.462
 31
0.0
  0
LINE
  5
3B
330
1D
100
AcDbEntity
  8
0
100
AcDbLine
 10
-38.399
 20
-10.462
 30
0.0
 11
-40.5
 21
-9.526
 31
0.0
  0
LINE
  5
3C
330
1D
100
AcDbEntity
  8
0
100
AcDbLine
 10
-40.5
 20
-9.526
 30
0.0
 11
-42.36
 21
-8.175
 31
0.0
  0
LINE
  5
3D
330
1D
100
AcDbEntity
  8
0
100
AcDbLine
 10
-42.36
 20
-8.175
 30
0.0
 11
-43.899
 21
-6.466
 31
0.0
  0
LINE
  5
3E
330
1D
100
AcDbEntity
  8
0
100
AcDbLine
 10
-43.899
 20
-6.466
 30
0.0
 11
-45.049
 21
-4.474
 31
0.0
  0
LINE
  5
3F
330
1D
100
AcDbEntity
  8
0
100
AcDbLine
 10
-45.049
 20
-4.474
 30
0.0
 11
-45.76
 21
-2.287
 31
0.0
  0
LINE
  5
40
330
1D
100
AcDbEntity
  8
0
100
AcDbLine
 10
-45.76
 20
-2.287
 30
0.0
 11
-46.0
 21
0.0
 31
0.0
  0
LINE
  5
60
330
1D
100
AcDbEntity
  8
0
100
AcDbLine
 10
-38.65
 20
110.135
 30
0.0
 11
-38.65
 21
110.645
 31
0.0
  0
LINE
  5
61
330
1D
100
AcDbEntity
  8
0
100
AcDbLine
 10
-38.65
 20
110.645
 30
0.0
 11
-38.579
 21
111.151
 31
0.0
  0
LINE
  5
62
330
1D
100
AcDbEntity
  8
0
100
AcDbLine
 10
-38.579
 20
111.151
 30
0.0
 11
-38.438
 21
111.641
 31
0.0
  0
LINE
  5
63
330
1D
100
AcDbEntity
  8
0
100
AcDbLine
 10
-38.438
 20
111.641
 30
0.0
 11
-38.23
 21
112.108
 31
0.0
  0
LINE
  5
64
330
1D
100
AcDbEntity
  8
0
100
AcDbLine
 10
-38.23
 20
112.108
 30
0.0
 11
-37.96
 21
112.541
 31
0.0
  0
LINE
  5
65
330
1D
100
AcDbEntity
  8
0
100
AcDbLine
 10
-37.96
 20
112.541
 30
0.0
 11
-37.632
 21
112.932
 31
0.0
  0
LINE
  5
66
330
1D
100
AcDbEntity
  8
0
100
AcDbLine
 10
-37.632
 20
112.932
 30
0.0
 11
-37.253
 21
113.273
 31
0.0
  0
LINE
  5
67
330
1D
100
AcDbEntity
  8
0
100
AcDbLine
 10
-37.253
 20
113.273
 30
0.0
 11
-36.829
 21
113.559
 31
0.0
  0
LINE
  5
68
330
1D
100
AcDbEntity
  8
0
100
AcDbLine
 10
-36.829
 20
113.559
 30
0.0
 11
-36.371
 21
113.782
 31
0.0
  0
LINE
  5
69
330
1D
100
AcDbEntity
  8
0
100
AcDbLine
 10
-36.371
 20
113.782
 30
0.0
 11
-35.885
 21
113.94
 31
0.0
  0
LINE
  5
6A
330
1D
100
AcDbEntity
  8
0
100
AcDbLine
 10
-35.885
 20
113.94
 30
0.0
 11
-35.382
 21
114.029
 31
0.0
  0
LINE
  5
6B
330
1D
100
AcDbEntity
  8
0
100
AcDbLine
 10
-35.382
 20
114.029
 30
0.0
 11
-34.872
 21
114.046
 31
0.0
  0
LINE
  5
6C
330
1D
100
AcDbEntity
  8
0
100
AcDbLine
 10
-34.872
 20
114.046
 30
0.0
 11
-34.365
 21
113.993
 31
0.0
  0
LINE
  5
6D
330
1D
100
AcDbEntity
  8
0
100
AcDbLine
 10
-34.365
 20
113.993
 30
0.0
 11
-33.869
 21
113.87
 31
0.0
  0
LINE
  5
6E
330
1D
100
AcDbEntity
  8
0
100
AcDbLine
 10
-33.869
 20
113.87
 30
0.0
 11
-33.396
 21
113.678
 31
0.0
  0
LINE
  5
6F
330
1D
100
AcDbEntity
  8
0
100
AcDbLine
 10
-33.396
 20
113.678
 30
0.0
 11
-32.954
 21
113.423
 31
0.0
  0
LINE
  5
70
330
1D
100
AcDbEntity
  8
0
100
AcDbLine
 10
-32.954
 20
113.423
 30
0.0
 11
-32.552
 21
113.109
 31
0.0
  0
LINE
  5
71
330
1D
100
AcDbEntity
  8
0
100
AcDbLine
 10
-32.552
 20
113.109
 30
0.0
 11
-32.197
 21
112.742
 31
0.0
  0
LINE
  5
72
330
1D
100
AcDbEntity
  8
0
100
AcDbLine
 10
-32.197
 20
112.742
 30
0.0
 11
-31.897
 21
112.329
 31
0.0
  0
LINE
  5
73
330
1D
100
AcDbEntity
  8
0
100
AcDbLine
 10
-31.897
 20
112.329
 30
0.0
 11
-31.658
 21
111.878
 31
0.0
  0
LINE
  5
74
330
1D
100
AcDbEntity
  8
0
100
AcDbLine
 10
-31.658
 20
111.878
 30
0.0
 11
-31.483
 21
111.398
 31
0.0
  0
LINE
  5
75
330
1D
100
AcDbEntity
  8
0
100
AcDbLine
 10
-31.483
 20
111.398
 30
0.0
 11
-31.377
 21
110.899
 31
0.0
  0
LINE
  5
76
330
1D
100
AcDbEntity
  8
0
100
AcDbLine
 10
-31.377
 20
110.899
 30
0.0
 11
-31.341
 21
110.39
 31
0.0
  0
LINE
  5
77
330
1D
100
AcDbEntity
  8
0
100
AcDbLine
 10
-31.341
 20
110.39
 30
0.0
 11
-31.377
 21
109.881
 31
0.0
  0
LINE
  5
78
330
1D
100
AcDbEntity
  8
0
100
AcDbLine
 10
-31.377
 20
109.881
 30
0.0
 11
-31.483
 21
109.382
 31
0.0
  0
LINE
  5
79
330
1D
100
AcDbEntity
  8
0
100
AcDbLine
 10
-31.483
 20
109.382
 30
0.0
 11
-31.658
 21
108.902
 31
0.0
  0
LINE
  5
7A
330
1D
100
AcDbEntity
  8
0
100
AcDbLine
 10
-31.658
 20
108.902
 30
0.0
 11
-31.897
 21
108.451
 31
0.0
  0
LINE
  5
7B
330
1D
100
AcDbEntity
  8
0
100
AcDbLine
 10
-31.897
 20
108.451
 30
0.0
 11
-32.197
 21
108.038
 31
0.0
  0
LINE
  5
7C
330
1D
100
AcDbEntity
  8
0
100
AcDbLine
 10
-32.197
 20
108.038
 30
0.0
 11
-32.552
 21
107.671
 31
0.0
  0
LINE
  5
7D
330
1D
100
AcDbEntity
  8
0
100
AcDbLine
 10
-32.552
 20
107.671
 30
0.0
 11
-32.954
 21
107.357
 31
0.0
  0
LINE
  5
7E
330
1D
100
AcDbEntity
  8
0
100
AcDbLine
 10
-32.954
 20
107.357
 30
0.0
 11
-33.396
 21
107.102
 31
0.0
  0
LINE
  5
7F
330
1D
100
AcDbEntity
  8
0
100
AcDbLine
 10
-33.396
 20
107.102
 30
0.0
 11
-33.869
 21
106.91
 31
0.0
  0
LINE
  5
80
330
1D
100
AcDbEntity
  8
0
100
AcDbLine
 10
-33.869
 20
106.91
 30
0.0
 11
-34.365
 21
106.787
 31
0.0
  0
LINE
  5
81
330
1D
100
AcDbEntity
  8
0
100
AcDbLine
 10
-34.365
 20
106.787
 30
0.0
 11
-34.872
 21
106.734
 31
0.0
  0
LINE
  5
82
330
1D
100
AcDbEntity
  8
0
100
AcDbLine
 10
-34.872
 20
106.734
 30
0.0
 11
-35.382
 21
106.751
 31
0.0
  0
LINE
  5
83
330
1D
100
AcDbEntity
  8
0
100
AcDbLine
 10
-35.382
 20
106.751
 30
0.0
 11
-35.885
 21
106.84
 31
0.0
  0
LINE
  5
84
330
1D
100
AcDbEntity
  8
0
100
AcDbLine
 10
-35.885
 20
106.84
 30
0.0
 11
-36.371
 21
106.998
 31
0.0
  0
LINE
  5
85
330
1D
100
AcDbEntity
  8
0
100
AcDbLine
 10
-36.371
 20
106.998
 30
0.0
 11
-36.829
 21
107.221
 31
0.0
  0
LINE
  5
86
330
1D
100
AcDbEntity
  8
0
100
AcDbLine
 10
-36.829
 20
107.221
 30
0.0
 11
-37.253
 21
107.507
 31
0.0
  0
LINE
  5
87
330
1D
100
AcDbEntity
  8
0
100
AcDbLine
 10
-37.253
 20
107.507
 30
0.0
 11
-37.632
 21
107.848
 31
0.0
  0
LINE
  5
88
330
1D
100
AcDbEntity
  8
0
100
AcDbLine
 10
-37.632
 20
107.848
 30
0.0
 11
-37.96
 21
108.239
 31
0.0
  0
LINE
  5
89
330
1D
100
AcDbEntity
  8
0
100
AcDbLine
 10
-37.96
 20
108.239
 30
0.0
 11
-38.23
 21
108.672
 31
0.0
  0
LINE
  5
8A
330
1D
100
AcDbEntity
  8
0
100
AcDbLine
 10
-38.23
 20
108.672
 30
0.0
 11
-38.438
 21
109.139
 31
0.0
  0
LINE
  5
8B
330
1D
100
AcDbEntity
  8
0
100
AcDbLine
 10
-38.438
 20
109.139
 30
0.0
 11
-38.579
 21
109.629
 31
0.0
  0
LINE
  5
8C
330
1D
100
AcDbEntity
  8
0
100
AcDbLine
 10
-38.579
 20
109.629
 30
0.0
 11
-38.65
 21
110.135
 31
0.0
  0
LINE
  5
8D
330
1D
100
AcDbEntity
  8
0
100
AcDbLine
 10
-37.599
 20
-0.264
 30
0.0
 11
-37.599
 21
0.264
 31
0.0
  0
LINE
  5
8E
330
1D
100
AcDbEntity
  8
0
100
AcDbLine
 10
-37.599
 20
0.264
 30
0.0
 11
-37.493
 21
0.782
 31
0.0
  0
LINE
  5
8F
330
1D
100
AcDbEntity
  8
0
100
AcDbLine
 10
-37.493
 20
0.782
 30
0.0
 11
-37.285
 21
1.268
 31
0.0
  0
LINE
  5
90
330
1D
100
AcDbEntity
  8
0
100
AcDbLine
 10
-37.285
 20
1.268
 30
0.0
 11
-36.983
 21
1.702
 31
0.0
  0
LINE
  5
91
330
1D
100
AcDbEntity
  8
0
100
AcDbLine
 10
-36.983
 20
1.702
 30
0.0
 11
-36.599
 21
2.066
 31
0.0
  0
LINE
  5
92
330
1D
100
AcDbEntity
  8
0
100
AcDbLine
 10
-36.599
 20
2.066
 30
0.0
 11
-36.151
 21
2.346
 31
0.0
  0
LINE
  5
93
330
1D
100
AcDbEntity
  8
0
100
AcDbLine
 10
-36.151
 20
2.346
 30
0.0
 11
-35.655
 21
2.529
 31
0.0
  0
LINE
  5
94
330
1D
100
AcDbEntity
  8
0
100
AcDbLine
 10
-35.655
 20
2.529
 30
0.0
 11
-35.132
 21
2.61
 31
0.0
  0
LINE
  5
95
330
1D
100
AcDbEntity
  8
0
100
AcDbLine
 10
-35.132
 20
2.61
 30
0.0
 11
-34.604
 21
2.583
 31
0.0
  0
LINE
  5
96
330
1D
100
AcDbEntity
  8
0
100
AcDbLine
 10
-34.604
 20
2.583
 30
0.0
 11
-34.093
 21
2.45
 31
0.0
  0
LINE
  5
97
330
1D
100
AcDbEntity
  8
0
100
AcDbLine
 10
-34.093
 20
2.45
 30
0.0
 11
-33.618
 21
2.217
 31
0.0
  0
LINE
  5
98
330
1D
100
AcDbEntity
  8
0
100
AcDbLine
 10
-33.618
 20
2.217
 30
0.0
 11
-33.2
 21
1.894
 31
0.0
  0
LINE
  5
99
330
1D
100
AcDbEntity
  8
0
100
AcDbLine
 10
-33.2
 20
1.894
 30
0.0
 11
-32.855
 21
1.493
 31
0.0
  0
LINE
  5
9A
330
1D
100
AcDbEntity
  8
0
100
AcDbLine
 10
-32.855
 20
1.493
 30
0.0
 11
-32.599
 21
1.03
 31
0.0
  0
LINE
  5
9B
330
1D
100
AcDbEntity
  8
0
100
AcDbLine
 10
-32.599
 20
1.03
 30
0.0
 11
-32.441
 21
0.526
 31
0.0
  0
LINE
  5
9C
330
1D
100
AcDbEntity
  8
0
100
AcDbLine
 10
-32.441
 20
0.526
 30
0.0
 11
-32.387
 21
0.0
 31
0.0
  0
LINE
  5
9D
330
1D
100
AcDbEntity
  8
0
100
AcDbLine
 10
-32.387
 20
0.0
 30
0.0
 11
-32.441
 21
-0.526
 31
0.0
  0
LINE
  5
9E
330
1D
100
AcDbEntity
  8
0
100
AcDbLine
 10
-32.441
 20
-0.526
 30
0.0
 11
-32.599
 21
-1.03
 31
0.0
  0
LINE
  5
9F
330
1D
100
AcDbEntity
  8
0
100
AcDbLine
 10
-32.599
 20
-1.03
 30
0.0
 11
-32.855
 21
-1.493
 31
0.0
  0
LINE
  5
A0
330
1D
100
AcDbEntity
  8
0
100
AcDbLine
 10
-32.855
 20
-1.493
 30
0.0
 11
-33.2
 21
-1.894
 31
0.0
  0
LINE
  5
A1
330
1D
100
AcDbEntity
  8
0
100
AcDbLine
 10
-33.2
 20
-1.894
 30
0.0
 11
-33.618
 21
-2.217
 31
0.0
  0
LINE
  5
A2
330
1D
100
AcDbEntity
  8
0
100
AcDbLine
 10
-33.618
 20
-2.217
 30
0.0
 11
-34.093
 21
-2.45
 31
0.0
  0
LINE
  5
A3
330
1D
100
AcDbEntity
  8
0
100
AcDbLine
 10
-34.093
 20
-2.45
 30
0.0
 11
-34.604
 21
-2.583
 31
0.0
  0
LINE
  5
A4
330
1D
100
AcDbEntity
  8
0
100
AcDbLine
 10
-34.604
 20
-2.583
 30
0.0
 11
-35.132
 21
-2.61
 31
0.0
  0
LINE
  5
A5
330
1D
100
AcDbEntity
  8
0
100
AcDbLine
 10
-35.132
 20
-2.61
 30
0.0
 11
-35.655
 21
-2.529
 31
0.0
  0
LINE
  5
A6
330
1D
100
AcDbEntity
  8
0
100
AcDbLine
 10
-35.655
 20
-2.529
 30
0.0
 11
-36.151
 21
-2.346
 31
0.0
  0
LINE
  5
A7
330
1D
100
AcDbEntity
  8
0
100
AcDbLine
 10
-36.151
 20
-2.346
 30
0.0
 11
-36.599
 21
-2.066
 31
0.0
  0
LINE
  5
A8
330
1D
100
AcDbEntity
  8
0
100
AcDbLine
 10
-36.599
 20
-2.066
 30
0.0
 11
-36.983
 21
-1.702
 31
0.0
  0
LINE
  5
A9
330
1D
100
AcDbEntity
  8
0
100
AcDbLine
 10
-36.983
 20
-1.702
 30
0.0
 11
-37.285
 21
-1.268
 31
0.0
  0
LINE
  5
AA
330
1D
100
AcDbEntity
  8
0
100
AcDbLine
 10
-37.285
 20
-1.268
 30
0.0
 11
-37.493
 21
-0.782
 31
0.0
  0
LINE
  5
AB
330
1D
100
AcDbEntity
  8
0
100
AcDbLine
 10
-37.493
 20
-0.782
 30
0.0
 11
-37.599
 21
-0.264
 31
0.0
  0
LINE
  5
AC
330
1D
100
AcDbEntity
  8
0
100
AcDbLine
 10
-32.613
 20
29.195
 30
0.0
 11
-32.559
 21
29.721
 31
0.0
  0
LINE
  5
AD
330
1D
100
AcDbEntity
  8
0
100
AcDbLine
 10
-32.559
 20
29.721
 30
0.0
 11
-32.401
 21
30.225
 31
0.0
  0
LINE
  5
AE
330
1D
100
AcDbEntity
  8
0
100
AcDbLine
 10
-32.401
 20
30.225
 30
0.0
 11
-32.145
 21
30.688
 31
0.0
  0
LINE
  5
AF
330
1D
100
AcDbEntity
  8
0
100
AcDbLine
 10
-32.145
 20
30.688
 30
0.0
 11
-31.8
 21
31.089
 31
0.0
  0
LINE
  5
B0
330
1D
100
AcDbEntity
  8
0
100
AcDbLine
 10
-31.8
 20
31.089
 30
0.0
 11
-31.382
 21
31.412
 31
0.0
  0
LINE
  5
B1
330
1D
100
AcDbEntity
  8
0
100
AcDbLine
 10
-31.382
 20
31.412
 30
0.0
 11
-30.907
 21
31.645
 31
0.0
  0
LINE
  5
B2
330
1D
100
AcDbEntity
  8
0
100
AcDbLine
 10
-30.907
 20
31.645
 30
0.0
 11
-30.396
 21
31.778
 31
0.0
  0
LINE
  5
B3
330
1D
100
AcDbEntity
  8
0
100
AcDbLine
 10
-30.396
 20
31.778
 30
0.0
 11
-29.868
 21
31.805
 31
0.0
  0
LINE
  5
B4
330
1D
100
AcDbEntity
  8
0
100
AcDbLine
 10
-29.868
 20
31.805
 30
0.0
 11
-29.345
 21
31.724
 31
0.0
  0
LINE
  5
B5
330
1D
100
AcDbEntity
  8
0
100
AcDbLine
 10
-29.345
 20
31.724
 30
0.0
 11
-28.849
 21
31.541
 31
0.0
  0
LINE
  5
B6
330
1D
100
AcDbEntity
  8
0
100
AcDbLine
 10
-28.849
 20
31.541
 30
0.0
 11
-28.401
 21
31.261
 31
0.0
  0
LINE
  5
B7
330
1D
100
AcDbEntity
  8
0
100
AcDbLine
 10
-28.401
 20
31.261
 30
0.0
 11
-28.017
 21
30.897
 31
0.0
  0
LINE
  5
B8
330
1D
100
AcDbEntity
  8
0
100
AcDbLine
 10
-28.017
 20
30.897
 30
0.0
 11
-27.715
 21
30.463
 31
0.0
  0
LINE
  5
B9
330
1D
100
AcDbEntity
  8
0
100
AcDbLine
 10
-27.715
 20
30.463
 30
0.0
 11
-27.507
 21
29.977
 31
0.0
  0
LINE
  5
BA
330
1D
100
AcDbEntity
  8
0
100
AcDbLine
 10
-27.507
 20
29.977
 30
0.0
 11
-27.401
 21
29.459
 31
0.0
  0
LINE
  5
BB
330
1D
100
AcDbEntity
  8
0
100
AcDbLine
 10
-27.401
 20
29.459
 30
0.0
 11
-27.401
 21
28.931
 31
0.0
  0
LINE
  5
BC
330
1D
100
AcDbEntity
  8
0
100
AcDbLine
 10
-27.401
 20
28.931
 30
0.0
 11
-27.507
 21
28.413
 31
0.0
  0
LINE
  5
BD
330
1D
100
AcDbEntity
  8
0
100
AcDbLine
 10
-27.507
 20
28.413
 30
0.0
 11
-27.715
 21
27.927
 31
0.0
  0
LINE
  5
BE
330
1D
100
AcDbEntity
  8
0
100
AcDbLine
 10
-27.715
 20
27.927
 30
0.0
 11
-28.017
 21
27.493
 31
0.0
  0
LINE
  5
BF
330
1D
100
AcDbEntity
  8
0
100
AcDbLine
 10
-28.017
 20
27.493
 30
0.0
 11
-28.401
 21
27.129
 31
0.0
  0
LINE
  5
C0
330
1D
100
AcDbEntity
  8
0
100
AcDbLine
 10
-28.401
 20
27.129
 30
0.0
 11
-28.849
 21
26.849
 31
0.0
  0
LINE
  5
C1
330
1D
100
AcDbEntity
  8
0
100
AcDbLine
 10
-28.849
 20
26.849
 30
0.0
 11
-29.345
 21
26.666
 31
0.0
  0
LINE
  5
C2
330
1D
100
AcDbEntity
  8
0
100
AcDbLine
 10
-29.345
 20
26.666
 30
0.0
 11
-29.868
 21
26.585
 31
0.0
  0
LINE
  5
C3
330
1D
100
AcDbEntity
  8
0
100
AcDbLine
 10
-29.868
 20
26.585
 30
0.0
 11
-30.396
 21
26.612
 31
0.0
  0
LINE
  5
C4
330
1D
100
AcDbEntity
  8
0
100
AcDbLine
 10
-30.396
 20
26.612
 30
0.0
 11
-30.907
 21
26.745
 31
0.0
  0
LINE
  5
C5
330
1D
100
AcDbEntity
  8
0
100
AcDbLine
 10
-30.907
 20
26.745
 30
0.0
 11
-31.382
 21
26.978
 31
0.0
  0
LINE
  5
C6
330
1D
100
AcDbEntity
  8
0
100
AcDbLine
 10
-31.382
 20
26.978
 30
0.0
 11
-31.8
 21
27.301
 31
0.0
  0
LINE
  5
C7
330
1D
100
AcDbEntity
  8
0
100
AcDbLine
 10
-31.8
 20
27.301
 30
0.0
 11
-32.145
 21
27.702
 31
0.0
  0
LINE
  5
C8
330
1D
100
AcDbEntity
  8
0
100
AcDbLine
 10
-32.145
 20
27.702
 30
0.0
 11
-32.401
 21
28.165
 31
0.0
  0
LINE
  5
C9
330
1D
100
AcDbEntity
  8
0
100
AcDbLine
 10
-32.401
 20
28.165
 30
0.0
 11
-32.559
 21
28.669
 31
0.0
  0
LINE
  5
CA
330
1D
100
AcDbEntity
  8
0
100
AcDbLine
 10
-32.559
 20
28.669
 30
0.0
 11
-32.613
 21
29.195
 31
0.0
  0
LINE
  5
CB
330
1D
100
AcDbEntity
  8
0
100
AcDbLine
 10
-32.613
 20
78.195
 30
0.0
 11
-32.559
 21
78.721
 31
0.0
  0
LINE
  5
CC
330
1D
100
AcDbEntity
  8
0
100
AcDbLine
 10
-32.559
 20
78.721
 30
0.0
 11
-32.401
 21
79.225
 31
0.0
  0
LINE
  5
CD
330
1D
100
AcDbEntity
  8
0
100
AcDbLine
 10
-32.401
 20
79.225
 30
0.0
 11
-32.145
 21
79.688
 31
0.0
  0
LINE
  5
CE
330
1D
100
AcDbEntity
  8
0
100
AcDbLine
 10
-32.145
 20
79.688
 30
0.0
 11
-31.8
 21
80.089
 31
0.0
  0
LINE
  5
CF
330
1D
100
AcDbEntity
  8
0
100
AcDbLine
 10
-31.8
 20
80.089
 30
0.0
 11
-31.382
 21
80.412
 31
0.0
  0
LINE
  5
D0
330
1D
100
AcDbEntity
  8
0
100
AcDbLine
 10
-31.382
 20
80.412
 30
0.0
 11
-30.907
 21
80.645
 31
0.0
  0
LINE
  5
D1
330
1D
100
AcDbEntity
  8
0
100
AcDbLine
 10
-30.907
 20
80.645
 30
0.0
 11
-30.396
 21
80.778
 31
0.0
  0
LINE
  5
D2
330
1D
100
AcDbEntity
  8
0
100
AcDbLine
 10
-30.396
 20
80.778
 30
0.0
 11
-29.868
 21
80.805
 31
0.0
  0
LINE
  5
D3
330
1D
100
AcDbEntity
  8
0
100
AcDbLine
 10
-29.868
 20
80.805
 30
0.0
 11
-29.345
 21
80.724
 31
0.0
  0
LINE
  5
D4
330
1D
100
AcDbEntity
  8
0
100
AcDbLine
 10
-29.345
 20
80.724
 30
0.0
 11
-28.849
 21
80.541
 31
0.0
  0
LINE
  5
D5
330
1D
100
AcDbEntity
  8
0
100
AcDbLine
 10
-28.849
 20
80.541
 30
0.0
 11
-28.401
 21
80.261
 31
0.0
  0
LINE
  5
D6
330
1D
100
AcDbEntity
  8
0
100
AcDbLine
 10
-28.401
 20
80.261
 30
0.0
 11
-28.017
 21
79.897
 31
0.0
  0
LINE
  5
D7
330
1D
100
AcDbEntity
  8
0
100
AcDbLine
 10
-28.017
 20
79.897
 30
0.0
 11
-27.715
 21
79.463
 31
0.0
  0
LINE
  5
D8
330
1D
100
AcDbEntity
  8
0
100
AcDbLine
 10
-27.715
 20
79.463
 30
0.0
 11
-27.507
 21
78.977
 31
0.0
  0
LINE
  5
D9
330
1D
100
AcDbEntity
  8
0
100
AcDbLine
 10
-27.507
 20
78.977
 30
0.0
 11
-27.401
 21
78.459
 31
0.0
  0
LINE
  5
DA
330
1D
100
AcDbEntity
  8
0
100
AcDbLine
 10
-27.401
 20
78.459
 30
0.0
 11
-27.401
 21
77.931
 31
0.0
  0
LINE
  5
DB
330
1D
100
AcDbEntity
  8
0
100
AcDbLine
 10
-27.401
 20
77.931
 30
0.0
 11
-27.507
 21
77.413
 31
0.0
  0
LINE
  5
DC
330
1D
100
AcDbEntity
  8
0
100
AcDbLine
 10
-27.507
 20
77.413
 30
0.0
 11
-27.715
 21
76.927
 31
0.0
  0
LINE
  5
DD
330
1D
100
AcDbEntity
  8
0
100
AcDbLine
 10
-27.715
 20
76.927
 30
0.0
 11
-28.017
 21
76.493
 31
0.0
  0
LINE
  5
DE
330
1D
100
AcDbEntity
  8
0
100
AcDbLine
 10
-28.017
 20
76.493
 30
0.0
 11
-28.401
 21
76.129
 31
0.0
  0
LINE
  5
DF
330
1D
100
AcDbEntity
  8
0
100
AcDbLine
 10
-28.401
 20
76.129
 30
0.0
 11
-28.849
 21
75.849
 31
0.0
  0
LINE
  5
E0
330
1D
100
AcDbEntity
  8
0
100
AcDbLine
 10
-28.849
 20
75.849
 30
0.0
 11
-29.345
 21
75.666
 31
0.0
  0
LINE
  5
E1
330
1D
100
AcDbEntity
  8
0
100
AcDbLine
 10
-29.345
 20
75.666
 30
0.0
 11
-29.868
 21
75.585
 31
0.0
  0
LINE
  5
E2
330
1D
100
AcDbEntity
  8
0
100
AcDbLine
 10
-29.868
 20
75.585
 30
0.0
 11
-30.396
 21
75.612
 31
0.0
  0
LINE
  5
E3
330
1D
100
AcDbEntity
  8
0
100
AcDbLine
 10
-30.396
 20
75.612
 30
0.0
 11
-30.907
 21
75.745
 31
0.0
  0
LINE
  5
E4
330
1D
100
AcDbEntity
  8
0
100
AcDbLine
 10
-30.907
 20
75.745
 30
0.0
 11
-31.382
 21
75.978
 31
0.0
  0
LINE
  5
E5
330
1D
100
AcDbEntity
  8
0
100
AcDbLine
 10
-31.382
 20
75.978
 30
0.0
 11
-31.8
 21
76.301
 31
0.0
  0
LINE
  5
E6
330
1D
100
AcDbEntity
  8
0
100
AcDbLine
 10
-31.8
 20
76.301
 30
0.0
 11
-32.145
 21
76.702
 31
0.0
  0
LINE
  5
E7
330
1D
100
AcDbEntity
  8
0
100
AcDbLine
 10
-32.145
 20
76.702
 30
0.0
 11
-32.401
 21
77.165
 31
0.0
  0
LINE
  5
E8
330
1D
100
AcDbEntity
  8
0
100
AcDbLine
 10
-32.401
 20
77.165
 30
0.0
 11
-32.559
 21
77.669
 31
0.0
  0
LINE
  5
E9
330
1D
100
AcDbEntity
  8
0
100
AcDbLine
 10
-32.559
 20
77.669
 30
0.0
 11
-32.613
 21
78.195
 31
0.0
  0
LINE
  5
186
330
1D
100
AcDbEntity
  8
0
100
AcDbLine
 10
-3.175
 20
110.39
 30
0.0
 11
-2.569
 21
112.256
 31
0.0
  0
LINE
  5
187
330
1D
100
AcDbEntity
  8
0
100
AcDbLine
 10
-2.569
 20
112.256
 30
0.0
 11
-0.981
 21
113.41
 31
0.0
  0
LINE
  5
188
330
1D
100
AcDbEntity
  8
0
100
AcDbLine
 10
-0.981
 20
113.41
 30
0.0
 11
0.981
 21
113.41
 31
0.0
  0
LINE
  5
189
330
1D
100
AcDbEntity
  8
0
100
AcDbLine
 10
0.981
 20
113.41
 30
0.0
 11
2.569
 21
112.256
 31
0.0
  0
LINE
  5
18A
330
1D
100
AcDbEntity
  8
0
100
AcDbLine
 10
2.569
 20
112.256
 30
0.0
 11
3.175
 21
110.39
 31
0.0
  0
LINE
  5
18B
330
1D
100
AcDbEntity
  8
0
100
AcDbLine
 10
3.175
 20
110.39
 30
0.0
 11
2.569
 21
108.524
 31
0.0
  0
LINE
  5
18C
330
1D
100
AcDbEntity
  8
0
100
AcDbLine
 10
2.569
 20
108.524
 30
0.0
 11
0.981
 21
107.37
 31
0.0
  0
LINE
  5
18D
330
1D
100
AcDbEntity
  8
0
100
AcDbLine
 10
0.981
 20
107.37
 30
0.0
 11
-0.981
 21
107.37
 31
0.0
  0
LINE
  5
18E
330
1D
100
AcDbEntity
  8
0
100
AcDbLine
 10
-0.981
 20
107.37
 30
0.0
 11
-2.569
 21
108.524
 31
0.0
  0
LINE
  5
18F
330
1D
100
AcDbEntity
  8
0
100
AcDbLine
 10
-2.569
 20
108.524
 30
0.0
 11
-3.175
 21
110.39
 31
0.0
  0
LINE
  5
1B1
330
1D
100
AcDbEntity
  8
0
100
AcDbLine
 10
27.401
 20
28.931
 30
0.0
 11
27.401
 21
29.459
 31
0.0
  0
LINE
  5
1B2
330
1D
100
AcDbEntity
  8
0
100
AcDbLine
 10
27.401
 20
29.459
 30
0.0
 11
27.507
 21
29.977
 31
0.0
  0
LINE
  5
1B3
330
1D
100
AcDbEntity
  8
0
100
AcDbLine
 10
27.507
 20
29.977
 30
0.0
 11
27.715
 21
30.463
 31
0.0
  0
LINE
  5
1B4
330
1D
100
AcDbEntity
  8
0
100
AcDbLine
 10
27.715
 20
30.463
 30
0.0
 11
28.017
 21
30.897
 31
0.0
  0
LINE
  5
1B5
330
1D
100
AcDbEntity
  8
0
100
AcDbLine
 10
28.017
 20
30.897
 30
0.0
 11
28.401
 21
31.261
 31
0.0
  0
LINE
  5
1B6
330
1D
100
AcDbEntity
  8
0
100
AcDbLine
 10
28.401
 20
31.261
 30
0.0
 11
28.849
 21
31.541
 31
0.0
  0
LINE
  5
1B7
330
1D
100
AcDbEntity
  8
0
100
AcDbLine
 10
28.849
 20
31.541
 30
0.0
 11
29.345
 21
31.724
 31
0.0
  0
LINE
  5
1B8
330
1D
100
AcDbEntity
  8
0
100
AcDbLine
 10
29.345
 20
31.724
 30
0.0
 11
29.868
 21
31.805
 31
0.0
  0
LINE
  5
1B9
330
1D
100
AcDbEntity
  8
0
100
AcDbLine
 10
29.868
 20
31.805
 30
0.0
 11
30.396
 21
31.778
 31
0.0
  0
LINE
  5
1BA
330
1D
100
AcDbEntity
  8
0
100
AcDbLine
 10
30.396
 20
31.778
 30
0.0
 11
30.907
 21
31.645
 31
0.0
  0
LINE
  5
1BB
330
1D
100
AcDbEntity
  8
0
100
AcDbLine
 10
30.907
 20
31.645
 30
0.0
 11
31.382
 21
31.412
 31
0.0
  0
LINE
  5
1BC
330
1D
100
AcDbEntity
  8
0
100
AcDbLine
 10
31.382
 20
31.412
 30
0.0
 11
31.8
 21
31.089
 31
0.0
  0
LINE
  5
1BD
330
1D
100
AcDbEntity
  8
0
100
AcDbLine
 10
31.8
 20
31.089
 30
0.0
 11
32.145
 21
30.688
 31
0.0
  0
LINE
  5
1BE
330
1D
100
AcDbEntity
  8
0
100
AcDbLine
 10
32.145
 20
30.688
 30
0.0
 11
32.401
 21
30.225
 31
0.0
  0
LINE
  5
1BF
330
1D
100
AcDbEntity
  8
0
100
AcDbLine
 10
32.401
 20
30.225
 30
0.0
 11
32.559
 21
29.721
 31
0.0
  0
LINE
  5
1C0
330
1D
100
AcDbEntity
  8
0
100
AcDbLine
 10
32.559
 20
29.721
 30
0.0
 11
32.613
 21
29.195
 31
0.0
  0
LINE
  5
1C1
330
1D
100
AcDbEntity
  8
0
100
AcDbLine
 10
32.613
 20
29.195
 30
0.0
 11
32.559
 21
28.669
 31
0.0
  0
LINE
  5
1C2
330
1D
100
AcDbEntity
  8
0
100
AcDbLine
 10
32.559
 20
28.669
 30
0.0
 11
32.401
 21
28.165
 31
0.0
  0
LINE
  5
1C3
330
1D
100
AcDbEntity
  8
0
100
AcDbLine
 10
32.401
 20
28.165
 30
0.0
 11
32.145
 21
27.702
 31
0.0
  0
LINE
  5
1C4
330
1D
100
AcDbEntity
  8
0
100
AcDbLine
 10
32.145
 20
27.702
 30
0.0
 11
31.8
 21
27.301
 31
0.0
  0
LINE
  5
1C5
330
1D
100
AcDbEntity
  8
0
100
AcDbLine
 10
31.8
 20
27.301
 30
0.0
 11
31.382
 21
26.978
 31
0.0
  0
LINE
  5
1C6
330
1D
100
AcDbEntity
  8
0
100
AcDbLine
 10
31.382
 20
26.978
 30
0.0
 11
30.907
 21
26.745
 31
0.0
  0
LINE
  5
1C7
330
1D
100
AcDbEntity
  8
0
100
AcDbLine
 10
30.907
 20
26.745
 30
0.0
 11
30.396
 21
26.612
 31
0.0
  0
LINE
  5
1C8
330
1D
100
AcDbEntity
  8
0
100
AcDbLine
 10
30.396
 20
26.612
 30
0.0
 11
29.868
 21
26.585
 31
0.0
  0
LINE
  5
1C9
330
1D
100
AcDbEntity
  8
0
100
AcDbLine
 10
29.868
 20
26.585
 30
0.0
 11
29.345
 21
26.666
 31
0.0
  0
LINE
  5
1CA
330
1D
100
AcDbEntity
  8
0
100
AcDbLine
 10
29.345
 20
26.666
 30
0.0
 11
28.849
 21
26.849
 31
0.0
  0
LINE
  5
1CB
330
1D
100
AcDbEntity
  8
0
100
AcDbLine
 10
28.849
 20
26.849
 30
0.0
 11
28.401
 21
27.129
 31
0.0
  0
LINE
  5
1CC
330
1D
100
AcDbEntity
  8
0
100
AcDbLine
 10
28.401
 20
27.129
 30
0.0
 11
28.017
 21
27.493
 31
0.0
  0
LINE
  5
1CD
330
1D
100
AcDbEntity
  8
0
100
AcDbLine
 10
28.017
 20
27.493
 30
0.0
 11
27.715
 21
27.927
 31
0.0
  0
LINE
  5
1CE
330
1D
100
AcDbEntity
  8
0
100
AcDbLine
 10
27.715
 20
27.927
 30
0.0
 11
27.507
 21
28.413
 31
0.0
  0
LINE
  5
1CF
330
1D
100
AcDbEntity
  8
0
100
AcDbLine
 10
27.507
 20
28.413
 30
0.0
 11
27.401
 21
28.931
 31
0.0
  0
LINE
  5
1D0
330
1D
100
AcDbEntity
  8
0
100
AcDbLine
 10
27.401
 20
77.931
 30
0.0
 11
27.401
 21
78.459
 31
0.0
  0
LINE
  5
1D1
330
1D
100
AcDbEntity
  8
0
100
AcDbLine
 10
27.401
 20
78.459
 30
0.0
 11
27.507
 21
78.977
 31
0.0
  0
LINE
  5
1D2
330
1D
100
AcDbEntity
  8
0
100
AcDbLine
 10
27.507
 20
78.977
 30
0.0
 11
27.715
 21
79.463
 31
0.0
  0
LINE
  5
1D3
330
1D
100
AcDbEntity
  8
0
100
AcDbLine
 10
27.715
 20
79.463
 30
0.0
 11
28.017
 21
79.897
 31
0.0
  0
LINE
  5
1D4
330
1D
100
AcDbEntity
  8
0
100
AcDbLine
 10
28.017
 20
79.897
 30
0.0
 11
28.401
 21
80.261
 31
0.0
  0
LINE
  5
1D5
330
1D
100
AcDbEntity
  8
0
100
AcDbLine
 10
28.401
 20
80.261
 30
0.0
 11
28.849
 21
80.541
 31
0.0
  0
LINE
  5
1D6
330
1D
100
AcDbEntity
  8
0
100
AcDbLine
 10
28.849
 20
80.541
 30
0.0
 11
29.345
 21
80.724
 31
0.0
  0
LINE
  5
1D7
330
1D
100
AcDbEntity
  8
0
100
AcDbLine
 10
29.345
 20
80.724
 30
0.0
 11
29.868
 21
80.805
 31
0.0
  0
LINE
  5
1D8
330
1D
100
AcDbEntity
  8
0
100
AcDbLine
 10
29.868
 20
80.805
 30
0.0
 11
30.396
 21
80.778
 31
0.0
  0
LINE
  5
1D9
330
1D
100
AcDbEntity
  8
0
100
AcDbLine
 10
30.396
 20
80.778
 30
0.0
 11
30.907
 21
80.645
 31
0.0
  0
LINE
  5
1DA
330
1D
100
AcDbEntity
  8
0
100
AcDbLine
 10
30.907
 20
80.645
 30
0.0
 11
31.382
 21
80.412
 31
0.0
  0
LINE
  5
1DB
330
1D
100
AcDbEntity
  8
0
100
AcDbLine
 10
31.382
 20
80.412
 30
0.0
 11
31.8
 21
80.089
 31
0.0
  0
LINE
  5
1DC
330
1D
100
AcDbEntity
  8
0
100
AcDbLine
 10
31.8
 20
80.089
 30
0.0
 11
32.145
 21
79.688
 31
0.0
  0
LINE
  5
1DD
330
1D
100
AcDbEntity
  8
0
100
AcDbLine
 10
32.145
 20
79.688
 30
0.0
 11
32.401
 21
79.225
 31
0.0
  0
LINE
  5
1DE
330
1D
100
AcDbEntity
  8
0
100
AcDbLine
 10
32.401
 20
79.225
 30
0.0
 11
32.559
 21
78.721
 31
0.0
  0
LINE
  5
1DF
330
1D
100
AcDbEntity
  8
0
100
AcDbLine
 10
32.559
 20
78.721
 30
0.0
 11
32.613
 21
78.195
 31
0.0
  0
LINE
  5
1E0
330
1D
100
AcDbEntity
  8
0
100
AcDbLine
 10
32.613
 20
78.195
 30
0.0
 11
32.559
 21
77.669
 31
0.0
  0
LINE
  5
1E1
330
1D
100
AcDbEntity
  8
0
100
AcDbLine
 10
32.559
 20
77.669
 30
0.0
 11
32.401
 21
77.165
 31
0.0
  0
LINE
  5
1E2
330
1D
100
AcDbEntity
  8
0
100
AcDbLine
 10
32.401
 20
77.165
 30
0.0
 11
32.145
 21
76.702
 31
0.0
  0
LINE
  5
1E3
330
1D
100
AcDbEntity
  8
0
100
AcDbLine
 10
32.145
 20
76.702
 30
0.0
 11
31.8
 21
76.301
 31
0.0
  0
LINE
  5
1E4
330
1D
100
AcDbEntity
  8
0
100
AcDbLine
 10
31.8
 20
76.301
 30
0.0
 11
31.382
 21
75.978
 31
0.0
  0
LINE
  5
1E5
330
1D
100
AcDbEntity
  8
0
100
AcDbLine
 10
31.382
 20
75.978
 30
0.0
 11
30.907
 21
75.745
 31
0.0
  0
LINE
  5
1E6
330
1D
100
AcDbEntity
  8
0
100
AcDbLine
 10
30.907
 20
75.745
 30
0.0
 11
30.396
 21
75.612
 31
0.0
  0
LINE
  5
1E7
330
1D
100
AcDbEntity
  8
0
100
AcDbLine
 10
30.396
 20
75.612
 30
0.0
 11
29.868
 21
75.585
 31
0.0
  0
LINE
  5
1E8
330
1D
100
AcDbEntity
  8
0
100
AcDbLine
 10
29.868
 20
75.585
 30
0.0
 11
29.345
 21
75.666
 31
0.0
  0
LINE
  5
1E9
330
1D
100
AcDbEntity
  8
0
100
AcDbLine
 10
29.345
 20
75.666
 30
0.0
 11
28.849
 21
75.849
 31
0.0
  0
LINE
  5
1EA
330
1D
100
AcDbEntity
  8
0
100
AcDbLine
 10
28.849
 20
75.849
 30
0.0
 11
28.401
 21
76.129
 31
0.0
  0
LINE
  5
1EB
330
1D
100
AcDbEntity
  8
0
100
AcDbLine
 10
28.401
 20
76.129
 30
0.0
 11
28.017
 21
76.493
 31
0.0
  0
LINE
  5
1EC
330
1D
100
AcDbEntity
  8
0
100
AcDbLine
 10
28.017
 20
76.493
 30
0.0
 11
27.715
 21
76.927
 31
0.0
  0
LINE
  5
1ED
330
1D
100
AcDbEntity
  8
0
100
AcDbLine
 10
27.715
 20
76.927
 30
0.0
 11
27.507
 21
77.413
 31
0.0
  0
LINE
  5
1EE
330
1D
100
AcDbEntity
  8
0
100
AcDbLine
 10
27.507
 20
77.413
 30
0.0
 11
27.401
 21
77.931
 31
0.0
  0
LINE
  5
1EF
330
1D
100
AcDbEntity
  8
0
100
AcDbLine
 10
31.35
 20
110.135
 30
0.0
 11
31.35
 21
110.645
 31
0.0
  0
LINE
  5
1F0
330
1D
100
AcDbEntity
  8
0
100
AcDbLine
 10
31.35
 20
110.645
 30
0.0
 11
31.421
 21
111.151
 31
0.0
  0
LINE
  5
1F1
330
1D
100
AcDbEntity
  8
0
100
AcDbLine
 10
31.421
 20
111.151
 30
0.0
 11
31.562
 21
111.641
 31
0.0
  0
LINE
  5
1F2
330
1D
100
AcDbEntity
  8
0
100
AcDbLine
 10
31.562
 20
111.641
 30
0.0
 11
31.77
 21
112.108
 31
0.0
  0
LINE
  5
1F3
330
1D
100
AcDbEntity
  8
0
100
AcDbLine
 10
31.77
 20
112.108
 30
0.0
 11
32.04
 21
112.541
 31
0.0
  0
LINE
  5
1F4
330
1D
100
AcDbEntity
  8
0
100
AcDbLine
 10
32.04
 20
112.541
 30
0.0
 11
32.368
 21
112.932
 31
0.0
  0
LINE
  5
1F5
330
1D
100
AcDbEntity
  8
0
100
AcDbLine
 10
32.368
 20
112.932
 30
0.0
 11
32.747
 21
113.273
 31
0.0
  0
LINE
  5
1F6
330
1D
100
AcDbEntity
  8
0
100
AcDbLine
 10
32.747
 20
113.273
 30
0.0
 11
33.171
 21
113.559
 31
0.0
  0
LINE
  5
1F7
330
1D
100
AcDbEntity
  8
0
100
AcDbLine
 10
33.171
 20
113.559
 30
0.0
 11
33.629
 21
113.782
 31
0.0
  0
LINE
  5
1F8
330
1D
100
AcDbEntity
  8
0
100
AcDbLine
 10
33.629
 20
113.782
 30
0.0
 11
34.115
 21
113.94
 31
0.0
  0
LINE
  5
1F9
330
1D
100
AcDbEntity
  8
0
100
AcDbLine
 10
34.115
 20
113.94
 30
0.0
 11
34.618
 21
114.029
 31
0.0
  0
LINE
  5
1FA
330
1D
100
AcDbEntity
  8
0
100
AcDbLine
 10
34.618
 20
114.029
 30
0.0
 11
35.128
 21
114.046
 31
0.0
  0
LINE
  5
1FB
330
1D
100
AcDbEntity
  8
0
100
AcDbLine
 10
35.128
 20
114.046
 30
0.0
 11
35.635
 21
113.993
 31
0.0
  0
LINE
  5
1FC
330
1D
100
AcDbEntity
  8
0
100
AcDbLine
 10
35.635
 20
113.993
 30
0.0
 11
36.131
 21
113.87
 31
0.0
  0
LINE
  5
1FD
330
1D
100
AcDbEntity
  8
0
100
AcDbLine
 10
36.131
 20
113.87
 30
0.0
 11
36.604
 21
113.678
 31
0.0
  0
LINE
  5
1FE
330
1D
100
AcDbEntity
  8
0
100
AcDbLine
 10
36.604
 20
113.678
 30
0.0
 11
37.046
 21
113.423
 31
0.0
  0
LINE
  5
1FF
330
1D
100
AcDbEntity
  8
0
100
AcDbLine
 10
37.046
 20
113.423
 30
0.0
 11
37.448
 21
113.109
 31
0.0
  0
LINE
  5
200
330
1D
100
AcDbEntity
  8
0
100
AcDbLine
 10
37.448
 20
113.109
 30
0.0
 11
37.803
 21
112.742
 31
0.0
  0
LINE
  5
201
330
1D
100
AcDbEntity
  8
0
100
AcDbLine
 10
37.803
 20
112.742
 30
0.0
 11
38.103
 21
112.329
 31
0.0
  0
LINE
  5
202
330
1D
100
AcDbEntity
  8
0
100
AcDbLine
 10
38.103
 20
112.329
 30
0.0
 11
38.342
 21
111.878
 31
0.0
  0
LINE
  5
203
330
1D
100
AcDbEntity
  8
0
100
AcDbLine
 10
38.342
 20
111.878
 30
0.0
 11
38.517
 21
111.398
 31
0.0
  0
LINE
  5
204
330
1D
100
AcDbEntity
  8
0
100
AcDbLine
 10
38.517
 20
111.398
 30
0.0
 11
38.623
 21
110.899
 31
0.0
  0
LINE
  5
205
330
1D
100
AcDbEntity
  8
0
100
AcDbLine
 10
38.623
 20
110.899
 30
0.0
 11
38.659
 21
110.39
 31
0.0
  0
LINE
  5
206
330
1D
100
AcDbEntity
  8
0
100
AcDbLine
 10
38.659
 20
110.39
 30
0.0
 11
38.623
 21
109.881
 31
0.0
  0
LINE
  5
207
330
1D
100
AcDbEntity
  8
0
100
AcDbLine
 10
38.623
 20
109.881
 30
0.0
 11
38.517
 21
109.382
 31
0.0
  0
LINE
  5
208
330
1D
100
AcDbEntity
  8
0
100
AcDbLine
 10
38.517
 20
109.382
 30
0.0
 11
38.342
 21
108.902
 31
0.0
  0
LINE
  5
209
330
1D
100
AcDbEntity
  8
0
100
AcDbLine
 10
38.342
 20
108.902
 30
0.0
 11
38.103
 21
108.451
 31
0.0
  0
LINE
  5
20A
330
1D
100
AcDbEntity
  8
0
100
AcDbLine
 10
38.103
 20
108.451
 30
0.0
 11
37.803
 21
108.038
 31
0.0
  0
LINE
  5
20B
330
1D
100
AcDbEntity
  8
0
100
AcDbLine
 10
37.803
 20
108.038
 30
0.0
 11
37.448
 21
107.671
 31
0.0
  0
LINE
  5
20C
330
1D
100
AcDbEntity
  8
0
100
AcDbLine
 10
37.448
 20
107.671
 30
0.0
 11
37.046
 21
107.357
 31
0.0
  0
LINE
  5
20D
330
1D
100
AcDbEntity
  8
0
100
AcDbLine
 10
37.046
 20
107.357
 30
0.0
 11
36.604
 21
107.102
 31
0.0
  0
LINE
  5
20E
330
1D
100
AcDbEntity
  8
0
100
AcDbLine
 10
36.604
 20
107.102
 30
0.0
 11
36.131
 21
106.91
 31
0.0
  0
LINE
  5
20F
330
1D
100
AcDbEntity
  8
0
100
AcDbLine
 10
36.131
 20
106.91
 30
0.0
 11
35.635
 21
106.787
 31
0.0
  0
LINE
  5
210
330
1D
100
AcDbEntity
  8
0
100
AcDbLine
 10
35.635
 20
106.787
 30
0.0
 11
35.128
 21
106.734
 31
0.0
  0
LINE
  5
211
330
1D
100
AcDbEntity
  8
0
100
AcDbLine
 10
35.128
 20
106.734
 30
0.0
 11
34.618
 21
106.751
 31
0.0
  0
LINE
  5
212
330
1D
100
AcDbEntity
  8
0
100
AcDbLine
 10
34.618
 20
106.751
 30
0.0
 11
34.115
 21
106.84
 31
0.0
  0
LINE
  5
213
330
1D
100
AcDbEntity
  8
0
100
AcDbLine
 10
34.115
 20
106.84
 30
0.0
 11
33.629
 21
106.998
 31
0.0
  0
LINE
  5
214
330
1D
100
AcDbEntity
  8
0
100
AcDbLine
 10
33.629
 20
106.998
 30
0.0
 11
33.171
 21
107.221
 31
0.0
  0
LINE
  5
215
330
1D
100
AcDbEntity
  8
0
100
AcDbLine
 10
33.171
 20
107.221
 30
0.0
 11
32.747
 21
107.507
 31
0.0
  0
LINE
  5
216
330
1D
100
AcDbEntity
  8
0
100
AcDbLine
 10
32.747
 20
107.507
 30
0.0
 11
32.368
 21
107.848
 31
0.0
  0
LINE
  5
217
330
1D
100
AcDbEntity
  8
0
100
AcDbLine
 10
32.368
 20
107.848
 30
0.0
 11
32.04
 21
108.239
 31
0.0
  0
LINE
  5
218
330
1D
100
AcDbEntity
  8
0
100
AcDbLine
 10
32.04
 20
108.239
 30
0.0
 11
31.77
 21
108.672
 31
0.0
  0
LINE
  5
219
330
1D
100
AcDbEntity
  8
0
100
AcDbLine
 10
31.77
 20
108.672
 30
0.0
 11
31.562
 21
109.139
 31
0.0
  0
LINE
  5
21A
330
1D
100
AcDbEntity
  8
0
100
AcDbLine
 10
31.562
 20
109.139
 30
0.0
 11
31.421
 21
109.629
 31
0.0
  0
LINE
  5
21B
330
1D
100
AcDbEntity
  8
0
100
AcDbLine
 10
31.421
 20
109.629
 30
0.0
 11
31.35
 21
110.135
 31
0.0
  0
LWPOLYLINE
  5
285
330
1D
100
AcDbEntity
  8
0
100
AcDbPolyline
 90
       10
 70
     1
 43
0.0
 10
-3.175
 20
0.0
 10
-2.569
 20
1.866
 10
-0.981
 20
3.02
 10
0.981
 20
3.02
 10
2.569
 20
1.866
 10
3.175
 20
0.0
 10
2.569
 20
-1.866
 10
0.981
 20
-3.02
 10
-0.981
 20
-3.02
 10
-2.569
 20
-1.866
  0
LWPOLYLINE
  5
298
330
1D
100
AcDbEntity
  8
0
100
AcDbPolyline
 90
       31
 70
     1
 43
0.0
 10
34.868
 20
2.61
 10
35.396
 20
2.583
 10
35.907
 20
2.45
 10
36.382
 20
2.217
 10
36.8
 20
1.894
 10
37.145
 20
1.493
 10
37.401
 20
1.03
 10
37.559
 20
0.526
 10
37.613
 20
0.0
 10
37.559
 20
-0.526
 10
37.401
 20
-1.03
 10
37.145
 20
-1.493
 10
36.8
 20
-1.894
 10
36.382
 20
-2.217
 10
35.907
 20
-2.45
 10
35.396
 20
-2.583
 10
34.868
 20
-2.61
 10
34.345
 20
-2.529
 10
33.849
 20
-2.346
 10
33.401
 20
-2.066
 10
33.017
 20
-1.702
 10
32.715
 20
-1.268
 10
32.507
 20
-0.782
 10
32.401
 20
-0.264
 10
32.401
 20
0.264
 10
32.507
 20
0.782
 10
32.715
 20
1.268
 10
33.017
 20
1.702
 10
33.401
 20
2.066
 10
33.849
 20
2.346
 10
34.345
 20
2.529
  0
LWPOLYLINE
  5
332
330
1D
100
AcDbEntity
  8
0
100
AcDbPolyline
 90
      113
 70
     1
 43
0.0
 10
-4.697
 20
47.397
 10
-5.123
 20
47.67
 10
-5.533
 20
47.966
 10
-5.927
 20
48.285
 10
-6.302
 20
48.625
 10
-6.657
 20
48.985
 10
-6.992
 20
49.365
 10
-7.305
 20
49.763
 10
-7.596
 20
50.177
 10
-7.863
 20
50.607
 10
-8.106
 20
51.051
 10
-8.323
 20
51.508
 10
-8.515
 20
51.976
 10
-8.681
 20
52.454
 10
-8.82
 20
52.941
 10
-8.932
 20
53.435
 10
-9.016
 20
53.934
 10
-9.072
 20
54.437
 10
-9.1
 20
54.942
 10
-9.1
 20
55.448
 10
-9.072
 20
55.953
 10
-9.016
 20
56.456
 10
-8.932
 20
56.955
 10
-8.82
 20
57.449
 10
-8.681
 20
57.936
 10
-8.515
 20
58.414
 10
-8.323
 20
58.882
 10
-8.106
 20
59.339
 10
-7.863
 20
59.783
 10
-7.596
 20
60.213
 10
-7.305
 20
60.627
 10
-6.992
 20
61.025
 10
-6.657
 20
61.405
 10
-6.302
 20
61.765
 10
-5.927
 20
62.105
 10
-5.533
 20
62.424
 10
-5.123
 20
62.72
 10
-4.697
 20
62.993
 10
-4.256
 20
63.242
 10
-3.803
 20
63.466
 10
-3.337
 20
63.665
 10
-2.861
 20
63.837
 10
-2.377
 20
63.983
 10
-1.884
 20
64.101
 10
-1.387
 20
64.192
 10
-0.884
 20
64.255
 10
-0.38
 20
64.291
 10
0.127
 20
64.298
 10
0.632
 20
64.276
 10
1.136
 20
64.227
 10
1.636
 20
64.15
 10
2.131
 20
64.045
 10
2.62
 20
63.913
 10
3.1
 20
63.754
 10
3.571
 20
63.569
 10
4.031
 20
63.357
 10
4.478
 20
63.121
 10
4.912
 20
62.86
 10
5.33
 20
62.575
 10
5.732
 20
62.267
 10
6.116
 20
61.938
 10
6.482
 20
61.587
 10
6.827
 20
61.217
 10
7.151
 20
60.828
 10
7.453
 20
60.422
 10
7.732
 20
60.0
 10
7.987
 20
59.563
 10
8.218
 20
59.112
 10
8.423
 20
58.65
 10
8.602
 20
58.176
 10
8.754
 20
57.693
 10
8.879
 20
57.203
 10
8.977
 20
56.707
 10
9.047
 20
56.205
 10
9.089
 20
55.701
 10
9.103
 20
55.195
 10
9.089
 20
54.689
 10
9.047
 20
54.185
 10
8.977
 20
53.683
 10
8.879
 20
53.187
 10
8.754
 20
52.697
 10
8.602
 20
52.214
 10
8.423
 20
51.74
 10
8.218
 20
51.278
 10
7.987
 20
50.827
 10
7.732
 20
50.39
 10
7.453
 20
49.968
 10
7.151
 20
49.562
 10
6.827
 20
49.173
 10
6.482
 20
48.803
 10
6.116
 20
48.452
 10
5.732
 20
48.123
 10
5.33
 20
47.815
 10
4.912
 20
47.53
 10
4.478
 20
47.269
 10
4.031
 20
47.033
 10
3.571
 20
46.821
 10
3.1
 20
46.636
 10
2.62
 20
46.477
 10
2.131
 20
46.345
 10
1.636
 20
46.24
 10
1.136
 20
46.163
 10
0.632
 20
46.114
 10
0.127
 20
46.092
 10
-0.38
 20
46.099
 10
-0.884
 20
46.135
 10
-1.387
 20
46.198
 10
-1.884
 20
46.289
 10
-2.377
 20
46.407
 10
-2.861
 20
46.553
 10
-3.337
 20
46.725
 10
-3.803
 20
46.924
 10
-4.256
 20
47.148
  0
LWPOLYLINE
  5
333
330
1D
100
AcDbEntity
  8
0
100
AcDbPolyline
 90
       33
 70
     1
 43
0.0
 10
-29.983
 20
54.93
 10
-29.983
 20
55.46
 10
-29.851
 20
55.974
 10
-29.596
 20
56.439
 10
-29.233
 20
56.825
 10
-28.785
 20
57.11
 10
-28.281
 20
57.273
 10
-27.884
 20
57.298
 10
-27.884
 20
57.311
 10
-22.116
 20
57.311
 10
-22.116
 20
57.298
 10
-21.983
 20
57.307
 10
-21.462
 20
57.207
 10
-20.982
 20
56.982
 10
-20.573
 20
56.643
 10
-20.262
 20
56.214
 10
-20.066
 20
55.721
 10
-20.0
 20
55.195
 10
-20.066
 20
54.669
 10
-20.262
 20
54.176
 10
-20.573
 20
53.747
 10
-20.982
 20
53.408
 10
-21.462
 20
53.183
 10
-21.983
 20
53.083
 10
-22.116
 20
53.092
 10
-22.116
 20
53.079
 10
-27.884
 20
53.079
 10
-27.884
 20
53.092
 10
-28.281
 20
53.117
 10
-28.785
 20
53.28
 10
-29.233
 20
53.565
 10
-29.596
 20
53.951
 10
-29.851
 20
54.416
  0
LWPOLYLINE
  5
334
330
1D
100
AcDbEntity
  8
0
100
AcDbPolyline
 90
       31
 70
     1
 43
0.0
 10
-41.599
 20
54.931
 10
-41.599
 20
55.459
 10
-41.493
 20
55.977
 10
-41.285
 20
56.463
 10
-40.983
 20
56.897
 10
-40.599
 20
57.261
 10
-40.151
 20
57.541
 10
-39.655
 20
57.724
 10
-39.132
 20
57.805
 10
-38.604
 20
57.778
 10
-38.093
 20
57.645
 10
-37.618
 20
57.412
 10
-37.2
 20
57.089
 10
-36.855
 20
56.688
 10
-36.599
 20
56.225
 10
-36.441
 20
55.721
 10
-36.387
 20
55.195
 10
-36.441
 20
54.669
 10
-36.599
 20
54.165
 10
-36.855
 20
53.702
 10
-37.2
 20
53.301
 10
-37.618
 20
52.978
 10
-38.093
 20
52.745
 10
-38.604
 20
52.612
 10
-39.132
 20
52.585
 10
-39.655
 20
52.666
 10
-40.151
 20
52.849
 10
-40.599
 20
53.129
 10
-40.983
 20
53.493
 10
-41.285
 20
53.927
 10
-41.493
 20
54.413
  0
LWPOLYLINE
  5
335
330
1D
100
AcDbEntity
  8
0
100
AcDbPolyline
 90
        2
 70
     0
 43
0.0
 10
22.116
 20
57.311
 10
27.884
 20
57.311
  0
LWPOLYLINE
  5
3E4
330
1D
100
AcDbEntity
  8
0
100
AcDbPolyline
 90
        2
 70
     0
 43
0.0
 10
20.017
 20
54.93
 10
20.017
 20
55.46
  0
LWPOLYLINE
  5
3E5
330
1D
100
AcDbEntity
  8
0
100
AcDbPolyline
 90
        2
 70
     0
 43
0.0
 10
20.017
 20
55.46
 10
20.149
 20
55.974
  0
LWPOLYLINE
  5
3E6
330
1D
100
AcDbEntity
  8
0
100
AcDbPolyline
 90
        2
 70
     0
 43
0.0
 10
20.149
 20
55.974
 10
20.404
 20
56.439
  0
LWPOLYLINE
  5
3E7
330
1D
100
AcDbEntity
  8
0
100
AcDbPolyline
 90
        2
 70
     0
 43
0.0
 10
20.404
 20
56.439
 10
20.767
 20
56.825
  0
LWPOLYLINE
  5
3E8
330
1D
100
AcDbEntity
  8
0
100
AcDbPolyline
 90
        2
 70
     0
 43
0.0
 10
20.767
 20
56.825
 10
21.215
 20
57.11
  0
LWPOLYLINE
  5
3E9
330
1D
100
AcDbEntity
  8
0
100
AcDbPolyline
 90
        2
 70
     0
 43
0.0
 10
21.215
 20
57.11
 10
21.719
 20
57.273
  0
LWPOLYLINE
  5
3EA
330
1D
100
AcDbEntity
  8
0
100
AcDbPolyline
 90
        2
 70
     0
 43
0.0
 10
21.719
 20
57.273
 10
22.116
 20
57.298
  0
LWPOLYLINE
  5
3EB
330
1D
100
AcDbEntity
  8
0
100
AcDbPolyline
 90
        2
 70
     0
 43
0.0
 10
22.116
 20
57.298
 10
22.116
 20
57.311
  0
LWPOLYLINE
  5
3EC
330
1D
100
AcDbEntity
  8
0
100
AcDbPolyline
 90
        2
 70
     0
 43
0.0
 10
27.884
 20
57.311
 10
27.884
 20
57.298
  0
LWPOLYLINE
  5
3ED
330
1D
100
AcDbEntity
  8
0
100
AcDbPolyline
 90
        2
 70
     0
 43
0.0
 10
27.884
 20
57.298
 10
28.017
 20
57.307
  0
LWPOLYLINE
  5
3EE
330
1D
100
AcDbEntity
  8
0
100
AcDbPolyline
 90
        2
 70
     0
 43
0.0
 10
28.017
 20
57.307
 10
28.538
 20
57.207
  0
LWPOLYLINE
  5
3EF
330
1D
100
AcDbEntity
  8
0
100
AcDbPolyline
 90
        2
 70
     0
 43
0.0
 10
28.538
 20
57.207
 10
29.018
 20
56.982
  0
LWPOLYLINE
  5
3F0
330
1D
100
AcDbEntity
  8
0
100
AcDbPolyline
 90
        2
 70
     0
 43
0.0
 10
29.018
 20
56.982
 10
29.427
 20
56.643
  0
LWPOLYLINE
  5
3F1
330
1D
100
AcDbEntity
  8
0
100
AcDbPolyline
 90
        2
 70
     0
 43
0.0
 10
29.427
 20
56.643
 10
29.738
 20
56.214
  0
LWPOLYLINE
  5
3F2
330
1D
100
AcDbEntity
  8
0
100
AcDbPolyline
 90
        2
 70
     0
 43
0.0
 10
29.738
 20
56.214
 10
29.934
 20
55.721
  0
LWPOLYLINE
  5
3F3
330
1D
100
AcDbEntity
  8
0
100
AcDbPolyline
 90
        2
 70
     0
 43
0.0
 10
29.934
 20
55.721
 10
30.0
 20
55.195
  0
LWPOLYLINE
  5
3F4
330
1D
100
AcDbEntity
  8
0
100
AcDbPolyline
 90
        2
 70
     0
 43
0.0
 10
30.0
 20
55.195
 10
29.934
 20
54.669
  0
LWPOLYLINE
  5
3F5
330
1D
100
AcDbEntity
  8
0
100
AcDbPolyline
 90
        2
 70
     0
 43
0.0
 10
29.934
 20
54.669
 10
29.738
 20
54.176
  0
LWPOLYLINE
  5
3F6
330
1D
100
AcDbEntity
  8
0
100
AcDbPolyline
 90
        2
 70
     0
 43
0.0
 10
29.738
 20
54.176
 10
29.427
 20
53.747
  0
LWPOLYLINE
  5
3F7
330
1D
100
AcDbEntity
  8
0
100
AcDbPolyline
 90
        2
 70
     0
 43
0.0
 10
29.427
 20
53.747
 10
29.018
 20
53.408
  0
LWPOLYLINE
  5
3F8
330
1D
100
AcDbEntity
  8
0
100
AcDbPolyline
 90
        2
 70
     0
 43
0.0
 10
29.018
 20
53.408
 10
28.538
 20
53.183
  0
LWPOLYLINE
  5
3F9
330
1D
100
AcDbEntity
  8
0
100
AcDbPolyline
 90
        2
 70
     0
 43
0.0
 10
28.538
 20
53.183
 10
28.017
 20
53.083
  0
LWPOLYLINE
  5
3FA
330
1D
100
AcDbEntity
  8
0
100
AcDbPolyline
 90
        2
 70
     0
 43
0.0
 10
28.017
 20
53.083
 10
27.884
 20
53.092
  0
LWPOLYLINE
  5
3FB
330
1D
100
AcDbEntity
  8
0
100
AcDbPolyline
 90
        2
 70
     0
 43
0.0
 10
27.884
 20
53.092
 10
27.884
 20
53.079
  0
LWPOLYLINE
  5
3FC
330
1D
100
AcDbEntity
  8
0
100
AcDbPolyline
 90
        2
 70
     0
 43
0.0
 10
27.884
 20
53.079
 10
22.116
 20
53.079
  0
LWPOLYLINE
  5
3FD
330
1D
100
AcDbEntity
  8
0
100
AcDbPolyline
 90
        2
 70
     0
 43
0.0
 10
22.116
 20
53.079
 10
22.116
 20
53.092
  0
LWPOLYLINE
  5
3FE
330
1D
100
AcDbEntity
  8
0
100
AcDbPolyline
 90
        2
 70
     0
 43
0.0
 10
22.116
 20
53.092
 10
21.719
 20
53.117
  0
LWPOLYLINE
  5
3FF
330
1D
100
AcDbEntity
  8
0
100
AcDbPolyline
 90
        2
 70
     0
 43
0.0
 10
21.719
 20
53.117
 10
21.215
 20
53.28
  0
LWPOLYLINE
  5
400
330
1D
100
AcDbEntity
  8
0
100
AcDbPolyline
 90
        2
 70
     0
 43
0.0
 10
21.215
 20
53.28
 10
20.767
 20
53.565
  0
LWPOLYLINE
  5
401
330
1D
100
AcDbEntity
  8
0
100
AcDbPolyline
 90
        2
 70
     0
 43
0.0
 10
20.767
 20
53.565
 10
20.404
 20
53.951
  0
LWPOLYLINE
  5
402
330
1D
100
AcDbEntity
  8
0
100
AcDbPolyline
 90
        2
 70
     0
 43
0.0
 10
20.404
 20
53.951
 10
20.149
 20
54.416
  0
LWPOLYLINE
  5
403
330
1D
100
AcDbEntity
  8
0
100
AcDbPolyline
 90
        2
 70
     0
 43
0.0
 10
20.149
 20
54.416
 10
20.017
 20
54.93
  0
ENDSEC
  0
SECTION
  2
OBJECTS
  0
DICTIONARY
  5
C
330
0
100
AcDbDictionary
281
     1
  3
ACAD_DETAILVIEWSTYLE
350
D49
  3
ACAD_GROUP
350
D
  3
ACAD_IMAGE_VARS
350
284
  3
ACAD_LAYOUT
350
1A
  3
ACAD_MATERIAL
350
27C
  3
ACAD_MLEADERSTYLE
350
D47
  3
ACAD_MLINESTYLE
350
17
  3
ACAD_PLOTSETTINGS
350
19
  3
ACAD_PLOTSTYLENAME
350
E
  3
ACAD_SCALELIST
350
23D
  3
ACAD_SECTIONVIEWSTYLE
350
D4A
  3
ACAD_TABLESTYLE
350
280
  3
ACAD_VISUALSTYLE
350
263
  3
ACDB_RECOMPOSE_DATA
350
D45
  3
AcDbVariableDictionary
350
D41
  3
APPDATA
350
282
  0
SUN
  5
283
330
23C
100
AcDbSun
 90
        1
290
     0
 63
     7
421
 16777215
 40
1.0
291
     1
 91
  2455826
 92
 54000000
292
     0
 70
     2
 71
   256
280
     1
  0
DICTIONARY
  5
D49
102
{ACAD_REACTORS
330
C
102
}
330
C
100
AcDbDictionary
281
     1
  0
DICTIONARY
  5
D
102
{ACAD_REACTORS
330
C
102
}
330
C
100
AcDbDictionary
281
     1
  0
RASTERVARIABLES
  5
284
102
{ACAD_REACTORS
330
C
102
}
330
C
100
AcDbRasterVariables
 90
        0
 70
     1
 71
     1
 72
     0
  0
DICTIONARY
  5
1A
102
{ACAD_REACTORS
330
C
102
}
330
C
100
AcDbDictionary
281
     1
  3
Model
350
1E
  3
Sheet 1
350
1C
  0
DICTIONARY
  5
27C
102
{ACAD_REACTORS
330
C
102
}
330
C
100
AcDbDictionary
281
     1
  3
ByBlock
350
27E
  3
ByLayer
350
27D
  3
Global
350
27F
  0
DICTIONARY
  5
D47
102
{ACAD_REACTORS
330
C
102
}
330
C
100
AcDbDictionary
281
     1
  0
DICTIONARY
  5
17
102
{ACAD_REACTORS
330
C
102
}
330
C
100
AcDbDictionary
281
     1
  3
Standard
350
18
  0
DICTIONARY
  5
19
102
{ACAD_REACTORS
330
C
102
}
330
C
100
AcDbDictionary
281
     1
  0
ACDBDICTIONARYWDFLT
  5
E
102
{ACAD_REACTORS
330
C
102
}
330
C
100
AcDbDictionary
281
     1
  3
Normal
350
F
100
AcDbDictionaryWithDefault
340
F
  0
DICTIONARY
  5
23D
102
{ACAD_REACTORS
330
C
102
}
330
C
100
AcDbDictionary
281
     1
  3
A0
350
23E
  3
A1
350
23F
  3
A2
350
240
  3
A3
350
241
  3
A4
350
242
  3
A5
350
243
  3
A6
350
244
  3
A7
350
245
  3
A8
350
246
  3
A9
350
247
  3
B0
350
248
  3
B1
350
249
  3
B2
350
24A
  3
B3
350
24B
  3
B4
350
24C
  3
B5
350
24D
  3
B6
350
24E
  3
B7
350
24F
  3
B8
350
250
  3
B9
350
251
  3
C0
350
252
  3
C1
350
253
  3
C2
350
254
  3
C3
350
255
  3
C4
350
256
  3
C5
350
257
  3
C6
350
258
  3
C7
350
259
  3
C8
350
25A
  3
C9
350
25B
  3
D0
350
25C
  3
D1
350
25D
  3
D2
350
25E
  0
DICTIONARY
  5
D4A
102
{ACAD_REACTORS
330
C
102
}
330
C
100
AcDbDictionary
281
     1
  0
DICTIONARY
  5
280
102
{ACAD_REACTORS
330
C
102
}
330
C
100
AcDbDictionary
281
     1
  3
Standard
350
281
  0
DICTIONARY
  5
263
102
{ACAD_REACTORS
330
C
102
}
330
C
100
AcDbDictionary
281
     1
  3
2dWireframe
350
268
  3
Basic
350
26B
  3
Brighten
350
26F
  3
ColorChange
350
273
  3
Conceptual
350
26D
  3
Dim
350
26E
  3
EdgeColorOff
350
276
  3
Facepattern
350
272
  3
Flat
350
264
  3
FlatWithEdges
350
265
  3
Gouraud
350
266
  3
GouraudWithEdges
350
267
  3
Hidden
350
26A
  3
JitterOff
350
274
  3
Linepattern
350
271
  3
OverhangOff
350
275
  3
Realistic
350
26C
  3
Shaded
350
27B
  3
Shaded with edges
350
27A
  3
Shades of Gray
350
277
  3
Sketchy
350
278
  3
Thicken
350
270
  3
Wireframe
350
269
  3
X-Ray
350
279
  0
XRECORD
  5
D45
102
{ACAD_REACTORS
330
C
102
}
330
C
100
AcDbXrecord
280
     1
 90
        1
330
281
  0
DICTIONARY
  5
D41
102
{ACAD_REACTORS
330
C
102
}
330
C
100
AcDbDictionary
281
     1
  3
CANNOSCALE
350
D42
  3
CTABLESTYLE
350
D46
  3
MSLTSCALE
350
D48
  0
DICTIONARY
  5
282
102
{ACAD_REACTORS
330
C
102
}
330
C
100
AcDbDictionary
281
     1
  0
LAYOUT
  5
1E
102
{ACAD_REACTORS
330
1A
102
}
330
1A
100
AcDbPlotSettings
  1

  2
none_device
  4
Letter_(8.50_x_11.00_Inches)
  6

 40
6.35
 41
6.35
 42
6.35
 43
6.35
 44
215.9
 45
279.4
 46
0.0
 47
0.0
 48
0.0
 49
0.0
140
0.0
141
0.0
142
1.0
143
1.0
 70
  1712
 72
     0
 73
     0
 74
     0
  7

 75
     0
 76
     0
 77
     2
 78
   300
147
1.0
148
0.0
149
0.0
100
AcDbLayout
  1
Model
 70
     1
 71
     0
 10
0.0
 20
0.0
 11
12.0
 21
9.0
 12
0.0
 22
0.0
 32
0.0
 14
-46.0
 24
-10.94
 34
0.0
 15
46.0
 25
121.33
 35
0.0
146
0.0
 13
0.0
 23
0.0
 33
0.0
 16
1.0
 26
0.0
 36
0.0
 17
0.0
 27
1.0
 37
0.0
 76
     0
330
1D
331
23C
  0
LAYOUT
  5
1C
102
{ACAD_REACTORS
330
1A
102
}
330
1A
100
AcDbPlotSettings
  1

  2
none_device
  4

  6

 40
0.0
 41
0.0
 42
0.0
 43
0.0
 44
0.0
 45
0.0
 46
0.0
 47
0.0
 48
0.0
 49
0.0
140
0.0
141
0.0
142
1.0
143
1.0
 70
   688
 72
     0
 73
     0
 74
     5
  7

 75
    16
 76
     0
 77
     2
 78
   300
147
1.0
148
0.0
149
0.0
100
AcDbLayout
  1
Sheet 1
 70
     1
 71
     1
 10
0.0
 20
0.0
 11
0.0
 21
0.0
 12
0.0
 22
0.0
 32
0.0
 14
1.000000000000000E+20
 24
1.000000000000000E+20
 34
1.000000000000000E+20
 15
-1.000000000000000E+20
 25
-1.000000000000000E+20
 35
-1.000000000000000E+20
146
0.0
 13
0.0
 23
0.0
 33
0.0
 16
1.0
 26
0.0
 36
0.0
 17
0.0
 27
1.0
 37
0.0
 76
     0
330
1B
  0
MATERIAL
  5
27E
102
{ACAD_REACTORS
330
27C
102
}
330
27C
100
AcDbMaterial
  1
ByBlock
 72
     1
 94
      127
  0
MATERIAL
  5
27D
102
{ACAD_REACTORS
330
27C
102
}
330
27C
100
AcDbMaterial
  1
ByLayer
 72
     1
 94
      127
  0
MATERIAL
  5
27F
102
{ACAD_REACTORS
330
27C
102
}
330
27C
100
AcDbMaterial
  1
Global
 72
     1
 94
      127
  0
MLINESTYLE
  5
18
102
{ACAD_REACTORS
330
17
102
}
330
17
100
AcDbMlineStyle
  2
Standard
 70
     0
  3

 62
   256
 51
90.0
 52
90.0
 71
     2
 49
0.5
 62
   256
  6
BYLAYER
 49
-0.5
 62
   256
  6
BYLAYER
  0
ACDBPLACEHOLDER
  5
F
102
{ACAD_REACTORS
330
E
102
}
330
E
  0
SCALE
  5
23E
102
{ACAD_REACTORS
330
23D
102
}
330
23D
100
AcDbScale
 70
     0
300
1:1
140
1.0
141
1.0
290
     1
  0
SCALE
  5
23F
102
{ACAD_REACTORS
330
23D
102
}
330
23D
100
AcDbScale
 70
     0
300
1:2
140
1.0
141
2.0
290
     0
  0
SCALE
  5
240
102
{ACAD_REACTORS
330
23D
102
}
330
23D
100
AcDbScale
 70
     0
300
1:4
140
1.0
141
4.0
290
     0
  0
SCALE
  5
241
102
{ACAD_REACTORS
330
23D
102
}
330
23D
100
AcDbScale
 70
     0
300
1:5
140
1.0
141
5.0
290
     0
  0
SCALE
  5
242
102
{ACAD_REACTORS
330
23D
102
}
330
23D
100
AcDbScale
 70
     0
300
1:8
140
1.0
141
8.0
290
     0
  0
SCALE
  5
243
102
{ACAD_REACTORS
330
23D
102
}
330
23D
100
AcDbScale
 70
     0
300
1:10
140
1.0
141
10.0
290
     0
  0
SCALE
  5
244
102
{ACAD_REACTORS
330
23D
102
}
330
23D
100
AcDbScale
 70
     0
300
1:16
140
1.0
141
16.0
290
     0
  0
SCALE
  5
245
102
{ACAD_REACTORS
330
23D
102
}
330
23D
100
AcDbScale
 70
     0
300
1:20
140
1.0
141
20.0
290
     0
  0
SCALE
  5
246
102
{ACAD_REACTORS
330
23D
102
}
330
23D
100
AcDbScale
 70
     0
300
1:30
140
1.0
141
30.0
290
     0
  0
SCALE
  5
247
102
{ACAD_REACTORS
330
23D
102
}
330
23D
100
AcDbScale
 70
     0
300
1:40
140
1.0
141
40.0
290
     0
  0
SCALE
  5
248
102
{ACAD_REACTORS
330
23D
102
}
330
23D
100
AcDbScale
 70
     0
300
1:50
140
1.0
141
50.0
290
     0
  0
SCALE
  5
249
102
{ACAD_REACTORS
330
23D
102
}
330
23D
100
AcDbScale
 70
     0
300
1:100
140
1.0
141
100.0
290
     0
  0
SCALE
  5
24A
102
{ACAD_REACTORS
330
23D
102
}
330
23D
100
AcDbScale
 70
     0
300
2:1
140
2.0
141
1.0
290
     0
  0
SCALE
  5
24B
102
{ACAD_REACTORS
330
23D
102
}
330
23D
100
AcDbScale
 70
     0
300
4:1
140
4.0
141
1.0
290
     0
  0
SCALE
  5
24C
102
{ACAD_REACTORS
330
23D
102
}
330
23D
100
AcDbScale
 70
     0
300
8:1
140
8.0
141
1.0
290
     0
  0
SCALE
  5
24D
102
{ACAD_REACTORS
330
23D
102
}
330
23D
100
AcDbScale
 70
     0
300
10:1
140
10.0
141
1.0
290
     0
  0
SCALE
  5
24E
102
{ACAD_REACTORS
330
23D
102
}
330
23D
100
AcDbScale
 70
     0
300
100:1
140
100.0
141
1.0
290
     0
  0
SCALE
  5
24F
102
{ACAD_REACTORS
330
23D
102
}
330
23D
100
AcDbScale
 70
     0
300
1/128" = 1'-0"
140
0.0078125
141
12.0
290
     0
  0
SCALE
  5
250
102
{ACAD_REACTORS
330
23D
102
}
330
23D
100
AcDbScale
 70
     0
300
1/64" = 1'-0"
140
0.015625
141
12.0
290
     0
  0
SCALE
  5
251
102
{ACAD_REACTORS
330
23D
102
}
330
23D
100
AcDbScale
 70
     0
300
1/32" = 1'-0"
140
0.03125
141
12.0
290
     0
  0
SCALE
  5
252
102
{ACAD_REACTORS
330
23D
102
}
330
23D
100
AcDbScale
 70
     0
300
1/16" = 1'-0"
140
0.0625
141
12.0
290
     0
  0
SCALE
  5
253
102
{ACAD_REACTORS
330
23D
102
}
330
23D
100
AcDbScale
 70
     0
300
3/32" = 1'-0"
140
0.09375
141
12.0
290
     0
  0
SCALE
  5
254
102
{ACAD_REACTORS
330
23D
102
}
330
23D
100
AcDbScale
 70
     0
300
1/8" = 1'-0"
140
0.125
141
12.0
290
     0
  0
SCALE
  5
255
102
{ACAD_REACTORS
330
23D
102
}
330
23D
100
AcDbScale
 70
     0
300
3/16" = 1'-0"
140
0.1875
141
12.0
290
     0
  0
SCALE
  5
256
102
{ACAD_REACTORS
330
23D
102
}
330
23D
100
AcDbScale
 70
     0
300
1/4" = 1'-0"
140
0.25
141
12.0
290
     0
  0
SCALE
  5
257
102
{ACAD_REACTORS
330
23D
102
}
330
23D
100
AcDbScale
 70
     0
300
3/8" = 1'-0"
140
0.375
141
12.0
290
     0
  0
SCALE
  5
258
102
{ACAD_REACTORS
330
23D
102
}
330
23D
100
AcDbScale
 70
     0
300
1/2" = 1'-0"
140
0.5
141
12.0
290
     0
  0
SCALE
  5
259
102
{ACAD_REACTORS
330
23D
102
}
330
23D
100
AcDbScale
 70
     0
300
3/4" = 1'-0"
140
0.75
141
12.0
290
     0
  0
SCALE
  5
25A
102
{ACAD_REACTORS
330
23D
102
}
330
23D
100
AcDbScale
 70
     0
300
1" = 1'-0"
140
1.0
141
12.0
290
     0
  0
SCALE
  5
25B
102
{ACAD_REACTORS
330
23D
102
}
330
23D
100
AcDbScale
 70
     0
300
1-1/2" = 1'-0"
140
1.5
141
12.0
290
     0
  0
SCALE
  5
25C
102
{ACAD_REACTORS
330
23D
102
}
330
23D
100
AcDbScale
 70
     0
300
3" = 1'-0"
140
3.0
141
12.0
290
     0
  0
SCALE
  5
25D
102
{ACAD_REACTORS
330
23D
102
}
330
23D
100
AcDbScale
 70
     0
300
6" = 1'-0"
140
6.0
141
12.0
290
     0
  0
SCALE
  5
25E
102
{ACAD_REACTORS
330
23D
102
}
330
23D
100
AcDbScale
 70
     0
300
1'-0" = 1'-0"
140
12.0
141
12.0
290
     0
  0
TABLESTYLE
  5
281
102
{ACAD_REACTORS
330
280
102
}
102
{ACAD_XDICTIONARY
360
D43
102
}
330
280
100
AcDbTableStyle
  3
Standard
 70
     0
 71
     0
 40
0.06
 41
0.06
280
     0
281
     0
  7
Standard
140
0.18
170
     2
 62
     0
 63
   257
283
     0
 90
        4
 91
        0
  1

274
    -2
284
     1
 64
     0
275
    -2
285
     1
 65
     0
276
    -2
286
     1
 66
     0
277
    -2
287
     1
 67
     0
278
    -2
288
     1
 68
     0
279
    -2
289
     1
 69
     0
  7
Standard
140
0.25
170
     5
 62
     0
 63
   257
283
     0
 90
        4
 91
        0
  1

274
    -2
284
     1
 64
     0
275
    -2
285
     1
 65
     0
276
    -2
286
     1
 66
     0
277
    -2
287
     1
 67
     0
278
    -2
288
     1
 68
     0
279
    -2
289
     1
 69
     0
  7
Standard
140
0.18
170
     5
 62
     0
 63
   257
283
     0
 90
        4
 91
        0
  1

274
    -2
284
     1
 64
     0
275
    -2
285
     1
 65
     0
276
    -2
286
     1
 66
     0
277
    -2
287
     1
 67
     0
278
    -2
288
     1
 68
     0
279
    -2
289
     1
 69
     0
  0
VISUALSTYLE
  5
268
102
{ACAD_REACTORS
330
263
102
}
330
263
100
AcDbVisualStyle
  2
2dWireframe
 70
     4
177
     2
291
     0
 71
     0
176
     1
 72
     2
176
     1
 73
     0
176
     1
 90
        0
176
     1
 40
0.6
176
     1
 41
30.0
176
     1
 62
     5
 63
     7
421
 16777215
176
     1
 74
     1
176
     1
 91
        4
176
     1
 64
     7
176
     1
 65
   257
176
     1
 75
     1
176
     1
175
     1
176
     1
 42
1.0
176
     1
 92
        0
176
     1
 66
   257
176
     1
 43
1.0
176
     1
 76
     1
176
     1
 77
     6
176
     1
 78
     2
176
     1
 67
     7
176
     1
 79
     5
176
     1
170
     0
176
     1
171
     0
176
     1
290
     0
176
     1
 93
        1
176
     1
 44
0.0
176
     1
173
     0
176
     1
  0
VISUALSTYLE
  5
26B
102
{ACAD_REACTORS
330
263
102
}
330
263
100
AcDbVisualStyle
  2
Basic
 70
     7
177
     2
291
     1
 71
     1
176
     1
 72
     0
176
     1
 73
     1
176
     1
 90
        0
176
     1
 40
0.6
176
     1
 41
30.0
176
     1
 62
     5
 63
     7
421
 16777215
176
     1
 74
     0
176
     1
 91
        4
176
     1
 64
     7
176
     1
 65
   257
176
     1
 75
     1
176
     1
175
     1
176
     1
 42
1.0
176
     1
 92
        8
176
     1
 66
     7
176
     1
 43
1.0
176
     1
 76
     1
176
     1
 77
     6
176
     1
 78
     2
176
     1
 67
     7
176
     1
 79
     5
176
     1
170
     0
176
     1
171
     0
176
     1
290
     0
176
     1
 93
        1
176
     1
 44
0.0
176
     1
173
     0
176
     1
  0
VISUALSTYLE
  5
26F
102
{ACAD_REACTORS
330
263
102
}
330
263
100
AcDbVisualStyle
  2
Brighten
 70
    12
177
     2
291
     1
 71
     2
176
     1
 72
     2
176
     1
 73
     0
176
     1
 90
        0
176
     1
 40
0.6
176
     1
 41
30.0
176
     1
 62
     5
 63
     7
421
 16777215
176
     1
 74
     1
176
     1
 91
        4
176
     1
 64
     7
176
     1
 65
   257
176
     1
 75
     1
176
     1
175
     1
176
     1
 42
1.0
176
     1
 92
        8
176
     1
 66
     7
176
     1
 43
1.0
176
     1
 76
     1
176
     1
 77
     6
176
     1
 78
     2
176
     1
 67
     7
176
     1
 79
     5
176
     1
170
     0
176
     1
171
     0
176
     1
290
     0
176
     1
 93
        1
176
     1
 44
50.0
176
     1
173
     0
176
     1
  0
VISUALSTYLE
  5
273
102
{ACAD_REACTORS
330
263
102
}
330
263
100
AcDbVisualStyle
  2
ColorChange
 70
    16
177
     2
291
     1
 71
     2
176
     1
 72
     2
176
     1
 73
     3
176
     1
 90
        0
176
     1
 40
0.6
176
     1
 41
30.0
176
     1
 62
     5
 63
     8
421
  8421504
176
     1
 74
     1
176
     1
 91
        4
176
     1
 64
     7
176
     1
 65
   257
176
     1
 75
     1
176
     1
175
     1
176
     1
 42
1.0
176
     1
 92
        8
176
     1
 66
     8
424
  8421504
176
     1
 43
1.0
176
     1
 76
     1
176
     1
 77
     6
176
     1
 78
     2
176
     1
 67
     7
176
     1
 79
     5
176
     1
170
     0
176
     1
171
     0
176
     1
290
     0
176
     1
 93
        1
176
     1
 44
0.0
176
     1
173
     0
176
     1
  0
VISUALSTYLE
  5
26D
102
{ACAD_REACTORS
330
263
102
}
330
263
100
AcDbVisualStyle
  2
Conceptual
 70
     9
177
     2
291
     0
 71
     3
176
     1
 72
     2
176
     1
 73
     0
176
     1
 90
        0
176
     1
 40
0.6
176
     1
 41
30.0
176
     1
 62
     5
 63
     7
421
 16777215
176
     1
 74
     2
176
     1
 91
        2
176
     1
 64
     7
176
     1
 65
   257
176
     1
 75
     1
176
     1
175
     1
176
     1
 42
179.0
176
     1
 92
        8
176
     1
 66
     7
176
     1
 43
1.0
176
     1
 76
     1
176
     1
 77
     6
176
     1
 78
     2
176
     1
 67
     7
176
     1
 79
     3
176
     1
170
     0
176
     1
171
     0
176
     1
290
     0
176
     1
 93
        1
176
     1
 44
0.0
176
     1
173
     0
176
     1
  0
VISUALSTYLE
  5
26E
102
{ACAD_REACTORS
330
263
102
}
330
263
100
AcDbVisualStyle
  2
Dim
 70
    11
177
     2
291
     1
 71
     2
176
     1
 72
     2
176
     1
 73
     0
176
     1
 90
        0
176
     1
 40
0.6
176
     1
 41
30.0
176
     1
 62
     5
 63
     7
421
 16777215
176
     1
 74
     1
176
     1
 91
        4
176
     1
 64
     7
176
     1
 65
   257
176
     1
 75
     1
176
     1
175
     1
176
     1
 42
1.0
176
     1
 92
        8
176
     1
 66
     7
176
     1
 43
1.0
176
     1
 76
     1
176
     1
 77
     6
176
     1
 78
     2
176
     1
 67
     7
176
     1
 79
     5
176
     1
170
     0
176
     1
171
     0
176
     1
290
     0
176
     1
 93
        1
176
     1
 44
-50.0
176
     1
173
     0
176
     1
  0
VISUALSTYLE
  5
276
102
{ACAD_REACTORS
330
263
102
}
330
263
100
AcDbVisualStyle
  2
EdgeColorOff
 70
    22
177
     2
291
     1
 71
     2
176
     0
 72
     2
176
     0
 73
     0
176
     0
 90
        0
176
     0
 40
0.6
176
     0
 41
30.0
176
     0
 62
     5
 63
     7
421
 16777215
176
     0
 74
     1
176
     0
 91
        4
176
     0
 64
     7
176
     0
 65
   257
176
     0
 75
     1
176
     0
175
     1
176
     0
 42
1.0
176
     0
 92
        8
176
     2
 66
     7
176
     0
 43
1.0
176
     0
 76
     1
176
     0
 77
     6
176
     0
 78
     2
176
     0
 67
     7
176
     0
 79
     5
176
     0
170
     0
176
     0
171
     0
176
     0
290
     0
176
     0
 93
        1
176
     0
 44
0.0
176
     0
173
     0
176
     0
  0
VISUALSTYLE
  5
272
102
{ACAD_REACTORS
330
263
102
}
330
263
100
AcDbVisualStyle
  2
Facepattern
 70
    15
177
     2
291
     1
 71
     2
176
     1
 72
     2
176
     1
 73
     0
176
     1
 90
        0
176
     1
 40
0.6
176
     1
 41
30.0
176
     1
 62
     5
 63
     7
421
 16777215
176
     1
 74
     1
176
     1
 91
        4
176
     1
 64
     7
176
     1
 65
   257
176
     1
 75
     1
176
     1
175
     1
176
     1
 42
1.0
176
     1
 92
        8
176
     1
 66
     7
176
     1
 43
1.0
176
     1
 76
     1
176
     1
 77
     6
176
     1
 78
     2
176
     1
 67
     7
176
     1
 79
     5
176
     1
170
     0
176
     1
171
     0
176
     1
290
     0
176
     1
 93
        1
176
     1
 44
0.0
176
     1
173
     0
176
     1
  0
VISUALSTYLE
  5
264
102
{ACAD_REACTORS
330
263
102
}
330
263
100
AcDbVisualStyle
  2
Flat
 70
     0
177
     2
291
     1
 71
     2
176
     1
 72
     1
176
     1
 73
     1
176
     1
 90
        2
176
     1
 40
0.6
176
     1
 41
30.0
176
     1
 62
     5
 63
     7
421
 16777215
176
     1
 74
     0
176
     1
 91
        0
176
     1
 64
     7
176
     1
 65
   257
176
     1
 75
     1
176
     1
175
     1
176
     1
 42
1.0
176
     1
 92
        8
176
     1
 66
     7
176
     1
 43
1.0
176
     1
 76
     1
176
     1
 77
     6
176
     1
 78
     2
176
     1
 67
     7
176
     1
 79
     5
176
     1
170
     0
176
     1
171
     0
176
     1
290
     0
176
     1
 93
       13
176
     1
 44
0.0
176
     1
173
     0
176
     1
  0
VISUALSTYLE
  5
265
102
{ACAD_REACTORS
330
263
102
}
330
263
100
AcDbVisualStyle
  2
FlatWithEdges
 70
     1
177
     2
291
     1
 71
     2
176
     1
 72
     1
176
     1
 73
     1
176
     1
 90
        2
176
     1
 40
0.6
176
     1
 41
30.0
176
     1
 62
     5
 63
     7
421
 16777215
176
     1
 74
     1
176
     1
 91
        0
176
     1
 64
     7
176
     1
 65
   257
176
     1
 75
     1
176
     1
175
     1
176
     1
 42
1.0
176
     1
 92
        0
176
     1
 66
   257
176
     1
 43
1.0
176
     1
 76
     1
176
     1
 77
     6
176
     1
 78
     2
176
     1
 67
     7
176
     1
 79
     5
176
     1
170
     0
176
     1
171
     0
176
     1
290
     0
176
     1
 93
       13
176
     1
 44
0.0
176
     1
173
     0
176
     1
  0
VISUALSTYLE
  5
266
102
{ACAD_REACTORS
330
263
102
}
330
263
100
AcDbVisualStyle
  2
Gouraud
 70
     2
177
     2
291
     1
 71
     2
176
     1
 72
     2
176
     1
 73
     1
176
     1
 90
        2
176
     1
 40
0.6
176
     1
 41
30.0
176
     1
 62
     5
 63
     7
421
 16777215
176
     1
 74
     0
176
     1
 91
        0
176
     1
 64
     7
176
     1
 65
   257
176
     1
 75
     1
176
     1
175
     1
176
     1
 42
1.0
176
     1
 92
        0
176
     1
 66
     7
176
     1
 43
1.0
176
     1
 76
     1
176
     1
 77
     6
176
     1
 78
     2
176
     1
 67
     7
176
     1
 79
     5
176
     1
170
     0
176
     1
171
     0
176
     1
290
     0
176
     1
 93
       13
176
     1
 44
0.0
176
     1
173
     0
176
     1
  0
VISUALSTYLE
  5
267
102
{ACAD_REACTORS
330
263
102
}
330
263
100
AcDbVisualStyle
  2
GouraudWithEdges
 70
     3
177
     2
291
     1
 71
     2
176
     1
 72
     2
176
     1
 73
     1
176
     1
 90
        2
176
     1
 40
0.6
176
     1
 41
30.0
176
     1
 62
     5
 63
     7
421
 16777215
176
     1
 74
     1
176
     1
 91
        0
176
     1
 64
     7
176
     1
 65
   257
176
     1
 75
     1
176
     1
175
     1
176
     1
 42
1.0
176
     1
 92
        0
176
     1
 66
   257
176
     1
 43
1.0
176
     1
 76
     1
176
     1
 77
     6
176
     1
 78
     2
176
     1
 67
     7
176
     1
 79
     5
176
     1
170
     0
176
     1
171
     0
176
     1
290
     0
176
     1
 93
       13
176
     1
 44
0.0
176
     1
173
     0
176
     1
  0
VISUALSTYLE
  5
26A
102
{ACAD_REACTORS
330
263
102
}
330
263
100
AcDbVisualStyle
  2
Hidden
 70
     6
177
     2
291
     0
 71
     1
176
     1
 72
     2
176
     1
 73
     2
176
     1
 90
        0
176
     1
 40
0.6
176
     1
 41
30.0
176
     1
 62
     5
 63
     7
421
 16777215
176
     1
 74
     2
176
     1
 91
        2
176
     1
 64
     7
176
     1
 65
   257
176
     1
 75
     2
176
     1
175
     1
176
     1
 42
40.0
176
     1
 92
        0
176
     1
 66
   257
176
     1
 43
1.0
176
     1
 76
     1
176
     1
 77
     6
176
     1
 78
     2
176
     1
 67
     7
176
     1
 79
     3
176
     1
170
     0
176
     1
171
     0
176
     1
290
     0
176
     1
 93
        1
176
     1
 44
0.0
176
     1
173
     0
176
     1
  0
VISUALSTYLE
  5
274
102
{ACAD_REACTORS
330
263
102
}
330
263
100
AcDbVisualStyle
  2
JitterOff
 70
    20
177
     2
291
     1
 71
     2
176
     0
 72
     2
176
     0
 73
     0
176
     0
 90
        0
176
     0
 40
0.6
176
     0
 41
30.0
176
     0
 62
     5
 63
     7
421
 16777215
176
     0
 74
     1
176
     0
 91
        4
176
     0
 64
     7
176
     0
 65
   257
176
     0
 75
     1
176
     0
175
     1
176
     0
 42
1.0
176
     0
 92
       10
176
     2
 66
     7
176
     0
 43
1.0
176
     0
 76
     1
176
     0
 77
     6
176
     0
 78
     2
176
     0
 67
     7
176
     0
 79
     5
176
     0
170
     0
176
     0
171
     0
176
     0
290
     0
176
     0
 93
        1
176
     0
 44
0.0
176
     0
173
     0
176
     0
  0
VISUALSTYLE
  5
271
102
{ACAD_REACTORS
330
263
102
}
330
263
100
AcDbVisualStyle
  2
Linepattern
 70
    14
177
     2
291
     1
 71
     2
176
     1
 72
     2
176
     1
 73
     0
176
     1
 90
        0
176
     1
 40
0.6
176
     1
 41
30.0
176
     1
 62
     5
 63
     7
421
 16777215
176
     1
 74
     1
176
     1
 91
        4
176
     1
 64
     7
176
     1
 65
   257
176
     1
 75
     7
176
     1
175
     7
176
     1
 42
1.0
176
     1
 92
        8
176
     1
 66
     7
176
     1
 43
1.0
176
     1
 76
     1
176
     1
 77
     6
176
     1
 78
     2
176
     1
 67
     7
176
     1
 79
     5
176
     1
170
     0
176
     1
171
     0
176
     1
290
     0
176
     1
 93
        1
176
     1
 44
0.0
176
     1
173
     0
176
     1
  0
VISUALSTYLE
  5
275
102
{ACAD_REACTORS
330
263
102
}
330
263
100
AcDbVisualStyle
  2
OverhangOff
 70
    21
177
     2
291
     1
 71
     2
176
     0
 72
     2
176
     0
 73
     0
176
     0
 90
        0
176
     0
 40
0.6
176
     0
 41
30.0
176
     0
 62
     5
 63
     7
421
 16777215
176
     0
 74
     1
176
     0
 91
        4
176
     0
 64
     7
176
     0
 65
   257
176
     0
 75
     1
176
     0
175
     1
176
     0
 42
1.0
176
     0
 92
        9
176
     2
 66
     7
176
     0
 43
1.0
176
     0
 76
     1
176
     0
 77
     6
176
     0
 78
     2
176
     0
 67
     7
176
     0
 79
     5
176
     0
170
     0
176
     0
171
     0
176
     0
290
     0
176
     0
 93
        1
176
     0
 44
0.0
176
     0
173
     0
176
     0
  0
VISUALSTYLE
  5
26C
102
{ACAD_REACTORS
330
263
102
}
330
263
100
AcDbVisualStyle
  2
Realistic
 70
     8
177
     2
291
     0
 71
     2
176
     1
 72
     3
176
     1
 73
     0
176
     1
 90
        2
176
     1
 40
0.6
176
     1
 41
30.0
176
     1
 62
     5
 63
     7
421
 16777215
176
     1
 74
     0
176
     1
 91
        0
176
     1
 64
     7
176
     1
 65
   257
176
     1
 75
     1
176
     1
175
     1
176
     1
 42
1.0
176
     1
 92
        8
176
     1
 66
   257
176
     1
 43
1.0
176
     1
 76
     1
176
     1
 77
     6
176
     1
 78
     2
176
     1
 67
     7
176
     1
 79
     3
176
     1
170
     0
176
     1
171
     0
176
     1
290
     0
176
     1
 93
       13
176
     1
 44
0.0
176
     1
173
     0
176
     1
  0
VISUALSTYLE
  5
27B
102
{ACAD_REACTORS
330
263
102
}
330
263
100
AcDbVisualStyle
  2
Shaded
 70
    27
177
     2
291
     0
 71
     2
176
     1
 72
     2
176
     1
 73
     1
176
     1
 90
        2
176
     1
 40
0.6
176
     1
 41
30.0
176
     1
 62
     5
 63
     7
421
 16777215
176
     1
 74
     0
176
     1
 91
        4
176
     1
 64
     7
176
     1
 65
   257
176
     1
 75
     1
176
     1
175
     1
176
     1
 42
1.0
176
     1
 92
        8
176
     1
 66
   257
176
     1
 43
1.0
176
     1
 76
     1
176
     1
 77
     6
176
     1
 78
     2
176
     1
 67
     8
425
  7895160
176
     1
 79
     3
176
     1
170
     0
176
     1
171
     0
176
     1
290
     0
176
     1
 93
        5
176
     1
 44
0.0
176
     1
173
     0
176
     1
  0
VISUALSTYLE
  5
27A
102
{ACAD_REACTORS
330
263
102
}
330
263
100
AcDbVisualStyle
  2
Shaded with edges
 70
    26
177
     2
291
     0
 71
     2
176
     1
 72
     2
176
     1
 73
     1
176
     1
 90
        2
176
     1
 40
0.6
176
     1
 41
30.0
176
     1
 62
     5
 63
     7
421
 16777215
176
     1
 74
     1
176
     1
 91
       10
176
     1
 64
     7
176
     1
 65
   257
176
     1
 75
     2
176
     1
175
     1
176
     1
 42
1.0
176
     1
 92
        8
176
     1
 66
   257
176
     1
 43
1.0
176
     1
 76
     1
176
     1
 77
     6
176
     1
 78
     2
176
     1
 67
     7
176
     1
 79
     3
176
     1
170
     0
176
     1
171
     0
176
     1
290
     0
176
     1
 93
        5
176
     1
 44
0.0
176
     1
173
     0
176
     1
  0
VISUALSTYLE
  5
277
102
{ACAD_REACTORS
330
263
102
}
330
263
100
AcDbVisualStyle
  2
Shades of Gray
 70
    23
177
     2
291
     0
 71
     2
176
     1
 72
     2
176
     1
 73
     3
176
     1
 90
        0
176
     1
 40
0.6
176
     1
 41
30.0
176
     1
 62
     5
 63
     7
421
 16777215
176
     1
 74
     2
176
     1
 91
        2
176
     1
 64
     7
176
     1
 65
     7
176
     1
 75
     1
176
     1
175
     1
176
     1
 42
40.0
176
     1
 92
        8
176
     1
 66
     7
176
     1
 43
1.0
176
     1
 76
     1
176
     1
 77
     6
176
     1
 78
     2
176
     1
 67
     7
176
     1
 79
     3
176
     1
170
     0
176
     1
171
     0
176
     1
290
     0
176
     1
 93
        1
176
     1
 44
0.0
176
     1
173
     0
176
     1
  0
VISUALSTYLE
  5
278
102
{ACAD_REACTORS
330
263
102
}
330
263
100
AcDbVisualStyle
  2
Sketchy
 70
    24
177
     2
291
     0
 71
     1
176
     1
 72
     2
176
     1
 73
     2
176
     1
 90
        0
176
     1
 40
0.6
176
     1
 41
30.0
176
     1
 62
     5
 63
     7
421
 16777215
176
     1
 74
     2
176
     1
 91
        2
176
     1
 64
     7
176
     1
 65
     7
176
     1
 75
     1
176
     1
175
     1
176
     1
 42
40.0
176
     1
 92
       11
176
     1
 66
     7
176
     1
 43
1.0
176
     1
 76
     1
176
     1
 77
     6
176
     1
 78
     2
176
     1
 67
     7
176
     1
 79
     6
176
     1
170
     0
176
     1
171
     0
176
     1
290
     0
176
     1
 93
        1
176
     1
 44
0.0
176
     1
173
     0
176
     1
  0
VISUALSTYLE
  5
270
102
{ACAD_REACTORS
330
263
102
}
330
263
100
AcDbVisualStyle
  2
Thicken
 70
    13
177
     2
291
     1
 71
     2
176
     1
 72
     2
176
     1
 73
     0
176
     1
 90
        0
176
     1
 40
0.6
176
     1
 41
30.0
176
     1
 62
     5
 63
     7
421
 16777215
176
     1
 74
     1
176
     1
 91
        4
176
     1
 64
     7
176
     1
 65
   257
176
     1
 75
     1
176
     1
175
     1
176
     1
 42
1.0
176
     1
 92
       12
176
     1
 66
     7
176
     1
 43
1.0
176
     1
 76
     1
176
     1
 77
     6
176
     1
 78
     2
176
     1
 67
     7
176
     1
 79
     5
176
     1
170
     0
176
     1
171
     0
176
     1
290
     0
176
     1
 93
        1
176
     1
 44
0.0
176
     1
173
     0
176
     1
  0
VISUALSTYLE
  5
269
102
{ACAD_REACTORS
330
263
102
}
330
263
100
AcDbVisualStyle
  2
Wireframe
 70
     5
177
     2
291
     0
 71
     0
176
     1
 72
     2
176
     1
 73
     0
176
     1
 90
        0
176
     1
 40
0.6
176
     1
 41
30.0
176
     1
 62
     5
 63
     7
421
 16777215
176
     1
 74
     1
176
     1
 91
        4
176
     1
 64
     7
176
     1
 65
   257
176
     1
 75
     1
176
     1
175
     1
176
     1
 42
1.0
176
     1
 92
        0
176
     1
 66
   257
176
     1
 43
1.0
176
     1
 76
     1
176
     1
 77
     6
176
     1
 78
     2
176
     1
 67
     7
176
     1
 79
     3
176
     1
170
     0
176
     1
171
     0
176
     1
290
     0
176
     1
 93
        1
176
     1
 44
0.0
176
     1
173
     0
176
     1
  0
VISUALSTYLE
  5
279
102
{ACAD_REACTORS
330
263
102
}
330
263
100
AcDbVisualStyle
  2
X-Ray
 70
    25
177
     2
291
     0
 71
     2
176
     1
 72
     2
176
     1
 73
     1
176
     1
 90
        1
176
     1
 40
0.5
176
     1
 41
30.0
176
     1
 62
     5
 63
     7
421
 16777215
176
     1
 74
     1
176
     1
 91
        0
176
     1
 64
     7
176
     1
 65
   257
176
     1
 75
     1
176
     1
175
     1
176
     1
 42
1.0
176
     1
 92
        8
176
     1
 66
     7
176
     1
 43
1.0
176
     1
 76
     1
176
     1
 77
     6
176
     1
 78
     2
176
     1
 67
     7
176
     1
 79
     3
176
     1
170
     0
176
     1
171
     0
176
     1
290
     0
176
     1
 93
       13
176
     1
 44
0.0
176
     1
173
     0
176
     1
  0
DICTIONARYVAR
  5
D42
102
{ACAD_REACTORS
330
D41
102
}
330
D41
100
DictionaryVariables
280
     0
  1
1:1
  0
DICTIONARYVAR
  5
D46
102
{ACAD_REACTORS
330
D41
102
}
330
D41
100
DictionaryVariables
280
     0
  1
Standard
  0
DICTIONARYVAR
  5
D48
102
{ACAD_REACTORS
330
D41
102
}
330
D41
100
DictionaryVariables
280
     0
  1
0
  0
DICTIONARY
  5
D43
330
281
100
AcDbDictionary
280
     1
281
     1
  3
ACAD_ROUNDTRIP_2008_TABLESTYLE_CELLSTYLEMAP
360
D44
  0
CELLSTYLEMAP
  5
D44
102
{ACAD_REACTORS
330
D43
102
}
330
D43
100
AcDbCellStyleMap
 90
        3
300
CELLSTYLE
  1
TABLEFORMAT_BEGIN
 90
        5
170
     1
 91
        0
 92
        0
 62
   257
 93
        1
300
CONTENTFORMAT
  1
CONTENTFORMAT_BEGIN
 90
        0
 91
        0
 92
        4
 93
        0
300

 40
0.0
140
1.0
 94
        5
 62
     0
340
11
144
0.25
309
CONTENTFORMAT_END
171
     1
301
MARGIN
  1
CELLMARGIN_BEGIN
 40
0.06
 40
0.06
 40
0.06
 40
0.06
 40
0.06
 40
0.06
309
CELLMARGIN_END
 94
        6
 95
        1
302
GRIDFORMAT
  1
GRIDFORMAT_BEGIN
 90
        0
 91
        1
 62
     0
 92
       -2
340
14
 93
        0
 40
0.045
309
GRIDFORMAT_END
 95
        2
302
GRIDFORMAT
  1
GRIDFORMAT_BEGIN
 90
        0
 91
        1
 62
     0
 92
       -2
340
14
 93
        0
 40
0.045
309
GRIDFORMAT_END
 95
        4
302
GRIDFORMAT
  1
GRIDFORMAT_BEGIN
 90
        0
 91
        1
 62
     0
 92
       -2
340
14
 93
        0
 40
0.045
309
GRIDFORMAT_END
 95
        8
302
GRIDFORMAT
  1
GRIDFORMAT_BEGIN
 90
        0
 91
        1
 62
     0
 92
       -2
340
14
 93
        0
 40
0.045
309
GRIDFORMAT_END
 95
       16
302
GRIDFORMAT
  1
GRIDFORMAT_BEGIN
 90
        0
 91
        1
 62
     0
 92
       -2
340
14
 93
        0
 40
0.045
309
GRIDFORMAT_END
 95
       32
302
GRIDFORMAT
  1
GRIDFORMAT_BEGIN
 90
        0
 91
        1
 62
     0
 92
       -2
340
14
 93
        0
 40
0.045
309
GRIDFORMAT_END
309
TABLEFORMAT_END
  1
CELLSTYLE_BEGIN
 90
        1
 91
        1
300
_TITLE
309
CELLSTYLE_END
300
CELLSTYLE
  1
TABLEFORMAT_BEGIN
 90
        5
170
     1
 91
        0
 92
        0
 62
   257
 93
        1
300
CONTENTFORMAT
  1
CONTENTFORMAT_BEGIN
 90
        0
 91
        0
 92
        4
 93
        0
300

 40
0.0
140
1.0
 94
        5
 62
     0
340
11
144
0.18
309
CONTENTFORMAT_END
171
     1
301
MARGIN
  1
CELLMARGIN_BEGIN
 40
0.06
 40
0.06
 40
0.06
 40
0.06
 40
0.06
 40
0.06
309
CELLMARGIN_END
 94
        6
 95
        1
302
GRIDFORMAT
  1
GRIDFORMAT_BEGIN
 90
        0
 91
        1
 62
     0
 92
       -2
340
14
 93
        0
 40
0.045
309
GRIDFORMAT_END
 95
        2
302
GRIDFORMAT
  1
GRIDFORMAT_BEGIN
 90
        0
 91
        1
 62
     0
 92
       -2
340
14
 93
        0
 40
0.045
309
GRIDFORMAT_END
 95
        4
302
GRIDFORMAT
  1
GRIDFORMAT_BEGIN
 90
        0
 91
        1
 62
     0
 92
       -2
340
14
 93
        0
 40
0.045
309
GRIDFORMAT_END
 95
        8
302
GRIDFORMAT
  1
GRIDFORMAT_BEGIN
 90
        0
 91
        1
 62
     0
 92
       -2
340
14
 93
        0
 40
0.045
309
GRIDFORMAT_END
 95
       16
302
GRIDFORMAT
  1
GRIDFORMAT_BEGIN
 90
        0
 91
        1
 62
     0
 92
       -2
340
14
 93
        0
 40
0.045
309
GRIDFORMAT_END
 95
       32
302
GRIDFORMAT
  1
GRIDFORMAT_BEGIN
 90
        0
 91
        1
 62
     0
 92
       -2
340
14
 93
        0
 40
0.045
309
GRIDFORMAT_END
309
TABLEFORMAT_END
  1
CELLSTYLE_BEGIN
 90
        2
 91
        1
300
_HEADER
309
CELLSTYLE_END
300
CELLSTYLE
  1
TABLEFORMAT_BEGIN
 90
        5
170
     1
 91
        0
 92
        0
 62
   257
 93
        1
300
CONTENTFORMAT
  1
CONTENTFORMAT_BEGIN
 90
        0
 91
        0
 92
        4
 93
        0
300

 40
0.0
140
1.0
 94
        2
 62
     0
340
11
144
0.18
309
CONTENTFORMAT_END
171
     1
301
MARGIN
  1
CELLMARGIN_BEGIN
 40
0.06
 40
0.06
 40
0.06
 40
0.06
 40
0.06
 40
0.06
309
CELLMARGIN_END
 94
        6
 95
        1
302
GRIDFORMAT
  1
GRIDFORMAT_BEGIN
 90
        0
 91
        1
 62
     0
 92
       -2
340
14
 93
        0
 40
0.045
309
GRIDFORMAT_END
 95
        2
302
GRIDFORMAT
  1
GRIDFORMAT_BEGIN
 90
        0
 91
        1
 62
     0
 92
       -2
340
14
 93
        0
 40
0.045
309
GRIDFORMAT_END
 95
        4
302
GRIDFORMAT
  1
GRIDFORMAT_BEGIN
 90
        0
 91
        1
 62
     0
 92
       -2
340
14
 93
        0
 40
0.045
309
GRIDFORMAT_END
 95
        8
302
GRIDFORMAT
  1
GRIDFORMAT_BEGIN
 90
        0
 91
        1
 62
     0
 92
       -2
340
14
 93
        0
 40
0.045
309
GRIDFORMAT_END
 95
       16
302
GRIDFORMAT
  1
GRIDFORMAT_BEGIN
 90
        0
 91
        1
 62
     0
 92
       -2
340
14
 93
        0
 40
0.045
309
GRIDFORMAT_END
 95
       32
302
GRIDFORMAT
  1
GRIDFORMAT_BEGIN
 90
        0
 91
        1
 62
     0
 92
       -2
340
14
 93
        0
 40
0.045
309
GRIDFORMAT_END
309
TABLEFORMAT_END
  1
CELLSTYLE_BEGIN
 90
        3
 91
        2
300
_DATA
309
CELLSTYLE_END
  0
ENDSEC
  0
EOF
