solid OpenSCAD_Model
  facet normal 0 0 -1
    outer loop
      vertex -6.35 0 0
      vertex -6.03921 1.96226 0
      vertex -6.03921 -1.96226 0
    endloop
  endfacet
  facet normal 0 0 -1
    outer loop
      vertex -6.03921 -1.96226 0
      vertex -6.03921 1.96226 0
      vertex -5.13726 3.73244 0
    endloop
  endfacet
  facet normal 0 0 -1
    outer loop
      vertex -6.03921 -1.96226 0
      vertex -5.13726 3.73244 0
      vertex -3.73244 5.13726 0
    endloop
  endfacet
  facet normal 0 0 -1
    outer loop
      vertex -6.03921 -1.96226 0
      vertex -3.73244 5.13726 0
      vertex -1.96226 6.03921 0
    endloop
  endfacet
  facet normal 0 0 -1
    outer loop
      vertex -6.03921 -1.96226 0
      vertex -1.96226 6.03921 0
      vertex 0 6.35 0
    endloop
  endfacet
  facet normal 0 0 -1
    outer loop
      vertex -1.75705 3.0433 0
      vertex 0 6.35 0
      vertex 1.96226 6.03921 0
    endloop
  endfacet
  facet normal 0 0 -1
    outer loop
      vertex 1.75705 3.0433 0
      vertex 3.73244 5.13726 0
      vertex 5.13726 3.73244 0
    endloop
  endfacet
  facet normal 0 0 -1
    outer loop
      vertex 3.5141 0 0
      vertex 6.03921 1.96226 0
      vertex 6.35 0 0
    endloop
  endfacet
  facet normal 0 0 -1
    outer loop
      vertex 1.75705 -3.0433 0
      vertex 6.03921 -1.96226 0
      vertex 5.13726 -3.73244 0
    endloop
  endfacet
  facet normal 0 0 -1
    outer loop
      vertex -1.75705 -3.0433 0
      vertex 5.13726 -3.73244 0
      vertex 3.73244 -5.13726 0
    endloop
  endfacet
  facet normal 0 0 -1
    outer loop
      vertex -6.03921 -1.96226 0
      vertex 3.73244 -5.13726 0
      vertex 1.96226 -6.03921 0
    endloop
  endfacet
  facet normal 0 0 -1
    outer loop
      vertex -6.03921 -1.96226 0
      vertex 1.96226 -6.03921 0
      vertex 0 -6.35 0
    endloop
  endfacet
  facet normal 0 0 -1
    outer loop
      vertex -6.03921 -1.96226 0
      vertex 0 -6.35 0
      vertex -1.96226 -6.03921 0
    endloop
  endfacet
  facet normal 0 0 -1
    outer loop
      vertex -6.03921 -1.96226 0
      vertex -1.96226 -6.03921 0
      vertex -3.73244 -5.13726 0
    endloop
  endfacet
  facet normal 0 0 -1
    outer loop
      vertex -6.03921 -1.96226 0
      vertex -3.73244 -5.13726 0
      vertex -5.13726 -3.73244 0
    endloop
  endfacet
  facet normal 0 0 -1
    outer loop
      vertex -1.75705 -3.0433 0
      vertex -6.03921 -1.96226 0
      vertex -3.5141 0 0
    endloop
  endfacet
  facet normal 0 0 -1
    outer loop
      vertex 3.5141 0 0
      vertex 6.03921 -1.96226 0
      vertex 1.75705 -3.0433 0
    endloop
  endfacet
  facet normal 0 0 -1
    outer loop
      vertex -6.03921 -1.96226 0
      vertex -1.75705 -3.0433 0
      vertex 3.73244 -5.13726 0
    endloop
  endfacet
  facet normal 0 0 -1
    outer loop
      vertex -6.03921 -1.96226 0
      vertex 0 6.35 0
      vertex -1.75705 3.0433 0
    endloop
  endfacet
  facet normal 0 0 -1
    outer loop
      vertex -3.5141 0 0
      vertex -6.03921 -1.96226 0
      vertex -1.75705 3.0433 0
    endloop
  endfacet
  facet normal 0 0 -1
    outer loop
      vertex -1.75705 3.0433 0
      vertex 1.96226 6.03921 0
      vertex 3.73244 5.13726 0
    endloop
  endfacet
  facet normal 0 0 -1
    outer loop
      vertex -1.75705 3.0433 0
      vertex 3.73244 5.13726 0
      vertex 1.75705 3.0433 0
    endloop
  endfacet
  facet normal 0 0 -1
    outer loop
      vertex 3.5141 0 0
      vertex 6.35 0 0
      vertex 6.03921 -1.96226 0
    endloop
  endfacet
  facet normal 0 0 -1
    outer loop
      vertex 1.75705 3.0433 0
      vertex 5.13726 3.73244 0
      vertex 6.03921 1.96226 0
    endloop
  endfacet
  facet normal 0 0 -1
    outer loop
      vertex 1.75705 3.0433 0
      vertex 6.03921 1.96226 0
      vertex 3.5141 0 0
    endloop
  endfacet
  facet normal 0 0 -1
    outer loop
      vertex 1.75705 -3.0433 0
      vertex 5.13726 -3.73244 0
      vertex -1.75705 -3.0433 0
    endloop
  endfacet
  facet normal -0.987688 0.156434 0
    outer loop
      vertex -6.35 0 0
      vertex -6.35 0 15
      vertex -6.03921 1.96226 0
    endloop
  endfacet
  facet normal -0.987688 0.156434 0
    outer loop
      vertex -6.03921 1.96226 0
      vertex -6.35 0 15
      vertex -6.03921 1.96226 15
    endloop
  endfacet
  facet normal -0.987688 -0.156434 0
    outer loop
      vertex -6.35 0 0
      vertex -6.03921 -1.96226 0
      vertex -6.35 0 15
    endloop
  endfacet
  facet normal -0.987688 -0.156434 0
    outer loop
      vertex -6.35 0 15
      vertex -6.03921 -1.96226 0
      vertex -6.03921 -1.96226 15
    endloop
  endfacet
  facet normal -0.891006 -0.453991 0
    outer loop
      vertex -6.03921 -1.96226 0
      vertex -5.13726 -3.73244 0
      vertex -6.03921 -1.96226 15
    endloop
  endfacet
  facet normal -0.891006 -0.453991 0
    outer loop
      vertex -6.03921 -1.96226 15
      vertex -5.13726 -3.73244 0
      vertex -5.13726 -3.73244 15
    endloop
  endfacet
  facet normal -0.707107 -0.707107 0
    outer loop
      vertex -5.13726 -3.73244 15
      vertex -5.13726 -3.73244 0
      vertex -3.73244 -5.13726 0
    endloop
  endfacet
  facet normal -0.707107 -0.707107 0
    outer loop
      vertex -3.73244 -5.13726 15
      vertex -5.13726 -3.73244 15
      vertex -3.73244 -5.13726 0
    endloop
  endfacet
  facet normal -0.453991 -0.891006 0
    outer loop
      vertex -3.73244 -5.13726 15
      vertex -3.73244 -5.13726 0
      vertex -1.96226 -6.03921 0
    endloop
  endfacet
  facet normal -0.453991 -0.891006 0
    outer loop
      vertex -1.96226 -6.03921 15
      vertex -3.73244 -5.13726 15
      vertex -1.96226 -6.03921 0
    endloop
  endfacet
  facet normal -0.156434 -0.987688 0
    outer loop
      vertex -1.96226 -6.03921 15
      vertex -1.96226 -6.03921 0
      vertex 0 -6.35 0
    endloop
  endfacet
  facet normal -0.156434 -0.987688 0
    outer loop
      vertex 0 -6.35 15
      vertex -1.96226 -6.03921 15
      vertex 0 -6.35 0
    endloop
  endfacet
  facet normal 0.156434 -0.987688 0
    outer loop
      vertex 0 -6.35 15
      vertex 0 -6.35 0
      vertex 1.96226 -6.03921 0
    endloop
  endfacet
  facet normal 0.156434 -0.987688 0
    outer loop
      vertex 1.96226 -6.03921 15
      vertex 0 -6.35 15
      vertex 1.96226 -6.03921 0
    endloop
  endfacet
  facet normal 0.453991 -0.891006 0
    outer loop
      vertex 1.96226 -6.03921 15
      vertex 1.96226 -6.03921 0
      vertex 3.73244 -5.13726 0
    endloop
  endfacet
  facet normal 0.453991 -0.891006 0
    outer loop
      vertex 3.73244 -5.13726 15
      vertex 1.96226 -6.03921 15
      vertex 3.73244 -5.13726 0
    endloop
  endfacet
  facet normal 0.707107 -0.707107 0
    outer loop
      vertex 3.73244 -5.13726 15
      vertex 3.73244 -5.13726 0
      vertex 5.13726 -3.73244 0
    endloop
  endfacet
  facet normal 0.707107 -0.707107 0
    outer loop
      vertex 5.13726 -3.73244 15
      vertex 3.73244 -5.13726 15
      vertex 5.13726 -3.73244 0
    endloop
  endfacet
  facet normal 0.891006 -0.453991 0
    outer loop
      vertex 5.13726 -3.73244 15
      vertex 5.13726 -3.73244 0
      vertex 6.03921 -1.96226 0
    endloop
  endfacet
  facet normal 0.891006 -0.453991 0
    outer loop
      vertex 6.03921 -1.96226 15
      vertex 5.13726 -3.73244 15
      vertex 6.03921 -1.96226 0
    endloop
  endfacet
  facet normal 0.987688 -0.156434 0
    outer loop
      vertex 6.03921 -1.96226 15
      vertex 6.03921 -1.96226 0
      vertex 6.35 0 0
    endloop
  endfacet
  facet normal 0.987688 -0.156434 0
    outer loop
      vertex 6.35 0 15
      vertex 6.03921 -1.96226 15
      vertex 6.35 0 0
    endloop
  endfacet
  facet normal 0.987688 0.156434 0
    outer loop
      vertex 6.35 0 0
      vertex 6.03921 1.96226 0
      vertex 6.03921 1.96226 15
    endloop
  endfacet
  facet normal 0.987688 0.156434 0
    outer loop
      vertex 6.35 0 15
      vertex 6.35 0 0
      vertex 6.03921 1.96226 15
    endloop
  endfacet
  facet normal 0.891006 0.453991 0
    outer loop
      vertex 6.03921 1.96226 0
      vertex 5.13726 3.73244 0
      vertex 5.13726 3.73244 15
    endloop
  endfacet
  facet normal 0.891006 0.453991 0
    outer loop
      vertex 6.03921 1.96226 15
      vertex 6.03921 1.96226 0
      vertex 5.13726 3.73244 15
    endloop
  endfacet
  facet normal 0.707107 0.707107 0
    outer loop
      vertex 3.73244 5.13726 0
      vertex 3.73244 5.13726 15
      vertex 5.13726 3.73244 0
    endloop
  endfacet
  facet normal 0.707107 0.707107 0
    outer loop
      vertex 5.13726 3.73244 0
      vertex 3.73244 5.13726 15
      vertex 5.13726 3.73244 15
    endloop
  endfacet
  facet normal 0.453991 0.891006 0
    outer loop
      vertex 1.96226 6.03921 0
      vertex 1.96226 6.03921 15
      vertex 3.73244 5.13726 0
    endloop
  endfacet
  facet normal 0.453991 0.891006 0
    outer loop
      vertex 3.73244 5.13726 0
      vertex 1.96226 6.03921 15
      vertex 3.73244 5.13726 15
    endloop
  endfacet
  facet normal 0.156434 0.987688 0
    outer loop
      vertex 0 6.35 0
      vertex 0 6.35 15
      vertex 1.96226 6.03921 0
    endloop
  endfacet
  facet normal 0.156434 0.987688 0
    outer loop
      vertex 1.96226 6.03921 0
      vertex 0 6.35 15
      vertex 1.96226 6.03921 15
    endloop
  endfacet
  facet normal -0.156434 0.987688 0
    outer loop
      vertex -1.96226 6.03921 0
      vertex -1.96226 6.03921 15
      vertex 0 6.35 0
    endloop
  endfacet
  facet normal -0.156434 0.987688 0
    outer loop
      vertex 0 6.35 0
      vertex -1.96226 6.03921 15
      vertex 0 6.35 15
    endloop
  endfacet
  facet normal -0.453991 0.891006 0
    outer loop
      vertex -3.73244 5.13726 0
      vertex -3.73244 5.13726 15
      vertex -1.96226 6.03921 0
    endloop
  endfacet
  facet normal -0.453991 0.891006 0
    outer loop
      vertex -1.96226 6.03921 0
      vertex -3.73244 5.13726 15
      vertex -1.96226 6.03921 15
    endloop
  endfacet
  facet normal -0.707107 0.707107 0
    outer loop
      vertex -5.13726 3.73244 0
      vertex -5.13726 3.73244 15
      vertex -3.73244 5.13726 0
    endloop
  endfacet
  facet normal -0.707107 0.707107 0
    outer loop
      vertex -3.73244 5.13726 0
      vertex -5.13726 3.73244 15
      vertex -3.73244 5.13726 15
    endloop
  endfacet
  facet normal -0.891006 0.453991 0
    outer loop
      vertex -6.03921 1.96226 0
      vertex -6.03921 1.96226 15
      vertex -5.13726 3.73244 0
    endloop
  endfacet
  facet normal -0.891006 0.453991 0
    outer loop
      vertex -5.13726 3.73244 0
      vertex -6.03921 1.96226 15
      vertex -5.13726 3.73244 15
    endloop
  endfacet
  facet normal 0.866025 0.5 0
    outer loop
      vertex -3.5141 0 1
      vertex -1.75705 -3.0433 1
      vertex -1.75705 -3.0433 0
    endloop
  endfacet
  facet normal 0.866025 0.5 0
    outer loop
      vertex -3.5141 0 0
      vertex -3.5141 0 1
      vertex -1.75705 -3.0433 0
    endloop
  endfacet
  facet normal 0.866025 -0.5 0
    outer loop
      vertex -1.75705 3.0433 0
      vertex -1.75705 3.0433 1
      vertex -3.5141 0 1
    endloop
  endfacet
  facet normal 0.866025 -0.5 0
    outer loop
      vertex -3.5141 0 0
      vertex -1.75705 3.0433 0
      vertex -3.5141 0 1
    endloop
  endfacet
  facet normal 0 -1 0
    outer loop
      vertex 1.75705 3.0433 0
      vertex 1.75705 3.0433 1
      vertex -1.75705 3.0433 1
    endloop
  endfacet
  facet normal 0 -1 0
    outer loop
      vertex -1.75705 3.0433 0
      vertex 1.75705 3.0433 0
      vertex -1.75705 3.0433 1
    endloop
  endfacet
  facet normal -0.866025 -0.5 0
    outer loop
      vertex 3.5141 0 1
      vertex 1.75705 3.0433 1
      vertex 3.5141 0 0
    endloop
  endfacet
  facet normal -0.866025 -0.5 0
    outer loop
      vertex 3.5141 0 0
      vertex 1.75705 3.0433 1
      vertex 1.75705 3.0433 0
    endloop
  endfacet
  facet normal -0.866025 0.5 0
    outer loop
      vertex 3.5141 0 1
      vertex 3.5141 0 0
      vertex 1.75705 -3.0433 1
    endloop
  endfacet
  facet normal -0.866025 0.5 0
    outer loop
      vertex 1.75705 -3.0433 1
      vertex 3.5141 0 0
      vertex 1.75705 -3.0433 0
    endloop
  endfacet
  facet normal 0 1 0
    outer loop
      vertex 1.75705 -3.0433 1
      vertex 1.75705 -3.0433 0
      vertex -1.75705 -3.0433 1
    endloop
  endfacet
  facet normal 0 1 0
    outer loop
      vertex -1.75705 -3.0433 1
      vertex 1.75705 -3.0433 0
      vertex -1.75705 -3.0433 0
    endloop
  endfacet
  facet normal 0 0 1
    outer loop
      vertex -6.03921 1.96226 15
      vertex -6.35 0 15
      vertex -6.03921 -1.96226 15
    endloop
  endfacet
  facet normal 0 0 1
    outer loop
      vertex -3.73244 -5.13726 15
      vertex -6.03921 1.96226 15
      vertex -5.13726 -3.73244 15
    endloop
  endfacet
  facet normal 0 0 1
    outer loop
      vertex -5.13726 -3.73244 15
      vertex -6.03921 1.96226 15
      vertex -6.03921 -1.96226 15
    endloop
  endfacet
  facet normal 0 0 1
    outer loop
      vertex -1.96226 -6.03921 15
      vertex -6.03921 1.96226 15
      vertex -3.73244 -5.13726 15
    endloop
  endfacet
  facet normal 0 0 1
    outer loop
      vertex 0 -6.35 15
      vertex -6.03921 1.96226 15
      vertex -1.96226 -6.03921 15
    endloop
  endfacet
  facet normal 0 0 1
    outer loop
      vertex -2.42705 -1.76336 15
      vertex -6.03921 1.96226 15
      vertex 0 -6.35 15
    endloop
  endfacet
  facet normal 0 0 1
    outer loop
      vertex 2.42705 1.76336 15
      vertex 3 0 15
      vertex 6.35 0 15
    endloop
  endfacet
  facet normal 0 0 1
    outer loop
      vertex -0.927051 2.85317 15
      vertex 0.927051 2.85317 15
      vertex 5.13726 3.73244 15
    endloop
  endfacet
  facet normal 0 0 1
    outer loop
      vertex 0.927051 2.85317 15
      vertex 2.42705 1.76336 15
      vertex 6.03921 1.96226 15
    endloop
  endfacet
  facet normal 0 0 1
    outer loop
      vertex 1.96226 6.03921 15
      vertex -6.03921 1.96226 15
      vertex 3.73244 5.13726 15
    endloop
  endfacet
  facet normal 0 0 1
    outer loop
      vertex 0 6.35 15
      vertex -6.03921 1.96226 15
      vertex 1.96226 6.03921 15
    endloop
  endfacet
  facet normal 0 0 1
    outer loop
      vertex -1.96226 6.03921 15
      vertex -6.03921 1.96226 15
      vertex 0 6.35 15
    endloop
  endfacet
  facet normal 0 0 1
    outer loop
      vertex -3.73244 5.13726 15
      vertex -6.03921 1.96226 15
      vertex -1.96226 6.03921 15
    endloop
  endfacet
  facet normal 0 0 1
    outer loop
      vertex -5.13726 3.73244 15
      vertex -6.03921 1.96226 15
      vertex -3.73244 5.13726 15
    endloop
  endfacet
  facet normal 0 0 1
    outer loop
      vertex 1.96226 -6.03921 15
      vertex -2.42705 -1.76336 15
      vertex 0 -6.35 15
    endloop
  endfacet
  facet normal 0 0 1
    outer loop
      vertex 3 0 15
      vertex 2.42705 -1.76336 15
      vertex 6.03921 -1.96226 15
    endloop
  endfacet
  facet normal 0 0 1
    outer loop
      vertex 3.73244 5.13726 15
      vertex -0.927051 2.85317 15
      vertex 5.13726 3.73244 15
    endloop
  endfacet
  facet normal 0 0 1
    outer loop
      vertex 3.73244 5.13726 15
      vertex -6.03921 1.96226 15
      vertex -0.927051 2.85317 15
    endloop
  endfacet
  facet normal 0 0 1
    outer loop
      vertex 5.13726 3.73244 15
      vertex 0.927051 2.85317 15
      vertex 6.03921 1.96226 15
    endloop
  endfacet
  facet normal 0 0 1
    outer loop
      vertex 6.03921 1.96226 15
      vertex 2.42705 1.76336 15
      vertex 6.35 0 15
    endloop
  endfacet
  facet normal 0 0 1
    outer loop
      vertex 6.35 0 15
      vertex 3 0 15
      vertex 6.03921 -1.96226 15
    endloop
  endfacet
  facet normal 0 0 1
    outer loop
      vertex 6.03921 -1.96226 15
      vertex 2.42705 -1.76336 15
      vertex 5.13726 -3.73244 15
    endloop
  endfacet
  facet normal 0 0 1
    outer loop
      vertex -2.42705 1.76336 15
      vertex -0.927051 2.85317 15
      vertex -6.03921 1.96226 15
    endloop
  endfacet
  facet normal 0 0 1
    outer loop
      vertex 5.13726 -3.73244 15
      vertex 0.927051 -2.85317 15
      vertex 3.73244 -5.13726 15
    endloop
  endfacet
  facet normal 0 0 1
    outer loop
      vertex 3.73244 -5.13726 15
      vertex -0.927051 -2.85317 15
      vertex 1.96226 -6.03921 15
    endloop
  endfacet
  facet normal 0 0 1
    outer loop
      vertex 2.42705 -1.76336 15
      vertex 0.927051 -2.85317 15
      vertex 5.13726 -3.73244 15
    endloop
  endfacet
  facet normal 0 0 1
    outer loop
      vertex -0.927051 -2.85317 15
      vertex -2.42705 -1.76336 15
      vertex 1.96226 -6.03921 15
    endloop
  endfacet
  facet normal 0 0 1
    outer loop
      vertex -2.42705 -1.76336 15
      vertex -3 0 15
      vertex -6.03921 1.96226 15
    endloop
  endfacet
  facet normal 0 0 1
    outer loop
      vertex 0.927051 -2.85317 15
      vertex -0.927051 -2.85317 15
      vertex 3.73244 -5.13726 15
    endloop
  endfacet
  facet normal 0 0 1
    outer loop
      vertex -3 0 15
      vertex -2.42705 1.76336 15
      vertex -6.03921 1.96226 15
    endloop
  endfacet
  facet normal 0 0 -1
    outer loop
      vertex 0.132858 2.11172 1
      vertex -1.75705 3.0433 1
      vertex 0.653848 2.01234 1
    endloop
  endfacet
  facet normal 0 0 -1
    outer loop
      vertex 1.13375 -1.78651 1
      vertex 3.5141 0 1
      vertex 1.75705 -3.0433 1
    endloop
  endfacet
  facet normal 0 0 -1
    outer loop
      vertex -0.900905 -1.91452 1
      vertex 1.75705 -3.0433 1
      vertex -1.75705 -3.0433 1
    endloop
  endfacet
  facet normal 0 0 -1
    outer loop
      vertex -2.09921 -0.265192 1
      vertex -1.75705 -3.0433 1
      vertex -3.5141 0 1
    endloop
  endfacet
  facet normal 0 0 -1
    outer loop
      vertex -1.96731 -0.778913 1
      vertex -1.75705 -3.0433 1
      vertex -2.09921 -0.265192 1
    endloop
  endfacet
  facet normal 0 0 -1
    outer loop
      vertex -2.09921 0.265192 1
      vertex -2.09921 -0.265192 1
      vertex -3.5141 0 1
    endloop
  endfacet
  facet normal 0 0 -1
    outer loop
      vertex 1.13375 -1.78651 1
      vertex 1.75705 -3.0433 1
      vertex 0.653848 -2.01234 1
    endloop
  endfacet
  facet normal 0 0 -1
    outer loop
      vertex 0.132858 -2.11172 1
      vertex 1.75705 -3.0433 1
      vertex -0.396479 -2.07842 1
    endloop
  endfacet
  facet normal 0 0 -1
    outer loop
      vertex -1.7118 -1.24369 1
      vertex -1.34872 -1.63033 1
      vertex -1.75705 -3.0433 1
    endloop
  endfacet
  facet normal 0 0 -1
    outer loop
      vertex -0.396479 -2.07842 1
      vertex 1.75705 -3.0433 1
      vertex -0.900905 -1.91452 1
    endloop
  endfacet
  facet normal 0 0 -1
    outer loop
      vertex -1.34872 -1.63033 1
      vertex -0.900905 -1.91452 1
      vertex -1.75705 -3.0433 1
    endloop
  endfacet
  facet normal 0 0 -1
    outer loop
      vertex 0.653848 -2.01234 1
      vertex 1.75705 -3.0433 1
      vertex 0.132858 -2.11172 1
    endloop
  endfacet
  facet normal 0 0 -1
    outer loop
      vertex 1.54242 -1.44843 1
      vertex 3.5141 0 1
      vertex 1.13375 -1.78651 1
    endloop
  endfacet
  facet normal 0 0 -1
    outer loop
      vertex 1.85417 1.01934 1
      vertex 3.5141 0 1
      vertex 2.04942 0.526202 1
    endloop
  endfacet
  facet normal 0 0 -1
    outer loop
      vertex 1.85417 -1.01934 1
      vertex 3.5141 0 1
      vertex 1.54242 -1.44843 1
    endloop
  endfacet
  facet normal 0 0 -1
    outer loop
      vertex 2.04942 -0.526202 1
      vertex 3.5141 0 1
      vertex 1.85417 -1.01934 1
    endloop
  endfacet
  facet normal 0 0 -1
    outer loop
      vertex 2.1159 0 1
      vertex 3.5141 0 1
      vertex 2.04942 -0.526202 1
    endloop
  endfacet
  facet normal 0 0 -1
    outer loop
      vertex 2.04942 0.526202 1
      vertex 3.5141 0 1
      vertex 2.1159 0 1
    endloop
  endfacet
  facet normal 0 0 -1
    outer loop
      vertex 1.75705 3.0433 1
      vertex 3.5141 0 1
      vertex 1.85417 1.01934 1
    endloop
  endfacet
  facet normal 0 0 -1
    outer loop
      vertex 1.75705 3.0433 1
      vertex 1.85417 1.01934 1
      vertex 1.54242 1.44843 1
    endloop
  endfacet
  facet normal 0 0 -1
    outer loop
      vertex 1.75705 3.0433 1
      vertex 1.54242 1.44843 1
      vertex 1.13375 1.78651 1
    endloop
  endfacet
  facet normal 0 0 -1
    outer loop
      vertex 1.75705 3.0433 1
      vertex 1.13375 1.78651 1
      vertex 0.653848 2.01234 1
    endloop
  endfacet
  facet normal 0 0 -1
    outer loop
      vertex 1.75705 3.0433 1
      vertex 0.653848 2.01234 1
      vertex -1.75705 3.0433 1
    endloop
  endfacet
  facet normal 0 0 -1
    outer loop
      vertex -0.396479 2.07842 1
      vertex -1.75705 3.0433 1
      vertex 0.132858 2.11172 1
    endloop
  endfacet
  facet normal 0 0 -1
    outer loop
      vertex -0.900905 1.91452 1
      vertex -1.75705 3.0433 1
      vertex -0.396479 2.07842 1
    endloop
  endfacet
  facet normal 0 0 -1
    outer loop
      vertex -1.34872 1.63033 1
      vertex -1.75705 3.0433 1
      vertex -0.900905 1.91452 1
    endloop
  endfacet
  facet normal 0 0 -1
    outer loop
      vertex -1.96731 0.778913 1
      vertex -1.75705 3.0433 1
      vertex -1.7118 1.24369 1
    endloop
  endfacet
  facet normal 0 0 -1
    outer loop
      vertex -1.75705 3.0433 1
      vertex -1.34872 1.63033 1
      vertex -1.7118 1.24369 1
    endloop
  endfacet
  facet normal 0 0 -1
    outer loop
      vertex -2.09921 0.265192 1
      vertex -1.75705 3.0433 1
      vertex -1.96731 0.778913 1
    endloop
  endfacet
  facet normal 0 0 -1
    outer loop
      vertex -1.75705 3.0433 1
      vertex -2.09921 0.265192 1
      vertex -3.5141 0 1
    endloop
  endfacet
  facet normal 0 0 -1
    outer loop
      vertex -1.7118 -1.24369 1
      vertex -1.75705 -3.0433 1
      vertex -1.96731 -0.778913 1
    endloop
  endfacet
  facet normal -0.951057 -0.309017 0
    outer loop
      vertex -3 0 15
      vertex -2.42705 -1.76336 15
      vertex -3 0 23
    endloop
  endfacet
  facet normal -0.951057 -0.309017 0
    outer loop
      vertex -3 0 23
      vertex -2.42705 -1.76336 15
      vertex -2.42705 -1.76336 23
    endloop
  endfacet
  facet normal -0.587785 -0.809017 0
    outer loop
      vertex -2.42705 -1.76336 23
      vertex -2.42705 -1.76336 15
      vertex -0.927051 -2.85317 15
    endloop
  endfacet
  facet normal -0.587785 -0.809017 0
    outer loop
      vertex -0.927051 -2.85317 23
      vertex -2.42705 -1.76336 23
      vertex -0.927051 -2.85317 15
    endloop
  endfacet
  facet normal 0 -1 0
    outer loop
      vertex -0.927051 -2.85317 23
      vertex -0.927051 -2.85317 15
      vertex 0.927051 -2.85317 15
    endloop
  endfacet
  facet normal 0 -1 0
    outer loop
      vertex 0.927051 -2.85317 23
      vertex -0.927051 -2.85317 23
      vertex 0.927051 -2.85317 15
    endloop
  endfacet
  facet normal 0.587785 -0.809017 0
    outer loop
      vertex 0.927051 -2.85317 23
      vertex 0.927051 -2.85317 15
      vertex 2.42705 -1.76336 15
    endloop
  endfacet
  facet normal 0.587785 -0.809017 0
    outer loop
      vertex 2.42705 -1.76336 23
      vertex 0.927051 -2.85317 23
      vertex 2.42705 -1.76336 15
    endloop
  endfacet
  facet normal 0.951057 -0.309017 0
    outer loop
      vertex 2.42705 -1.76336 23
      vertex 2.42705 -1.76336 15
      vertex 3 0 15
    endloop
  endfacet
  facet normal 0.951057 -0.309017 0
    outer loop
      vertex 3 0 23
      vertex 2.42705 -1.76336 23
      vertex 3 0 15
    endloop
  endfacet
  facet normal 0.951057 0.309017 0
    outer loop
      vertex 3 0 15
      vertex 2.42705 1.76336 15
      vertex 2.42705 1.76336 23
    endloop
  endfacet
  facet normal 0.951057 0.309017 0
    outer loop
      vertex 3 0 23
      vertex 3 0 15
      vertex 2.42705 1.76336 23
    endloop
  endfacet
  facet normal 0.587785 0.809017 0
    outer loop
      vertex 0.927051 2.85317 15
      vertex 0.927051 2.85317 23
      vertex 2.42705 1.76336 15
    endloop
  endfacet
  facet normal 0.587785 0.809017 0
    outer loop
      vertex 2.42705 1.76336 15
      vertex 0.927051 2.85317 23
      vertex 2.42705 1.76336 23
    endloop
  endfacet
  facet normal 0 1 0
    outer loop
      vertex -0.927051 2.85317 15
      vertex -0.927051 2.85317 23
      vertex 0.927051 2.85317 15
    endloop
  endfacet
  facet normal 0 1 0
    outer loop
      vertex 0.927051 2.85317 15
      vertex -0.927051 2.85317 23
      vertex 0.927051 2.85317 23
    endloop
  endfacet
  facet normal -0.587785 0.809017 0
    outer loop
      vertex -2.42705 1.76336 15
      vertex -2.42705 1.76336 23
      vertex -0.927051 2.85317 15
    endloop
  endfacet
  facet normal -0.587785 0.809017 0
    outer loop
      vertex -0.927051 2.85317 15
      vertex -2.42705 1.76336 23
      vertex -0.927051 2.85317 23
    endloop
  endfacet
  facet normal -0.951057 0.309017 0
    outer loop
      vertex -3 0 15
      vertex -3 0 23
      vertex -2.42705 1.76336 15
    endloop
  endfacet
  facet normal -0.951057 0.309017 0
    outer loop
      vertex -2.42705 1.76336 15
      vertex -3 0 23
      vertex -2.42705 1.76336 23
    endloop
  endfacet
  facet normal 0.968583 0.24869 0
    outer loop
      vertex -2.09921 -0.265192 25
      vertex -1.96731 -0.778913 25
      vertex -1.96731 -0.778913 1
    endloop
  endfacet
  facet normal 0.968583 0.24869 0
    outer loop
      vertex -2.09921 -0.265192 1
      vertex -2.09921 -0.265192 25
      vertex -1.96731 -0.778913 1
    endloop
  endfacet
  facet normal 1 0 0
    outer loop
      vertex -2.09921 0.265192 1
      vertex -2.09921 0.265192 25
      vertex -2.09921 -0.265192 25
    endloop
  endfacet
  facet normal 1 0 0
    outer loop
      vertex -2.09921 -0.265192 1
      vertex -2.09921 0.265192 1
      vertex -2.09921 -0.265192 25
    endloop
  endfacet
  facet normal 0.968583 -0.24869 0
    outer loop
      vertex -1.96731 0.778913 1
      vertex -1.96731 0.778913 25
      vertex -2.09921 0.265192 25
    endloop
  endfacet
  facet normal 0.968583 -0.24869 0
    outer loop
      vertex -2.09921 0.265192 1
      vertex -1.96731 0.778913 1
      vertex -2.09921 0.265192 25
    endloop
  endfacet
  facet normal 0.876307 -0.481753 0
    outer loop
      vertex -1.7118 1.24369 1
      vertex -1.7118 1.24369 25
      vertex -1.96731 0.778913 25
    endloop
  endfacet
  facet normal 0.876307 -0.481753 0
    outer loop
      vertex -1.96731 0.778913 1
      vertex -1.7118 1.24369 1
      vertex -1.96731 0.778913 25
    endloop
  endfacet
  facet normal 0.728969 -0.684547 0
    outer loop
      vertex -1.34872 1.63033 1
      vertex -1.34872 1.63033 25
      vertex -1.7118 1.24369 25
    endloop
  endfacet
  facet normal 0.728969 -0.684547 0
    outer loop
      vertex -1.7118 1.24369 1
      vertex -1.34872 1.63033 1
      vertex -1.7118 1.24369 25
    endloop
  endfacet
  facet normal 0.535827 -0.844328 0
    outer loop
      vertex -0.900905 1.91452 1
      vertex -0.900905 1.91452 25
      vertex -1.34872 1.63033 25
    endloop
  endfacet
  facet normal 0.535827 -0.844328 0
    outer loop
      vertex -1.34872 1.63033 1
      vertex -0.900905 1.91452 1
      vertex -1.34872 1.63033 25
    endloop
  endfacet
  facet normal 0.309017 -0.951056 0
    outer loop
      vertex -0.396479 2.07842 1
      vertex -0.396479 2.07842 25
      vertex -0.900905 1.91452 25
    endloop
  endfacet
  facet normal 0.309017 -0.951056 0
    outer loop
      vertex -0.900905 1.91452 1
      vertex -0.396479 2.07842 1
      vertex -0.900905 1.91452 25
    endloop
  endfacet
  facet normal 0.0627904 -0.998027 0
    outer loop
      vertex 0.132858 2.11172 1
      vertex 0.132858 2.11172 25
      vertex -0.396479 2.07842 25
    endloop
  endfacet
  facet normal 0.0627904 -0.998027 0
    outer loop
      vertex -0.396479 2.07842 1
      vertex 0.132858 2.11172 1
      vertex -0.396479 2.07842 25
    endloop
  endfacet
  facet normal -0.187381 -0.982287 0
    outer loop
      vertex 0.653848 2.01234 1
      vertex 0.653848 2.01234 25
      vertex 0.132858 2.11172 25
    endloop
  endfacet
  facet normal -0.187381 -0.982287 0
    outer loop
      vertex 0.132858 2.11172 1
      vertex 0.653848 2.01234 1
      vertex 0.132858 2.11172 25
    endloop
  endfacet
  facet normal -0.42578 -0.904827 0
    outer loop
      vertex 1.13375 1.78651 1
      vertex 1.13375 1.78651 25
      vertex 0.653848 2.01234 25
    endloop
  endfacet
  facet normal -0.42578 -0.904827 0
    outer loop
      vertex 0.653848 2.01234 1
      vertex 1.13375 1.78651 1
      vertex 0.653848 2.01234 25
    endloop
  endfacet
  facet normal -0.637424 -0.770513 0
    outer loop
      vertex 1.54242 1.44843 1
      vertex 1.54242 1.44843 25
      vertex 1.13375 1.78651 25
    endloop
  endfacet
  facet normal -0.637424 -0.770513 0
    outer loop
      vertex 1.13375 1.78651 1
      vertex 1.54242 1.44843 1
      vertex 1.13375 1.78651 25
    endloop
  endfacet
  facet normal -0.809016 -0.587786 0
    outer loop
      vertex 1.85417 1.01934 25
      vertex 1.54242 1.44843 25
      vertex 1.85417 1.01934 1
    endloop
  endfacet
  facet normal -0.809016 -0.587786 0
    outer loop
      vertex 1.85417 1.01934 1
      vertex 1.54242 1.44843 25
      vertex 1.54242 1.44843 1
    endloop
  endfacet
  facet normal -0.929777 -0.368124 0
    outer loop
      vertex 2.04942 0.526202 25
      vertex 1.85417 1.01934 25
      vertex 2.04942 0.526202 1
    endloop
  endfacet
  facet normal -0.929777 -0.368124 0
    outer loop
      vertex 2.04942 0.526202 1
      vertex 1.85417 1.01934 25
      vertex 1.85417 1.01934 1
    endloop
  endfacet
  facet normal -0.992115 -0.125334 0
    outer loop
      vertex 2.1159 0 25
      vertex 2.04942 0.526202 25
      vertex 2.1159 0 1
    endloop
  endfacet
  facet normal -0.992115 -0.125334 0
    outer loop
      vertex 2.1159 0 1
      vertex 2.04942 0.526202 25
      vertex 2.04942 0.526202 1
    endloop
  endfacet
  facet normal -0.992115 0.125334 0
    outer loop
      vertex 2.1159 0 25
      vertex 2.1159 0 1
      vertex 2.04942 -0.526202 25
    endloop
  endfacet
  facet normal -0.992115 0.125334 0
    outer loop
      vertex 2.04942 -0.526202 25
      vertex 2.1159 0 1
      vertex 2.04942 -0.526202 1
    endloop
  endfacet
  facet normal -0.929777 0.368124 0
    outer loop
      vertex 2.04942 -0.526202 25
      vertex 2.04942 -0.526202 1
      vertex 1.85417 -1.01934 25
    endloop
  endfacet
  facet normal -0.929777 0.368124 0
    outer loop
      vertex 1.85417 -1.01934 25
      vertex 2.04942 -0.526202 1
      vertex 1.85417 -1.01934 1
    endloop
  endfacet
  facet normal -0.809016 0.587786 0
    outer loop
      vertex 1.85417 -1.01934 25
      vertex 1.85417 -1.01934 1
      vertex 1.54242 -1.44843 25
    endloop
  endfacet
  facet normal -0.809016 0.587786 0
    outer loop
      vertex 1.54242 -1.44843 25
      vertex 1.85417 -1.01934 1
      vertex 1.54242 -1.44843 1
    endloop
  endfacet
  facet normal -0.637424 0.770513 0
    outer loop
      vertex 1.54242 -1.44843 25
      vertex 1.54242 -1.44843 1
      vertex 1.13375 -1.78651 25
    endloop
  endfacet
  facet normal -0.637424 0.770513 0
    outer loop
      vertex 1.13375 -1.78651 25
      vertex 1.54242 -1.44843 1
      vertex 1.13375 -1.78651 1
    endloop
  endfacet
  facet normal -0.42578 0.904827 0
    outer loop
      vertex 1.13375 -1.78651 25
      vertex 1.13375 -1.78651 1
      vertex 0.653848 -2.01234 25
    endloop
  endfacet
  facet normal -0.42578 0.904827 0
    outer loop
      vertex 0.653848 -2.01234 25
      vertex 1.13375 -1.78651 1
      vertex 0.653848 -2.01234 1
    endloop
  endfacet
  facet normal -0.187381 0.982287 0
    outer loop
      vertex 0.653848 -2.01234 25
      vertex 0.653848 -2.01234 1
      vertex 0.132858 -2.11172 25
    endloop
  endfacet
  facet normal -0.187381 0.982287 0
    outer loop
      vertex 0.132858 -2.11172 25
      vertex 0.653848 -2.01234 1
      vertex 0.132858 -2.11172 1
    endloop
  endfacet
  facet normal 0.0627904 0.998027 0
    outer loop
      vertex 0.132858 -2.11172 25
      vertex 0.132858 -2.11172 1
      vertex -0.396479 -2.07842 25
    endloop
  endfacet
  facet normal 0.0627904 0.998027 0
    outer loop
      vertex -0.396479 -2.07842 25
      vertex 0.132858 -2.11172 1
      vertex -0.396479 -2.07842 1
    endloop
  endfacet
  facet normal 0.309017 0.951056 0
    outer loop
      vertex -0.396479 -2.07842 25
      vertex -0.396479 -2.07842 1
      vertex -0.900905 -1.91452 25
    endloop
  endfacet
  facet normal 0.309017 0.951056 0
    outer loop
      vertex -0.900905 -1.91452 25
      vertex -0.396479 -2.07842 1
      vertex -0.900905 -1.91452 1
    endloop
  endfacet
  facet normal 0.535827 0.844328 0
    outer loop
      vertex -0.900905 -1.91452 25
      vertex -0.900905 -1.91452 1
      vertex -1.34872 -1.63033 25
    endloop
  endfacet
  facet normal 0.535827 0.844328 0
    outer loop
      vertex -1.34872 -1.63033 25
      vertex -0.900905 -1.91452 1
      vertex -1.34872 -1.63033 1
    endloop
  endfacet
  facet normal 0.728969 0.684547 0
    outer loop
      vertex -1.7118 -1.24369 25
      vertex -1.34872 -1.63033 25
      vertex -1.34872 -1.63033 1
    endloop
  endfacet
  facet normal 0.728969 0.684547 0
    outer loop
      vertex -1.7118 -1.24369 1
      vertex -1.7118 -1.24369 25
      vertex -1.34872 -1.63033 1
    endloop
  endfacet
  facet normal 0.876307 0.481753 0
    outer loop
      vertex -1.96731 -0.778913 25
      vertex -1.7118 -1.24369 25
      vertex -1.7118 -1.24369 1
    endloop
  endfacet
  facet normal 0.876307 0.481753 0
    outer loop
      vertex -1.96731 -0.778913 1
      vertex -1.96731 -0.778913 25
      vertex -1.7118 -1.24369 1
    endloop
  endfacet
  facet normal 0 0 -1
    outer loop
      vertex -5.13726 3.73244 23
      vertex -3.73244 5.13726 23
      vertex -6.03921 1.96226 23
    endloop
  endfacet
  facet normal 0 0 -1
    outer loop
      vertex -6.03921 1.96226 23
      vertex -3.73244 5.13726 23
      vertex -1.96226 6.03921 23
    endloop
  endfacet
  facet normal 0 0 -1
    outer loop
      vertex -6.03921 1.96226 23
      vertex -1.96226 6.03921 23
      vertex 0 6.35 23
    endloop
  endfacet
  facet normal 0 0 -1
    outer loop
      vertex -6.03921 1.96226 23
      vertex 0 6.35 23
      vertex 1.96226 6.03921 23
    endloop
  endfacet
  facet normal 0 0 -1
    outer loop
      vertex -6.03921 1.96226 23
      vertex 1.96226 6.03921 23
      vertex 3.73244 5.13726 23
    endloop
  endfacet
  facet normal 0 0 -1
    outer loop
      vertex -0.927051 2.85317 23
      vertex 3.73244 5.13726 23
      vertex 5.13726 3.73244 23
    endloop
  endfacet
  facet normal 0 0 -1
    outer loop
      vertex 0.927051 2.85317 23
      vertex 5.13726 3.73244 23
      vertex 6.03921 1.96226 23
    endloop
  endfacet
  facet normal 0 0 -1
    outer loop
      vertex 2.42705 1.76336 23
      vertex 6.03921 1.96226 23
      vertex 6.35 0 23
    endloop
  endfacet
  facet normal 0 0 -1
    outer loop
      vertex 3 0 23
      vertex 6.35 0 23
      vertex 6.03921 -1.96226 23
    endloop
  endfacet
  facet normal 0 0 -1
    outer loop
      vertex 2.42705 -1.76336 23
      vertex 6.03921 -1.96226 23
      vertex 5.13726 -3.73244 23
    endloop
  endfacet
  facet normal 0 0 -1
    outer loop
      vertex 0.927051 -2.85317 23
      vertex 5.13726 -3.73244 23
      vertex 3.73244 -5.13726 23
    endloop
  endfacet
  facet normal 0 0 -1
    outer loop
      vertex -0.927051 -2.85317 23
      vertex 3.73244 -5.13726 23
      vertex 1.96226 -6.03921 23
    endloop
  endfacet
  facet normal 0 0 -1
    outer loop
      vertex -2.42705 -1.76336 23
      vertex 1.96226 -6.03921 23
      vertex 0 -6.35 23
    endloop
  endfacet
  facet normal 0 0 -1
    outer loop
      vertex -6.03921 1.96226 23
      vertex 0 -6.35 23
      vertex -1.96226 -6.03921 23
    endloop
  endfacet
  facet normal 0 0 -1
    outer loop
      vertex -6.03921 1.96226 23
      vertex -1.96226 -6.03921 23
      vertex -3.73244 -5.13726 23
    endloop
  endfacet
  facet normal 0 0 -1
    outer loop
      vertex -6.03921 1.96226 23
      vertex -3.73244 -5.13726 23
      vertex -5.13726 -3.73244 23
    endloop
  endfacet
  facet normal 0 0 -1
    outer loop
      vertex -6.03921 1.96226 23
      vertex -5.13726 -3.73244 23
      vertex -6.03921 -1.96226 23
    endloop
  endfacet
  facet normal 0 0 -1
    outer loop
      vertex -6.03921 1.96226 23
      vertex -6.03921 -1.96226 23
      vertex -6.35 0 23
    endloop
  endfacet
  facet normal 0 0 -1
    outer loop
      vertex 0.927051 -2.85317 23
      vertex 3.73244 -5.13726 23
      vertex -0.927051 -2.85317 23
    endloop
  endfacet
  facet normal 0 0 -1
    outer loop
      vertex -6.03921 1.96226 23
      vertex -2.42705 -1.76336 23
      vertex 0 -6.35 23
    endloop
  endfacet
  facet normal 0 0 -1
    outer loop
      vertex 3 0 23
      vertex 6.03921 -1.96226 23
      vertex 2.42705 -1.76336 23
    endloop
  endfacet
  facet normal 0 0 -1
    outer loop
      vertex 2.42705 1.76336 23
      vertex 6.35 0 23
      vertex 3 0 23
    endloop
  endfacet
  facet normal 0 0 -1
    outer loop
      vertex 0.927051 2.85317 23
      vertex 6.03921 1.96226 23
      vertex 2.42705 1.76336 23
    endloop
  endfacet
  facet normal 0 0 -1
    outer loop
      vertex -0.927051 2.85317 23
      vertex 5.13726 3.73244 23
      vertex 0.927051 2.85317 23
    endloop
  endfacet
  facet normal 0 0 -1
    outer loop
      vertex -6.03921 1.96226 23
      vertex 3.73244 5.13726 23
      vertex -0.927051 2.85317 23
    endloop
  endfacet
  facet normal 0 0 -1
    outer loop
      vertex -2.42705 1.76336 23
      vertex -6.03921 1.96226 23
      vertex -0.927051 2.85317 23
    endloop
  endfacet
  facet normal 0 0 -1
    outer loop
      vertex -3 0 23
      vertex -6.03921 1.96226 23
      vertex -2.42705 1.76336 23
    endloop
  endfacet
  facet normal 0 0 -1
    outer loop
      vertex -2.42705 -1.76336 23
      vertex -6.03921 1.96226 23
      vertex -3 0 23
    endloop
  endfacet
  facet normal 0 0 -1
    outer loop
      vertex 2.42705 -1.76336 23
      vertex 5.13726 -3.73244 23
      vertex 0.927051 -2.85317 23
    endloop
  endfacet
  facet normal 0 0 -1
    outer loop
      vertex -0.927051 -2.85317 23
      vertex 1.96226 -6.03921 23
      vertex -2.42705 -1.76336 23
    endloop
  endfacet
  facet normal 0 0 1
    outer loop
      vertex -6.03921 1.96226 25
      vertex -6.35 0 25
      vertex -6.03921 -1.96226 25
    endloop
  endfacet
  facet normal 0 0 1
    outer loop
      vertex -3.73244 -5.13726 25
      vertex -6.03921 1.96226 25
      vertex -5.13726 -3.73244 25
    endloop
  endfacet
  facet normal 0 0 1
    outer loop
      vertex -5.13726 -3.73244 25
      vertex -6.03921 1.96226 25
      vertex -6.03921 -1.96226 25
    endloop
  endfacet
  facet normal 0 0 1
    outer loop
      vertex -1.96226 -6.03921 25
      vertex -6.03921 1.96226 25
      vertex -3.73244 -5.13726 25
    endloop
  endfacet
  facet normal 0 0 1
    outer loop
      vertex 0 -6.35 25
      vertex -6.03921 1.96226 25
      vertex -1.96226 -6.03921 25
    endloop
  endfacet
  facet normal 0 0 1
    outer loop
      vertex 1.96226 -6.03921 25
      vertex -6.03921 1.96226 25
      vertex 0 -6.35 25
    endloop
  endfacet
  facet normal 0 0 1
    outer loop
      vertex -1.34872 -1.63033 25
      vertex -6.03921 1.96226 25
      vertex 1.96226 -6.03921 25
    endloop
  endfacet
  facet normal 0 0 1
    outer loop
      vertex 1.54242 -1.44843 25
      vertex 1.13375 -1.78651 25
      vertex 5.13726 -3.73244 25
    endloop
  endfacet
  facet normal 0 0 1
    outer loop
      vertex 2.04942 0.526202 25
      vertex 2.1159 0 25
      vertex 6.35 0 25
    endloop
  endfacet
  facet normal 0 0 1
    outer loop
      vertex 1.13375 1.78651 25
      vertex 1.54242 1.44843 25
      vertex 6.03921 1.96226 25
    endloop
  endfacet
  facet normal 0 0 1
    outer loop
      vertex 0.132858 2.11172 25
      vertex 0.653848 2.01234 25
      vertex 6.03921 1.96226 25
    endloop
  endfacet
  facet normal 0 0 1
    outer loop
      vertex 3.73244 5.13726 25
      vertex -6.03921 1.96226 25
      vertex 5.13726 3.73244 25
    endloop
  endfacet
  facet normal 0 0 1
    outer loop
      vertex 1.96226 6.03921 25
      vertex -6.03921 1.96226 25
      vertex 3.73244 5.13726 25
    endloop
  endfacet
  facet normal 0 0 1
    outer loop
      vertex 0 6.35 25
      vertex -6.03921 1.96226 25
      vertex 1.96226 6.03921 25
    endloop
  endfacet
  facet normal 0 0 1
    outer loop
      vertex -1.96226 6.03921 25
      vertex -6.03921 1.96226 25
      vertex 0 6.35 25
    endloop
  endfacet
  facet normal 0 0 1
    outer loop
      vertex -3.73244 5.13726 25
      vertex -6.03921 1.96226 25
      vertex -1.96226 6.03921 25
    endloop
  endfacet
  facet normal 0 0 1
    outer loop
      vertex -5.13726 3.73244 25
      vertex -6.03921 1.96226 25
      vertex -3.73244 5.13726 25
    endloop
  endfacet
  facet normal 0 0 1
    outer loop
      vertex -0.900905 1.91452 25
      vertex -0.396479 2.07842 25
      vertex -6.03921 1.96226 25
    endloop
  endfacet
  facet normal 0 0 1
    outer loop
      vertex 1.13375 -1.78651 25
      vertex 0.653848 -2.01234 25
      vertex 5.13726 -3.73244 25
    endloop
  endfacet
  facet normal 0 0 1
    outer loop
      vertex -1.7118 1.24369 25
      vertex -1.34872 1.63033 25
      vertex -6.03921 1.96226 25
    endloop
  endfacet
  facet normal 0 0 1
    outer loop
      vertex -0.396479 -2.07842 25
      vertex -0.900905 -1.91452 25
      vertex 3.73244 -5.13726 25
    endloop
  endfacet
  facet normal 0 0 1
    outer loop
      vertex -1.7118 1.24369 25
      vertex -6.03921 1.96226 25
      vertex -1.96731 0.778913 25
    endloop
  endfacet
  facet normal 0 0 1
    outer loop
      vertex 2.04942 -0.526202 25
      vertex 1.85417 -1.01934 25
      vertex 6.03921 -1.96226 25
    endloop
  endfacet
  facet normal 0 0 1
    outer loop
      vertex -0.900905 1.91452 25
      vertex -6.03921 1.96226 25
      vertex -1.34872 1.63033 25
    endloop
  endfacet
  facet normal 0 0 1
    outer loop
      vertex 1.85417 1.01934 25
      vertex 2.04942 0.526202 25
      vertex 6.35 0 25
    endloop
  endfacet
  facet normal 0 0 1
    outer loop
      vertex 0.653848 2.01234 25
      vertex 1.13375 1.78651 25
      vertex 6.03921 1.96226 25
    endloop
  endfacet
  facet normal 0 0 1
    outer loop
      vertex 5.13726 3.73244 25
      vertex -6.03921 1.96226 25
      vertex -0.396479 2.07842 25
    endloop
  endfacet
  facet normal 0 0 1
    outer loop
      vertex 5.13726 3.73244 25
      vertex 0.132858 2.11172 25
      vertex 6.03921 1.96226 25
    endloop
  endfacet
  facet normal 0 0 1
    outer loop
      vertex 5.13726 3.73244 25
      vertex -0.396479 2.07842 25
      vertex 0.132858 2.11172 25
    endloop
  endfacet
  facet normal 0 0 1
    outer loop
      vertex 6.03921 1.96226 25
      vertex 1.54242 1.44843 25
      vertex 6.35 0 25
    endloop
  endfacet
  facet normal 0 0 1
    outer loop
      vertex 1.54242 1.44843 25
      vertex 1.85417 1.01934 25
      vertex 6.35 0 25
    endloop
  endfacet
  facet normal 0 0 1
    outer loop
      vertex 6.35 0 25
      vertex 2.1159 0 25
      vertex 6.03921 -1.96226 25
    endloop
  endfacet
  facet normal 0 0 1
    outer loop
      vertex 2.1159 0 25
      vertex 2.04942 -0.526202 25
      vertex 6.03921 -1.96226 25
    endloop
  endfacet
  facet normal 0 0 1
    outer loop
      vertex 6.03921 -1.96226 25
      vertex 1.85417 -1.01934 25
      vertex 5.13726 -3.73244 25
    endloop
  endfacet
  facet normal 0 0 1
    outer loop
      vertex 1.85417 -1.01934 25
      vertex 1.54242 -1.44843 25
      vertex 5.13726 -3.73244 25
    endloop
  endfacet
  facet normal 0 0 1
    outer loop
      vertex 0.132858 -2.11172 25
      vertex -0.396479 -2.07842 25
      vertex 3.73244 -5.13726 25
    endloop
  endfacet
  facet normal 0 0 1
    outer loop
      vertex -2.09921 0.265192 25
      vertex -1.96731 0.778913 25
      vertex -6.03921 1.96226 25
    endloop
  endfacet
  facet normal 0 0 1
    outer loop
      vertex 5.13726 -3.73244 25
      vertex 0.653848 -2.01234 25
      vertex 3.73244 -5.13726 25
    endloop
  endfacet
  facet normal 0 0 1
    outer loop
      vertex 0.653848 -2.01234 25
      vertex 0.132858 -2.11172 25
      vertex 3.73244 -5.13726 25
    endloop
  endfacet
  facet normal 0 0 1
    outer loop
      vertex 3.73244 -5.13726 25
      vertex -0.900905 -1.91452 25
      vertex 1.96226 -6.03921 25
    endloop
  endfacet
  facet normal 0 0 1
    outer loop
      vertex -0.900905 -1.91452 25
      vertex -1.34872 -1.63033 25
      vertex 1.96226 -6.03921 25
    endloop
  endfacet
  facet normal 0 0 1
    outer loop
      vertex -1.7118 -1.24369 25
      vertex -1.96731 -0.778913 25
      vertex -6.03921 1.96226 25
    endloop
  endfacet
  facet normal 0 0 1
    outer loop
      vertex -1.34872 -1.63033 25
      vertex -1.7118 -1.24369 25
      vertex -6.03921 1.96226 25
    endloop
  endfacet
  facet normal 0 0 1
    outer loop
      vertex -2.09921 -0.265192 25
      vertex -6.03921 1.96226 25
      vertex -1.96731 -0.778913 25
    endloop
  endfacet
  facet normal 0 0 1
    outer loop
      vertex -2.09921 -0.265192 25
      vertex -2.09921 0.265192 25
      vertex -6.03921 1.96226 25
    endloop
  endfacet
  facet normal -0.891006 0.453991 0
    outer loop
      vertex -6.03921 1.96226 23
      vertex -6.03921 1.96226 25
      vertex -5.13726 3.73244 23
    endloop
  endfacet
  facet normal -0.891006 0.453991 0
    outer loop
      vertex -5.13726 3.73244 23
      vertex -6.03921 1.96226 25
      vertex -5.13726 3.73244 25
    endloop
  endfacet
  facet normal -0.987688 0.156434 0
    outer loop
      vertex -6.35 0 23
      vertex -6.35 0 25
      vertex -6.03921 1.96226 23
    endloop
  endfacet
  facet normal -0.987688 0.156434 0
    outer loop
      vertex -6.03921 1.96226 23
      vertex -6.35 0 25
      vertex -6.03921 1.96226 25
    endloop
  endfacet
  facet normal -0.987688 -0.156434 0
    outer loop
      vertex -6.35 0 23
      vertex -6.03921 -1.96226 23
      vertex -6.35 0 25
    endloop
  endfacet
  facet normal -0.987688 -0.156434 0
    outer loop
      vertex -6.35 0 25
      vertex -6.03921 -1.96226 23
      vertex -6.03921 -1.96226 25
    endloop
  endfacet
  facet normal -0.891006 -0.453991 0
    outer loop
      vertex -6.03921 -1.96226 23
      vertex -5.13726 -3.73244 23
      vertex -6.03921 -1.96226 25
    endloop
  endfacet
  facet normal -0.891006 -0.453991 0
    outer loop
      vertex -6.03921 -1.96226 25
      vertex -5.13726 -3.73244 23
      vertex -5.13726 -3.73244 25
    endloop
  endfacet
  facet normal -0.707107 -0.707107 0
    outer loop
      vertex -5.13726 -3.73244 25
      vertex -5.13726 -3.73244 23
      vertex -3.73244 -5.13726 23
    endloop
  endfacet
  facet normal -0.707107 -0.707107 0
    outer loop
      vertex -3.73244 -5.13726 25
      vertex -5.13726 -3.73244 25
      vertex -3.73244 -5.13726 23
    endloop
  endfacet
  facet normal -0.453991 -0.891006 0
    outer loop
      vertex -3.73244 -5.13726 25
      vertex -3.73244 -5.13726 23
      vertex -1.96226 -6.03921 23
    endloop
  endfacet
  facet normal -0.453991 -0.891006 0
    outer loop
      vertex -1.96226 -6.03921 25
      vertex -3.73244 -5.13726 25
      vertex -1.96226 -6.03921 23
    endloop
  endfacet
  facet normal -0.156434 -0.987688 0
    outer loop
      vertex -1.96226 -6.03921 25
      vertex -1.96226 -6.03921 23
      vertex 0 -6.35 23
    endloop
  endfacet
  facet normal -0.156434 -0.987688 0
    outer loop
      vertex 0 -6.35 25
      vertex -1.96226 -6.03921 25
      vertex 0 -6.35 23
    endloop
  endfacet
  facet normal 0.156434 -0.987688 0
    outer loop
      vertex 0 -6.35 25
      vertex 0 -6.35 23
      vertex 1.96226 -6.03921 23
    endloop
  endfacet
  facet normal 0.156434 -0.987688 0
    outer loop
      vertex 1.96226 -6.03921 25
      vertex 0 -6.35 25
      vertex 1.96226 -6.03921 23
    endloop
  endfacet
  facet normal 0.453991 -0.891006 0
    outer loop
      vertex 1.96226 -6.03921 25
      vertex 1.96226 -6.03921 23
      vertex 3.73244 -5.13726 23
    endloop
  endfacet
  facet normal 0.453991 -0.891006 0
    outer loop
      vertex 3.73244 -5.13726 25
      vertex 1.96226 -6.03921 25
      vertex 3.73244 -5.13726 23
    endloop
  endfacet
  facet normal 0.707107 -0.707107 0
    outer loop
      vertex 3.73244 -5.13726 25
      vertex 3.73244 -5.13726 23
      vertex 5.13726 -3.73244 23
    endloop
  endfacet
  facet normal 0.707107 -0.707107 0
    outer loop
      vertex 5.13726 -3.73244 25
      vertex 3.73244 -5.13726 25
      vertex 5.13726 -3.73244 23
    endloop
  endfacet
  facet normal 0.891006 -0.453991 0
    outer loop
      vertex 5.13726 -3.73244 25
      vertex 5.13726 -3.73244 23
      vertex 6.03921 -1.96226 23
    endloop
  endfacet
  facet normal 0.891006 -0.453991 0
    outer loop
      vertex 6.03921 -1.96226 25
      vertex 5.13726 -3.73244 25
      vertex 6.03921 -1.96226 23
    endloop
  endfacet
  facet normal 0.987688 -0.156434 0
    outer loop
      vertex 6.03921 -1.96226 25
      vertex 6.03921 -1.96226 23
      vertex 6.35 0 23
    endloop
  endfacet
  facet normal 0.987688 -0.156434 0
    outer loop
      vertex 6.35 0 25
      vertex 6.03921 -1.96226 25
      vertex 6.35 0 23
    endloop
  endfacet
  facet normal 0.987688 0.156434 0
    outer loop
      vertex 6.35 0 23
      vertex 6.03921 1.96226 23
      vertex 6.03921 1.96226 25
    endloop
  endfacet
  facet normal 0.987688 0.156434 0
    outer loop
      vertex 6.35 0 25
      vertex 6.35 0 23
      vertex 6.03921 1.96226 25
    endloop
  endfacet
  facet normal 0.891006 0.453991 0
    outer loop
      vertex 6.03921 1.96226 23
      vertex 5.13726 3.73244 23
      vertex 5.13726 3.73244 25
    endloop
  endfacet
  facet normal 0.891006 0.453991 0
    outer loop
      vertex 6.03921 1.96226 25
      vertex 6.03921 1.96226 23
      vertex 5.13726 3.73244 25
    endloop
  endfacet
  facet normal 0.707107 0.707107 0
    outer loop
      vertex 3.73244 5.13726 23
      vertex 3.73244 5.13726 25
      vertex 5.13726 3.73244 23
    endloop
  endfacet
  facet normal 0.707107 0.707107 0
    outer loop
      vertex 5.13726 3.73244 23
      vertex 3.73244 5.13726 25
      vertex 5.13726 3.73244 25
    endloop
  endfacet
  facet normal 0.453991 0.891006 0
    outer loop
      vertex 1.96226 6.03921 23
      vertex 1.96226 6.03921 25
      vertex 3.73244 5.13726 23
    endloop
  endfacet
  facet normal 0.453991 0.891006 0
    outer loop
      vertex 3.73244 5.13726 23
      vertex 1.96226 6.03921 25
      vertex 3.73244 5.13726 25
    endloop
  endfacet
  facet normal 0.156434 0.987688 0
    outer loop
      vertex 0 6.35 23
      vertex 0 6.35 25
      vertex 1.96226 6.03921 23
    endloop
  endfacet
  facet normal 0.156434 0.987688 0
    outer loop
      vertex 1.96226 6.03921 23
      vertex 0 6.35 25
      vertex 1.96226 6.03921 25
    endloop
  endfacet
  facet normal -0.156434 0.987688 0
    outer loop
      vertex -1.96226 6.03921 23
      vertex -1.96226 6.03921 25
      vertex 0 6.35 23
    endloop
  endfacet
  facet normal -0.156434 0.987688 0
    outer loop
      vertex 0 6.35 23
      vertex -1.96226 6.03921 25
      vertex 0 6.35 25
    endloop
  endfacet
  facet normal -0.453991 0.891006 0
    outer loop
      vertex -3.73244 5.13726 23
      vertex -3.73244 5.13726 25
      vertex -1.96226 6.03921 23
    endloop
  endfacet
  facet normal -0.453991 0.891006 0
    outer loop
      vertex -1.96226 6.03921 23
      vertex -3.73244 5.13726 25
      vertex -1.96226 6.03921 25
    endloop
  endfacet
  facet normal -0.707107 0.707107 0
    outer loop
      vertex -5.13726 3.73244 23
      vertex -5.13726 3.73244 25
      vertex -3.73244 5.13726 23
    endloop
  endfacet
  facet normal -0.707107 0.707107 0
    outer loop
      vertex -3.73244 5.13726 23
      vertex -5.13726 3.73244 25
      vertex -3.73244 5.13726 25
    endloop
  endfacet
endsolid OpenSCAD_Model
