solid OpenSCAD_Model
  facet normal -0 0 -1
    outer loop
      vertex -8 0 0
      vertex -7.76753 1.91452 0
      vertex -7.76753 -1.91452 0
    endloop
  endfacet
  facet normal 0 -0 -1
    outer loop
      vertex -7.76753 -1.91452 0
      vertex -7.76753 1.91452 0
      vertex -7.08365 3.71778 0
    endloop
  endfacet
  facet normal 0 0 -1
    outer loop
      vertex -7.76753 -1.91452 0
      vertex -7.08365 3.71778 0
      vertex -5.98809 5.30498 0
    endloop
  endfacet
  facet normal 0 0 -1
    outer loop
      vertex -7.76753 -1.91452 0
      vertex -5.98809 5.30498 0
      vertex -4.54452 6.58387 0
    endloop
  endfacet
  facet normal 0 0 -1
    outer loop
      vertex -7.76753 -1.91452 0
      vertex -4.54452 6.58387 0
      vertex -2.83684 7.48013 0
    endloop
  endfacet
  facet normal 0 0 -1
    outer loop
      vertex -7.76753 -1.91452 0
      vertex -2.83684 7.48013 0
      vertex -0.964293 7.94167 0
    endloop
  endfacet
  facet normal 0 0 -1
    outer loop
      vertex -7.76753 -1.91452 0
      vertex -0.964293 7.94167 0
      vertex 0.964293 7.94167 0
    endloop
  endfacet
  facet normal 0 0 -1
    outer loop
      vertex -7.76753 -1.91452 0
      vertex 0.964293 7.94167 0
      vertex 2.83684 7.48013 0
    endloop
  endfacet
  facet normal 0 0 -1
    outer loop
      vertex -7.76753 -1.91452 0
      vertex 2.83684 7.48013 0
      vertex 4.54452 6.58387 0
    endloop
  endfacet
  facet normal 0 0 -1
    outer loop
      vertex -7.76753 -1.91452 0
      vertex 4.54452 6.58387 0
      vertex 5.98809 5.30498 0
    endloop
  endfacet
  facet normal 0 0 -1
    outer loop
      vertex -7.76753 -1.91452 0
      vertex 5.98809 5.30498 0
      vertex 7.08365 3.71778 0
    endloop
  endfacet
  facet normal 0 0 -1
    outer loop
      vertex -7.76753 -1.91452 0
      vertex 7.08365 3.71778 0
      vertex 7.76753 1.91452 0
    endloop
  endfacet
  facet normal 0 0 -1
    outer loop
      vertex -7.76753 -1.91452 0
      vertex 7.76753 1.91452 0
      vertex 8 0 0
    endloop
  endfacet
  facet normal -0 0 -1
    outer loop
      vertex -7.76753 -1.91452 0
      vertex 8 0 0
      vertex 7.76753 -1.91452 0
    endloop
  endfacet
  facet normal 0 0 -1
    outer loop
      vertex -7.76753 -1.91452 0
      vertex 7.76753 -1.91452 0
      vertex 7.08365 -3.71778 0
    endloop
  endfacet
  facet normal 0 0 -1
    outer loop
      vertex -7.76753 -1.91452 0
      vertex 7.08365 -3.71778 0
      vertex 5.98809 -5.30498 0
    endloop
  endfacet
  facet normal 0 0 -1
    outer loop
      vertex -7.76753 -1.91452 0
      vertex 5.98809 -5.30498 0
      vertex 4.54452 -6.58387 0
    endloop
  endfacet
  facet normal 0 0 -1
    outer loop
      vertex -7.76753 -1.91452 0
      vertex 4.54452 -6.58387 0
      vertex 2.83684 -7.48013 0
    endloop
  endfacet
  facet normal 0 0 -1
    outer loop
      vertex -7.76753 -1.91452 0
      vertex 2.83684 -7.48013 0
      vertex 0.964293 -7.94167 0
    endloop
  endfacet
  facet normal 0 0 -1
    outer loop
      vertex -7.76753 -1.91452 0
      vertex 0.964293 -7.94167 0
      vertex -0.964293 -7.94167 0
    endloop
  endfacet
  facet normal 0 0 -1
    outer loop
      vertex -7.76753 -1.91452 0
      vertex -0.964293 -7.94167 0
      vertex -2.83684 -7.48013 0
    endloop
  endfacet
  facet normal 0 0 -1
    outer loop
      vertex -7.76753 -1.91452 0
      vertex -2.83684 -7.48013 0
      vertex -4.54452 -6.58387 0
    endloop
  endfacet
  facet normal 0 0 -1
    outer loop
      vertex -7.76753 -1.91452 0
      vertex -4.54452 -6.58387 0
      vertex -5.98809 -5.30498 0
    endloop
  endfacet
  facet normal 0 0 -1
    outer loop
      vertex -7.76753 -1.91452 0
      vertex -5.98809 -5.30498 0
      vertex -7.08365 -3.71778 0
    endloop
  endfacet
  facet normal -0.992709 0.120536 0
    outer loop
      vertex -8 0 0
      vertex -8 0 1
      vertex -7.76753 1.91452 0
    endloop
  endfacet
  facet normal -0.992709 0.120536 0
    outer loop
      vertex -7.76753 1.91452 0
      vertex -8 0 1
      vertex -7.76753 1.91452 1
    endloop
  endfacet
  facet normal -0.992709 -0.120536 -0
    outer loop
      vertex -8 0 0
      vertex -7.76753 -1.91452 0
      vertex -8 0 1
    endloop
  endfacet
  facet normal -0.992709 -0.120536 0
    outer loop
      vertex -8 0 1
      vertex -7.76753 -1.91452 0
      vertex -7.76753 -1.91452 1
    endloop
  endfacet
  facet normal -0.935016 -0.354605 -0
    outer loop
      vertex -7.76753 -1.91452 0
      vertex -7.08365 -3.71778 0
      vertex -7.76753 -1.91452 1
    endloop
  endfacet
  facet normal -0.935016 -0.354605 0
    outer loop
      vertex -7.76753 -1.91452 1
      vertex -7.08365 -3.71778 0
      vertex -7.08365 -3.71778 1
    endloop
  endfacet
  facet normal -0.822984 -0.568065 -0
    outer loop
      vertex -7.08365 -3.71778 0
      vertex -5.98809 -5.30498 0
      vertex -7.08365 -3.71778 1
    endloop
  endfacet
  facet normal -0.822984 -0.568065 0
    outer loop
      vertex -7.08365 -3.71778 1
      vertex -5.98809 -5.30498 0
      vertex -5.98809 -5.30498 1
    endloop
  endfacet
  facet normal -0.663123 -0.748511 0
    outer loop
      vertex -5.98809 -5.30498 1
      vertex -5.98809 -5.30498 0
      vertex -4.54452 -6.58387 0
    endloop
  endfacet
  facet normal -0.663123 -0.748511 0
    outer loop
      vertex -4.54452 -6.58387 1
      vertex -5.98809 -5.30498 1
      vertex -4.54452 -6.58387 0
    endloop
  endfacet
  facet normal -0.464723 -0.885456 0
    outer loop
      vertex -4.54452 -6.58387 1
      vertex -4.54452 -6.58387 0
      vertex -2.83684 -7.48013 0
    endloop
  endfacet
  facet normal -0.464723 -0.885456 0
    outer loop
      vertex -2.83684 -7.48013 1
      vertex -4.54452 -6.58387 1
      vertex -2.83684 -7.48013 0
    endloop
  endfacet
  facet normal -0.239316 -0.970942 0
    outer loop
      vertex -2.83684 -7.48013 1
      vertex -2.83684 -7.48013 0
      vertex -0.964293 -7.94167 0
    endloop
  endfacet
  facet normal -0.239316 -0.970942 0
    outer loop
      vertex -0.964293 -7.94167 1
      vertex -2.83684 -7.48013 1
      vertex -0.964293 -7.94167 0
    endloop
  endfacet
  facet normal 0 -1 0
    outer loop
      vertex -0.964293 -7.94167 1
      vertex -0.964293 -7.94167 0
      vertex 0.964293 -7.94167 0
    endloop
  endfacet
  facet normal 0 -1 0
    outer loop
      vertex 0.964293 -7.94167 1
      vertex -0.964293 -7.94167 1
      vertex 0.964293 -7.94167 0
    endloop
  endfacet
  facet normal 0.239316 -0.970942 0
    outer loop
      vertex 0.964293 -7.94167 1
      vertex 0.964293 -7.94167 0
      vertex 2.83684 -7.48013 0
    endloop
  endfacet
  facet normal 0.239316 -0.970942 0
    outer loop
      vertex 2.83684 -7.48013 1
      vertex 0.964293 -7.94167 1
      vertex 2.83684 -7.48013 0
    endloop
  endfacet
  facet normal 0.464723 -0.885456 0
    outer loop
      vertex 2.83684 -7.48013 1
      vertex 2.83684 -7.48013 0
      vertex 4.54452 -6.58387 0
    endloop
  endfacet
  facet normal 0.464723 -0.885456 0
    outer loop
      vertex 4.54452 -6.58387 1
      vertex 2.83684 -7.48013 1
      vertex 4.54452 -6.58387 0
    endloop
  endfacet
  facet normal 0.663123 -0.748511 0
    outer loop
      vertex 4.54452 -6.58387 1
      vertex 4.54452 -6.58387 0
      vertex 5.98809 -5.30498 0
    endloop
  endfacet
  facet normal 0.663123 -0.748511 0
    outer loop
      vertex 5.98809 -5.30498 1
      vertex 4.54452 -6.58387 1
      vertex 5.98809 -5.30498 0
    endloop
  endfacet
  facet normal 0.822984 -0.568065 0
    outer loop
      vertex 5.98809 -5.30498 1
      vertex 5.98809 -5.30498 0
      vertex 7.08365 -3.71778 0
    endloop
  endfacet
  facet normal 0.822984 -0.568065 0
    outer loop
      vertex 7.08365 -3.71778 1
      vertex 5.98809 -5.30498 1
      vertex 7.08365 -3.71778 0
    endloop
  endfacet
  facet normal 0.935016 -0.354605 0
    outer loop
      vertex 7.08365 -3.71778 1
      vertex 7.08365 -3.71778 0
      vertex 7.76753 -1.91452 0
    endloop
  endfacet
  facet normal 0.935016 -0.354605 0
    outer loop
      vertex 7.76753 -1.91452 1
      vertex 7.08365 -3.71778 1
      vertex 7.76753 -1.91452 0
    endloop
  endfacet
  facet normal 0.992709 -0.120536 0
    outer loop
      vertex 7.76753 -1.91452 1
      vertex 7.76753 -1.91452 0
      vertex 8 0 0
    endloop
  endfacet
  facet normal 0.992709 -0.120536 0
    outer loop
      vertex 8 0 1
      vertex 7.76753 -1.91452 1
      vertex 8 0 0
    endloop
  endfacet
  facet normal 0.992709 0.120536 0
    outer loop
      vertex 8 0 0
      vertex 7.76753 1.91452 0
      vertex 7.76753 1.91452 1
    endloop
  endfacet
  facet normal 0.992709 0.120536 -0
    outer loop
      vertex 8 0 1
      vertex 8 0 0
      vertex 7.76753 1.91452 1
    endloop
  endfacet
  facet normal 0.935016 0.354605 0
    outer loop
      vertex 7.76753 1.91452 0
      vertex 7.08365 3.71778 0
      vertex 7.08365 3.71778 1
    endloop
  endfacet
  facet normal 0.935016 0.354605 -0
    outer loop
      vertex 7.76753 1.91452 1
      vertex 7.76753 1.91452 0
      vertex 7.08365 3.71778 1
    endloop
  endfacet
  facet normal 0.822984 0.568065 0
    outer loop
      vertex 7.08365 3.71778 0
      vertex 5.98809 5.30498 0
      vertex 5.98809 5.30498 1
    endloop
  endfacet
  facet normal 0.822984 0.568065 -0
    outer loop
      vertex 7.08365 3.71778 1
      vertex 7.08365 3.71778 0
      vertex 5.98809 5.30498 1
    endloop
  endfacet
  facet normal 0.663123 0.748511 0
    outer loop
      vertex 4.54452 6.58387 0
      vertex 4.54452 6.58387 1
      vertex 5.98809 5.30498 0
    endloop
  endfacet
  facet normal 0.663123 0.748511 0
    outer loop
      vertex 5.98809 5.30498 0
      vertex 4.54452 6.58387 1
      vertex 5.98809 5.30498 1
    endloop
  endfacet
  facet normal 0.464723 0.885456 0
    outer loop
      vertex 2.83684 7.48013 0
      vertex 2.83684 7.48013 1
      vertex 4.54452 6.58387 0
    endloop
  endfacet
  facet normal 0.464723 0.885456 0
    outer loop
      vertex 4.54452 6.58387 0
      vertex 2.83684 7.48013 1
      vertex 4.54452 6.58387 1
    endloop
  endfacet
  facet normal 0.239316 0.970942 0
    outer loop
      vertex 0.964293 7.94167 0
      vertex 0.964293 7.94167 1
      vertex 2.83684 7.48013 0
    endloop
  endfacet
  facet normal 0.239316 0.970942 0
    outer loop
      vertex 2.83684 7.48013 0
      vertex 0.964293 7.94167 1
      vertex 2.83684 7.48013 1
    endloop
  endfacet
  facet normal 0 1 0
    outer loop
      vertex -0.964293 7.94167 0
      vertex -0.964293 7.94167 1
      vertex 0.964293 7.94167 0
    endloop
  endfacet
  facet normal 0 1 0
    outer loop
      vertex 0.964293 7.94167 0
      vertex -0.964293 7.94167 1
      vertex 0.964293 7.94167 1
    endloop
  endfacet
  facet normal -0.239316 0.970942 0
    outer loop
      vertex -2.83684 7.48013 0
      vertex -2.83684 7.48013 1
      vertex -0.964293 7.94167 0
    endloop
  endfacet
  facet normal -0.239316 0.970942 0
    outer loop
      vertex -0.964293 7.94167 0
      vertex -2.83684 7.48013 1
      vertex -0.964293 7.94167 1
    endloop
  endfacet
  facet normal -0.464723 0.885456 0
    outer loop
      vertex -4.54452 6.58387 0
      vertex -4.54452 6.58387 1
      vertex -2.83684 7.48013 0
    endloop
  endfacet
  facet normal -0.464723 0.885456 0
    outer loop
      vertex -2.83684 7.48013 0
      vertex -4.54452 6.58387 1
      vertex -2.83684 7.48013 1
    endloop
  endfacet
  facet normal -0.663123 0.748511 0
    outer loop
      vertex -5.98809 5.30498 0
      vertex -5.98809 5.30498 1
      vertex -4.54452 6.58387 0
    endloop
  endfacet
  facet normal -0.663123 0.748511 0
    outer loop
      vertex -4.54452 6.58387 0
      vertex -5.98809 5.30498 1
      vertex -4.54452 6.58387 1
    endloop
  endfacet
  facet normal -0.822984 0.568065 0
    outer loop
      vertex -7.08365 3.71778 0
      vertex -7.08365 3.71778 1
      vertex -5.98809 5.30498 0
    endloop
  endfacet
  facet normal -0.822984 0.568065 0
    outer loop
      vertex -5.98809 5.30498 0
      vertex -7.08365 3.71778 1
      vertex -5.98809 5.30498 1
    endloop
  endfacet
  facet normal -0.935016 0.354605 0
    outer loop
      vertex -7.76753 1.91452 0
      vertex -7.76753 1.91452 1
      vertex -7.08365 3.71778 0
    endloop
  endfacet
  facet normal -0.935016 0.354605 0
    outer loop
      vertex -7.08365 3.71778 0
      vertex -7.76753 1.91452 1
      vertex -7.08365 3.71778 1
    endloop
  endfacet
  facet normal 0 0 1
    outer loop
      vertex -7.76753 1.91452 1
      vertex -8 0 1
      vertex -7.76753 -1.91452 1
    endloop
  endfacet
  facet normal 0 0 1
    outer loop
      vertex -5.98809 -5.30498 1
      vertex -7.76753 1.91452 1
      vertex -7.08365 -3.71778 1
    endloop
  endfacet
  facet normal 0 0 1
    outer loop
      vertex -7.08365 -3.71778 1
      vertex -7.76753 1.91452 1
      vertex -7.76753 -1.91452 1
    endloop
  endfacet
  facet normal 0 0 1
    outer loop
      vertex -4.54452 -6.58387 1
      vertex -7.76753 1.91452 1
      vertex -5.98809 -5.30498 1
    endloop
  endfacet
  facet normal 0 0 1
    outer loop
      vertex -2.83684 -7.48013 1
      vertex -7.76753 1.91452 1
      vertex -4.54452 -6.58387 1
    endloop
  endfacet
  facet normal 0 0 1
    outer loop
      vertex -0.964293 -7.94167 1
      vertex -7.76753 1.91452 1
      vertex -2.83684 -7.48013 1
    endloop
  endfacet
  facet normal -0 0 1
    outer loop
      vertex 0.964293 -7.94167 1
      vertex -7.76753 1.91452 1
      vertex -0.964293 -7.94167 1
    endloop
  endfacet
  facet normal -0 -0 1
    outer loop
      vertex -2.91587 -2.73819 1
      vertex -7.76753 1.91452 1
      vertex 0.964293 -7.94167 1
    endloop
  endfacet
  facet normal 0 0 1
    outer loop
      vertex -3.23607 -2.35114 1
      vertex -3.50523 -1.92701 1
      vertex -7.76753 1.91452 1
    endloop
  endfacet
  facet normal 0 -0 1
    outer loop
      vertex 3.96846 -0.501333 1
      vertex 3.87433 -0.99476 1
      vertex 7.76753 -1.91452 1
    endloop
  endfacet
  facet normal 0 0 1
    outer loop
      vertex -3.71911 1.4725 1
      vertex -3.50523 1.92701 1
      vertex -7.76753 1.91452 1
    endloop
  endfacet
  facet normal 0 0 1
    outer loop
      vertex 2.5497 3.08205 1
      vertex 2.91587 2.73819 1
      vertex 7.08365 3.71778 1
    endloop
  endfacet
  facet normal 0 0 1
    outer loop
      vertex 0.749525 3.92915 1
      vertex 1.23607 3.80423 1
      vertex 5.98809 5.30498 1
    endloop
  endfacet
  facet normal 0 -0 1
    outer loop
      vertex 2.83684 7.48013 1
      vertex -7.76753 1.91452 1
      vertex 4.54452 6.58387 1
    endloop
  endfacet
  facet normal 0 -0 1
    outer loop
      vertex 0.964293 7.94167 1
      vertex -7.76753 1.91452 1
      vertex 2.83684 7.48013 1
    endloop
  endfacet
  facet normal 0 -0 1
    outer loop
      vertex -0.964293 7.94167 1
      vertex -7.76753 1.91452 1
      vertex 0.964293 7.94167 1
    endloop
  endfacet
  facet normal 0 -0 1
    outer loop
      vertex -2.83684 7.48013 1
      vertex -7.76753 1.91452 1
      vertex -0.964293 7.94167 1
    endloop
  endfacet
  facet normal 0 -0 1
    outer loop
      vertex -4.54452 6.58387 1
      vertex -7.76753 1.91452 1
      vertex -2.83684 7.48013 1
    endloop
  endfacet
  facet normal 0 -0 1
    outer loop
      vertex -5.98809 5.30498 1
      vertex -7.76753 1.91452 1
      vertex -4.54452 6.58387 1
    endloop
  endfacet
  facet normal 0 -0 1
    outer loop
      vertex -7.08365 3.71778 1
      vertex -7.76753 1.91452 1
      vertex -5.98809 5.30498 1
    endloop
  endfacet
  facet normal 0 0 1
    outer loop
      vertex -4 0 1
      vertex -3.96846 0.501333 1
      vertex -7.76753 1.91452 1
    endloop
  endfacet
  facet normal 0 -0 1
    outer loop
      vertex 2.14331 -3.37731 1
      vertex 1.70312 -3.61931 1
      vertex 5.98809 -5.30498 1
    endloop
  endfacet
  facet normal 0 0 1
    outer loop
      vertex -3.96846 0.501333 1
      vertex -3.87433 0.99476 1
      vertex -7.76753 1.91452 1
    endloop
  endfacet
  facet normal 0 -0 1
    outer loop
      vertex 3.23607 -2.35114 1
      vertex 2.91587 -2.73819 1
      vertex 7.08365 -3.71778 1
    endloop
  endfacet
  facet normal 0 0 1
    outer loop
      vertex -3.87433 0.99476 1
      vertex -3.71911 1.4725 1
      vertex -7.76753 1.91452 1
    endloop
  endfacet
  facet normal 0 -0 1
    outer loop
      vertex 3.87433 -0.99476 1
      vertex 3.71911 -1.4725 1
      vertex 7.76753 -1.91452 1
    endloop
  endfacet
  facet normal 0 0 1
    outer loop
      vertex 0.251162 3.99211 1
      vertex 0.749525 3.92915 1
      vertex 5.98809 5.30498 1
    endloop
  endfacet
  facet normal 0 0 1
    outer loop
      vertex 3.96846 0.501333 1
      vertex 4 0 1
      vertex 8 0 1
    endloop
  endfacet
  facet normal -0 0 1
    outer loop
      vertex -3.23607 2.35114 1
      vertex -2.91587 2.73819 1
      vertex -7.76753 1.91452 1
    endloop
  endfacet
  facet normal -0 -0 1
    outer loop
      vertex -1.23607 -3.80423 1
      vertex -1.70312 -3.61931 1
      vertex 2.83684 -7.48013 1
    endloop
  endfacet
  facet normal 0 0 1
    outer loop
      vertex -3.23607 2.35114 1
      vertex -7.76753 1.91452 1
      vertex -3.50523 1.92701 1
    endloop
  endfacet
  facet normal -0 0 1
    outer loop
      vertex -2.5497 3.08205 1
      vertex -2.14331 3.37731 1
      vertex -7.76753 1.91452 1
    endloop
  endfacet
  facet normal 0 0 1
    outer loop
      vertex 3.50523 1.92701 1
      vertex 3.71911 1.4725 1
      vertex 7.76753 1.91452 1
    endloop
  endfacet
  facet normal 0 0 1
    outer loop
      vertex -2.5497 3.08205 1
      vertex -7.76753 1.91452 1
      vertex -2.91587 2.73819 1
    endloop
  endfacet
  facet normal 0 0 1
    outer loop
      vertex -1.70312 3.61931 1
      vertex -1.23607 3.80423 1
      vertex 4.54452 6.58387 1
    endloop
  endfacet
  facet normal 0 0 1
    outer loop
      vertex 2.14331 3.37731 1
      vertex 2.5497 3.08205 1
      vertex 7.08365 3.71778 1
    endloop
  endfacet
  facet normal 0 0 1
    outer loop
      vertex -1.70312 3.61931 1
      vertex -7.76753 1.91452 1
      vertex -2.14331 3.37731 1
    endloop
  endfacet
  facet normal 0 0 1
    outer loop
      vertex -0.749525 3.92915 1
      vertex -0.251162 3.99211 1
      vertex 5.98809 5.30498 1
    endloop
  endfacet
  facet normal 0 0 1
    outer loop
      vertex 4.54452 6.58387 1
      vertex -7.76753 1.91452 1
      vertex -1.70312 3.61931 1
    endloop
  endfacet
  facet normal 0 -0 1
    outer loop
      vertex 4.54452 6.58387 1
      vertex -0.749525 3.92915 1
      vertex 5.98809 5.30498 1
    endloop
  endfacet
  facet normal 0 0 1
    outer loop
      vertex 4.54452 6.58387 1
      vertex -1.23607 3.80423 1
      vertex -0.749525 3.92915 1
    endloop
  endfacet
  facet normal 0 0 1
    outer loop
      vertex -0.251162 3.99211 1
      vertex 0.251162 3.99211 1
      vertex 5.98809 5.30498 1
    endloop
  endfacet
  facet normal 0 -0 1
    outer loop
      vertex 5.98809 5.30498 1
      vertex 1.23607 3.80423 1
      vertex 7.08365 3.71778 1
    endloop
  endfacet
  facet normal 0 0 1
    outer loop
      vertex 1.23607 3.80423 1
      vertex 1.70312 3.61931 1
      vertex 7.08365 3.71778 1
    endloop
  endfacet
  facet normal 0 0 1
    outer loop
      vertex 1.70312 3.61931 1
      vertex 2.14331 3.37731 1
      vertex 7.08365 3.71778 1
    endloop
  endfacet
  facet normal 0 -0 1
    outer loop
      vertex 7.08365 3.71778 1
      vertex 2.91587 2.73819 1
      vertex 7.76753 1.91452 1
    endloop
  endfacet
  facet normal 0 0 1
    outer loop
      vertex 2.91587 2.73819 1
      vertex 3.23607 2.35114 1
      vertex 7.76753 1.91452 1
    endloop
  endfacet
  facet normal 0 0 1
    outer loop
      vertex 3.23607 2.35114 1
      vertex 3.50523 1.92701 1
      vertex 7.76753 1.91452 1
    endloop
  endfacet
  facet normal 0 -0 1
    outer loop
      vertex 7.76753 1.91452 1
      vertex 3.71911 1.4725 1
      vertex 8 0 1
    endloop
  endfacet
  facet normal 0 0 1
    outer loop
      vertex 3.71911 1.4725 1
      vertex 3.87433 0.99476 1
      vertex 8 0 1
    endloop
  endfacet
  facet normal 0 0 1
    outer loop
      vertex 3.87433 0.99476 1
      vertex 3.96846 0.501333 1
      vertex 8 0 1
    endloop
  endfacet
  facet normal 0 0 1
    outer loop
      vertex 8 0 1
      vertex 4 0 1
      vertex 7.76753 -1.91452 1
    endloop
  endfacet
  facet normal 0 -0 1
    outer loop
      vertex 4 0 1
      vertex 3.96846 -0.501333 1
      vertex 7.76753 -1.91452 1
    endloop
  endfacet
  facet normal 0 -0 1
    outer loop
      vertex 3.50523 -1.92701 1
      vertex 3.23607 -2.35114 1
      vertex 7.08365 -3.71778 1
    endloop
  endfacet
  facet normal -0 0 1
    outer loop
      vertex 7.76753 -1.91452 1
      vertex 3.71911 -1.4725 1
      vertex 7.08365 -3.71778 1
    endloop
  endfacet
  facet normal 0 -0 1
    outer loop
      vertex 3.71911 -1.4725 1
      vertex 3.50523 -1.92701 1
      vertex 7.08365 -3.71778 1
    endloop
  endfacet
  facet normal 0 -0 1
    outer loop
      vertex 2.5497 -3.08205 1
      vertex 2.14331 -3.37731 1
      vertex 5.98809 -5.30498 1
    endloop
  endfacet
  facet normal -0 0 1
    outer loop
      vertex 7.08365 -3.71778 1
      vertex 2.91587 -2.73819 1
      vertex 5.98809 -5.30498 1
    endloop
  endfacet
  facet normal 0 -0 1
    outer loop
      vertex 2.91587 -2.73819 1
      vertex 2.5497 -3.08205 1
      vertex 5.98809 -5.30498 1
    endloop
  endfacet
  facet normal 0 -0 1
    outer loop
      vertex 1.23607 -3.80423 1
      vertex 0.749525 -3.92915 1
      vertex 4.54452 -6.58387 1
    endloop
  endfacet
  facet normal -0 0 1
    outer loop
      vertex 5.98809 -5.30498 1
      vertex 1.70312 -3.61931 1
      vertex 4.54452 -6.58387 1
    endloop
  endfacet
  facet normal 0 -0 1
    outer loop
      vertex 1.70312 -3.61931 1
      vertex 1.23607 -3.80423 1
      vertex 4.54452 -6.58387 1
    endloop
  endfacet
  facet normal -0 0 1
    outer loop
      vertex 4.54452 -6.58387 1
      vertex 0.251162 -3.99211 1
      vertex 2.83684 -7.48013 1
    endloop
  endfacet
  facet normal 0 0 1
    outer loop
      vertex -3.96846 -0.501333 1
      vertex -4 0 1
      vertex -7.76753 1.91452 1
    endloop
  endfacet
  facet normal 0 -0 1
    outer loop
      vertex 0.251162 -3.99211 1
      vertex -0.251162 -3.99211 1
      vertex 2.83684 -7.48013 1
    endloop
  endfacet
  facet normal -0 -0 1
    outer loop
      vertex -0.251162 -3.99211 1
      vertex -0.749525 -3.92915 1
      vertex 2.83684 -7.48013 1
    endloop
  endfacet
  facet normal -0 -0 1
    outer loop
      vertex -0.749525 -3.92915 1
      vertex -1.23607 -3.80423 1
      vertex 2.83684 -7.48013 1
    endloop
  endfacet
  facet normal -0 0 1
    outer loop
      vertex 2.83684 -7.48013 1
      vertex -1.70312 -3.61931 1
      vertex 0.964293 -7.94167 1
    endloop
  endfacet
  facet normal -0 -0 1
    outer loop
      vertex -1.70312 -3.61931 1
      vertex -2.14331 -3.37731 1
      vertex 0.964293 -7.94167 1
    endloop
  endfacet
  facet normal 0 0 1
    outer loop
      vertex -3.50523 -1.92701 1
      vertex -3.71911 -1.4725 1
      vertex -7.76753 1.91452 1
    endloop
  endfacet
  facet normal -0 -0 1
    outer loop
      vertex -2.14331 -3.37731 1
      vertex -2.5497 -3.08205 1
      vertex 0.964293 -7.94167 1
    endloop
  endfacet
  facet normal -0 -0 1
    outer loop
      vertex -2.5497 -3.08205 1
      vertex -2.91587 -2.73819 1
      vertex 0.964293 -7.94167 1
    endloop
  endfacet
  facet normal 0 0 1
    outer loop
      vertex -3.71911 -1.4725 1
      vertex -3.87433 -0.99476 1
      vertex -7.76753 1.91452 1
    endloop
  endfacet
  facet normal 0 0 1
    outer loop
      vertex -2.91587 -2.73819 1
      vertex -3.23607 -2.35114 1
      vertex -7.76753 1.91452 1
    endloop
  endfacet
  facet normal 0 -0 1
    outer loop
      vertex 0.749525 -3.92915 1
      vertex 0.251162 -3.99211 1
      vertex 4.54452 -6.58387 1
    endloop
  endfacet
  facet normal 0 0 1
    outer loop
      vertex -3.87433 -0.99476 1
      vertex -3.96846 -0.501333 1
      vertex -7.76753 1.91452 1
    endloop
  endfacet
  facet normal -0.998027 -0.0627901 -0
    outer loop
      vertex -4 0 1
      vertex -3.96846 -0.501333 1
      vertex -4 0 10
    endloop
  endfacet
  facet normal -0.998027 -0.0627901 0
    outer loop
      vertex -4 0 10
      vertex -3.96846 -0.501333 1
      vertex -3.96846 -0.501333 10
    endloop
  endfacet
  facet normal -0.982287 -0.187381 -0
    outer loop
      vertex -3.96846 -0.501333 1
      vertex -3.87433 -0.99476 1
      vertex -3.96846 -0.501333 10
    endloop
  endfacet
  facet normal -0.982287 -0.187381 0
    outer loop
      vertex -3.96846 -0.501333 10
      vertex -3.87433 -0.99476 1
      vertex -3.87433 -0.99476 10
    endloop
  endfacet
  facet normal -0.951056 -0.309018 -0
    outer loop
      vertex -3.87433 -0.99476 1
      vertex -3.71911 -1.4725 1
      vertex -3.87433 -0.99476 10
    endloop
  endfacet
  facet normal -0.951056 -0.309018 0
    outer loop
      vertex -3.87433 -0.99476 10
      vertex -3.71911 -1.4725 1
      vertex -3.71911 -1.4725 10
    endloop
  endfacet
  facet normal -0.904827 -0.425779 -0
    outer loop
      vertex -3.71911 -1.4725 1
      vertex -3.50523 -1.92701 1
      vertex -3.71911 -1.4725 10
    endloop
  endfacet
  facet normal -0.904827 -0.425779 0
    outer loop
      vertex -3.71911 -1.4725 10
      vertex -3.50523 -1.92701 1
      vertex -3.50523 -1.92701 10
    endloop
  endfacet
  facet normal -0.844328 -0.535827 -0
    outer loop
      vertex -3.50523 -1.92701 1
      vertex -3.23607 -2.35114 1
      vertex -3.50523 -1.92701 10
    endloop
  endfacet
  facet normal -0.844328 -0.535827 0
    outer loop
      vertex -3.50523 -1.92701 10
      vertex -3.23607 -2.35114 1
      vertex -3.23607 -2.35114 10
    endloop
  endfacet
  facet normal -0.770513 -0.637424 -0
    outer loop
      vertex -3.23607 -2.35114 1
      vertex -2.91587 -2.73819 1
      vertex -3.23607 -2.35114 10
    endloop
  endfacet
  facet normal -0.770513 -0.637424 0
    outer loop
      vertex -3.23607 -2.35114 10
      vertex -2.91587 -2.73819 1
      vertex -2.91587 -2.73819 10
    endloop
  endfacet
  facet normal -0.684547 -0.728969 0
    outer loop
      vertex -2.91587 -2.73819 10
      vertex -2.91587 -2.73819 1
      vertex -2.5497 -3.08205 1
    endloop
  endfacet
  facet normal -0.684547 -0.728969 0
    outer loop
      vertex -2.5497 -3.08205 10
      vertex -2.91587 -2.73819 10
      vertex -2.5497 -3.08205 1
    endloop
  endfacet
  facet normal -0.587785 -0.809017 0
    outer loop
      vertex -2.5497 -3.08205 10
      vertex -2.5497 -3.08205 1
      vertex -2.14331 -3.37731 1
    endloop
  endfacet
  facet normal -0.587785 -0.809017 0
    outer loop
      vertex -2.14331 -3.37731 10
      vertex -2.5497 -3.08205 10
      vertex -2.14331 -3.37731 1
    endloop
  endfacet
  facet normal -0.481753 -0.876307 0
    outer loop
      vertex -2.14331 -3.37731 10
      vertex -2.14331 -3.37731 1
      vertex -1.70312 -3.61931 1
    endloop
  endfacet
  facet normal -0.481753 -0.876307 0
    outer loop
      vertex -1.70312 -3.61931 10
      vertex -2.14331 -3.37731 10
      vertex -1.70312 -3.61931 1
    endloop
  endfacet
  facet normal -0.368125 -0.929776 0
    outer loop
      vertex -1.70312 -3.61931 10
      vertex -1.70312 -3.61931 1
      vertex -1.23607 -3.80423 1
    endloop
  endfacet
  facet normal -0.368125 -0.929776 0
    outer loop
      vertex -1.23607 -3.80423 10
      vertex -1.70312 -3.61931 10
      vertex -1.23607 -3.80423 1
    endloop
  endfacet
  facet normal -0.24869 -0.968583 0
    outer loop
      vertex -1.23607 -3.80423 10
      vertex -1.23607 -3.80423 1
      vertex -0.749525 -3.92915 1
    endloop
  endfacet
  facet normal -0.24869 -0.968583 0
    outer loop
      vertex -0.749525 -3.92915 10
      vertex -1.23607 -3.80423 10
      vertex -0.749525 -3.92915 1
    endloop
  endfacet
  facet normal -0.125333 -0.992115 0
    outer loop
      vertex -0.749525 -3.92915 10
      vertex -0.749525 -3.92915 1
      vertex -0.251162 -3.99211 1
    endloop
  endfacet
  facet normal -0.125333 -0.992115 0
    outer loop
      vertex -0.251162 -3.99211 10
      vertex -0.749525 -3.92915 10
      vertex -0.251162 -3.99211 1
    endloop
  endfacet
  facet normal 0 -1 0
    outer loop
      vertex -0.251162 -3.99211 10
      vertex -0.251162 -3.99211 1
      vertex 0.251162 -3.99211 1
    endloop
  endfacet
  facet normal 0 -1 0
    outer loop
      vertex 0.251162 -3.99211 10
      vertex -0.251162 -3.99211 10
      vertex 0.251162 -3.99211 1
    endloop
  endfacet
  facet normal 0.125333 -0.992115 0
    outer loop
      vertex 0.251162 -3.99211 10
      vertex 0.251162 -3.99211 1
      vertex 0.749525 -3.92915 1
    endloop
  endfacet
  facet normal 0.125333 -0.992115 0
    outer loop
      vertex 0.749525 -3.92915 10
      vertex 0.251162 -3.99211 10
      vertex 0.749525 -3.92915 1
    endloop
  endfacet
  facet normal 0.24869 -0.968583 0
    outer loop
      vertex 0.749525 -3.92915 10
      vertex 0.749525 -3.92915 1
      vertex 1.23607 -3.80423 1
    endloop
  endfacet
  facet normal 0.24869 -0.968583 0
    outer loop
      vertex 1.23607 -3.80423 10
      vertex 0.749525 -3.92915 10
      vertex 1.23607 -3.80423 1
    endloop
  endfacet
  facet normal 0.368125 -0.929776 0
    outer loop
      vertex 1.23607 -3.80423 10
      vertex 1.23607 -3.80423 1
      vertex 1.70312 -3.61931 1
    endloop
  endfacet
  facet normal 0.368125 -0.929776 0
    outer loop
      vertex 1.70312 -3.61931 10
      vertex 1.23607 -3.80423 10
      vertex 1.70312 -3.61931 1
    endloop
  endfacet
  facet normal 0.481753 -0.876307 0
    outer loop
      vertex 1.70312 -3.61931 10
      vertex 1.70312 -3.61931 1
      vertex 2.14331 -3.37731 1
    endloop
  endfacet
  facet normal 0.481753 -0.876307 0
    outer loop
      vertex 2.14331 -3.37731 10
      vertex 1.70312 -3.61931 10
      vertex 2.14331 -3.37731 1
    endloop
  endfacet
  facet normal 0.587785 -0.809017 0
    outer loop
      vertex 2.14331 -3.37731 10
      vertex 2.14331 -3.37731 1
      vertex 2.5497 -3.08205 1
    endloop
  endfacet
  facet normal 0.587785 -0.809017 0
    outer loop
      vertex 2.5497 -3.08205 10
      vertex 2.14331 -3.37731 10
      vertex 2.5497 -3.08205 1
    endloop
  endfacet
  facet normal 0.684547 -0.728969 0
    outer loop
      vertex 2.5497 -3.08205 10
      vertex 2.5497 -3.08205 1
      vertex 2.91587 -2.73819 1
    endloop
  endfacet
  facet normal 0.684547 -0.728969 0
    outer loop
      vertex 2.91587 -2.73819 10
      vertex 2.5497 -3.08205 10
      vertex 2.91587 -2.73819 1
    endloop
  endfacet
  facet normal 0.770513 -0.637424 0
    outer loop
      vertex 2.91587 -2.73819 10
      vertex 2.91587 -2.73819 1
      vertex 3.23607 -2.35114 1
    endloop
  endfacet
  facet normal 0.770513 -0.637424 0
    outer loop
      vertex 3.23607 -2.35114 10
      vertex 2.91587 -2.73819 10
      vertex 3.23607 -2.35114 1
    endloop
  endfacet
  facet normal 0.844328 -0.535827 0
    outer loop
      vertex 3.23607 -2.35114 10
      vertex 3.23607 -2.35114 1
      vertex 3.50523 -1.92701 1
    endloop
  endfacet
  facet normal 0.844328 -0.535827 0
    outer loop
      vertex 3.50523 -1.92701 10
      vertex 3.23607 -2.35114 10
      vertex 3.50523 -1.92701 1
    endloop
  endfacet
  facet normal 0.904827 -0.425779 0
    outer loop
      vertex 3.50523 -1.92701 10
      vertex 3.50523 -1.92701 1
      vertex 3.71911 -1.4725 1
    endloop
  endfacet
  facet normal 0.904827 -0.425779 0
    outer loop
      vertex 3.71911 -1.4725 10
      vertex 3.50523 -1.92701 10
      vertex 3.71911 -1.4725 1
    endloop
  endfacet
  facet normal 0.951056 -0.309018 0
    outer loop
      vertex 3.71911 -1.4725 10
      vertex 3.71911 -1.4725 1
      vertex 3.87433 -0.99476 1
    endloop
  endfacet
  facet normal 0.951056 -0.309018 0
    outer loop
      vertex 3.87433 -0.99476 10
      vertex 3.71911 -1.4725 10
      vertex 3.87433 -0.99476 1
    endloop
  endfacet
  facet normal 0.982287 -0.187381 0
    outer loop
      vertex 3.87433 -0.99476 10
      vertex 3.87433 -0.99476 1
      vertex 3.96846 -0.501333 1
    endloop
  endfacet
  facet normal 0.982287 -0.187381 0
    outer loop
      vertex 3.96846 -0.501333 10
      vertex 3.87433 -0.99476 10
      vertex 3.96846 -0.501333 1
    endloop
  endfacet
  facet normal 0.998027 -0.0627901 0
    outer loop
      vertex 3.96846 -0.501333 10
      vertex 3.96846 -0.501333 1
      vertex 4 0 1
    endloop
  endfacet
  facet normal 0.998027 -0.0627901 0
    outer loop
      vertex 4 0 10
      vertex 3.96846 -0.501333 10
      vertex 4 0 1
    endloop
  endfacet
  facet normal 0.998027 0.0627901 0
    outer loop
      vertex 4 0 1
      vertex 3.96846 0.501333 1
      vertex 3.96846 0.501333 10
    endloop
  endfacet
  facet normal 0.998027 0.0627901 -0
    outer loop
      vertex 4 0 10
      vertex 4 0 1
      vertex 3.96846 0.501333 10
    endloop
  endfacet
  facet normal 0.982287 0.187381 0
    outer loop
      vertex 3.96846 0.501333 1
      vertex 3.87433 0.99476 1
      vertex 3.87433 0.99476 10
    endloop
  endfacet
  facet normal 0.982287 0.187381 -0
    outer loop
      vertex 3.96846 0.501333 10
      vertex 3.96846 0.501333 1
      vertex 3.87433 0.99476 10
    endloop
  endfacet
  facet normal 0.951056 0.309018 0
    outer loop
      vertex 3.87433 0.99476 1
      vertex 3.71911 1.4725 1
      vertex 3.71911 1.4725 10
    endloop
  endfacet
  facet normal 0.951056 0.309018 -0
    outer loop
      vertex 3.87433 0.99476 10
      vertex 3.87433 0.99476 1
      vertex 3.71911 1.4725 10
    endloop
  endfacet
  facet normal 0.904827 0.425779 0
    outer loop
      vertex 3.71911 1.4725 1
      vertex 3.50523 1.92701 1
      vertex 3.50523 1.92701 10
    endloop
  endfacet
  facet normal 0.904827 0.425779 -0
    outer loop
      vertex 3.71911 1.4725 10
      vertex 3.71911 1.4725 1
      vertex 3.50523 1.92701 10
    endloop
  endfacet
  facet normal 0.844328 0.535827 0
    outer loop
      vertex 3.50523 1.92701 1
      vertex 3.23607 2.35114 1
      vertex 3.23607 2.35114 10
    endloop
  endfacet
  facet normal 0.844328 0.535827 -0
    outer loop
      vertex 3.50523 1.92701 10
      vertex 3.50523 1.92701 1
      vertex 3.23607 2.35114 10
    endloop
  endfacet
  facet normal 0.770513 0.637424 0
    outer loop
      vertex 3.23607 2.35114 1
      vertex 2.91587 2.73819 1
      vertex 2.91587 2.73819 10
    endloop
  endfacet
  facet normal 0.770513 0.637424 -0
    outer loop
      vertex 3.23607 2.35114 10
      vertex 3.23607 2.35114 1
      vertex 2.91587 2.73819 10
    endloop
  endfacet
  facet normal 0.684547 0.728969 0
    outer loop
      vertex 2.5497 3.08205 1
      vertex 2.5497 3.08205 10
      vertex 2.91587 2.73819 1
    endloop
  endfacet
  facet normal 0.684547 0.728969 0
    outer loop
      vertex 2.91587 2.73819 1
      vertex 2.5497 3.08205 10
      vertex 2.91587 2.73819 10
    endloop
  endfacet
  facet normal 0.587785 0.809017 0
    outer loop
      vertex 2.14331 3.37731 1
      vertex 2.14331 3.37731 10
      vertex 2.5497 3.08205 1
    endloop
  endfacet
  facet normal 0.587785 0.809017 0
    outer loop
      vertex 2.5497 3.08205 1
      vertex 2.14331 3.37731 10
      vertex 2.5497 3.08205 10
    endloop
  endfacet
  facet normal 0.481753 0.876307 0
    outer loop
      vertex 1.70312 3.61931 1
      vertex 1.70312 3.61931 10
      vertex 2.14331 3.37731 1
    endloop
  endfacet
  facet normal 0.481753 0.876307 0
    outer loop
      vertex 2.14331 3.37731 1
      vertex 1.70312 3.61931 10
      vertex 2.14331 3.37731 10
    endloop
  endfacet
  facet normal 0.368125 0.929776 0
    outer loop
      vertex 1.23607 3.80423 1
      vertex 1.23607 3.80423 10
      vertex 1.70312 3.61931 1
    endloop
  endfacet
  facet normal 0.368125 0.929776 0
    outer loop
      vertex 1.70312 3.61931 1
      vertex 1.23607 3.80423 10
      vertex 1.70312 3.61931 10
    endloop
  endfacet
  facet normal 0.24869 0.968583 0
    outer loop
      vertex 0.749525 3.92915 1
      vertex 0.749525 3.92915 10
      vertex 1.23607 3.80423 1
    endloop
  endfacet
  facet normal 0.24869 0.968583 0
    outer loop
      vertex 1.23607 3.80423 1
      vertex 0.749525 3.92915 10
      vertex 1.23607 3.80423 10
    endloop
  endfacet
  facet normal 0.125333 0.992115 0
    outer loop
      vertex 0.251162 3.99211 1
      vertex 0.251162 3.99211 10
      vertex 0.749525 3.92915 1
    endloop
  endfacet
  facet normal 0.125333 0.992115 0
    outer loop
      vertex 0.749525 3.92915 1
      vertex 0.251162 3.99211 10
      vertex 0.749525 3.92915 10
    endloop
  endfacet
  facet normal 0 1 0
    outer loop
      vertex -0.251162 3.99211 1
      vertex -0.251162 3.99211 10
      vertex 0.251162 3.99211 1
    endloop
  endfacet
  facet normal 0 1 0
    outer loop
      vertex 0.251162 3.99211 1
      vertex -0.251162 3.99211 10
      vertex 0.251162 3.99211 10
    endloop
  endfacet
  facet normal -0.125333 0.992115 0
    outer loop
      vertex -0.749525 3.92915 1
      vertex -0.749525 3.92915 10
      vertex -0.251162 3.99211 1
    endloop
  endfacet
  facet normal -0.125333 0.992115 0
    outer loop
      vertex -0.251162 3.99211 1
      vertex -0.749525 3.92915 10
      vertex -0.251162 3.99211 10
    endloop
  endfacet
  facet normal -0.24869 0.968583 0
    outer loop
      vertex -1.23607 3.80423 1
      vertex -1.23607 3.80423 10
      vertex -0.749525 3.92915 1
    endloop
  endfacet
  facet normal -0.24869 0.968583 0
    outer loop
      vertex -0.749525 3.92915 1
      vertex -1.23607 3.80423 10
      vertex -0.749525 3.92915 10
    endloop
  endfacet
  facet normal -0.368125 0.929776 0
    outer loop
      vertex -1.70312 3.61931 1
      vertex -1.70312 3.61931 10
      vertex -1.23607 3.80423 1
    endloop
  endfacet
  facet normal -0.368125 0.929776 0
    outer loop
      vertex -1.23607 3.80423 1
      vertex -1.70312 3.61931 10
      vertex -1.23607 3.80423 10
    endloop
  endfacet
  facet normal -0.481753 0.876307 0
    outer loop
      vertex -2.14331 3.37731 1
      vertex -2.14331 3.37731 10
      vertex -1.70312 3.61931 1
    endloop
  endfacet
  facet normal -0.481753 0.876307 0
    outer loop
      vertex -1.70312 3.61931 1
      vertex -2.14331 3.37731 10
      vertex -1.70312 3.61931 10
    endloop
  endfacet
  facet normal -0.587785 0.809017 0
    outer loop
      vertex -2.5497 3.08205 1
      vertex -2.5497 3.08205 10
      vertex -2.14331 3.37731 1
    endloop
  endfacet
  facet normal -0.587785 0.809017 0
    outer loop
      vertex -2.14331 3.37731 1
      vertex -2.5497 3.08205 10
      vertex -2.14331 3.37731 10
    endloop
  endfacet
  facet normal -0.684547 0.728969 0
    outer loop
      vertex -2.91587 2.73819 1
      vertex -2.91587 2.73819 10
      vertex -2.5497 3.08205 1
    endloop
  endfacet
  facet normal -0.684547 0.728969 0
    outer loop
      vertex -2.5497 3.08205 1
      vertex -2.91587 2.73819 10
      vertex -2.5497 3.08205 10
    endloop
  endfacet
  facet normal -0.770513 0.637424 0
    outer loop
      vertex -3.23607 2.35114 1
      vertex -3.23607 2.35114 10
      vertex -2.91587 2.73819 1
    endloop
  endfacet
  facet normal -0.770513 0.637424 0
    outer loop
      vertex -2.91587 2.73819 1
      vertex -3.23607 2.35114 10
      vertex -2.91587 2.73819 10
    endloop
  endfacet
  facet normal -0.844328 0.535827 0
    outer loop
      vertex -3.50523 1.92701 1
      vertex -3.50523 1.92701 10
      vertex -3.23607 2.35114 1
    endloop
  endfacet
  facet normal -0.844328 0.535827 0
    outer loop
      vertex -3.23607 2.35114 1
      vertex -3.50523 1.92701 10
      vertex -3.23607 2.35114 10
    endloop
  endfacet
  facet normal -0.904827 0.425779 0
    outer loop
      vertex -3.71911 1.4725 1
      vertex -3.71911 1.4725 10
      vertex -3.50523 1.92701 1
    endloop
  endfacet
  facet normal -0.904827 0.425779 0
    outer loop
      vertex -3.50523 1.92701 1
      vertex -3.71911 1.4725 10
      vertex -3.50523 1.92701 10
    endloop
  endfacet
  facet normal -0.951056 0.309018 0
    outer loop
      vertex -3.87433 0.99476 1
      vertex -3.87433 0.99476 10
      vertex -3.71911 1.4725 1
    endloop
  endfacet
  facet normal -0.951056 0.309018 0
    outer loop
      vertex -3.71911 1.4725 1
      vertex -3.87433 0.99476 10
      vertex -3.71911 1.4725 10
    endloop
  endfacet
  facet normal -0.982287 0.187381 0
    outer loop
      vertex -3.96846 0.501333 1
      vertex -3.96846 0.501333 10
      vertex -3.87433 0.99476 1
    endloop
  endfacet
  facet normal -0.982287 0.187381 0
    outer loop
      vertex -3.87433 0.99476 1
      vertex -3.96846 0.501333 10
      vertex -3.87433 0.99476 10
    endloop
  endfacet
  facet normal -0.998027 0.0627901 0
    outer loop
      vertex -4 0 1
      vertex -4 0 10
      vertex -3.96846 0.501333 1
    endloop
  endfacet
  facet normal -0.998027 0.0627901 0
    outer loop
      vertex -3.96846 0.501333 1
      vertex -4 0 10
      vertex -3.96846 0.501333 10
    endloop
  endfacet
  facet normal 0 0 1
    outer loop
      vertex -3.96846 0.501333 10
      vertex -4 0 10
      vertex -3.96846 -0.501333 10
    endloop
  endfacet
  facet normal 0 0 1
    outer loop
      vertex -3.71911 -1.4725 10
      vertex -3.96846 0.501333 10
      vertex -3.87433 -0.99476 10
    endloop
  endfacet
  facet normal 0 0 1
    outer loop
      vertex -3.87433 -0.99476 10
      vertex -3.96846 0.501333 10
      vertex -3.96846 -0.501333 10
    endloop
  endfacet
  facet normal 0 0 1
    outer loop
      vertex -3.50523 -1.92701 10
      vertex -3.96846 0.501333 10
      vertex -3.71911 -1.4725 10
    endloop
  endfacet
  facet normal 0 0 1
    outer loop
      vertex -3.23607 -2.35114 10
      vertex -3.96846 0.501333 10
      vertex -3.50523 -1.92701 10
    endloop
  endfacet
  facet normal 0 0 1
    outer loop
      vertex -2.91587 -2.73819 10
      vertex -3.96846 0.501333 10
      vertex -3.23607 -2.35114 10
    endloop
  endfacet
  facet normal 0 0 1
    outer loop
      vertex -2.5497 -3.08205 10
      vertex -3.96846 0.501333 10
      vertex -2.91587 -2.73819 10
    endloop
  endfacet
  facet normal 0 0 1
    outer loop
      vertex -2.14331 -3.37731 10
      vertex -3.96846 0.501333 10
      vertex -2.5497 -3.08205 10
    endloop
  endfacet
  facet normal 0 0 1
    outer loop
      vertex -1.70312 -3.61931 10
      vertex -3.96846 0.501333 10
      vertex -2.14331 -3.37731 10
    endloop
  endfacet
  facet normal 0 0 1
    outer loop
      vertex -1.23607 -3.80423 10
      vertex -3.96846 0.501333 10
      vertex -1.70312 -3.61931 10
    endloop
  endfacet
  facet normal 0 0 1
    outer loop
      vertex -0.749525 -3.92915 10
      vertex -3.96846 0.501333 10
      vertex -1.23607 -3.80423 10
    endloop
  endfacet
  facet normal 0 0 1
    outer loop
      vertex -0.251162 -3.99211 10
      vertex -3.96846 0.501333 10
      vertex -0.749525 -3.92915 10
    endloop
  endfacet
  facet normal -0 0 1
    outer loop
      vertex 0.251162 -3.99211 10
      vertex -3.96846 0.501333 10
      vertex -0.251162 -3.99211 10
    endloop
  endfacet
  facet normal -0 0 1
    outer loop
      vertex 0.749525 -3.92915 10
      vertex -3.96846 0.501333 10
      vertex 0.251162 -3.99211 10
    endloop
  endfacet
  facet normal -0 0 1
    outer loop
      vertex 1.23607 -3.80423 10
      vertex -3.96846 0.501333 10
      vertex 0.749525 -3.92915 10
    endloop
  endfacet
  facet normal -0 0 1
    outer loop
      vertex 1.70312 -3.61931 10
      vertex -3.96846 0.501333 10
      vertex 1.23607 -3.80423 10
    endloop
  endfacet
  facet normal -0 0 1
    outer loop
      vertex 2.14331 -3.37731 10
      vertex -3.96846 0.501333 10
      vertex 1.70312 -3.61931 10
    endloop
  endfacet
  facet normal -0 0 1
    outer loop
      vertex 2.5497 -3.08205 10
      vertex -3.96846 0.501333 10
      vertex 2.14331 -3.37731 10
    endloop
  endfacet
  facet normal -0 0 1
    outer loop
      vertex 2.91587 -2.73819 10
      vertex -3.96846 0.501333 10
      vertex 2.5497 -3.08205 10
    endloop
  endfacet
  facet normal -0 0 1
    outer loop
      vertex 3.23607 -2.35114 10
      vertex -3.96846 0.501333 10
      vertex 2.91587 -2.73819 10
    endloop
  endfacet
  facet normal -0 0 1
    outer loop
      vertex 3.50523 -1.92701 10
      vertex -3.96846 0.501333 10
      vertex 3.23607 -2.35114 10
    endloop
  endfacet
  facet normal -0 0 1
    outer loop
      vertex 3.71911 -1.4725 10
      vertex -3.96846 0.501333 10
      vertex 3.50523 -1.92701 10
    endloop
  endfacet
  facet normal -0 0 1
    outer loop
      vertex 3.87433 -0.99476 10
      vertex -3.96846 0.501333 10
      vertex 3.71911 -1.4725 10
    endloop
  endfacet
  facet normal -0 0 1
    outer loop
      vertex 3.96846 -0.501333 10
      vertex -3.96846 0.501333 10
      vertex 3.87433 -0.99476 10
    endloop
  endfacet
  facet normal -0 0 1
    outer loop
      vertex 4 0 10
      vertex -3.96846 0.501333 10
      vertex 3.96846 -0.501333 10
    endloop
  endfacet
  facet normal 0 -0 1
    outer loop
      vertex 3.96846 0.501333 10
      vertex -3.96846 0.501333 10
      vertex 4 0 10
    endloop
  endfacet
  facet normal 0 -0 1
    outer loop
      vertex 3.87433 0.99476 10
      vertex -3.96846 0.501333 10
      vertex 3.96846 0.501333 10
    endloop
  endfacet
  facet normal 0 -0 1
    outer loop
      vertex 3.71911 1.4725 10
      vertex -3.96846 0.501333 10
      vertex 3.87433 0.99476 10
    endloop
  endfacet
  facet normal 0 -0 1
    outer loop
      vertex 3.50523 1.92701 10
      vertex -3.96846 0.501333 10
      vertex 3.71911 1.4725 10
    endloop
  endfacet
  facet normal 0 -0 1
    outer loop
      vertex 3.23607 2.35114 10
      vertex -3.96846 0.501333 10
      vertex 3.50523 1.92701 10
    endloop
  endfacet
  facet normal 0 -0 1
    outer loop
      vertex 2.91587 2.73819 10
      vertex -3.96846 0.501333 10
      vertex 3.23607 2.35114 10
    endloop
  endfacet
  facet normal 0 -0 1
    outer loop
      vertex 2.5497 3.08205 10
      vertex -3.96846 0.501333 10
      vertex 2.91587 2.73819 10
    endloop
  endfacet
  facet normal 0 -0 1
    outer loop
      vertex 2.14331 3.37731 10
      vertex -3.96846 0.501333 10
      vertex 2.5497 3.08205 10
    endloop
  endfacet
  facet normal 0 -0 1
    outer loop
      vertex 1.70312 3.61931 10
      vertex -3.96846 0.501333 10
      vertex 2.14331 3.37731 10
    endloop
  endfacet
  facet normal 0 -0 1
    outer loop
      vertex 1.23607 3.80423 10
      vertex -3.96846 0.501333 10
      vertex 1.70312 3.61931 10
    endloop
  endfacet
  facet normal 0 -0 1
    outer loop
      vertex 0.749525 3.92915 10
      vertex -3.96846 0.501333 10
      vertex 1.23607 3.80423 10
    endloop
  endfacet
  facet normal 0 -0 1
    outer loop
      vertex 0.251162 3.99211 10
      vertex -3.96846 0.501333 10
      vertex 0.749525 3.92915 10
    endloop
  endfacet
  facet normal 0 -0 1
    outer loop
      vertex -0.251162 3.99211 10
      vertex -3.96846 0.501333 10
      vertex 0.251162 3.99211 10
    endloop
  endfacet
  facet normal 0 -0 1
    outer loop
      vertex -0.749525 3.92915 10
      vertex -3.96846 0.501333 10
      vertex -0.251162 3.99211 10
    endloop
  endfacet
  facet normal 0 -0 1
    outer loop
      vertex -1.23607 3.80423 10
      vertex -3.96846 0.501333 10
      vertex -0.749525 3.92915 10
    endloop
  endfacet
  facet normal 0 -0 1
    outer loop
      vertex -1.70312 3.61931 10
      vertex -3.96846 0.501333 10
      vertex -1.23607 3.80423 10
    endloop
  endfacet
  facet normal 0 -0 1
    outer loop
      vertex -2.14331 3.37731 10
      vertex -3.96846 0.501333 10
      vertex -1.70312 3.61931 10
    endloop
  endfacet
  facet normal 0 -0 1
    outer loop
      vertex -2.5497 3.08205 10
      vertex -3.96846 0.501333 10
      vertex -2.14331 3.37731 10
    endloop
  endfacet
  facet normal 0 -0 1
    outer loop
      vertex -2.91587 2.73819 10
      vertex -3.96846 0.501333 10
      vertex -2.5497 3.08205 10
    endloop
  endfacet
  facet normal 0 -0 1
    outer loop
      vertex -3.23607 2.35114 10
      vertex -3.96846 0.501333 10
      vertex -2.91587 2.73819 10
    endloop
  endfacet
  facet normal 0 -0 1
    outer loop
      vertex -3.50523 1.92701 10
      vertex -3.96846 0.501333 10
      vertex -3.23607 2.35114 10
    endloop
  endfacet
  facet normal 0 -0 1
    outer loop
      vertex -3.71911 1.4725 10
      vertex -3.96846 0.501333 10
      vertex -3.50523 1.92701 10
    endloop
  endfacet
  facet normal 0 -0 1
    outer loop
      vertex -3.87433 0.99476 10
      vertex -3.96846 0.501333 10
      vertex -3.71911 1.4725 10
    endloop
  endfacet
endsolid OpenSCAD_Model
