solid OpenSCAD_Model
  facet normal -0 0 -1
    outer loop
      vertex -15.6 0 -5.85
      vertex -15.2591 3.24342 -5.85
      vertex -15.2591 -3.24342 -5.85
    endloop
  endfacet
  facet normal 0 -0 -1
    outer loop
      vertex -15.2591 -3.24342 -5.85
      vertex -15.2591 3.24342 -5.85
      vertex -14.2513 6.34509 -5.85
    endloop
  endfacet
  facet normal 0 0 -1
    outer loop
      vertex -15.2591 -3.24342 -5.85
      vertex -14.2513 6.34509 -5.85
      vertex -12.6207 9.16945 -5.85
    endloop
  endfacet
  facet normal 0 0 -1
    outer loop
      vertex -15.2591 -3.24342 -5.85
      vertex -12.6207 9.16945 -5.85
      vertex -10.4384 11.5931 -5.85
    endloop
  endfacet
  facet normal 0 0 -1
    outer loop
      vertex -15.2591 -3.24342 -5.85
      vertex -10.4384 11.5931 -5.85
      vertex -7.8 13.51 -5.85
    endloop
  endfacet
  facet normal 0 0 -1
    outer loop
      vertex -15.2591 -3.24342 -5.85
      vertex -7.8 13.51 -5.85
      vertex -4.82066 14.8365 -5.85
    endloop
  endfacet
  facet normal 0 0 -1
    outer loop
      vertex -15.2591 -3.24342 -5.85
      vertex -4.82066 14.8365 -5.85
      vertex -1.63064 15.5145 -5.85
    endloop
  endfacet
  facet normal 0 0 -1
    outer loop
      vertex -15.2591 -3.24342 -5.85
      vertex -1.63064 15.5145 -5.85
      vertex 1.63064 15.5145 -5.85
    endloop
  endfacet
  facet normal 0 0 -1
    outer loop
      vertex -15.2591 -3.24342 -5.85
      vertex 1.63064 15.5145 -5.85
      vertex 4.82066 14.8365 -5.85
    endloop
  endfacet
  facet normal 0 0 -1
    outer loop
      vertex -15.2591 -3.24342 -5.85
      vertex 4.82066 14.8365 -5.85
      vertex 7.8 13.51 -5.85
    endloop
  endfacet
  facet normal 0 0 -1
    outer loop
      vertex -15.2591 -3.24342 -5.85
      vertex 7.8 13.51 -5.85
      vertex 10.4384 11.5931 -5.85
    endloop
  endfacet
  facet normal 0 0 -1
    outer loop
      vertex 0.625738 3.95075 -5.85
      vertex 10.4384 11.5931 -5.85
      vertex 12.6207 9.16945 -5.85
    endloop
  endfacet
  facet normal 0 0 -1
    outer loop
      vertex 2.82843 2.82843 -5.85
      vertex 12.6207 9.16945 -5.85
      vertex 14.2513 6.34509 -5.85
    endloop
  endfacet
  facet normal 0 0 -1
    outer loop
      vertex 3.56403 1.81596 -5.85
      vertex 14.2513 6.34509 -5.85
      vertex 15.2591 3.24342 -5.85
    endloop
  endfacet
  facet normal 0 0 -1
    outer loop
      vertex 3.95075 -0.625738 -5.85
      vertex 15.2591 3.24342 -5.85
      vertex 15.6 0 -5.85
    endloop
  endfacet
  facet normal -0 0 -1
    outer loop
      vertex 3.23607 -2.35114 -5.85
      vertex 15.6 0 -5.85
      vertex 15.2591 -3.24342 -5.85
    endloop
  endfacet
  facet normal -0 0 -1
    outer loop
      vertex 0.625738 -3.95075 -5.85
      vertex 15.2591 -3.24342 -5.85
      vertex 14.2513 -6.34509 -5.85
    endloop
  endfacet
  facet normal 0 0 -1
    outer loop
      vertex -15.2591 -3.24342 -5.85
      vertex 14.2513 -6.34509 -5.85
      vertex 12.6207 -9.16945 -5.85
    endloop
  endfacet
  facet normal 0 0 -1
    outer loop
      vertex -15.2591 -3.24342 -5.85
      vertex 12.6207 -9.16945 -5.85
      vertex 10.4384 -11.5931 -5.85
    endloop
  endfacet
  facet normal 0 0 -1
    outer loop
      vertex -15.2591 -3.24342 -5.85
      vertex 10.4384 -11.5931 -5.85
      vertex 7.8 -13.51 -5.85
    endloop
  endfacet
  facet normal 0 0 -1
    outer loop
      vertex -15.2591 -3.24342 -5.85
      vertex 7.8 -13.51 -5.85
      vertex 4.82066 -14.8365 -5.85
    endloop
  endfacet
  facet normal 0 0 -1
    outer loop
      vertex -15.2591 -3.24342 -5.85
      vertex 4.82066 -14.8365 -5.85
      vertex 1.63064 -15.5145 -5.85
    endloop
  endfacet
  facet normal 0 0 -1
    outer loop
      vertex -15.2591 -3.24342 -5.85
      vertex 1.63064 -15.5145 -5.85
      vertex -1.63064 -15.5145 -5.85
    endloop
  endfacet
  facet normal 0 0 -1
    outer loop
      vertex -15.2591 -3.24342 -5.85
      vertex -1.63064 -15.5145 -5.85
      vertex -4.82066 -14.8365 -5.85
    endloop
  endfacet
  facet normal 0 0 -1
    outer loop
      vertex -15.2591 -3.24342 -5.85
      vertex -4.82066 -14.8365 -5.85
      vertex -7.8 -13.51 -5.85
    endloop
  endfacet
  facet normal 0 0 -1
    outer loop
      vertex -15.2591 -3.24342 -5.85
      vertex -7.8 -13.51 -5.85
      vertex -10.4384 -11.5931 -5.85
    endloop
  endfacet
  facet normal 0 0 -1
    outer loop
      vertex -15.2591 -3.24342 -5.85
      vertex -10.4384 -11.5931 -5.85
      vertex -12.6207 -9.16945 -5.85
    endloop
  endfacet
  facet normal 0 0 -1
    outer loop
      vertex -15.2591 -3.24342 -5.85
      vertex -12.6207 -9.16945 -5.85
      vertex -14.2513 -6.34509 -5.85
    endloop
  endfacet
  facet normal 0 0 -1
    outer loop
      vertex -3.80423 -1.23607 -5.85
      vertex -15.2591 -3.24342 -5.85
      vertex -3.95075 -0.625738 -5.85
    endloop
  endfacet
  facet normal 0 0 -1
    outer loop
      vertex -15.2591 -3.24342 -5.85
      vertex -4 0 -5.85
      vertex -3.95075 -0.625738 -5.85
    endloop
  endfacet
  facet normal -0 0 -1
    outer loop
      vertex 3.80423 1.23607 -5.85
      vertex 15.2591 3.24342 -5.85
      vertex 3.95075 0.625738 -5.85
    endloop
  endfacet
  facet normal 0 0 -1
    outer loop
      vertex -15.2591 -3.24342 -5.85
      vertex -3.80423 -1.23607 -5.85
      vertex -3.56403 -1.81596 -5.85
    endloop
  endfacet
  facet normal 0 0 -1
    outer loop
      vertex -1.81596 -3.56403 -5.85
      vertex -15.2591 -3.24342 -5.85
      vertex -2.35114 -3.23607 -5.85
    endloop
  endfacet
  facet normal 0 0 -1
    outer loop
      vertex -15.2591 -3.24342 -5.85
      vertex -3.23607 -2.35114 -5.85
      vertex -2.82843 -2.82843 -5.85
    endloop
  endfacet
  facet normal 0 0 -1
    outer loop
      vertex -15.2591 -3.24342 -5.85
      vertex -2.82843 -2.82843 -5.85
      vertex -2.35114 -3.23607 -5.85
    endloop
  endfacet
  facet normal 0 0 -1
    outer loop
      vertex 0 -4 -5.85
      vertex 14.2513 -6.34509 -5.85
      vertex -0.625738 -3.95075 -5.85
    endloop
  endfacet
  facet normal 0 0 -1
    outer loop
      vertex -15.2591 -3.24342 -5.85
      vertex -1.81596 -3.56403 -5.85
      vertex -1.23607 -3.80423 -5.85
    endloop
  endfacet
  facet normal 0 0 -1
    outer loop
      vertex -15.2591 -3.24342 -5.85
      vertex -1.23607 -3.80423 -5.85
      vertex -0.625738 -3.95075 -5.85
    endloop
  endfacet
  facet normal 0 0 -1
    outer loop
      vertex -15.2591 -3.24342 -5.85
      vertex -0.625738 -3.95075 -5.85
      vertex 14.2513 -6.34509 -5.85
    endloop
  endfacet
  facet normal 0 0 -1
    outer loop
      vertex 0.625738 -3.95075 -5.85
      vertex 14.2513 -6.34509 -5.85
      vertex 0 -4 -5.85
    endloop
  endfacet
  facet normal -0 0 -1
    outer loop
      vertex 1.23607 -3.80423 -5.85
      vertex 15.2591 -3.24342 -5.85
      vertex 0.625738 -3.95075 -5.85
    endloop
  endfacet
  facet normal 0 0 -1
    outer loop
      vertex 2.35114 -3.23607 -5.85
      vertex 15.2591 -3.24342 -5.85
      vertex 1.81596 -3.56403 -5.85
    endloop
  endfacet
  facet normal -0 0 -1
    outer loop
      vertex 1.81596 -3.56403 -5.85
      vertex 15.2591 -3.24342 -5.85
      vertex 1.23607 -3.80423 -5.85
    endloop
  endfacet
  facet normal 0 0 -1
    outer loop
      vertex 2.82843 -2.82843 -5.85
      vertex 15.2591 -3.24342 -5.85
      vertex 2.35114 -3.23607 -5.85
    endloop
  endfacet
  facet normal 0 0 -1
    outer loop
      vertex 3.23607 -2.35114 -5.85
      vertex 15.2591 -3.24342 -5.85
      vertex 2.82843 -2.82843 -5.85
    endloop
  endfacet
  facet normal -0 0 -1
    outer loop
      vertex 3.56403 -1.81596 -5.85
      vertex 15.6 0 -5.85
      vertex 3.23607 -2.35114 -5.85
    endloop
  endfacet
  facet normal -0 0 -1
    outer loop
      vertex 3.80423 -1.23607 -5.85
      vertex 15.6 0 -5.85
      vertex 3.56403 -1.81596 -5.85
    endloop
  endfacet
  facet normal -0 0 -1
    outer loop
      vertex 4 0 -5.85
      vertex 15.2591 3.24342 -5.85
      vertex 3.95075 -0.625738 -5.85
    endloop
  endfacet
  facet normal -0 0 -1
    outer loop
      vertex 3.95075 0.625738 -5.85
      vertex 15.2591 3.24342 -5.85
      vertex 4 0 -5.85
    endloop
  endfacet
  facet normal -0 0 -1
    outer loop
      vertex 3.95075 -0.625738 -5.85
      vertex 15.6 0 -5.85
      vertex 3.80423 -1.23607 -5.85
    endloop
  endfacet
  facet normal 0 0 -1
    outer loop
      vertex -3.23607 -2.35114 -5.85
      vertex -15.2591 -3.24342 -5.85
      vertex -3.56403 -1.81596 -5.85
    endloop
  endfacet
  facet normal -0 0 -1
    outer loop
      vertex 3.56403 1.81596 -5.85
      vertex 15.2591 3.24342 -5.85
      vertex 3.80423 1.23607 -5.85
    endloop
  endfacet
  facet normal -0 0 -1
    outer loop
      vertex 3.23607 2.35114 -5.85
      vertex 14.2513 6.34509 -5.85
      vertex 3.56403 1.81596 -5.85
    endloop
  endfacet
  facet normal -0 0 -1
    outer loop
      vertex 2.82843 2.82843 -5.85
      vertex 14.2513 6.34509 -5.85
      vertex 3.23607 2.35114 -5.85
    endloop
  endfacet
  facet normal -0 0 -1
    outer loop
      vertex 2.35114 3.23607 -5.85
      vertex 12.6207 9.16945 -5.85
      vertex 2.82843 2.82843 -5.85
    endloop
  endfacet
  facet normal -0 0 -1
    outer loop
      vertex 1.81596 3.56403 -5.85
      vertex 12.6207 9.16945 -5.85
      vertex 2.35114 3.23607 -5.85
    endloop
  endfacet
  facet normal -0 0 -1
    outer loop
      vertex 1.23607 3.80423 -5.85
      vertex 12.6207 9.16945 -5.85
      vertex 1.81596 3.56403 -5.85
    endloop
  endfacet
  facet normal -0 0 -1
    outer loop
      vertex 0 4 -5.85
      vertex 10.4384 11.5931 -5.85
      vertex 0.625738 3.95075 -5.85
    endloop
  endfacet
  facet normal 0 -0 -1
    outer loop
      vertex -2.35114 3.23607 -5.85
      vertex -15.2591 -3.24342 -5.85
      vertex -1.81596 3.56403 -5.85
    endloop
  endfacet
  facet normal 0 0 -1
    outer loop
      vertex -0.625738 3.95075 -5.85
      vertex 10.4384 11.5931 -5.85
      vertex 0 4 -5.85
    endloop
  endfacet
  facet normal 0 0 -1
    outer loop
      vertex -1.23607 3.80423 -5.85
      vertex 10.4384 11.5931 -5.85
      vertex -0.625738 3.95075 -5.85
    endloop
  endfacet
  facet normal 0 0 -1
    outer loop
      vertex -1.81596 3.56403 -5.85
      vertex 10.4384 11.5931 -5.85
      vertex -1.23607 3.80423 -5.85
    endloop
  endfacet
  facet normal 0 0 -1
    outer loop
      vertex -15.2591 -3.24342 -5.85
      vertex 10.4384 11.5931 -5.85
      vertex -1.81596 3.56403 -5.85
    endloop
  endfacet
  facet normal 0 -0 -1
    outer loop
      vertex -2.82843 2.82843 -5.85
      vertex -15.2591 -3.24342 -5.85
      vertex -2.35114 3.23607 -5.85
    endloop
  endfacet
  facet normal 0 -0 -1
    outer loop
      vertex -3.23607 2.35114 -5.85
      vertex -15.2591 -3.24342 -5.85
      vertex -2.82843 2.82843 -5.85
    endloop
  endfacet
  facet normal 0 -0 -1
    outer loop
      vertex -3.56403 1.81596 -5.85
      vertex -15.2591 -3.24342 -5.85
      vertex -3.23607 2.35114 -5.85
    endloop
  endfacet
  facet normal 0 -0 -1
    outer loop
      vertex -3.95075 0.625738 -5.85
      vertex -15.2591 -3.24342 -5.85
      vertex -3.80423 1.23607 -5.85
    endloop
  endfacet
  facet normal 0 -0 -1
    outer loop
      vertex -4 0 -5.85
      vertex -15.2591 -3.24342 -5.85
      vertex -3.95075 0.625738 -5.85
    endloop
  endfacet
  facet normal -0 0 -1
    outer loop
      vertex 0.625738 3.95075 -5.85
      vertex 12.6207 9.16945 -5.85
      vertex 1.23607 3.80423 -5.85
    endloop
  endfacet
  facet normal 0 -0 -1
    outer loop
      vertex -3.80423 1.23607 -5.85
      vertex -15.2591 -3.24342 -5.85
      vertex -3.56403 1.81596 -5.85
    endloop
  endfacet
  facet normal -0.994522 0.104528 0
    outer loop
      vertex -15.6 0 -5.85
      vertex -15.6 0 -1.6
      vertex -15.2591 3.24342 -5.85
    endloop
  endfacet
  facet normal -0.994522 0.104528 0
    outer loop
      vertex -15.2591 3.24342 -5.85
      vertex -15.6 0 -1.6
      vertex -15.2591 3.24342 -1.6
    endloop
  endfacet
  facet normal -0.994522 -0.104528 -0
    outer loop
      vertex -15.6 0 -5.85
      vertex -15.2591 -3.24342 -5.85
      vertex -15.6 0 -1.6
    endloop
  endfacet
  facet normal -0.994522 -0.104528 0
    outer loop
      vertex -15.6 0 -1.6
      vertex -15.2591 -3.24342 -5.85
      vertex -15.2591 -3.24342 -1.6
    endloop
  endfacet
  facet normal -0.951056 -0.309017 -0
    outer loop
      vertex -15.2591 -3.24342 -5.85
      vertex -14.2513 -6.34509 -5.85
      vertex -15.2591 -3.24342 -1.6
    endloop
  endfacet
  facet normal -0.951056 -0.309017 0
    outer loop
      vertex -15.2591 -3.24342 -1.6
      vertex -14.2513 -6.34509 -5.85
      vertex -14.2513 -6.34509 -1.6
    endloop
  endfacet
  facet normal -0.866025 -0.5 -0
    outer loop
      vertex -14.2513 -6.34509 -5.85
      vertex -12.6207 -9.16945 -5.85
      vertex -14.2513 -6.34509 -1.6
    endloop
  endfacet
  facet normal -0.866025 -0.5 0
    outer loop
      vertex -14.2513 -6.34509 -1.6
      vertex -12.6207 -9.16945 -5.85
      vertex -12.6207 -9.16945 -1.6
    endloop
  endfacet
  facet normal -0.743145 -0.669131 -0
    outer loop
      vertex -12.6207 -9.16945 -5.85
      vertex -10.4384 -11.5931 -5.85
      vertex -12.6207 -9.16945 -1.6
    endloop
  endfacet
  facet normal -0.743145 -0.669131 0
    outer loop
      vertex -12.6207 -9.16945 -1.6
      vertex -10.4384 -11.5931 -5.85
      vertex -10.4384 -11.5931 -1.6
    endloop
  endfacet
  facet normal -0.587785 -0.809017 0
    outer loop
      vertex -10.4384 -11.5931 -1.6
      vertex -10.4384 -11.5931 -5.85
      vertex -7.8 -13.51 -5.85
    endloop
  endfacet
  facet normal -0.587785 -0.809017 0
    outer loop
      vertex -7.8 -13.51 -1.6
      vertex -10.4384 -11.5931 -1.6
      vertex -7.8 -13.51 -5.85
    endloop
  endfacet
  facet normal -0.406737 -0.913545 0
    outer loop
      vertex -7.8 -13.51 -1.6
      vertex -7.8 -13.51 -5.85
      vertex -4.82066 -14.8365 -5.85
    endloop
  endfacet
  facet normal -0.406737 -0.913545 0
    outer loop
      vertex -4.82066 -14.8365 -1.6
      vertex -7.8 -13.51 -1.6
      vertex -4.82066 -14.8365 -5.85
    endloop
  endfacet
  facet normal -0.207912 -0.978148 0
    outer loop
      vertex -4.82066 -14.8365 -1.6
      vertex -4.82066 -14.8365 -5.85
      vertex -1.63064 -15.5145 -5.85
    endloop
  endfacet
  facet normal -0.207912 -0.978148 0
    outer loop
      vertex -1.63064 -15.5145 -1.6
      vertex -4.82066 -14.8365 -1.6
      vertex -1.63064 -15.5145 -5.85
    endloop
  endfacet
  facet normal 0 -1 0
    outer loop
      vertex -1.63064 -15.5145 -1.6
      vertex -1.63064 -15.5145 -5.85
      vertex 1.63064 -15.5145 -5.85
    endloop
  endfacet
  facet normal 0 -1 0
    outer loop
      vertex 1.63064 -15.5145 -1.6
      vertex -1.63064 -15.5145 -1.6
      vertex 1.63064 -15.5145 -5.85
    endloop
  endfacet
  facet normal 0.207912 -0.978148 0
    outer loop
      vertex 1.63064 -15.5145 -1.6
      vertex 1.63064 -15.5145 -5.85
      vertex 4.82066 -14.8365 -5.85
    endloop
  endfacet
  facet normal 0.207912 -0.978148 0
    outer loop
      vertex 4.82066 -14.8365 -1.6
      vertex 1.63064 -15.5145 -1.6
      vertex 4.82066 -14.8365 -5.85
    endloop
  endfacet
  facet normal 0.406737 -0.913545 0
    outer loop
      vertex 4.82066 -14.8365 -1.6
      vertex 4.82066 -14.8365 -5.85
      vertex 7.8 -13.51 -5.85
    endloop
  endfacet
  facet normal 0.406737 -0.913545 0
    outer loop
      vertex 7.8 -13.51 -1.6
      vertex 4.82066 -14.8365 -1.6
      vertex 7.8 -13.51 -5.85
    endloop
  endfacet
  facet normal 0.587785 -0.809017 0
    outer loop
      vertex 7.8 -13.51 -1.6
      vertex 7.8 -13.51 -5.85
      vertex 10.4384 -11.5931 -5.85
    endloop
  endfacet
  facet normal 0.587785 -0.809017 0
    outer loop
      vertex 10.4384 -11.5931 -1.6
      vertex 7.8 -13.51 -1.6
      vertex 10.4384 -11.5931 -5.85
    endloop
  endfacet
  facet normal 0.743145 -0.669131 0
    outer loop
      vertex 10.4384 -11.5931 -1.6
      vertex 10.4384 -11.5931 -5.85
      vertex 12.6207 -9.16945 -5.85
    endloop
  endfacet
  facet normal 0.743145 -0.669131 0
    outer loop
      vertex 12.6207 -9.16945 -1.6
      vertex 10.4384 -11.5931 -1.6
      vertex 12.6207 -9.16945 -5.85
    endloop
  endfacet
  facet normal 0.866025 -0.5 0
    outer loop
      vertex 12.6207 -9.16945 -1.6
      vertex 12.6207 -9.16945 -5.85
      vertex 14.2513 -6.34509 -5.85
    endloop
  endfacet
  facet normal 0.866025 -0.5 0
    outer loop
      vertex 14.2513 -6.34509 -1.6
      vertex 12.6207 -9.16945 -1.6
      vertex 14.2513 -6.34509 -5.85
    endloop
  endfacet
  facet normal 0.951056 -0.309017 0
    outer loop
      vertex 14.2513 -6.34509 -1.6
      vertex 14.2513 -6.34509 -5.85
      vertex 15.2591 -3.24342 -5.85
    endloop
  endfacet
  facet normal 0.951056 -0.309017 0
    outer loop
      vertex 15.2591 -3.24342 -1.6
      vertex 14.2513 -6.34509 -1.6
      vertex 15.2591 -3.24342 -5.85
    endloop
  endfacet
  facet normal 0.994522 -0.104528 0
    outer loop
      vertex 15.2591 -3.24342 -1.6
      vertex 15.2591 -3.24342 -5.85
      vertex 15.6 0 -5.85
    endloop
  endfacet
  facet normal 0.994522 -0.104528 0
    outer loop
      vertex 15.6 0 -1.6
      vertex 15.2591 -3.24342 -1.6
      vertex 15.6 0 -5.85
    endloop
  endfacet
  facet normal 0.994522 0.104528 0
    outer loop
      vertex 15.6 0 -5.85
      vertex 15.2591 3.24342 -5.85
      vertex 15.2591 3.24342 -1.6
    endloop
  endfacet
  facet normal 0.994522 0.104528 -0
    outer loop
      vertex 15.6 0 -1.6
      vertex 15.6 0 -5.85
      vertex 15.2591 3.24342 -1.6
    endloop
  endfacet
  facet normal 0.951056 0.309017 0
    outer loop
      vertex 15.2591 3.24342 -5.85
      vertex 14.2513 6.34509 -5.85
      vertex 14.2513 6.34509 -1.6
    endloop
  endfacet
  facet normal 0.951056 0.309017 -0
    outer loop
      vertex 15.2591 3.24342 -1.6
      vertex 15.2591 3.24342 -5.85
      vertex 14.2513 6.34509 -1.6
    endloop
  endfacet
  facet normal 0.866025 0.5 0
    outer loop
      vertex 14.2513 6.34509 -5.85
      vertex 12.6207 9.16945 -5.85
      vertex 12.6207 9.16945 -1.6
    endloop
  endfacet
  facet normal 0.866025 0.5 -0
    outer loop
      vertex 14.2513 6.34509 -1.6
      vertex 14.2513 6.34509 -5.85
      vertex 12.6207 9.16945 -1.6
    endloop
  endfacet
  facet normal 0.743145 0.669131 0
    outer loop
      vertex 12.6207 9.16945 -5.85
      vertex 10.4384 11.5931 -5.85
      vertex 10.4384 11.5931 -1.6
    endloop
  endfacet
  facet normal 0.743145 0.669131 -0
    outer loop
      vertex 12.6207 9.16945 -1.6
      vertex 12.6207 9.16945 -5.85
      vertex 10.4384 11.5931 -1.6
    endloop
  endfacet
  facet normal 0.587785 0.809017 0
    outer loop
      vertex 7.8 13.51 -5.85
      vertex 7.8 13.51 -1.6
      vertex 10.4384 11.5931 -5.85
    endloop
  endfacet
  facet normal 0.587785 0.809017 0
    outer loop
      vertex 10.4384 11.5931 -5.85
      vertex 7.8 13.51 -1.6
      vertex 10.4384 11.5931 -1.6
    endloop
  endfacet
  facet normal 0.406737 0.913545 0
    outer loop
      vertex 4.82066 14.8365 -5.85
      vertex 4.82066 14.8365 -1.6
      vertex 7.8 13.51 -5.85
    endloop
  endfacet
  facet normal 0.406737 0.913545 0
    outer loop
      vertex 7.8 13.51 -5.85
      vertex 4.82066 14.8365 -1.6
      vertex 7.8 13.51 -1.6
    endloop
  endfacet
  facet normal 0.207912 0.978148 0
    outer loop
      vertex 1.63064 15.5145 -5.85
      vertex 1.63064 15.5145 -1.6
      vertex 4.82066 14.8365 -5.85
    endloop
  endfacet
  facet normal 0.207912 0.978148 0
    outer loop
      vertex 4.82066 14.8365 -5.85
      vertex 1.63064 15.5145 -1.6
      vertex 4.82066 14.8365 -1.6
    endloop
  endfacet
  facet normal 0 1 0
    outer loop
      vertex -1.63064 15.5145 -5.85
      vertex -1.63064 15.5145 -1.6
      vertex 1.63064 15.5145 -5.85
    endloop
  endfacet
  facet normal 0 1 0
    outer loop
      vertex 1.63064 15.5145 -5.85
      vertex -1.63064 15.5145 -1.6
      vertex 1.63064 15.5145 -1.6
    endloop
  endfacet
  facet normal -0.207912 0.978148 0
    outer loop
      vertex -4.82066 14.8365 -5.85
      vertex -4.82066 14.8365 -1.6
      vertex -1.63064 15.5145 -5.85
    endloop
  endfacet
  facet normal -0.207912 0.978148 0
    outer loop
      vertex -1.63064 15.5145 -5.85
      vertex -4.82066 14.8365 -1.6
      vertex -1.63064 15.5145 -1.6
    endloop
  endfacet
  facet normal -0.406737 0.913545 0
    outer loop
      vertex -7.8 13.51 -5.85
      vertex -7.8 13.51 -1.6
      vertex -4.82066 14.8365 -5.85
    endloop
  endfacet
  facet normal -0.406737 0.913545 0
    outer loop
      vertex -4.82066 14.8365 -5.85
      vertex -7.8 13.51 -1.6
      vertex -4.82066 14.8365 -1.6
    endloop
  endfacet
  facet normal -0.587785 0.809017 0
    outer loop
      vertex -10.4384 11.5931 -5.85
      vertex -10.4384 11.5931 -1.6
      vertex -7.8 13.51 -5.85
    endloop
  endfacet
  facet normal -0.587785 0.809017 0
    outer loop
      vertex -7.8 13.51 -5.85
      vertex -10.4384 11.5931 -1.6
      vertex -7.8 13.51 -1.6
    endloop
  endfacet
  facet normal -0.743145 0.669131 0
    outer loop
      vertex -12.6207 9.16945 -5.85
      vertex -12.6207 9.16945 -1.6
      vertex -10.4384 11.5931 -5.85
    endloop
  endfacet
  facet normal -0.743145 0.669131 0
    outer loop
      vertex -10.4384 11.5931 -5.85
      vertex -12.6207 9.16945 -1.6
      vertex -10.4384 11.5931 -1.6
    endloop
  endfacet
  facet normal -0.866025 0.5 0
    outer loop
      vertex -14.2513 6.34509 -5.85
      vertex -14.2513 6.34509 -1.6
      vertex -12.6207 9.16945 -5.85
    endloop
  endfacet
  facet normal -0.866025 0.5 0
    outer loop
      vertex -12.6207 9.16945 -5.85
      vertex -14.2513 6.34509 -1.6
      vertex -12.6207 9.16945 -1.6
    endloop
  endfacet
  facet normal -0.951056 0.309017 0
    outer loop
      vertex -15.2591 3.24342 -5.85
      vertex -15.2591 3.24342 -1.6
      vertex -14.2513 6.34509 -5.85
    endloop
  endfacet
  facet normal -0.951056 0.309017 0
    outer loop
      vertex -14.2513 6.34509 -5.85
      vertex -15.2591 3.24342 -1.6
      vertex -14.2513 6.34509 -1.6
    endloop
  endfacet
  facet normal 0.996917 -0.0784597 0
    outer loop
      vertex -3.95075 0.625738 -5.85
      vertex -3.95075 0.625738 5.85
      vertex -4 0 5.85
    endloop
  endfacet
  facet normal 0.996917 -0.0784597 0
    outer loop
      vertex -4 0 -5.85
      vertex -3.95075 0.625738 -5.85
      vertex -4 0 5.85
    endloop
  endfacet
  facet normal 0.996917 0.0784597 0
    outer loop
      vertex -4 0 5.85
      vertex -3.95075 -0.625738 5.85
      vertex -3.95075 -0.625738 -5.85
    endloop
  endfacet
  facet normal 0.996917 0.0784597 0
    outer loop
      vertex -4 0 -5.85
      vertex -4 0 5.85
      vertex -3.95075 -0.625738 -5.85
    endloop
  endfacet
  facet normal 0.97237 -0.233445 0
    outer loop
      vertex -3.80423 1.23607 -5.85
      vertex -3.80423 1.23607 5.85
      vertex -3.95075 0.625738 5.85
    endloop
  endfacet
  facet normal 0.97237 -0.233445 0
    outer loop
      vertex -3.95075 0.625738 -5.85
      vertex -3.80423 1.23607 -5.85
      vertex -3.95075 0.625738 5.85
    endloop
  endfacet
  facet normal 0.92388 -0.382683 0
    outer loop
      vertex -3.56403 1.81596 -5.85
      vertex -3.56403 1.81596 5.85
      vertex -3.80423 1.23607 5.85
    endloop
  endfacet
  facet normal 0.92388 -0.382683 0
    outer loop
      vertex -3.80423 1.23607 -5.85
      vertex -3.56403 1.81596 -5.85
      vertex -3.80423 1.23607 5.85
    endloop
  endfacet
  facet normal 0.85264 -0.522498 0
    outer loop
      vertex -3.23607 2.35114 -5.85
      vertex -3.23607 2.35114 5.85
      vertex -3.56403 1.81596 5.85
    endloop
  endfacet
  facet normal 0.85264 -0.522498 0
    outer loop
      vertex -3.56403 1.81596 -5.85
      vertex -3.23607 2.35114 -5.85
      vertex -3.56403 1.81596 5.85
    endloop
  endfacet
  facet normal 0.760406 -0.649448 0
    outer loop
      vertex -2.82843 2.82843 -5.85
      vertex -2.82843 2.82843 5.85
      vertex -3.23607 2.35114 5.85
    endloop
  endfacet
  facet normal 0.760406 -0.649448 0
    outer loop
      vertex -3.23607 2.35114 -5.85
      vertex -2.82843 2.82843 -5.85
      vertex -3.23607 2.35114 5.85
    endloop
  endfacet
  facet normal 0.649448 -0.760406 0
    outer loop
      vertex -2.35114 3.23607 -5.85
      vertex -2.35114 3.23607 5.85
      vertex -2.82843 2.82843 5.85
    endloop
  endfacet
  facet normal 0.649448 -0.760406 0
    outer loop
      vertex -2.82843 2.82843 -5.85
      vertex -2.35114 3.23607 -5.85
      vertex -2.82843 2.82843 5.85
    endloop
  endfacet
  facet normal 0.522498 -0.85264 0
    outer loop
      vertex -1.81596 3.56403 -5.85
      vertex -1.81596 3.56403 5.85
      vertex -2.35114 3.23607 5.85
    endloop
  endfacet
  facet normal 0.522498 -0.85264 0
    outer loop
      vertex -2.35114 3.23607 -5.85
      vertex -1.81596 3.56403 -5.85
      vertex -2.35114 3.23607 5.85
    endloop
  endfacet
  facet normal 0.382683 -0.92388 0
    outer loop
      vertex -1.23607 3.80423 -5.85
      vertex -1.23607 3.80423 5.85
      vertex -1.81596 3.56403 5.85
    endloop
  endfacet
  facet normal 0.382683 -0.92388 0
    outer loop
      vertex -1.81596 3.56403 -5.85
      vertex -1.23607 3.80423 -5.85
      vertex -1.81596 3.56403 5.85
    endloop
  endfacet
  facet normal 0.233445 -0.97237 0
    outer loop
      vertex -0.625738 3.95075 -5.85
      vertex -0.625738 3.95075 5.85
      vertex -1.23607 3.80423 5.85
    endloop
  endfacet
  facet normal 0.233445 -0.97237 0
    outer loop
      vertex -1.23607 3.80423 -5.85
      vertex -0.625738 3.95075 -5.85
      vertex -1.23607 3.80423 5.85
    endloop
  endfacet
  facet normal 0.0784597 -0.996917 0
    outer loop
      vertex 0 4 -5.85
      vertex 0 4 5.85
      vertex -0.625738 3.95075 5.85
    endloop
  endfacet
  facet normal 0.0784597 -0.996917 0
    outer loop
      vertex -0.625738 3.95075 -5.85
      vertex 0 4 -5.85
      vertex -0.625738 3.95075 5.85
    endloop
  endfacet
  facet normal -0.0784597 -0.996917 -0
    outer loop
      vertex 0.625738 3.95075 -5.85
      vertex 0.625738 3.95075 5.85
      vertex 0 4 5.85
    endloop
  endfacet
  facet normal -0.0784597 -0.996917 -0
    outer loop
      vertex 0 4 -5.85
      vertex 0.625738 3.95075 -5.85
      vertex 0 4 5.85
    endloop
  endfacet
  facet normal -0.233445 -0.97237 -0
    outer loop
      vertex 1.23607 3.80423 -5.85
      vertex 1.23607 3.80423 5.85
      vertex 0.625738 3.95075 5.85
    endloop
  endfacet
  facet normal -0.233445 -0.97237 -0
    outer loop
      vertex 0.625738 3.95075 -5.85
      vertex 1.23607 3.80423 -5.85
      vertex 0.625738 3.95075 5.85
    endloop
  endfacet
  facet normal -0.382683 -0.92388 -0
    outer loop
      vertex 1.81596 3.56403 -5.85
      vertex 1.81596 3.56403 5.85
      vertex 1.23607 3.80423 5.85
    endloop
  endfacet
  facet normal -0.382683 -0.92388 -0
    outer loop
      vertex 1.23607 3.80423 -5.85
      vertex 1.81596 3.56403 -5.85
      vertex 1.23607 3.80423 5.85
    endloop
  endfacet
  facet normal -0.522498 -0.85264 -0
    outer loop
      vertex 2.35114 3.23607 -5.85
      vertex 2.35114 3.23607 5.85
      vertex 1.81596 3.56403 5.85
    endloop
  endfacet
  facet normal -0.522498 -0.85264 -0
    outer loop
      vertex 1.81596 3.56403 -5.85
      vertex 2.35114 3.23607 -5.85
      vertex 1.81596 3.56403 5.85
    endloop
  endfacet
  facet normal -0.649448 -0.760406 -0
    outer loop
      vertex 2.82843 2.82843 -5.85
      vertex 2.82843 2.82843 5.85
      vertex 2.35114 3.23607 5.85
    endloop
  endfacet
  facet normal -0.649448 -0.760406 -0
    outer loop
      vertex 2.35114 3.23607 -5.85
      vertex 2.82843 2.82843 -5.85
      vertex 2.35114 3.23607 5.85
    endloop
  endfacet
  facet normal -0.760406 -0.649448 0
    outer loop
      vertex 3.23607 2.35114 5.85
      vertex 2.82843 2.82843 5.85
      vertex 3.23607 2.35114 -5.85
    endloop
  endfacet
  facet normal -0.760406 -0.649448 0
    outer loop
      vertex 3.23607 2.35114 -5.85
      vertex 2.82843 2.82843 5.85
      vertex 2.82843 2.82843 -5.85
    endloop
  endfacet
  facet normal -0.85264 -0.522498 0
    outer loop
      vertex 3.56403 1.81596 5.85
      vertex 3.23607 2.35114 5.85
      vertex 3.56403 1.81596 -5.85
    endloop
  endfacet
  facet normal -0.85264 -0.522498 0
    outer loop
      vertex 3.56403 1.81596 -5.85
      vertex 3.23607 2.35114 5.85
      vertex 3.23607 2.35114 -5.85
    endloop
  endfacet
  facet normal -0.92388 -0.382683 0
    outer loop
      vertex 3.80423 1.23607 5.85
      vertex 3.56403 1.81596 5.85
      vertex 3.80423 1.23607 -5.85
    endloop
  endfacet
  facet normal -0.92388 -0.382683 0
    outer loop
      vertex 3.80423 1.23607 -5.85
      vertex 3.56403 1.81596 5.85
      vertex 3.56403 1.81596 -5.85
    endloop
  endfacet
  facet normal -0.97237 -0.233445 0
    outer loop
      vertex 3.95075 0.625738 5.85
      vertex 3.80423 1.23607 5.85
      vertex 3.95075 0.625738 -5.85
    endloop
  endfacet
  facet normal -0.97237 -0.233445 0
    outer loop
      vertex 3.95075 0.625738 -5.85
      vertex 3.80423 1.23607 5.85
      vertex 3.80423 1.23607 -5.85
    endloop
  endfacet
  facet normal -0.996917 -0.0784597 0
    outer loop
      vertex 4 0 5.85
      vertex 3.95075 0.625738 5.85
      vertex 4 0 -5.85
    endloop
  endfacet
  facet normal -0.996917 -0.0784597 0
    outer loop
      vertex 4 0 -5.85
      vertex 3.95075 0.625738 5.85
      vertex 3.95075 0.625738 -5.85
    endloop
  endfacet
  facet normal -0.996917 0.0784597 0
    outer loop
      vertex 4 0 5.85
      vertex 4 0 -5.85
      vertex 3.95075 -0.625738 5.85
    endloop
  endfacet
  facet normal -0.996917 0.0784597 0
    outer loop
      vertex 3.95075 -0.625738 5.85
      vertex 4 0 -5.85
      vertex 3.95075 -0.625738 -5.85
    endloop
  endfacet
  facet normal -0.97237 0.233445 0
    outer loop
      vertex 3.95075 -0.625738 5.85
      vertex 3.95075 -0.625738 -5.85
      vertex 3.80423 -1.23607 5.85
    endloop
  endfacet
  facet normal -0.97237 0.233445 0
    outer loop
      vertex 3.80423 -1.23607 5.85
      vertex 3.95075 -0.625738 -5.85
      vertex 3.80423 -1.23607 -5.85
    endloop
  endfacet
  facet normal -0.92388 0.382683 0
    outer loop
      vertex 3.80423 -1.23607 5.85
      vertex 3.80423 -1.23607 -5.85
      vertex 3.56403 -1.81596 5.85
    endloop
  endfacet
  facet normal -0.92388 0.382683 0
    outer loop
      vertex 3.56403 -1.81596 5.85
      vertex 3.80423 -1.23607 -5.85
      vertex 3.56403 -1.81596 -5.85
    endloop
  endfacet
  facet normal -0.85264 0.522498 0
    outer loop
      vertex 3.56403 -1.81596 5.85
      vertex 3.56403 -1.81596 -5.85
      vertex 3.23607 -2.35114 5.85
    endloop
  endfacet
  facet normal -0.85264 0.522498 0
    outer loop
      vertex 3.23607 -2.35114 5.85
      vertex 3.56403 -1.81596 -5.85
      vertex 3.23607 -2.35114 -5.85
    endloop
  endfacet
  facet normal -0.760406 0.649448 0
    outer loop
      vertex 3.23607 -2.35114 5.85
      vertex 3.23607 -2.35114 -5.85
      vertex 2.82843 -2.82843 5.85
    endloop
  endfacet
  facet normal -0.760406 0.649448 0
    outer loop
      vertex 2.82843 -2.82843 5.85
      vertex 3.23607 -2.35114 -5.85
      vertex 2.82843 -2.82843 -5.85
    endloop
  endfacet
  facet normal -0.649448 0.760406 0
    outer loop
      vertex 2.82843 -2.82843 5.85
      vertex 2.82843 -2.82843 -5.85
      vertex 2.35114 -3.23607 5.85
    endloop
  endfacet
  facet normal -0.649448 0.760406 0
    outer loop
      vertex 2.35114 -3.23607 5.85
      vertex 2.82843 -2.82843 -5.85
      vertex 2.35114 -3.23607 -5.85
    endloop
  endfacet
  facet normal -0.522498 0.85264 0
    outer loop
      vertex 2.35114 -3.23607 5.85
      vertex 2.35114 -3.23607 -5.85
      vertex 1.81596 -3.56403 5.85
    endloop
  endfacet
  facet normal -0.522498 0.85264 0
    outer loop
      vertex 1.81596 -3.56403 5.85
      vertex 2.35114 -3.23607 -5.85
      vertex 1.81596 -3.56403 -5.85
    endloop
  endfacet
  facet normal -0.382683 0.92388 0
    outer loop
      vertex 1.81596 -3.56403 5.85
      vertex 1.81596 -3.56403 -5.85
      vertex 1.23607 -3.80423 5.85
    endloop
  endfacet
  facet normal -0.382683 0.92388 0
    outer loop
      vertex 1.23607 -3.80423 5.85
      vertex 1.81596 -3.56403 -5.85
      vertex 1.23607 -3.80423 -5.85
    endloop
  endfacet
  facet normal -0.233445 0.97237 0
    outer loop
      vertex 1.23607 -3.80423 5.85
      vertex 1.23607 -3.80423 -5.85
      vertex 0.625738 -3.95075 5.85
    endloop
  endfacet
  facet normal -0.233445 0.97237 0
    outer loop
      vertex 0.625738 -3.95075 5.85
      vertex 1.23607 -3.80423 -5.85
      vertex 0.625738 -3.95075 -5.85
    endloop
  endfacet
  facet normal -0.0784597 0.996917 0
    outer loop
      vertex 0.625738 -3.95075 5.85
      vertex 0.625738 -3.95075 -5.85
      vertex 0 -4 5.85
    endloop
  endfacet
  facet normal -0.0784597 0.996917 0
    outer loop
      vertex 0 -4 5.85
      vertex 0.625738 -3.95075 -5.85
      vertex 0 -4 -5.85
    endloop
  endfacet
  facet normal 0.0784597 0.996917 -0
    outer loop
      vertex 0 -4 5.85
      vertex 0 -4 -5.85
      vertex -0.625738 -3.95075 5.85
    endloop
  endfacet
  facet normal 0.0784597 0.996917 -0
    outer loop
      vertex -0.625738 -3.95075 5.85
      vertex 0 -4 -5.85
      vertex -0.625738 -3.95075 -5.85
    endloop
  endfacet
  facet normal 0.233445 0.97237 -0
    outer loop
      vertex -0.625738 -3.95075 5.85
      vertex -0.625738 -3.95075 -5.85
      vertex -1.23607 -3.80423 5.85
    endloop
  endfacet
  facet normal 0.233445 0.97237 -0
    outer loop
      vertex -1.23607 -3.80423 5.85
      vertex -0.625738 -3.95075 -5.85
      vertex -1.23607 -3.80423 -5.85
    endloop
  endfacet
  facet normal 0.382683 0.92388 -0
    outer loop
      vertex -1.23607 -3.80423 5.85
      vertex -1.23607 -3.80423 -5.85
      vertex -1.81596 -3.56403 5.85
    endloop
  endfacet
  facet normal 0.382683 0.92388 -0
    outer loop
      vertex -1.81596 -3.56403 5.85
      vertex -1.23607 -3.80423 -5.85
      vertex -1.81596 -3.56403 -5.85
    endloop
  endfacet
  facet normal 0.522498 0.85264 -0
    outer loop
      vertex -1.81596 -3.56403 5.85
      vertex -1.81596 -3.56403 -5.85
      vertex -2.35114 -3.23607 5.85
    endloop
  endfacet
  facet normal 0.522498 0.85264 -0
    outer loop
      vertex -2.35114 -3.23607 5.85
      vertex -1.81596 -3.56403 -5.85
      vertex -2.35114 -3.23607 -5.85
    endloop
  endfacet
  facet normal 0.649448 0.760406 -0
    outer loop
      vertex -2.35114 -3.23607 5.85
      vertex -2.35114 -3.23607 -5.85
      vertex -2.82843 -2.82843 5.85
    endloop
  endfacet
  facet normal 0.649448 0.760406 -0
    outer loop
      vertex -2.82843 -2.82843 5.85
      vertex -2.35114 -3.23607 -5.85
      vertex -2.82843 -2.82843 -5.85
    endloop
  endfacet
  facet normal 0.760406 0.649448 0
    outer loop
      vertex -3.23607 -2.35114 5.85
      vertex -2.82843 -2.82843 5.85
      vertex -2.82843 -2.82843 -5.85
    endloop
  endfacet
  facet normal 0.760406 0.649448 0
    outer loop
      vertex -3.23607 -2.35114 -5.85
      vertex -3.23607 -2.35114 5.85
      vertex -2.82843 -2.82843 -5.85
    endloop
  endfacet
  facet normal 0.85264 0.522498 0
    outer loop
      vertex -3.56403 -1.81596 5.85
      vertex -3.23607 -2.35114 5.85
      vertex -3.23607 -2.35114 -5.85
    endloop
  endfacet
  facet normal 0.85264 0.522498 0
    outer loop
      vertex -3.56403 -1.81596 -5.85
      vertex -3.56403 -1.81596 5.85
      vertex -3.23607 -2.35114 -5.85
    endloop
  endfacet
  facet normal 0.92388 0.382683 0
    outer loop
      vertex -3.80423 -1.23607 5.85
      vertex -3.56403 -1.81596 5.85
      vertex -3.56403 -1.81596 -5.85
    endloop
  endfacet
  facet normal 0.92388 0.382683 0
    outer loop
      vertex -3.80423 -1.23607 -5.85
      vertex -3.80423 -1.23607 5.85
      vertex -3.56403 -1.81596 -5.85
    endloop
  endfacet
  facet normal 0.97237 0.233445 0
    outer loop
      vertex -3.95075 -0.625738 5.85
      vertex -3.80423 -1.23607 5.85
      vertex -3.80423 -1.23607 -5.85
    endloop
  endfacet
  facet normal 0.97237 0.233445 0
    outer loop
      vertex -3.95075 -0.625738 -5.85
      vertex -3.95075 -0.625738 5.85
      vertex -3.80423 -1.23607 -5.85
    endloop
  endfacet
  facet normal -0.705162 0.0741154 0.705162
    outer loop
      vertex -15.2591 3.24342 -1.6
      vertex -15.6 0 -1.6
      vertex -13.6941 2.91076 1.11022e-16
    endloop
  endfacet
  facet normal -0.674343 0.219107 0.705162
    outer loop
      vertex -14.2513 6.34509 -1.6
      vertex -15.2591 3.24342 -1.6
      vertex -12.7896 5.69431 1.11022e-16
    endloop
  endfacet
  facet normal -0.674343 0.219107 0.705162
    outer loop
      vertex -12.7896 5.69431 1.11022e-16
      vertex -15.2591 3.24342 -1.6
      vertex -13.6941 2.91076 1.11022e-16
    endloop
  endfacet
  facet normal -0.705162 0.0741156 0.705162
    outer loop
      vertex -15.6 0 -1.6
      vertex -14 2.25058e-16 1.11022e-16
      vertex -13.6941 2.91076 1.11022e-16
    endloop
  endfacet
  facet normal -1.40661e-16 0 1.40661e-16
    outer loop
      vertex -15.6 0 -1.6
      vertex -14 0 1.11022e-16
      vertex -14 2.25058e-16 1.11022e-16
    endloop
  endfacet
  facet normal -0.705162 -0.0741154 0.705162
    outer loop
      vertex -15.6 0 -1.6
      vertex -15.2591 -3.24342 -1.6
      vertex -14 0 1.11022e-16
    endloop
  endfacet
  facet normal -3.423e-17 3.35375e-24 2.69369e-17
    outer loop
      vertex -14 0 1.11022e-16
      vertex -15.2591 -3.24342 -1.6
      vertex -14 -2.25058e-16 1.11022e-16
    endloop
  endfacet
  facet normal -0.705162 -0.0741156 0.705162
    outer loop
      vertex -14 -2.25058e-16 1.11022e-16
      vertex -15.2591 -3.24342 -1.6
      vertex -13.6941 -2.91076 1.11022e-16
    endloop
  endfacet
  facet normal -0.674343 -0.219107 0.705162
    outer loop
      vertex -13.6941 -2.91076 1.11022e-16
      vertex -15.2591 -3.24342 -1.6
      vertex -14.2513 -6.34509 -1.6
    endloop
  endfacet
  facet normal -0.674343 -0.219107 0.705162
    outer loop
      vertex -13.6941 -2.91076 1.11022e-16
      vertex -14.2513 -6.34509 -1.6
      vertex -12.7896 -5.69431 1.11022e-16
    endloop
  endfacet
  facet normal -0.614052 -0.354523 0.705162
    outer loop
      vertex -12.7896 -5.69431 1.11022e-16
      vertex -14.2513 -6.34509 -1.6
      vertex -12.6207 -9.16945 -1.6
    endloop
  endfacet
  facet normal -0.614052 -0.354523 0.705162
    outer loop
      vertex -11.3262 -8.22899 1.11022e-16
      vertex -12.7896 -5.69431 1.11022e-16
      vertex -12.6207 -9.16945 -1.6
    endloop
  endfacet
  facet normal -0.526924 -0.474445 0.705162
    outer loop
      vertex -11.3262 -8.22899 1.11022e-16
      vertex -12.6207 -9.16945 -1.6
      vertex -10.4384 -11.5931 -1.6
    endloop
  endfacet
  facet normal -0.526924 -0.474445 0.705162
    outer loop
      vertex -9.36783 -10.404 1.11022e-16
      vertex -11.3262 -8.22899 1.11022e-16
      vertex -10.4384 -11.5931 -1.6
    endloop
  endfacet
  facet normal -0.416767 -0.573631 0.705162
    outer loop
      vertex -9.36783 -10.404 1.11022e-16
      vertex -10.4384 -11.5931 -1.6
      vertex -7.8 -13.51 -1.6
    endloop
  endfacet
  facet normal -0.416767 -0.573631 0.705162
    outer loop
      vertex -7 -12.1244 1.11022e-16
      vertex -9.36783 -10.404 1.11022e-16
      vertex -7.8 -13.51 -1.6
    endloop
  endfacet
  facet normal -0.288395 -0.647746 0.705162
    outer loop
      vertex -7 -12.1244 1.11022e-16
      vertex -7.8 -13.51 -1.6
      vertex -4.82066 -14.8365 -1.6
    endloop
  endfacet
  facet normal -0.288395 -0.647746 0.705162
    outer loop
      vertex -4.32624 -13.3148 1.11022e-16
      vertex -7 -12.1244 1.11022e-16
      vertex -4.82066 -14.8365 -1.6
    endloop
  endfacet
  facet normal -0.147419 -0.693552 0.705162
    outer loop
      vertex -4.32624 -13.3148 1.11022e-16
      vertex -4.82066 -14.8365 -1.6
      vertex -1.63064 -15.5145 -1.6
    endloop
  endfacet
  facet normal -0.147419 -0.693552 0.705162
    outer loop
      vertex -1.4634 -13.9233 1.11022e-16
      vertex -4.32624 -13.3148 1.11022e-16
      vertex -1.63064 -15.5145 -1.6
    endloop
  endfacet
  facet normal 0 -0.709046 0.705162
    outer loop
      vertex -1.4634 -13.9233 1.11022e-16
      vertex -1.63064 -15.5145 -1.6
      vertex 1.63064 -15.5145 -1.6
    endloop
  endfacet
  facet normal 0 -0.709046 0.705162
    outer loop
      vertex 1.4634 -13.9233 1.11022e-16
      vertex -1.4634 -13.9233 1.11022e-16
      vertex 1.63064 -15.5145 -1.6
    endloop
  endfacet
  facet normal 0.147419 -0.693552 0.705162
    outer loop
      vertex 4.82066 -14.8365 -1.6
      vertex 1.4634 -13.9233 1.11022e-16
      vertex 1.63064 -15.5145 -1.6
    endloop
  endfacet
  facet normal 0.147419 -0.693552 0.705162
    outer loop
      vertex 4.32624 -13.3148 1.11022e-16
      vertex 1.4634 -13.9233 1.11022e-16
      vertex 4.82066 -14.8365 -1.6
    endloop
  endfacet
  facet normal 0.288395 -0.647746 0.705162
    outer loop
      vertex 7.8 -13.51 -1.6
      vertex 4.32624 -13.3148 1.11022e-16
      vertex 4.82066 -14.8365 -1.6
    endloop
  endfacet
  facet normal 0.288395 -0.647746 0.705162
    outer loop
      vertex 7 -12.1244 1.11022e-16
      vertex 4.32624 -13.3148 1.11022e-16
      vertex 7.8 -13.51 -1.6
    endloop
  endfacet
  facet normal 0.416767 -0.573631 0.705162
    outer loop
      vertex 10.4384 -11.5931 -1.6
      vertex 7 -12.1244 1.11022e-16
      vertex 7.8 -13.51 -1.6
    endloop
  endfacet
  facet normal 0.416767 -0.573631 0.705162
    outer loop
      vertex 9.36783 -10.404 1.11022e-16
      vertex 7 -12.1244 1.11022e-16
      vertex 10.4384 -11.5931 -1.6
    endloop
  endfacet
  facet normal 0.526924 -0.474445 0.705162
    outer loop
      vertex 12.6207 -9.16945 -1.6
      vertex 9.36783 -10.404 1.11022e-16
      vertex 10.4384 -11.5931 -1.6
    endloop
  endfacet
  facet normal 0.526924 -0.474445 0.705162
    outer loop
      vertex 11.3262 -8.22899 1.11022e-16
      vertex 9.36783 -10.404 1.11022e-16
      vertex 12.6207 -9.16945 -1.6
    endloop
  endfacet
  facet normal 0.614052 -0.354523 0.705162
    outer loop
      vertex 14.2513 -6.34509 -1.6
      vertex 11.3262 -8.22899 1.11022e-16
      vertex 12.6207 -9.16945 -1.6
    endloop
  endfacet
  facet normal 0.614052 -0.354523 0.705162
    outer loop
      vertex 12.7896 -5.69431 1.11022e-16
      vertex 11.3262 -8.22899 1.11022e-16
      vertex 14.2513 -6.34509 -1.6
    endloop
  endfacet
  facet normal 0.674343 -0.219107 0.705162
    outer loop
      vertex 15.2591 -3.24342 -1.6
      vertex 12.7896 -5.69431 1.11022e-16
      vertex 14.2513 -6.34509 -1.6
    endloop
  endfacet
  facet normal 0.674343 -0.219107 0.705162
    outer loop
      vertex 13.6941 -2.91076 1.11022e-16
      vertex 12.7896 -5.69431 1.11022e-16
      vertex 15.2591 -3.24342 -1.6
    endloop
  endfacet
  facet normal 0.705162 -0.0741154 0.705162
    outer loop
      vertex 15.6 0 -1.6
      vertex 13.6941 -2.91076 1.11022e-16
      vertex 15.2591 -3.24342 -1.6
    endloop
  endfacet
  facet normal 0.705162 -0.0741156 0.705162
    outer loop
      vertex 14 -2.25058e-16 1.11022e-16
      vertex 13.6941 -2.91076 1.11022e-16
      vertex 15.6 0 -1.6
    endloop
  endfacet
  facet normal 1.40661e-16 -1.75128e-23 1.40661e-16
    outer loop
      vertex 14 0 1.11022e-16
      vertex 14 -2.25058e-16 1.11022e-16
      vertex 15.6 0 -1.6
    endloop
  endfacet
  facet normal 5.47793e-17 0 4.3097e-17
    outer loop
      vertex 15.2591 3.24342 -1.6
      vertex 14 2.25058e-16 1.11022e-16
      vertex 14 0 1.11022e-16
    endloop
  endfacet
  facet normal 0.705162 0.0741154 0.705162
    outer loop
      vertex 15.6 0 -1.6
      vertex 15.2591 3.24342 -1.6
      vertex 14 0 1.11022e-16
    endloop
  endfacet
  facet normal 0.674343 0.219107 0.705162
    outer loop
      vertex 15.2591 3.24342 -1.6
      vertex 14.2513 6.34509 -1.6
      vertex 13.6941 2.91076 1.11022e-16
    endloop
  endfacet
  facet normal 0.705162 0.0741156 0.705162
    outer loop
      vertex 14 2.25058e-16 1.11022e-16
      vertex 15.2591 3.24342 -1.6
      vertex 13.6941 2.91076 1.11022e-16
    endloop
  endfacet
  facet normal 0.614052 0.354523 0.705162
    outer loop
      vertex 14.2513 6.34509 -1.6
      vertex 12.6207 9.16945 -1.6
      vertex 12.7896 5.69431 1.11022e-16
    endloop
  endfacet
  facet normal 0.674343 0.219107 0.705162
    outer loop
      vertex 13.6941 2.91076 1.11022e-16
      vertex 14.2513 6.34509 -1.6
      vertex 12.7896 5.69431 1.11022e-16
    endloop
  endfacet
  facet normal 0.526924 0.474445 0.705162
    outer loop
      vertex 12.6207 9.16945 -1.6
      vertex 10.4384 11.5931 -1.6
      vertex 11.3262 8.22899 1.11022e-16
    endloop
  endfacet
  facet normal 0.614052 0.354523 0.705162
    outer loop
      vertex 12.7896 5.69431 1.11022e-16
      vertex 12.6207 9.16945 -1.6
      vertex 11.3262 8.22899 1.11022e-16
    endloop
  endfacet
  facet normal 0.416767 0.573631 0.705162
    outer loop
      vertex 10.4384 11.5931 -1.6
      vertex 7.8 13.51 -1.6
      vertex 9.36783 10.404 1.11022e-16
    endloop
  endfacet
  facet normal 0.526924 0.474445 0.705162
    outer loop
      vertex 11.3262 8.22899 1.11022e-16
      vertex 10.4384 11.5931 -1.6
      vertex 9.36783 10.404 1.11022e-16
    endloop
  endfacet
  facet normal 0.288395 0.647746 0.705162
    outer loop
      vertex 7.8 13.51 -1.6
      vertex 4.82066 14.8365 -1.6
      vertex 7 12.1244 1.11022e-16
    endloop
  endfacet
  facet normal 0.416767 0.573631 0.705162
    outer loop
      vertex 9.36783 10.404 1.11022e-16
      vertex 7.8 13.51 -1.6
      vertex 7 12.1244 1.11022e-16
    endloop
  endfacet
  facet normal 0.147419 0.693552 0.705162
    outer loop
      vertex 4.82066 14.8365 -1.6
      vertex 1.63064 15.5145 -1.6
      vertex 4.32624 13.3148 1.11022e-16
    endloop
  endfacet
  facet normal 0.288395 0.647746 0.705162
    outer loop
      vertex 7 12.1244 1.11022e-16
      vertex 4.82066 14.8365 -1.6
      vertex 4.32624 13.3148 1.11022e-16
    endloop
  endfacet
  facet normal 0 0.709046 0.705162
    outer loop
      vertex -1.63064 15.5145 -1.6
      vertex -1.4634 13.9233 1.11022e-16
      vertex 1.63064 15.5145 -1.6
    endloop
  endfacet
  facet normal 0 0.709046 0.705162
    outer loop
      vertex 1.63064 15.5145 -1.6
      vertex -1.4634 13.9233 1.11022e-16
      vertex 1.4634 13.9233 1.11022e-16
    endloop
  endfacet
  facet normal 0.147419 0.693552 0.705162
    outer loop
      vertex 4.32624 13.3148 1.11022e-16
      vertex 1.63064 15.5145 -1.6
      vertex 1.4634 13.9233 1.11022e-16
    endloop
  endfacet
  facet normal -0.147419 0.693552 0.705162
    outer loop
      vertex -1.63064 15.5145 -1.6
      vertex -4.82066 14.8365 -1.6
      vertex -1.4634 13.9233 1.11022e-16
    endloop
  endfacet
  facet normal -0.288395 0.647746 0.705162
    outer loop
      vertex -4.82066 14.8365 -1.6
      vertex -7.8 13.51 -1.6
      vertex -4.32624 13.3148 1.11022e-16
    endloop
  endfacet
  facet normal -0.147419 0.693552 0.705162
    outer loop
      vertex -1.4634 13.9233 1.11022e-16
      vertex -4.82066 14.8365 -1.6
      vertex -4.32624 13.3148 1.11022e-16
    endloop
  endfacet
  facet normal -0.416767 0.573631 0.705162
    outer loop
      vertex -7.8 13.51 -1.6
      vertex -10.4384 11.5931 -1.6
      vertex -7 12.1244 1.11022e-16
    endloop
  endfacet
  facet normal -0.288395 0.647746 0.705162
    outer loop
      vertex -4.32624 13.3148 1.11022e-16
      vertex -7.8 13.51 -1.6
      vertex -7 12.1244 1.11022e-16
    endloop
  endfacet
  facet normal -0.526924 0.474445 0.705162
    outer loop
      vertex -10.4384 11.5931 -1.6
      vertex -12.6207 9.16945 -1.6
      vertex -9.36783 10.404 1.11022e-16
    endloop
  endfacet
  facet normal -0.416767 0.573631 0.705162
    outer loop
      vertex -7 12.1244 1.11022e-16
      vertex -10.4384 11.5931 -1.6
      vertex -9.36783 10.404 1.11022e-16
    endloop
  endfacet
  facet normal -0.614052 0.354523 0.705162
    outer loop
      vertex -12.6207 9.16945 -1.6
      vertex -14.2513 6.34509 -1.6
      vertex -11.3262 8.22899 1.11022e-16
    endloop
  endfacet
  facet normal -0.526924 0.474445 0.705162
    outer loop
      vertex -9.36783 10.404 1.11022e-16
      vertex -12.6207 9.16945 -1.6
      vertex -11.3262 8.22899 1.11022e-16
    endloop
  endfacet
  facet normal -0.614052 0.354523 0.705162
    outer loop
      vertex -11.3262 8.22899 1.11022e-16
      vertex -14.2513 6.34509 -1.6
      vertex -12.7896 5.69431 1.11022e-16
    endloop
  endfacet
  facet normal 0 0 1
    outer loop
      vertex -15.2591 3.24342 5.85
      vertex -15.6 0 5.85
      vertex -15.2591 -3.24342 5.85
    endloop
  endfacet
  facet normal 0 0 1
    outer loop
      vertex -12.6207 -9.16945 5.85
      vertex -15.2591 3.24342 5.85
      vertex -14.2513 -6.34509 5.85
    endloop
  endfacet
  facet normal 0 0 1
    outer loop
      vertex -14.2513 -6.34509 5.85
      vertex -15.2591 3.24342 5.85
      vertex -15.2591 -3.24342 5.85
    endloop
  endfacet
  facet normal 0 0 1
    outer loop
      vertex -10.4384 -11.5931 5.85
      vertex -15.2591 3.24342 5.85
      vertex -12.6207 -9.16945 5.85
    endloop
  endfacet
  facet normal 0 0 1
    outer loop
      vertex -7.8 -13.51 5.85
      vertex -15.2591 3.24342 5.85
      vertex -10.4384 -11.5931 5.85
    endloop
  endfacet
  facet normal 0 0 1
    outer loop
      vertex -4.82066 -14.8365 5.85
      vertex -15.2591 3.24342 5.85
      vertex -7.8 -13.51 5.85
    endloop
  endfacet
  facet normal 0 0 1
    outer loop
      vertex -1.63064 -15.5145 5.85
      vertex -15.2591 3.24342 5.85
      vertex -4.82066 -14.8365 5.85
    endloop
  endfacet
  facet normal -0 0 1
    outer loop
      vertex 1.63064 -15.5145 5.85
      vertex -15.2591 3.24342 5.85
      vertex -1.63064 -15.5145 5.85
    endloop
  endfacet
  facet normal -0 0 1
    outer loop
      vertex 4.82066 -14.8365 5.85
      vertex -15.2591 3.24342 5.85
      vertex 1.63064 -15.5145 5.85
    endloop
  endfacet
  facet normal -0 0 1
    outer loop
      vertex 7.8 -13.51 5.85
      vertex -15.2591 3.24342 5.85
      vertex 4.82066 -14.8365 5.85
    endloop
  endfacet
  facet normal -0 0 1
    outer loop
      vertex 10.4384 -11.5931 5.85
      vertex -15.2591 3.24342 5.85
      vertex 7.8 -13.51 5.85
    endloop
  endfacet
  facet normal -0 -0 1
    outer loop
      vertex -1.81596 -3.56403 5.85
      vertex -15.2591 3.24342 5.85
      vertex 10.4384 -11.5931 5.85
    endloop
  endfacet
  facet normal 0 0 1
    outer loop
      vertex -1.81596 -3.56403 5.85
      vertex -2.35114 -3.23607 5.85
      vertex -15.2591 3.24342 5.85
    endloop
  endfacet
  facet normal 0 -0 1
    outer loop
      vertex 3.80423 -1.23607 5.85
      vertex 3.56403 -1.81596 5.85
      vertex 15.2591 -3.24342 5.85
    endloop
  endfacet
  facet normal 0 0 1
    outer loop
      vertex 2.35114 3.23607 5.85
      vertex 2.82843 2.82843 5.85
      vertex 15.2591 3.24342 5.85
    endloop
  endfacet
  facet normal 0 -0 1
    outer loop
      vertex 12.6207 9.16945 5.85
      vertex -15.2591 3.24342 5.85
      vertex 14.2513 6.34509 5.85
    endloop
  endfacet
  facet normal 0 -0 1
    outer loop
      vertex 10.4384 11.5931 5.85
      vertex -15.2591 3.24342 5.85
      vertex 12.6207 9.16945 5.85
    endloop
  endfacet
  facet normal 0 -0 1
    outer loop
      vertex 7.8 13.51 5.85
      vertex -15.2591 3.24342 5.85
      vertex 10.4384 11.5931 5.85
    endloop
  endfacet
  facet normal 0 -0 1
    outer loop
      vertex 4.82066 14.8365 5.85
      vertex -15.2591 3.24342 5.85
      vertex 7.8 13.51 5.85
    endloop
  endfacet
  facet normal 0 -0 1
    outer loop
      vertex 1.63064 15.5145 5.85
      vertex -15.2591 3.24342 5.85
      vertex 4.82066 14.8365 5.85
    endloop
  endfacet
  facet normal 0 -0 1
    outer loop
      vertex -1.63064 15.5145 5.85
      vertex -15.2591 3.24342 5.85
      vertex 1.63064 15.5145 5.85
    endloop
  endfacet
  facet normal 0 -0 1
    outer loop
      vertex -4.82066 14.8365 5.85
      vertex -15.2591 3.24342 5.85
      vertex -1.63064 15.5145 5.85
    endloop
  endfacet
  facet normal 0 -0 1
    outer loop
      vertex -7.8 13.51 5.85
      vertex -15.2591 3.24342 5.85
      vertex -4.82066 14.8365 5.85
    endloop
  endfacet
  facet normal 0 -0 1
    outer loop
      vertex -10.4384 11.5931 5.85
      vertex -15.2591 3.24342 5.85
      vertex -7.8 13.51 5.85
    endloop
  endfacet
  facet normal 0 -0 1
    outer loop
      vertex -12.6207 9.16945 5.85
      vertex -15.2591 3.24342 5.85
      vertex -10.4384 11.5931 5.85
    endloop
  endfacet
  facet normal 0 -0 1
    outer loop
      vertex -14.2513 6.34509 5.85
      vertex -15.2591 3.24342 5.85
      vertex -12.6207 9.16945 5.85
    endloop
  endfacet
  facet normal 0 -0 1
    outer loop
      vertex 1.23607 -3.80423 5.85
      vertex 0.625738 -3.95075 5.85
      vertex 12.6207 -9.16945 5.85
    endloop
  endfacet
  facet normal -0 0 1
    outer loop
      vertex -3.95075 0.625738 5.85
      vertex -15.2591 3.24342 5.85
      vertex -4 0 5.85
    endloop
  endfacet
  facet normal 0 0 1
    outer loop
      vertex -3.56403 1.81596 5.85
      vertex -3.23607 2.35114 5.85
      vertex -15.2591 3.24342 5.85
    endloop
  endfacet
  facet normal 0 -0 1
    outer loop
      vertex 3.95075 -0.625738 5.85
      vertex 3.80423 -1.23607 5.85
      vertex 15.2591 -3.24342 5.85
    endloop
  endfacet
  facet normal -0 0 1
    outer loop
      vertex -3.56403 1.81596 5.85
      vertex -15.2591 3.24342 5.85
      vertex -3.80423 1.23607 5.85
    endloop
  endfacet
  facet normal 0 -0 1
    outer loop
      vertex 4 0 5.85
      vertex 3.95075 -0.625738 5.85
      vertex 15.2591 -3.24342 5.85
    endloop
  endfacet
  facet normal 0 0 1
    outer loop
      vertex 1.81596 3.56403 5.85
      vertex 2.35114 3.23607 5.85
      vertex 15.2591 3.24342 5.85
    endloop
  endfacet
  facet normal -0 0 1
    outer loop
      vertex -2.82843 2.82843 5.85
      vertex -15.2591 3.24342 5.85
      vertex -3.23607 2.35114 5.85
    endloop
  endfacet
  facet normal -0 0 1
    outer loop
      vertex -2.35114 3.23607 5.85
      vertex -15.2591 3.24342 5.85
      vertex -2.82843 2.82843 5.85
    endloop
  endfacet
  facet normal 0 0 1
    outer loop
      vertex -0.625738 3.95075 5.85
      vertex 0 4 5.85
      vertex 14.2513 6.34509 5.85
    endloop
  endfacet
  facet normal 0 0 1
    outer loop
      vertex 3.80423 1.23607 5.85
      vertex 3.95075 0.625738 5.85
      vertex 15.6 0 5.85
    endloop
  endfacet
  facet normal 0 0 1
    outer loop
      vertex -1.23607 3.80423 5.85
      vertex -15.2591 3.24342 5.85
      vertex -1.81596 3.56403 5.85
    endloop
  endfacet
  facet normal 0 0 1
    outer loop
      vertex -0.625738 3.95075 5.85
      vertex -15.2591 3.24342 5.85
      vertex -1.23607 3.80423 5.85
    endloop
  endfacet
  facet normal 0 0 1
    outer loop
      vertex 0 4 5.85
      vertex 0.625738 3.95075 5.85
      vertex 14.2513 6.34509 5.85
    endloop
  endfacet
  facet normal 0 0 1
    outer loop
      vertex 14.2513 6.34509 5.85
      vertex -15.2591 3.24342 5.85
      vertex -0.625738 3.95075 5.85
    endloop
  endfacet
  facet normal 0 -0 1
    outer loop
      vertex 14.2513 6.34509 5.85
      vertex 0.625738 3.95075 5.85
      vertex 15.2591 3.24342 5.85
    endloop
  endfacet
  facet normal 0 0 1
    outer loop
      vertex 0.625738 3.95075 5.85
      vertex 1.23607 3.80423 5.85
      vertex 15.2591 3.24342 5.85
    endloop
  endfacet
  facet normal 0 0 1
    outer loop
      vertex 1.23607 3.80423 5.85
      vertex 1.81596 3.56403 5.85
      vertex 15.2591 3.24342 5.85
    endloop
  endfacet
  facet normal 0 0 1
    outer loop
      vertex 2.82843 2.82843 5.85
      vertex 3.23607 2.35114 5.85
      vertex 15.2591 3.24342 5.85
    endloop
  endfacet
  facet normal 0 0 1
    outer loop
      vertex 3.56403 1.81596 5.85
      vertex 3.80423 1.23607 5.85
      vertex 15.6 0 5.85
    endloop
  endfacet
  facet normal 0 -0 1
    outer loop
      vertex 15.2591 3.24342 5.85
      vertex 3.23607 2.35114 5.85
      vertex 15.6 0 5.85
    endloop
  endfacet
  facet normal 0 0 1
    outer loop
      vertex 3.23607 2.35114 5.85
      vertex 3.56403 1.81596 5.85
      vertex 15.6 0 5.85
    endloop
  endfacet
  facet normal 0 -0 1
    outer loop
      vertex 3.23607 -2.35114 5.85
      vertex 2.82843 -2.82843 5.85
      vertex 14.2513 -6.34509 5.85
    endloop
  endfacet
  facet normal 0 0 1
    outer loop
      vertex -2.35114 3.23607 5.85
      vertex -1.81596 3.56403 5.85
      vertex -15.2591 3.24342 5.85
    endloop
  endfacet
  facet normal -0 0 1
    outer loop
      vertex 15.6 0 5.85
      vertex 3.95075 0.625738 5.85
      vertex 15.2591 -3.24342 5.85
    endloop
  endfacet
  facet normal 0 0 1
    outer loop
      vertex 3.95075 0.625738 5.85
      vertex 4 0 5.85
      vertex 15.2591 -3.24342 5.85
    endloop
  endfacet
  facet normal -0 0 1
    outer loop
      vertex 15.2591 -3.24342 5.85
      vertex 3.56403 -1.81596 5.85
      vertex 14.2513 -6.34509 5.85
    endloop
  endfacet
  facet normal 0 -0 1
    outer loop
      vertex 3.56403 -1.81596 5.85
      vertex 3.23607 -2.35114 5.85
      vertex 14.2513 -6.34509 5.85
    endloop
  endfacet
  facet normal -0 0 1
    outer loop
      vertex 14.2513 -6.34509 5.85
      vertex 2.82843 -2.82843 5.85
      vertex 12.6207 -9.16945 5.85
    endloop
  endfacet
  facet normal 0 -0 1
    outer loop
      vertex 2.82843 -2.82843 5.85
      vertex 2.35114 -3.23607 5.85
      vertex 12.6207 -9.16945 5.85
    endloop
  endfacet
  facet normal 0 -0 1
    outer loop
      vertex 2.35114 -3.23607 5.85
      vertex 1.81596 -3.56403 5.85
      vertex 12.6207 -9.16945 5.85
    endloop
  endfacet
  facet normal -0 0 1
    outer loop
      vertex 12.6207 -9.16945 5.85
      vertex 0.625738 -3.95075 5.85
      vertex 10.4384 -11.5931 5.85
    endloop
  endfacet
  facet normal 0 -0 1
    outer loop
      vertex 0.625738 -3.95075 5.85
      vertex 0 -4 5.85
      vertex 10.4384 -11.5931 5.85
    endloop
  endfacet
  facet normal -0 -0 1
    outer loop
      vertex 0 -4 5.85
      vertex -0.625738 -3.95075 5.85
      vertex 10.4384 -11.5931 5.85
    endloop
  endfacet
  facet normal -0 -0 1
    outer loop
      vertex -0.625738 -3.95075 5.85
      vertex -1.23607 -3.80423 5.85
      vertex 10.4384 -11.5931 5.85
    endloop
  endfacet
  facet normal -0 -0 1
    outer loop
      vertex -1.23607 -3.80423 5.85
      vertex -1.81596 -3.56403 5.85
      vertex 10.4384 -11.5931 5.85
    endloop
  endfacet
  facet normal 0 0 1
    outer loop
      vertex -2.35114 -3.23607 5.85
      vertex -2.82843 -2.82843 5.85
      vertex -15.2591 3.24342 5.85
    endloop
  endfacet
  facet normal 0 0 1
    outer loop
      vertex -2.82843 -2.82843 5.85
      vertex -3.23607 -2.35114 5.85
      vertex -15.2591 3.24342 5.85
    endloop
  endfacet
  facet normal 0 0 1
    outer loop
      vertex -3.23607 -2.35114 5.85
      vertex -3.56403 -1.81596 5.85
      vertex -15.2591 3.24342 5.85
    endloop
  endfacet
  facet normal 0 0 1
    outer loop
      vertex -3.56403 -1.81596 5.85
      vertex -3.80423 -1.23607 5.85
      vertex -15.2591 3.24342 5.85
    endloop
  endfacet
  facet normal -0 -0 1
    outer loop
      vertex -3.95075 -0.625738 5.85
      vertex -15.2591 3.24342 5.85
      vertex -3.80423 -1.23607 5.85
    endloop
  endfacet
  facet normal 0 -0 1
    outer loop
      vertex 1.81596 -3.56403 5.85
      vertex 1.23607 -3.80423 5.85
      vertex 12.6207 -9.16945 5.85
    endloop
  endfacet
  facet normal 0 0 1
    outer loop
      vertex -3.95075 -0.625738 5.85
      vertex -4 0 5.85
      vertex -15.2591 3.24342 5.85
    endloop
  endfacet
  facet normal 0 0 1
    outer loop
      vertex -3.95075 0.625738 5.85
      vertex -3.80423 1.23607 5.85
      vertex -15.2591 3.24342 5.85
    endloop
  endfacet
  facet normal -0.674343 0.219107 -0.705162
    outer loop
      vertex -15.2591 3.24342 1.6
      vertex -14.2513 6.34509 1.6
      vertex -13.6941 2.91076 1.11022e-16
    endloop
  endfacet
  facet normal -0.705162 0.0741156 -0.705162
    outer loop
      vertex -14 2.25058e-16 1.11022e-16
      vertex -15.2591 3.24342 1.6
      vertex -13.6941 2.91076 1.11022e-16
    endloop
  endfacet
  facet normal -0.674343 0.219107 -0.705162
    outer loop
      vertex -13.6941 2.91076 1.11022e-16
      vertex -14.2513 6.34509 1.6
      vertex -12.7896 5.69431 1.11022e-16
    endloop
  endfacet
  facet normal -0.614052 0.354523 -0.705162
    outer loop
      vertex -14.2513 6.34509 1.6
      vertex -12.6207 9.16945 1.6
      vertex -12.7896 5.69431 1.11022e-16
    endloop
  endfacet
  facet normal -0.705162 0.0741154 -0.705162
    outer loop
      vertex -15.6 0 1.6
      vertex -15.2591 3.24342 1.6
      vertex -14 0 1.11022e-16
    endloop
  endfacet
  facet normal -3.423e-17 -3.35375e-24 -2.69369e-17
    outer loop
      vertex -14 0 1.11022e-16
      vertex -15.2591 3.24342 1.6
      vertex -14 2.25058e-16 1.11022e-16
    endloop
  endfacet
  facet normal -2.52469e-16 0 -2.52469e-16
    outer loop
      vertex -15.6 0 1.6
      vertex -14 0 1.11022e-16
      vertex -15.6 -4.0395e-16 1.6
    endloop
  endfacet
  facet normal -1.40661e-16 0 -1.40661e-16
    outer loop
      vertex -15.6 -4.0395e-16 1.6
      vertex -14 0 1.11022e-16
      vertex -14 -2.25058e-16 1.11022e-16
    endloop
  endfacet
  facet normal -0.705162 -0.0741156 -0.705162
    outer loop
      vertex -15.6 -4.0395e-16 1.6
      vertex -14 -2.25058e-16 1.11022e-16
      vertex -13.6941 -2.91076 1.11022e-16
    endloop
  endfacet
  facet normal -0.705162 -0.0741154 -0.705162
    outer loop
      vertex -15.6 -4.0395e-16 1.6
      vertex -13.6941 -2.91076 1.11022e-16
      vertex -15.2591 -3.24342 1.6
    endloop
  endfacet
  facet normal -0.674343 -0.219107 -0.705162
    outer loop
      vertex -15.2591 -3.24342 1.6
      vertex -13.6941 -2.91076 1.11022e-16
      vertex -12.7896 -5.69431 1.11022e-16
    endloop
  endfacet
  facet normal -0.674343 -0.219107 -0.705162
    outer loop
      vertex -15.2591 -3.24342 1.6
      vertex -12.7896 -5.69431 1.11022e-16
      vertex -14.2513 -6.34509 1.6
    endloop
  endfacet
  facet normal -0.614052 -0.354523 -0.705162
    outer loop
      vertex -14.2513 -6.34509 1.6
      vertex -12.7896 -5.69431 1.11022e-16
      vertex -11.3262 -8.22899 1.11022e-16
    endloop
  endfacet
  facet normal -0.614052 -0.354523 -0.705162
    outer loop
      vertex -14.2513 -6.34509 1.6
      vertex -11.3262 -8.22899 1.11022e-16
      vertex -12.6207 -9.16945 1.6
    endloop
  endfacet
  facet normal -0.526924 -0.474445 -0.705162
    outer loop
      vertex -12.6207 -9.16945 1.6
      vertex -11.3262 -8.22899 1.11022e-16
      vertex -9.36783 -10.404 1.11022e-16
    endloop
  endfacet
  facet normal -0.526924 -0.474445 -0.705162
    outer loop
      vertex -12.6207 -9.16945 1.6
      vertex -9.36783 -10.404 1.11022e-16
      vertex -10.4384 -11.5931 1.6
    endloop
  endfacet
  facet normal -0.416767 -0.573631 -0.705162
    outer loop
      vertex -10.4384 -11.5931 1.6
      vertex -9.36783 -10.404 1.11022e-16
      vertex -7 -12.1244 1.11022e-16
    endloop
  endfacet
  facet normal -0.416767 -0.573631 -0.705162
    outer loop
      vertex -10.4384 -11.5931 1.6
      vertex -7 -12.1244 1.11022e-16
      vertex -7.8 -13.51 1.6
    endloop
  endfacet
  facet normal -0.288395 -0.647746 -0.705162
    outer loop
      vertex -7.8 -13.51 1.6
      vertex -7 -12.1244 1.11022e-16
      vertex -4.32624 -13.3148 1.11022e-16
    endloop
  endfacet
  facet normal -0.288395 -0.647746 -0.705162
    outer loop
      vertex -7.8 -13.51 1.6
      vertex -4.32624 -13.3148 1.11022e-16
      vertex -4.82066 -14.8365 1.6
    endloop
  endfacet
  facet normal -0.147419 -0.693552 -0.705162
    outer loop
      vertex -4.82066 -14.8365 1.6
      vertex -4.32624 -13.3148 1.11022e-16
      vertex -1.4634 -13.9233 1.11022e-16
    endloop
  endfacet
  facet normal -0.147419 -0.693552 -0.705162
    outer loop
      vertex -4.82066 -14.8365 1.6
      vertex -1.4634 -13.9233 1.11022e-16
      vertex -1.63064 -15.5145 1.6
    endloop
  endfacet
  facet normal 0 -0.709046 -0.705162
    outer loop
      vertex 1.63064 -15.5145 1.6
      vertex -1.63064 -15.5145 1.6
      vertex -1.4634 -13.9233 1.11022e-16
    endloop
  endfacet
  facet normal 0 -0.709046 -0.705162
    outer loop
      vertex 1.4634 -13.9233 1.11022e-16
      vertex 1.63064 -15.5145 1.6
      vertex -1.4634 -13.9233 1.11022e-16
    endloop
  endfacet
  facet normal 0.147419 -0.693552 -0.705162
    outer loop
      vertex 1.63064 -15.5145 1.6
      vertex 1.4634 -13.9233 1.11022e-16
      vertex 4.32624 -13.3148 1.11022e-16
    endloop
  endfacet
  facet normal 0.147419 -0.693552 -0.705162
    outer loop
      vertex 1.63064 -15.5145 1.6
      vertex 4.32624 -13.3148 1.11022e-16
      vertex 4.82066 -14.8365 1.6
    endloop
  endfacet
  facet normal 0.288395 -0.647746 -0.705162
    outer loop
      vertex 4.82066 -14.8365 1.6
      vertex 4.32624 -13.3148 1.11022e-16
      vertex 7 -12.1244 1.11022e-16
    endloop
  endfacet
  facet normal 0.288395 -0.647746 -0.705162
    outer loop
      vertex 4.82066 -14.8365 1.6
      vertex 7 -12.1244 1.11022e-16
      vertex 7.8 -13.51 1.6
    endloop
  endfacet
  facet normal 0.416767 -0.573631 -0.705162
    outer loop
      vertex 7.8 -13.51 1.6
      vertex 7 -12.1244 1.11022e-16
      vertex 9.36783 -10.404 1.11022e-16
    endloop
  endfacet
  facet normal 0.416767 -0.573631 -0.705162
    outer loop
      vertex 7.8 -13.51 1.6
      vertex 9.36783 -10.404 1.11022e-16
      vertex 10.4384 -11.5931 1.6
    endloop
  endfacet
  facet normal 0.526924 -0.474445 -0.705162
    outer loop
      vertex 10.4384 -11.5931 1.6
      vertex 9.36783 -10.404 1.11022e-16
      vertex 11.3262 -8.22899 1.11022e-16
    endloop
  endfacet
  facet normal 0.526924 -0.474445 -0.705162
    outer loop
      vertex 10.4384 -11.5931 1.6
      vertex 11.3262 -8.22899 1.11022e-16
      vertex 12.6207 -9.16945 1.6
    endloop
  endfacet
  facet normal 0.614052 -0.354523 -0.705162
    outer loop
      vertex 12.6207 -9.16945 1.6
      vertex 11.3262 -8.22899 1.11022e-16
      vertex 12.7896 -5.69431 1.11022e-16
    endloop
  endfacet
  facet normal 0.614052 -0.354523 -0.705162
    outer loop
      vertex 12.6207 -9.16945 1.6
      vertex 12.7896 -5.69431 1.11022e-16
      vertex 14.2513 -6.34509 1.6
    endloop
  endfacet
  facet normal 0.674343 -0.219107 -0.705162
    outer loop
      vertex 14.2513 -6.34509 1.6
      vertex 12.7896 -5.69431 1.11022e-16
      vertex 13.6941 -2.91076 1.11022e-16
    endloop
  endfacet
  facet normal 0.674343 -0.219107 -0.705162
    outer loop
      vertex 14.2513 -6.34509 1.6
      vertex 13.6941 -2.91076 1.11022e-16
      vertex 15.2591 -3.24342 1.6
    endloop
  endfacet
  facet normal 0.705162 -0.0741156 -0.705162
    outer loop
      vertex 15.2591 -3.24342 1.6
      vertex 13.6941 -2.91076 1.11022e-16
      vertex 14 -2.25058e-16 1.11022e-16
    endloop
  endfacet
  facet normal 5.47793e-17 0 -4.3097e-17
    outer loop
      vertex 15.2591 -3.24342 1.6
      vertex 14 -2.25058e-16 1.11022e-16
      vertex 14 0 1.11022e-16
    endloop
  endfacet
  facet normal 0.705162 -0.0741154 -0.705162
    outer loop
      vertex 15.6 0 1.6
      vertex 15.2591 -3.24342 1.6
      vertex 14 0 1.11022e-16
    endloop
  endfacet
  facet normal 0.705162 0.0741156 -0.705162
    outer loop
      vertex 14 2.25058e-16 1.11022e-16
      vertex 13.6941 2.91076 1.11022e-16
      vertex 15.6 4.0395e-16 1.6
    endloop
  endfacet
  facet normal 1.40661e-16 1.75128e-23 -1.40661e-16
    outer loop
      vertex 14 0 1.11022e-16
      vertex 14 2.25058e-16 1.11022e-16
      vertex 15.6 0 1.6
    endloop
  endfacet
  facet normal 2.52469e-16 0 -2.52469e-16
    outer loop
      vertex 15.6 0 1.6
      vertex 14 2.25058e-16 1.11022e-16
      vertex 15.6 4.0395e-16 1.6
    endloop
  endfacet
  facet normal 0.705162 0.0741154 -0.705162
    outer loop
      vertex 13.6941 2.91076 1.11022e-16
      vertex 15.2591 3.24342 1.6
      vertex 15.6 4.0395e-16 1.6
    endloop
  endfacet
  facet normal 0.674343 0.219107 -0.705162
    outer loop
      vertex 12.7896 5.69431 1.11022e-16
      vertex 15.2591 3.24342 1.6
      vertex 13.6941 2.91076 1.11022e-16
    endloop
  endfacet
  facet normal 0.674343 0.219107 -0.705162
    outer loop
      vertex 12.7896 5.69431 1.11022e-16
      vertex 14.2513 6.34509 1.6
      vertex 15.2591 3.24342 1.6
    endloop
  endfacet
  facet normal 0.614052 0.354523 -0.705162
    outer loop
      vertex 11.3262 8.22899 1.11022e-16
      vertex 14.2513 6.34509 1.6
      vertex 12.7896 5.69431 1.11022e-16
    endloop
  endfacet
  facet normal 0.526924 0.474445 -0.705162
    outer loop
      vertex 9.36783 10.404 1.11022e-16
      vertex 12.6207 9.16945 1.6
      vertex 11.3262 8.22899 1.11022e-16
    endloop
  endfacet
  facet normal 0.614052 0.354523 -0.705162
    outer loop
      vertex 11.3262 8.22899 1.11022e-16
      vertex 12.6207 9.16945 1.6
      vertex 14.2513 6.34509 1.6
    endloop
  endfacet
  facet normal 0.416767 0.573631 -0.705162
    outer loop
      vertex 7 12.1244 1.11022e-16
      vertex 10.4384 11.5931 1.6
      vertex 9.36783 10.404 1.11022e-16
    endloop
  endfacet
  facet normal 0.526924 0.474445 -0.705162
    outer loop
      vertex 9.36783 10.404 1.11022e-16
      vertex 10.4384 11.5931 1.6
      vertex 12.6207 9.16945 1.6
    endloop
  endfacet
  facet normal 0.288395 0.647746 -0.705162
    outer loop
      vertex 4.32624 13.3148 1.11022e-16
      vertex 7.8 13.51 1.6
      vertex 7 12.1244 1.11022e-16
    endloop
  endfacet
  facet normal 0.416767 0.573631 -0.705162
    outer loop
      vertex 7 12.1244 1.11022e-16
      vertex 7.8 13.51 1.6
      vertex 10.4384 11.5931 1.6
    endloop
  endfacet
  facet normal 0.288395 0.647746 -0.705162
    outer loop
      vertex 4.32624 13.3148 1.11022e-16
      vertex 4.82066 14.8365 1.6
      vertex 7.8 13.51 1.6
    endloop
  endfacet
  facet normal 0.147419 0.693552 -0.705162
    outer loop
      vertex 1.4634 13.9233 1.11022e-16
      vertex 4.82066 14.8365 1.6
      vertex 4.32624 13.3148 1.11022e-16
    endloop
  endfacet
  facet normal 0 0.709046 -0.705162
    outer loop
      vertex -1.63064 15.5145 1.6
      vertex 1.63064 15.5145 1.6
      vertex -1.4634 13.9233 1.11022e-16
    endloop
  endfacet
  facet normal 0 0.709046 -0.705162
    outer loop
      vertex -1.4634 13.9233 1.11022e-16
      vertex 1.63064 15.5145 1.6
      vertex 1.4634 13.9233 1.11022e-16
    endloop
  endfacet
  facet normal 0.147419 0.693552 -0.705162
    outer loop
      vertex 1.4634 13.9233 1.11022e-16
      vertex 1.63064 15.5145 1.6
      vertex 4.82066 14.8365 1.6
    endloop
  endfacet
  facet normal -0.147419 0.693552 -0.705162
    outer loop
      vertex -4.32624 13.3148 1.11022e-16
      vertex -1.63064 15.5145 1.6
      vertex -1.4634 13.9233 1.11022e-16
    endloop
  endfacet
  facet normal -0.147419 0.693552 -0.705162
    outer loop
      vertex -4.82066 14.8365 1.6
      vertex -1.63064 15.5145 1.6
      vertex -4.32624 13.3148 1.11022e-16
    endloop
  endfacet
  facet normal -0.288395 0.647746 -0.705162
    outer loop
      vertex -7 12.1244 1.11022e-16
      vertex -4.82066 14.8365 1.6
      vertex -4.32624 13.3148 1.11022e-16
    endloop
  endfacet
  facet normal -0.288395 0.647746 -0.705162
    outer loop
      vertex -7.8 13.51 1.6
      vertex -4.82066 14.8365 1.6
      vertex -7 12.1244 1.11022e-16
    endloop
  endfacet
  facet normal -0.416767 0.573631 -0.705162
    outer loop
      vertex -9.36783 10.404 1.11022e-16
      vertex -7.8 13.51 1.6
      vertex -7 12.1244 1.11022e-16
    endloop
  endfacet
  facet normal -0.416767 0.573631 -0.705162
    outer loop
      vertex -10.4384 11.5931 1.6
      vertex -7.8 13.51 1.6
      vertex -9.36783 10.404 1.11022e-16
    endloop
  endfacet
  facet normal -0.526924 0.474445 -0.705162
    outer loop
      vertex -11.3262 8.22899 1.11022e-16
      vertex -10.4384 11.5931 1.6
      vertex -9.36783 10.404 1.11022e-16
    endloop
  endfacet
  facet normal -0.614052 0.354523 -0.705162
    outer loop
      vertex -12.7896 5.69431 1.11022e-16
      vertex -12.6207 9.16945 1.6
      vertex -11.3262 8.22899 1.11022e-16
    endloop
  endfacet
  facet normal -0.526924 0.474445 -0.705162
    outer loop
      vertex -12.6207 9.16945 1.6
      vertex -10.4384 11.5931 1.6
      vertex -11.3262 8.22899 1.11022e-16
    endloop
  endfacet
  facet normal -0.994522 0.104528 0
    outer loop
      vertex -15.6 0 1.6
      vertex -15.6 0 5.85
      vertex -15.2591 3.24342 1.6
    endloop
  endfacet
  facet normal -0.994522 0.104528 0
    outer loop
      vertex -15.2591 3.24342 1.6
      vertex -15.6 0 5.85
      vertex -15.2591 3.24342 5.85
    endloop
  endfacet
  facet normal -0.951056 0.309017 0
    outer loop
      vertex -15.2591 3.24342 1.6
      vertex -15.2591 3.24342 5.85
      vertex -14.2513 6.34509 1.6
    endloop
  endfacet
  facet normal -0.951056 0.309017 0
    outer loop
      vertex -14.2513 6.34509 1.6
      vertex -15.2591 3.24342 5.85
      vertex -14.2513 6.34509 5.85
    endloop
  endfacet
  facet normal -0.866025 0.5 0
    outer loop
      vertex -14.2513 6.34509 1.6
      vertex -14.2513 6.34509 5.85
      vertex -12.6207 9.16945 1.6
    endloop
  endfacet
  facet normal -0.866025 0.5 0
    outer loop
      vertex -12.6207 9.16945 1.6
      vertex -14.2513 6.34509 5.85
      vertex -12.6207 9.16945 5.85
    endloop
  endfacet
  facet normal -0.743145 0.669131 0
    outer loop
      vertex -12.6207 9.16945 1.6
      vertex -12.6207 9.16945 5.85
      vertex -10.4384 11.5931 1.6
    endloop
  endfacet
  facet normal -0.743145 0.669131 0
    outer loop
      vertex -10.4384 11.5931 1.6
      vertex -12.6207 9.16945 5.85
      vertex -10.4384 11.5931 5.85
    endloop
  endfacet
  facet normal -0.587785 0.809017 0
    outer loop
      vertex -10.4384 11.5931 1.6
      vertex -10.4384 11.5931 5.85
      vertex -7.8 13.51 1.6
    endloop
  endfacet
  facet normal -0.587785 0.809017 0
    outer loop
      vertex -7.8 13.51 1.6
      vertex -10.4384 11.5931 5.85
      vertex -7.8 13.51 5.85
    endloop
  endfacet
  facet normal -0.406737 0.913545 0
    outer loop
      vertex -7.8 13.51 1.6
      vertex -7.8 13.51 5.85
      vertex -4.82066 14.8365 1.6
    endloop
  endfacet
  facet normal -0.406737 0.913545 0
    outer loop
      vertex -4.82066 14.8365 1.6
      vertex -7.8 13.51 5.85
      vertex -4.82066 14.8365 5.85
    endloop
  endfacet
  facet normal -0.207912 0.978148 0
    outer loop
      vertex -4.82066 14.8365 1.6
      vertex -4.82066 14.8365 5.85
      vertex -1.63064 15.5145 1.6
    endloop
  endfacet
  facet normal -0.207912 0.978148 0
    outer loop
      vertex -1.63064 15.5145 1.6
      vertex -4.82066 14.8365 5.85
      vertex -1.63064 15.5145 5.85
    endloop
  endfacet
  facet normal 0 1 0
    outer loop
      vertex -1.63064 15.5145 1.6
      vertex -1.63064 15.5145 5.85
      vertex 1.63064 15.5145 1.6
    endloop
  endfacet
  facet normal 0 1 0
    outer loop
      vertex 1.63064 15.5145 1.6
      vertex -1.63064 15.5145 5.85
      vertex 1.63064 15.5145 5.85
    endloop
  endfacet
  facet normal 0.207912 0.978148 0
    outer loop
      vertex 1.63064 15.5145 1.6
      vertex 1.63064 15.5145 5.85
      vertex 4.82066 14.8365 1.6
    endloop
  endfacet
  facet normal 0.207912 0.978148 0
    outer loop
      vertex 4.82066 14.8365 1.6
      vertex 1.63064 15.5145 5.85
      vertex 4.82066 14.8365 5.85
    endloop
  endfacet
  facet normal 0.406737 0.913545 0
    outer loop
      vertex 4.82066 14.8365 1.6
      vertex 4.82066 14.8365 5.85
      vertex 7.8 13.51 1.6
    endloop
  endfacet
  facet normal 0.406737 0.913545 0
    outer loop
      vertex 7.8 13.51 1.6
      vertex 4.82066 14.8365 5.85
      vertex 7.8 13.51 5.85
    endloop
  endfacet
  facet normal 0.587785 0.809017 0
    outer loop
      vertex 7.8 13.51 1.6
      vertex 7.8 13.51 5.85
      vertex 10.4384 11.5931 1.6
    endloop
  endfacet
  facet normal 0.587785 0.809017 0
    outer loop
      vertex 10.4384 11.5931 1.6
      vertex 7.8 13.51 5.85
      vertex 10.4384 11.5931 5.85
    endloop
  endfacet
  facet normal 0.743145 0.669131 0
    outer loop
      vertex 12.6207 9.16945 1.6
      vertex 10.4384 11.5931 1.6
      vertex 10.4384 11.5931 5.85
    endloop
  endfacet
  facet normal 0.743145 0.669131 -0
    outer loop
      vertex 12.6207 9.16945 5.85
      vertex 12.6207 9.16945 1.6
      vertex 10.4384 11.5931 5.85
    endloop
  endfacet
  facet normal 0.866025 0.5 0
    outer loop
      vertex 14.2513 6.34509 1.6
      vertex 12.6207 9.16945 1.6
      vertex 12.6207 9.16945 5.85
    endloop
  endfacet
  facet normal 0.866025 0.5 -0
    outer loop
      vertex 14.2513 6.34509 5.85
      vertex 14.2513 6.34509 1.6
      vertex 12.6207 9.16945 5.85
    endloop
  endfacet
  facet normal 0.951056 0.309017 0
    outer loop
      vertex 15.2591 3.24342 1.6
      vertex 14.2513 6.34509 1.6
      vertex 14.2513 6.34509 5.85
    endloop
  endfacet
  facet normal 0.951056 0.309017 -0
    outer loop
      vertex 15.2591 3.24342 5.85
      vertex 15.2591 3.24342 1.6
      vertex 14.2513 6.34509 5.85
    endloop
  endfacet
  facet normal 0.994522 0.104528 0
    outer loop
      vertex 15.6 0 1.6
      vertex 15.2591 3.24342 1.6
      vertex 15.2591 3.24342 5.85
    endloop
  endfacet
  facet normal 0.994522 0.104528 -0
    outer loop
      vertex 15.6 0 5.85
      vertex 15.6 0 1.6
      vertex 15.2591 3.24342 5.85
    endloop
  endfacet
  facet normal 0.994522 -0.104528 0
    outer loop
      vertex 15.2591 -3.24342 5.85
      vertex 15.2591 -3.24342 1.6
      vertex 15.6 0 1.6
    endloop
  endfacet
  facet normal 0.994522 -0.104528 0
    outer loop
      vertex 15.6 0 5.85
      vertex 15.2591 -3.24342 5.85
      vertex 15.6 0 1.6
    endloop
  endfacet
  facet normal 0.951056 -0.309017 0
    outer loop
      vertex 14.2513 -6.34509 5.85
      vertex 14.2513 -6.34509 1.6
      vertex 15.2591 -3.24342 1.6
    endloop
  endfacet
  facet normal 0.951056 -0.309017 0
    outer loop
      vertex 15.2591 -3.24342 5.85
      vertex 14.2513 -6.34509 5.85
      vertex 15.2591 -3.24342 1.6
    endloop
  endfacet
  facet normal 0.866025 -0.5 0
    outer loop
      vertex 12.6207 -9.16945 5.85
      vertex 12.6207 -9.16945 1.6
      vertex 14.2513 -6.34509 1.6
    endloop
  endfacet
  facet normal 0.866025 -0.5 0
    outer loop
      vertex 14.2513 -6.34509 5.85
      vertex 12.6207 -9.16945 5.85
      vertex 14.2513 -6.34509 1.6
    endloop
  endfacet
  facet normal 0.743145 -0.669131 0
    outer loop
      vertex 10.4384 -11.5931 5.85
      vertex 10.4384 -11.5931 1.6
      vertex 12.6207 -9.16945 1.6
    endloop
  endfacet
  facet normal 0.743145 -0.669131 0
    outer loop
      vertex 12.6207 -9.16945 5.85
      vertex 10.4384 -11.5931 5.85
      vertex 12.6207 -9.16945 1.6
    endloop
  endfacet
  facet normal 0.587785 -0.809017 0
    outer loop
      vertex 7.8 -13.51 5.85
      vertex 7.8 -13.51 1.6
      vertex 10.4384 -11.5931 1.6
    endloop
  endfacet
  facet normal 0.587785 -0.809017 0
    outer loop
      vertex 10.4384 -11.5931 5.85
      vertex 7.8 -13.51 5.85
      vertex 10.4384 -11.5931 1.6
    endloop
  endfacet
  facet normal 0.406737 -0.913545 0
    outer loop
      vertex 4.82066 -14.8365 5.85
      vertex 4.82066 -14.8365 1.6
      vertex 7.8 -13.51 1.6
    endloop
  endfacet
  facet normal 0.406737 -0.913545 0
    outer loop
      vertex 7.8 -13.51 5.85
      vertex 4.82066 -14.8365 5.85
      vertex 7.8 -13.51 1.6
    endloop
  endfacet
  facet normal 0.207912 -0.978148 0
    outer loop
      vertex 1.63064 -15.5145 5.85
      vertex 1.63064 -15.5145 1.6
      vertex 4.82066 -14.8365 1.6
    endloop
  endfacet
  facet normal 0.207912 -0.978148 0
    outer loop
      vertex 4.82066 -14.8365 5.85
      vertex 1.63064 -15.5145 5.85
      vertex 4.82066 -14.8365 1.6
    endloop
  endfacet
  facet normal 0 -1 0
    outer loop
      vertex -1.63064 -15.5145 5.85
      vertex -1.63064 -15.5145 1.6
      vertex 1.63064 -15.5145 1.6
    endloop
  endfacet
  facet normal 0 -1 0
    outer loop
      vertex 1.63064 -15.5145 5.85
      vertex -1.63064 -15.5145 5.85
      vertex 1.63064 -15.5145 1.6
    endloop
  endfacet
  facet normal -0.207912 -0.978148 0
    outer loop
      vertex -4.82066 -14.8365 5.85
      vertex -4.82066 -14.8365 1.6
      vertex -1.63064 -15.5145 1.6
    endloop
  endfacet
  facet normal -0.207912 -0.978148 0
    outer loop
      vertex -1.63064 -15.5145 5.85
      vertex -4.82066 -14.8365 5.85
      vertex -1.63064 -15.5145 1.6
    endloop
  endfacet
  facet normal -0.406737 -0.913545 0
    outer loop
      vertex -7.8 -13.51 5.85
      vertex -7.8 -13.51 1.6
      vertex -4.82066 -14.8365 1.6
    endloop
  endfacet
  facet normal -0.406737 -0.913545 0
    outer loop
      vertex -4.82066 -14.8365 5.85
      vertex -7.8 -13.51 5.85
      vertex -4.82066 -14.8365 1.6
    endloop
  endfacet
  facet normal -0.587785 -0.809017 0
    outer loop
      vertex -10.4384 -11.5931 5.85
      vertex -10.4384 -11.5931 1.6
      vertex -7.8 -13.51 1.6
    endloop
  endfacet
  facet normal -0.587785 -0.809017 0
    outer loop
      vertex -7.8 -13.51 5.85
      vertex -10.4384 -11.5931 5.85
      vertex -7.8 -13.51 1.6
    endloop
  endfacet
  facet normal -0.743145 -0.669131 -0
    outer loop
      vertex -12.6207 -9.16945 1.6
      vertex -10.4384 -11.5931 1.6
      vertex -12.6207 -9.16945 5.85
    endloop
  endfacet
  facet normal -0.743145 -0.669131 0
    outer loop
      vertex -12.6207 -9.16945 5.85
      vertex -10.4384 -11.5931 1.6
      vertex -10.4384 -11.5931 5.85
    endloop
  endfacet
  facet normal -0.866025 -0.5 -0
    outer loop
      vertex -14.2513 -6.34509 1.6
      vertex -12.6207 -9.16945 1.6
      vertex -14.2513 -6.34509 5.85
    endloop
  endfacet
  facet normal -0.866025 -0.5 0
    outer loop
      vertex -14.2513 -6.34509 5.85
      vertex -12.6207 -9.16945 1.6
      vertex -12.6207 -9.16945 5.85
    endloop
  endfacet
  facet normal -0.951056 -0.309017 -0
    outer loop
      vertex -15.2591 -3.24342 1.6
      vertex -14.2513 -6.34509 1.6
      vertex -15.2591 -3.24342 5.85
    endloop
  endfacet
  facet normal -0.951056 -0.309017 0
    outer loop
      vertex -15.2591 -3.24342 5.85
      vertex -14.2513 -6.34509 1.6
      vertex -14.2513 -6.34509 5.85
    endloop
  endfacet
  facet normal -0.994522 -0.104528 -0
    outer loop
      vertex -15.6 0 1.6
      vertex -15.2591 -3.24342 1.6
      vertex -15.6 0 5.85
    endloop
  endfacet
  facet normal -0.994522 -0.104528 0
    outer loop
      vertex -15.6 0 5.85
      vertex -15.2591 -3.24342 1.6
      vertex -15.2591 -3.24342 5.85
    endloop
  endfacet
  facet normal 0 -0 1.30901e-17
    outer loop
      vertex -15.6 0 1.6
      vertex -15.6 -4.0395e-16 1.6
      vertex -15.2591 -3.24342 1.6
    endloop
  endfacet
  facet normal -0 0 1.30901e-17
    outer loop
      vertex 15.6 4.0395e-16 1.6
      vertex 15.2591 3.24342 1.6
      vertex 15.6 0 1.6
    endloop
  endfacet
endsolid OpenSCAD_Model
